%TF.GenerationSoftware,KiCad,Pcbnew,10.0.4*%
%TF.CreationDate,2026-06-30T23:48:36-07:00*%
%TF.ProjectId,esp32-breadboard-board,65737033-322d-4627-9265-6164626f6172,rev?*%
%TF.SameCoordinates,Original*%
%TF.FileFunction,Soldermask,Bot*%
%TF.FilePolarity,Negative*%
%FSLAX46Y46*%
G04 Gerber Fmt 4.6, Leading zero omitted, Abs format (unit mm)*
G04 Created by KiCad (PCBNEW 10.0.4) date 2026-06-30 23:48:36*
%MOMM*%
%LPD*%
G01*
G04 APERTURE LIST*
G04 Aperture macros list*
%AMRoundRect*
0 Rectangle with rounded corners*
0 $1 Rounding radius*
0 $2 $3 $4 $5 $6 $7 $8 $9 X,Y pos of 4 corners*
0 Add a 4 corners polygon primitive as box body*
4,1,4,$2,$3,$4,$5,$6,$7,$8,$9,$2,$3,0*
0 Add four circle primitives for the rounded corners*
1,1,$1+$1,$2,$3*
1,1,$1+$1,$4,$5*
1,1,$1+$1,$6,$7*
1,1,$1+$1,$8,$9*
0 Add four rect primitives between the rounded corners*
20,1,$1+$1,$2,$3,$4,$5,0*
20,1,$1+$1,$4,$5,$6,$7,0*
20,1,$1+$1,$6,$7,$8,$9,0*
20,1,$1+$1,$8,$9,$2,$3,0*%
G04 Aperture macros list end*
%ADD10R,1.700000X1.700000*%
%ADD11C,1.700000*%
%ADD12C,0.400000*%
%ADD13C,0.750000*%
%ADD14O,1.200000X2.000000*%
%ADD15O,1.200000X1.800000*%
%ADD16RoundRect,0.140000X-0.140000X-0.170000X0.140000X-0.170000X0.140000X0.170000X-0.140000X0.170000X0*%
%ADD17RoundRect,0.225000X-0.225000X-0.250000X0.225000X-0.250000X0.225000X0.250000X-0.225000X0.250000X0*%
G04 APERTURE END LIST*
D10*
%TO.C,J2*%
X152000000Y-71860000D03*
D11*
X152000000Y-74400000D03*
X152000000Y-76940000D03*
X152000000Y-79480000D03*
X152000000Y-82020000D03*
X152000000Y-84560000D03*
X152000000Y-87100000D03*
X152000000Y-89640000D03*
X152000000Y-92180000D03*
X152000000Y-94720000D03*
X152000000Y-97260000D03*
X152000000Y-99800000D03*
X152000000Y-102340000D03*
X152000000Y-104880000D03*
X152000000Y-107420000D03*
X152000000Y-109960000D03*
X152000000Y-112500000D03*
X152000000Y-115040000D03*
X152000000Y-117580000D03*
X152000000Y-120120000D03*
%TD*%
D12*
%TO.C,U1*%
X157600000Y-57890000D03*
X157600000Y-59290000D03*
X158300000Y-57190000D03*
X158300000Y-58590000D03*
X158300000Y-59990000D03*
X159000000Y-57890000D03*
X159000000Y-59290000D03*
X159700000Y-57190000D03*
X159700000Y-58590000D03*
X159700000Y-59990000D03*
X160400000Y-57890000D03*
X160400000Y-59290000D03*
%TD*%
D10*
%TO.C,J3*%
X169000000Y-71900000D03*
D11*
X169000000Y-74440000D03*
X169000000Y-76980000D03*
X169000000Y-79520000D03*
X169000000Y-82060000D03*
X169000000Y-84600000D03*
X169000000Y-87140000D03*
X169000000Y-89680000D03*
X169000000Y-92220000D03*
X169000000Y-94760000D03*
X169000000Y-97300000D03*
X169000000Y-99840000D03*
X169000000Y-102380000D03*
X169000000Y-104920000D03*
X169000000Y-107460000D03*
X169000000Y-110000000D03*
X169000000Y-112540000D03*
X169000000Y-115080000D03*
X169000000Y-117620000D03*
X169000000Y-120160000D03*
%TD*%
D13*
%TO.C,USBC1*%
X157600000Y-116767544D03*
X163400000Y-116767544D03*
D14*
X156170000Y-116267544D03*
D15*
X156170000Y-120447544D03*
D14*
X164830000Y-116267544D03*
D15*
X164830000Y-120447544D03*
%TD*%
D16*
%TO.C,C12*%
X154040000Y-53500000D03*
X155000000Y-53500000D03*
%TD*%
D17*
%TO.C,C11*%
X154324695Y-52253318D03*
X155874695Y-52253318D03*
%TD*%
M02*
