%TF.GenerationSoftware,KiCad,Pcbnew,10.0.4*%
%TF.CreationDate,2026-06-30T23:48:36-07:00*%
%TF.ProjectId,esp32-breadboard-board,65737033-322d-4627-9265-6164626f6172,rev?*%
%TF.SameCoordinates,Original*%
%TF.FileFunction,Copper,L1,Top*%
%TF.FilePolarity,Positive*%
%FSLAX46Y46*%
G04 Gerber Fmt 4.6, Leading zero omitted, Abs format (unit mm)*
G04 Created by KiCad (PCBNEW 10.0.4) date 2026-06-30 23:48:36*
%MOMM*%
%LPD*%
G01*
G04 APERTURE LIST*
G04 Aperture macros list*
%AMRoundRect*
0 Rectangle with rounded corners*
0 $1 Rounding radius*
0 $2 $3 $4 $5 $6 $7 $8 $9 X,Y pos of 4 corners*
0 Add a 4 corners polygon primitive as box body*
4,1,4,$2,$3,$4,$5,$6,$7,$8,$9,$2,$3,0*
0 Add four circle primitives for the rounded corners*
1,1,$1+$1,$2,$3*
1,1,$1+$1,$4,$5*
1,1,$1+$1,$6,$7*
1,1,$1+$1,$8,$9*
0 Add four rect primitives between the rounded corners*
20,1,$1+$1,$2,$3,$4,$5,0*
20,1,$1+$1,$4,$5,$6,$7,0*
20,1,$1+$1,$6,$7,$8,$9,0*
20,1,$1+$1,$8,$9,$2,$3,0*%
%AMFreePoly0*
4,1,17,0.335278,0.685443,0.349923,0.650088,0.349923,-0.649935,0.335278,-0.685290,0.299923,-0.699935,0.000318,-0.699935,-0.000051,-0.700088,-0.300050,-0.700088,-0.335405,-0.685443,-0.350050,-0.650088,-0.350050,0.649935,-0.335405,0.685290,-0.300050,0.699935,-0.000445,0.699935,-0.000076,0.700088,0.299923,0.700088,0.335278,0.685443,0.335278,0.685443,$1*%
%AMFreePoly1*
4,1,17,0.335431,0.685290,0.350076,0.649935,0.350076,-0.650037,0.335431,-0.685392,0.300076,-0.700037,0.000187,-0.700037,0.000127,-0.700062,-0.299898,-0.700062,-0.335253,-0.685417,-0.349898,-0.650062,-0.349898,0.649910,-0.335253,0.685265,-0.299898,0.699910,-0.000009,0.699910,0.000051,0.699935,0.300076,0.699935,0.335431,0.685290,0.335431,0.685290,$1*%
%AMFreePoly2*
4,1,13,0.335227,0.685443,0.349872,0.650088,0.349872,-0.649884,0.335227,-0.685239,0.299872,-0.699884,-0.300152,-0.699884,-0.335507,-0.685239,-0.350152,-0.649884,-0.350152,0.650088,-0.335507,0.685443,-0.300152,0.700088,0.299872,0.700088,0.335227,0.685443,0.335227,0.685443,$1*%
G04 Aperture macros list end*
%TA.AperFunction,SMDPad,CuDef*%
%ADD10RoundRect,0.375000X-0.625000X-0.375000X0.625000X-0.375000X0.625000X0.375000X-0.625000X0.375000X0*%
%TD*%
%TA.AperFunction,SMDPad,CuDef*%
%ADD11RoundRect,0.500000X-0.500000X-1.400000X0.500000X-1.400000X0.500000X1.400000X-0.500000X1.400000X0*%
%TD*%
%TA.AperFunction,SMDPad,CuDef*%
%ADD12RoundRect,0.140000X-0.170000X0.140000X-0.170000X-0.140000X0.170000X-0.140000X0.170000X0.140000X0*%
%TD*%
%TA.AperFunction,SMDPad,CuDef*%
%ADD13R,1.220000X0.910000*%
%TD*%
%TA.AperFunction,SMDPad,CuDef*%
%ADD14R,1.860000X1.230000*%
%TD*%
%TA.AperFunction,ComponentPad*%
%ADD15R,1.700000X1.700000*%
%TD*%
%TA.AperFunction,ComponentPad*%
%ADD16C,1.700000*%
%TD*%
%TA.AperFunction,SMDPad,CuDef*%
%ADD17RoundRect,0.225000X0.250000X-0.225000X0.250000X0.225000X-0.250000X0.225000X-0.250000X-0.225000X0*%
%TD*%
%TA.AperFunction,SMDPad,CuDef*%
%ADD18R,1.500000X0.900000*%
%TD*%
%TA.AperFunction,SMDPad,CuDef*%
%ADD19R,0.900000X1.500000*%
%TD*%
%TA.AperFunction,SMDPad,CuDef*%
%ADD20R,0.900000X0.900000*%
%TD*%
%TA.AperFunction,ComponentPad*%
%ADD21C,0.400000*%
%TD*%
%TA.AperFunction,SMDPad,CuDef*%
%ADD22RoundRect,0.225000X-0.250000X0.225000X-0.250000X-0.225000X0.250000X-0.225000X0.250000X0.225000X0*%
%TD*%
%TA.AperFunction,SMDPad,CuDef*%
%ADD23RoundRect,0.135000X0.185000X-0.135000X0.185000X0.135000X-0.185000X0.135000X-0.185000X-0.135000X0*%
%TD*%
%TA.AperFunction,SMDPad,CuDef*%
%ADD24RoundRect,0.218750X-0.256250X0.218750X-0.256250X-0.218750X0.256250X-0.218750X0.256250X0.218750X0*%
%TD*%
%TA.AperFunction,ComponentPad*%
%ADD25C,0.750000*%
%TD*%
%TA.AperFunction,SMDPad,CuDef*%
%ADD26FreePoly0,0.000000*%
%TD*%
%TA.AperFunction,SMDPad,CuDef*%
%ADD27FreePoly1,0.000000*%
%TD*%
%TA.AperFunction,SMDPad,CuDef*%
%ADD28R,0.300000X1.300000*%
%TD*%
%TA.AperFunction,SMDPad,CuDef*%
%ADD29FreePoly2,0.000000*%
%TD*%
%TA.AperFunction,ComponentPad*%
%ADD30O,1.200000X2.000000*%
%TD*%
%TA.AperFunction,ComponentPad*%
%ADD31O,1.200000X1.800000*%
%TD*%
%TA.AperFunction,SMDPad,CuDef*%
%ADD32RoundRect,0.140000X0.170000X-0.140000X0.170000X0.140000X-0.170000X0.140000X-0.170000X-0.140000X0*%
%TD*%
%TA.AperFunction,SMDPad,CuDef*%
%ADD33RoundRect,0.150000X0.150000X-0.512500X0.150000X0.512500X-0.150000X0.512500X-0.150000X-0.512500X0*%
%TD*%
%TA.AperFunction,SMDPad,CuDef*%
%ADD34RoundRect,0.147500X0.147500X0.172500X-0.147500X0.172500X-0.147500X-0.172500X0.147500X-0.172500X0*%
%TD*%
%TA.AperFunction,SMDPad,CuDef*%
%ADD35RoundRect,0.135000X-0.135000X-0.185000X0.135000X-0.185000X0.135000X0.185000X-0.135000X0.185000X0*%
%TD*%
%TA.AperFunction,ViaPad*%
%ADD36C,0.600000*%
%TD*%
%TA.AperFunction,Conductor*%
%ADD37C,0.200000*%
%TD*%
G04 APERTURE END LIST*
D10*
%TO.P,U4,1,GND_1*%
%TO.N,GND*%
X157600000Y-97700000D03*
%TO.P,U4,2,VO_2*%
%TO.N,ESP_3V3*%
X157600000Y-100000000D03*
D11*
X163900000Y-100000000D03*
D10*
%TO.P,U4,3,VI_3*%
%TO.N,VCC_5V*%
X157600000Y-102300000D03*
%TD*%
D12*
%TO.P,C15,1*%
%TO.N,GND*%
X159000000Y-108000000D03*
%TO.P,C15,2*%
%TO.N,VBUS*%
X159000000Y-108960000D03*
%TD*%
D13*
%TO.P,D1,1,K_1*%
%TO.N,VCC_5V*%
X163500000Y-103860000D03*
%TO.P,D1,2,A_2*%
%TO.N,Net-(D1-A)*%
X163500000Y-107140000D03*
%TD*%
D14*
%TO.P,SW1,1,1_1*%
%TO.N,GND*%
X165500000Y-114000000D03*
%TO.P,SW1,2,2_2*%
%TO.N,GPIO0*%
X165500000Y-109640000D03*
%TD*%
D15*
%TO.P,J2,1,Pin_1_1*%
%TO.N,GND*%
X152000000Y-71860000D03*
D16*
%TO.P,J2,2,Pin_2_2*%
%TO.N,GPIO3*%
X152000000Y-74400000D03*
%TO.P,J2,3,Pin_3_3*%
%TO.N,GPIO46*%
X152000000Y-76940000D03*
%TO.P,J2,4,Pin_4_4*%
%TO.N,GPIO9*%
X152000000Y-79480000D03*
%TO.P,J2,5,Pin_5_5*%
%TO.N,GPIO10*%
X152000000Y-82020000D03*
%TO.P,J2,6,Pin_6_6*%
%TO.N,GPIO11*%
X152000000Y-84560000D03*
%TO.P,J2,7,Pin_7_7*%
%TO.N,GPIO12*%
X152000000Y-87100000D03*
%TO.P,J2,8,Pin_8_8*%
%TO.N,GPIO8*%
X152000000Y-89640000D03*
%TO.P,J2,9,Pin_9_9*%
%TO.N,GPIO18*%
X152000000Y-92180000D03*
%TO.P,J2,10,Pin_10_10*%
%TO.N,GPIO17*%
X152000000Y-94720000D03*
%TO.P,J2,11,Pin_11_11*%
%TO.N,GPIO16*%
X152000000Y-97260000D03*
%TO.P,J2,12,Pin_12_12*%
%TO.N,GPIO15*%
X152000000Y-99800000D03*
%TO.P,J2,13,Pin_13_13*%
%TO.N,GPIO7*%
X152000000Y-102340000D03*
%TO.P,J2,14,Pin_14_14*%
%TO.N,GPIO6*%
X152000000Y-104880000D03*
%TO.P,J2,15,Pin_15_15*%
%TO.N,GPIO5*%
X152000000Y-107420000D03*
%TO.P,J2,16,Pin_16_16*%
%TO.N,GPIO4*%
X152000000Y-109960000D03*
%TO.P,J2,17,Pin_17_17*%
%TO.N,/CHIP_PU*%
X152000000Y-112500000D03*
%TO.P,J2,18,Pin_18_18*%
%TO.N,ESP_3V3*%
X152000000Y-115040000D03*
%TO.P,J2,19,Pin_19_19*%
X152000000Y-117580000D03*
%TO.P,J2,20,Pin_20_20*%
%TO.N,GND*%
X152000000Y-120120000D03*
%TD*%
D17*
%TO.P,C7,1*%
%TO.N,GND*%
X157000000Y-106000000D03*
%TO.P,C7,2*%
%TO.N,VCC_5V*%
X157000000Y-104450000D03*
%TD*%
D18*
%TO.P,U1,1,GND_1*%
%TO.N,GND*%
X151600000Y-50880000D03*
%TO.P,U1,2,3V3_2*%
%TO.N,ESP_3V3*%
X151600000Y-52150000D03*
%TO.P,U1,3,EN_3*%
%TO.N,/CHIP_PU*%
X151600000Y-53420000D03*
%TO.P,U1,4,IO4_4*%
%TO.N,GPIO4*%
X151600000Y-54690000D03*
%TO.P,U1,5,IO5_5*%
%TO.N,GPIO5*%
X151600000Y-55960000D03*
%TO.P,U1,6,IO6_6*%
%TO.N,GPIO6*%
X151600000Y-57230000D03*
%TO.P,U1,7,IO7_7*%
%TO.N,GPIO7*%
X151600000Y-58500000D03*
%TO.P,U1,8,IO15_8*%
%TO.N,GPIO15*%
X151600000Y-59770000D03*
%TO.P,U1,9,IO16_9*%
%TO.N,GPIO16*%
X151600000Y-61040000D03*
%TO.P,U1,10,IO17_10*%
%TO.N,GPIO17*%
X151600000Y-62310000D03*
%TO.P,U1,11,IO18_11*%
%TO.N,GPIO18*%
X151600000Y-63580000D03*
%TO.P,U1,12,IO8_12*%
%TO.N,GPIO8*%
X151600000Y-64850000D03*
%TO.P,U1,13,USB_D-_13*%
%TO.N,D-*%
X151600000Y-66120000D03*
%TO.P,U1,14,USB_D+_14*%
%TO.N,D+*%
X151600000Y-67390000D03*
D19*
%TO.P,U1,15,IO3_15*%
%TO.N,GPIO3*%
X153520000Y-68780000D03*
%TO.P,U1,16,IO46_16*%
%TO.N,GPIO46*%
X154790000Y-68780000D03*
%TO.P,U1,17,IO9_17*%
%TO.N,GPIO9*%
X156060000Y-68780000D03*
%TO.P,U1,18,IO10_18*%
%TO.N,GPIO10*%
X157330000Y-68780000D03*
%TO.P,U1,19,IO11_19*%
%TO.N,GPIO11*%
X158600000Y-68780000D03*
%TO.P,U1,20,IO12_20*%
%TO.N,GPIO12*%
X159870000Y-68780000D03*
%TO.P,U1,21,IO13_21*%
%TO.N,GPIO13*%
X161140000Y-68780000D03*
%TO.P,U1,22,IO14_22*%
%TO.N,GPIO14*%
X162410000Y-68780000D03*
%TO.P,U1,23,IO21_23*%
%TO.N,GPIO21*%
X163680000Y-68780000D03*
%TO.P,U1,24,IO47_24*%
%TO.N,GPIO47*%
X164950000Y-68780000D03*
%TO.P,U1,25,IO48_25*%
%TO.N,GPIO48*%
X166220000Y-68780000D03*
%TO.P,U1,26,IO45_26*%
%TO.N,GPIO45*%
X167490000Y-68780000D03*
D18*
%TO.P,U1,27,IO0_27*%
%TO.N,GPIO0*%
X169400000Y-67390000D03*
%TO.P,U1,28,IO35_28*%
%TO.N,GPIO35*%
X169400000Y-66120000D03*
%TO.P,U1,29,IO36_29*%
%TO.N,GPIO36*%
X169400000Y-64850000D03*
%TO.P,U1,30,IO37_30*%
%TO.N,GPIO37*%
X169400000Y-63580000D03*
%TO.P,U1,31,IO38_31*%
%TO.N,GPIO38*%
X169400000Y-62310000D03*
%TO.P,U1,32,IO39_32*%
%TO.N,GPIO39*%
X169400000Y-61040000D03*
%TO.P,U1,33,IO40_33*%
%TO.N,GPIO40*%
X169400000Y-59770000D03*
%TO.P,U1,34,IO41_34*%
%TO.N,GPIO41*%
X169400000Y-58500000D03*
%TO.P,U1,35,IO42_35*%
%TO.N,GPIO42*%
X169400000Y-57230000D03*
%TO.P,U1,36,RXD0_36*%
%TO.N,U0RXD*%
X169400000Y-55960000D03*
%TO.P,U1,37,TXD0_37*%
%TO.N,U0TXD*%
X169400000Y-54690000D03*
%TO.P,U1,38,IO2_38*%
%TO.N,GPIO2*%
X169400000Y-53420000D03*
%TO.P,U1,39,IO1_39*%
%TO.N,GPIO1*%
X169400000Y-52150000D03*
%TO.P,U1,40,GND_40*%
%TO.N,GND*%
X169400000Y-50880000D03*
D20*
%TO.P,U1,41,GND_41*%
X157600000Y-57190000D03*
D21*
X157600000Y-57890000D03*
D20*
X157600000Y-58590000D03*
D21*
X157600000Y-59290000D03*
D20*
X157600000Y-59990000D03*
D21*
X158300000Y-57190000D03*
X158300000Y-58590000D03*
X158300000Y-59990000D03*
D20*
X159000000Y-57190000D03*
D21*
X159000000Y-57890000D03*
D20*
X159000000Y-58590000D03*
D21*
X159000000Y-59290000D03*
D20*
X159000000Y-59990000D03*
D21*
X159700000Y-57190000D03*
X159700000Y-58590000D03*
X159700000Y-59990000D03*
D20*
X160400000Y-57190000D03*
D21*
X160400000Y-57890000D03*
D20*
X160400000Y-58590000D03*
D21*
X160400000Y-59290000D03*
D20*
X160400000Y-59990000D03*
%TD*%
D22*
%TO.P,C13,1*%
%TO.N,GND*%
X157745000Y-110230000D03*
%TO.P,C13,2*%
%TO.N,VBUS*%
X157745000Y-111780000D03*
%TD*%
D23*
%TO.P,R2,1*%
%TO.N,CC2*%
X163013653Y-113893152D03*
%TO.P,R2,2*%
%TO.N,GND*%
X163013653Y-112873152D03*
%TD*%
D17*
%TO.P,C10,1*%
%TO.N,ESP_3V3*%
X163983645Y-95689145D03*
%TO.P,C10,2*%
%TO.N,GND*%
X163983645Y-94139145D03*
%TD*%
D15*
%TO.P,J3,1,Pin_1_1*%
%TO.N,GPIO45*%
X169000000Y-71900000D03*
D16*
%TO.P,J3,2,Pin_2_2*%
%TO.N,GPIO48*%
X169000000Y-74440000D03*
%TO.P,J3,3,Pin_3_3*%
%TO.N,GPIO47*%
X169000000Y-76980000D03*
%TO.P,J3,4,Pin_4_4*%
%TO.N,GPIO21*%
X169000000Y-79520000D03*
%TO.P,J3,5,Pin_5_5*%
%TO.N,GPIO14*%
X169000000Y-82060000D03*
%TO.P,J3,6,Pin_6_6*%
%TO.N,GPIO13*%
X169000000Y-84600000D03*
%TO.P,J3,7,Pin_7_7*%
%TO.N,GPIO35*%
X169000000Y-87140000D03*
%TO.P,J3,8,Pin_8_8*%
%TO.N,GPIO36*%
X169000000Y-89680000D03*
%TO.P,J3,9,Pin_9_9*%
%TO.N,GPIO37*%
X169000000Y-92220000D03*
%TO.P,J3,10,Pin_10_10*%
%TO.N,GPIO38*%
X169000000Y-94760000D03*
%TO.P,J3,11,Pin_11_11*%
%TO.N,GPIO39*%
X169000000Y-97300000D03*
%TO.P,J3,12,Pin_12_12*%
%TO.N,GPIO40*%
X169000000Y-99840000D03*
%TO.P,J3,13,Pin_13_13*%
%TO.N,GPIO41*%
X169000000Y-102380000D03*
%TO.P,J3,14,Pin_14_14*%
%TO.N,GPIO42*%
X169000000Y-104920000D03*
%TO.P,J3,15,Pin_15_15*%
%TO.N,U0RXD*%
X169000000Y-107460000D03*
%TO.P,J3,16,Pin_16_16*%
%TO.N,U0TXD*%
X169000000Y-110000000D03*
%TO.P,J3,17,Pin_17_17*%
%TO.N,GPIO2*%
X169000000Y-112540000D03*
%TO.P,J3,18,Pin_18_18*%
%TO.N,GPIO1*%
X169000000Y-115080000D03*
%TO.P,J3,19,Pin_19_19*%
%TO.N,VCC_5V*%
X169000000Y-117620000D03*
%TO.P,J3,20,Pin_20_20*%
%TO.N,GND*%
X169000000Y-120160000D03*
%TD*%
D23*
%TO.P,R1,1*%
%TO.N,CC1*%
X158500000Y-114010000D03*
%TO.P,R1,2*%
%TO.N,GND*%
X158500000Y-112990000D03*
%TD*%
D24*
%TO.P,D5,1,K_1*%
%TO.N,GND*%
X163983960Y-89266412D03*
%TO.P,D5,2,A_2*%
%TO.N,Net-(D5-A)*%
X163983960Y-90841412D03*
%TD*%
D23*
%TO.P,R3,1*%
%TO.N,ESP_3V3*%
X164250000Y-93010000D03*
%TO.P,R3,2*%
%TO.N,Net-(D5-A)*%
X164250000Y-91990000D03*
%TD*%
D25*
%TO.P,USBC1,*%
%TO.N,*%
X157600000Y-116767544D03*
X163400000Y-116767544D03*
D26*
%TO.P,USBC1,A1B12,GND_A1B12*%
%TO.N,GND*%
X157300000Y-115507544D03*
D27*
%TO.P,USBC1,A4B9,VBUS_A4B9*%
%TO.N,VBUS*%
X158100000Y-115507544D03*
D28*
%TO.P,USBC1,A5,CC1_A5*%
%TO.N,CC1*%
X159250000Y-115507544D03*
%TO.P,USBC1,A6,DP1_A6*%
%TO.N,USB_D+*%
X160250000Y-115507544D03*
%TO.P,USBC1,A7,DN1_A7*%
%TO.N,USB_D-*%
X160750000Y-115507544D03*
%TO.P,USBC1,A8,SBU1_A8*%
%TO.N,unconnected-(USBC1-SBU1-PadA8)*%
X161750000Y-115507544D03*
D29*
%TO.P,USBC1,B1A12,GND_B1A12*%
%TO.N,GND*%
X163700000Y-115507544D03*
%TO.P,USBC1,B4A9,VBUS_B4A9*%
%TO.N,VBUS*%
X162900000Y-115507544D03*
D28*
%TO.P,USBC1,B5,CC2_B5*%
%TO.N,CC2*%
X162250000Y-115507544D03*
%TO.P,USBC1,B6,DP2_B6*%
%TO.N,USB_D+*%
X161250000Y-115507544D03*
%TO.P,USBC1,B7,DN2_B7*%
%TO.N,USB_D-*%
X159750000Y-115507544D03*
%TO.P,USBC1,B8,SBU2_B8*%
%TO.N,unconnected-(USBC1-SBU2-PadB8)*%
X158750000Y-115507544D03*
D30*
%TO.P,USBC1,GND*%
%TO.N,N/C*%
X156170000Y-116267544D03*
D31*
X156170000Y-120447544D03*
D30*
X164830000Y-116267544D03*
D31*
X164830000Y-120447544D03*
%TD*%
D32*
%TO.P,C9,1*%
%TO.N,ESP_3V3*%
X165196941Y-95972327D03*
%TO.P,C9,2*%
%TO.N,GND*%
X165196941Y-95012327D03*
%TD*%
D23*
%TO.P,R5,1*%
%TO.N,GPIO0*%
X165000000Y-108500000D03*
%TO.P,R5,2*%
%TO.N,ESP_3V3*%
X165000000Y-107480000D03*
%TD*%
D14*
%TO.P,SW2,1,1_1*%
%TO.N,GND*%
X155500000Y-114180000D03*
%TO.P,SW2,2,2_2*%
%TO.N,/CHIP_PU*%
X155500000Y-109820000D03*
%TD*%
D33*
%TO.P,U2,1,I/O1_1*%
%TO.N,USB_D-*%
X160050001Y-112499999D03*
%TO.P,U2,2,GND_2*%
%TO.N,GND*%
X161000001Y-112499999D03*
%TO.P,U2,3,I/O2_3*%
%TO.N,USB_D+*%
X161950001Y-112500001D03*
%TO.P,U2,4,I/O2_4*%
%TO.N,D+*%
X161949999Y-110225001D03*
%TO.P,U2,5,VBUS_5*%
%TO.N,VBUS*%
X160999999Y-110225001D03*
%TO.P,U2,6,I/O1_6*%
%TO.N,D-*%
X160049999Y-110224999D03*
%TD*%
D34*
%TO.P,F1,1*%
%TO.N,VBUS*%
X161985000Y-107000000D03*
%TO.P,F1,2*%
%TO.N,Net-(D1-A)*%
X161015000Y-107000000D03*
%TD*%
D12*
%TO.P,C14,1*%
%TO.N,GND*%
X156500000Y-107520000D03*
%TO.P,C14,2*%
%TO.N,/CHIP_PU*%
X156500000Y-108480000D03*
%TD*%
D32*
%TO.P,C8,1*%
%TO.N,GND*%
X158239435Y-105123922D03*
%TO.P,C8,2*%
%TO.N,VCC_5V*%
X158239435Y-104163922D03*
%TD*%
D35*
%TO.P,R6,1*%
%TO.N,/CHIP_PU*%
X156990000Y-73000000D03*
%TO.P,R6,2*%
%TO.N,ESP_3V3*%
X158010000Y-73000000D03*
%TD*%
D36*
%TO.N,GND*%
X158364452Y-67530000D03*
X159500000Y-77500000D03*
X165000000Y-52000000D03*
X159500000Y-52000000D03*
X159500000Y-82500000D03*
X155000000Y-51000000D03*
X162500000Y-96000000D03*
X158500000Y-94500000D03*
X168000000Y-51000000D03*
X154500000Y-118500000D03*
X163000000Y-57000000D03*
X158500000Y-107000000D03*
X163000000Y-111500000D03*
X155000000Y-115000000D03*
X161000000Y-66334126D03*
X166500000Y-119500000D03*
X159500000Y-72000000D03*
%TO.N,GPIO0*%
X165937157Y-108000000D03*
X162500000Y-67000000D03*
%TO.N,GPIO8*%
X152821894Y-65287924D03*
%TO.N,GPIO18*%
X152525562Y-63931834D03*
%TO.N,GPIO17*%
X152727846Y-62802534D03*
%TO.N,GPIO16*%
X153000000Y-62000000D03*
%TO.N,GPIO15*%
X152750000Y-60250000D03*
%TO.N,GPIO7*%
X152562218Y-58867269D03*
%TO.N,GPIO6*%
X153000000Y-58000000D03*
%TO.N,GPIO5*%
X153565687Y-57434313D03*
%TO.N,GPIO4*%
X153000000Y-55500000D03*
%TO.N,/CHIP_PU*%
X153000000Y-111500000D03*
X157000000Y-72000000D03*
X152950735Y-54549265D03*
X154600000Y-111000000D03*
X157500000Y-91000000D03*
%TO.N,ESP_3V3*%
X153000000Y-52500000D03*
X158000000Y-71500000D03*
%TO.N,D-*%
X159570044Y-66915553D03*
X160000000Y-109000000D03*
%TO.N,D+*%
X158402981Y-66720000D03*
X162000000Y-109000000D03*
%TO.N,GPIO35*%
X168000000Y-66500000D03*
%TO.N,GPIO36*%
X168000000Y-65500000D03*
%TO.N,GPIO37*%
X168000000Y-64500000D03*
%TO.N,GPIO38*%
X168000000Y-63000000D03*
%TO.N,GPIO39*%
X168000000Y-62000000D03*
%TO.N,GPIO40*%
X168000000Y-60500000D03*
%TO.N,GPIO41*%
X168000000Y-59500000D03*
%TO.N,GPIO42*%
X168000000Y-58000000D03*
%TO.N,U0RXD*%
X168000000Y-57000000D03*
%TO.N,U0TXD*%
X168000000Y-55500000D03*
%TO.N,GPIO2*%
X168000000Y-54000000D03*
%TO.N,GPIO1*%
X168000000Y-53000000D03*
%TD*%
%TO.N,GND*%
D37*
X158500000Y-112990000D02*
X158500000Y-112746948D01*
%TO.N,ESP_3V3*%
X163970000Y-100000000D02*
X157000000Y-100000000D01*
X157000000Y-100000000D02*
X153600000Y-103400000D01*
X153600000Y-103400000D02*
X153600000Y-113440000D01*
X164250000Y-93010000D02*
X157400000Y-86160000D01*
X157400000Y-86160000D02*
X157400000Y-73834314D01*
X157400000Y-73834314D02*
X157390000Y-73824315D01*
X157390000Y-73824315D02*
X157390000Y-73620000D01*
X157390000Y-73620000D02*
X158010000Y-73000000D01*
X165196941Y-95972327D02*
X164266827Y-95972327D01*
X164266827Y-95972327D02*
X163983645Y-95689145D01*
X163900000Y-100000000D02*
X163900000Y-97269268D01*
X163900000Y-97269268D02*
X165196941Y-95972327D01*
%TO.N,VCC_5V*%
X159590000Y-103860000D02*
X159490000Y-103760000D01*
X158239435Y-104163922D02*
X159086078Y-104163922D01*
X159086078Y-104163922D02*
X159490000Y-103760000D01*
X157000000Y-104450000D02*
X157953357Y-104450000D01*
X157953357Y-104450000D02*
X158239435Y-104163922D01*
%TO.N,GND*%
X163013653Y-112873152D02*
X163013653Y-112260601D01*
X159801636Y-67532490D02*
X153148198Y-67532490D01*
X159709449Y-111537499D02*
X160700000Y-111537499D01*
X152890687Y-67790000D02*
X153090344Y-67590344D01*
X151600000Y-50880000D02*
X154880000Y-50880000D01*
X158500000Y-112746948D02*
X159709449Y-111537499D01*
X163013653Y-112260601D02*
X162253052Y-111500000D01*
X161000000Y-66334126D02*
X159801636Y-67532490D01*
X168120000Y-50880000D02*
X168000000Y-51000000D01*
X169400000Y-50880000D02*
X168120000Y-50880000D01*
X153148198Y-67532490D02*
X153090344Y-67590344D01*
X152890686Y-67790000D02*
X152850000Y-67790000D01*
X157300000Y-115507544D02*
X155972456Y-114180000D01*
X160700000Y-111537499D02*
X161000001Y-111837500D01*
X154880000Y-50880000D02*
X155000000Y-51000000D01*
X161000001Y-111999999D02*
X161500000Y-111500000D01*
X161000001Y-111837500D02*
X161000001Y-112499999D01*
X153090344Y-67590344D02*
X152890686Y-67790000D01*
X152000000Y-68640000D02*
X152000000Y-71860000D01*
X162253052Y-111500000D02*
X161500000Y-111500000D01*
X163700000Y-115507544D02*
X165207544Y-114000000D01*
X152850000Y-67790000D02*
X152000000Y-68640000D01*
%TO.N,VBUS*%
X158100000Y-115507544D02*
X158100000Y-116242239D01*
X158100000Y-114848953D02*
X158100000Y-115507544D01*
X163251268Y-114497456D02*
X163502544Y-114497456D01*
X157745000Y-114493953D02*
X158100000Y-114848953D01*
X161985000Y-107000000D02*
X161985000Y-107485000D01*
X164000000Y-114000000D02*
X164000000Y-109500000D01*
X163502544Y-114497456D02*
X164000000Y-114000000D01*
X159000000Y-108960000D02*
X159560000Y-108400000D01*
X162900000Y-116242239D02*
X162284695Y-116857544D01*
X164000000Y-109500000D02*
X162400000Y-107900000D01*
X157745000Y-111780000D02*
X157745000Y-114493953D01*
X158715305Y-116857544D02*
X162284695Y-116857544D01*
X158100000Y-116242239D02*
X158715305Y-116857544D01*
X161000000Y-107900000D02*
X161000000Y-108500000D01*
X159560000Y-108400000D02*
X160900000Y-108400000D01*
X163039848Y-114960152D02*
X163039848Y-114708876D01*
X163039848Y-114708876D02*
X163251268Y-114497456D01*
X160900000Y-108400000D02*
X161000000Y-108500000D01*
X161000000Y-108500000D02*
X160999999Y-110225001D01*
X162900000Y-115507544D02*
X162900000Y-116242239D01*
X162400000Y-107900000D02*
X161000000Y-107900000D01*
X161985000Y-107485000D02*
X162400000Y-107900000D01*
%TO.N,VCC_5V*%
X169000000Y-117620000D02*
X155849664Y-117620000D01*
X159490000Y-103760000D02*
X158030000Y-102300000D01*
X163500000Y-103860000D02*
X159590000Y-103860000D01*
X154000000Y-106330000D02*
X158030000Y-102300000D01*
X154000000Y-115770336D02*
X154000000Y-106330000D01*
X155849664Y-117620000D02*
X154000000Y-115770336D01*
%TO.N,Net-(D1-A)*%
X161015000Y-107000000D02*
X161635000Y-106380000D01*
X161635000Y-106380000D02*
X162740000Y-106380000D01*
X162740000Y-106380000D02*
X163500000Y-107140000D01*
%TO.N,GPIO0*%
X162500000Y-67000000D02*
X162890000Y-67390000D01*
X165500000Y-109000000D02*
X165000000Y-108500000D01*
X162890000Y-67390000D02*
X169400000Y-67390000D01*
X165500000Y-109640000D02*
X165500000Y-109000000D01*
X165437157Y-108500000D02*
X165937157Y-108000000D01*
X165000000Y-108500000D02*
X165437157Y-108500000D01*
%TO.N,GPIO3*%
X153520000Y-72880000D02*
X152000000Y-74400000D01*
X153520000Y-68780000D02*
X153520000Y-72880000D01*
%TO.N,GPIO46*%
X153232843Y-73732843D02*
X153232843Y-75707157D01*
X153920000Y-73045686D02*
X153232843Y-73732843D01*
X154790000Y-68780000D02*
X154790000Y-69630000D01*
X154790000Y-69630000D02*
X153920000Y-70500000D01*
X153920000Y-70500000D02*
X153920000Y-73045686D01*
X153232843Y-75707157D02*
X152000000Y-76940000D01*
%TO.N,GPIO9*%
X156060000Y-69730000D02*
X155790000Y-70000000D01*
X153398528Y-78081472D02*
X152000000Y-79480000D01*
X154320000Y-70680000D02*
X154320000Y-73211372D01*
X153632843Y-73898529D02*
X153632843Y-75872843D01*
X155790000Y-70000000D02*
X155000000Y-70000000D01*
X154320000Y-73211372D02*
X153632843Y-73898529D01*
X155000000Y-70000000D02*
X154320000Y-70680000D01*
X153632843Y-75872843D02*
X153398528Y-76107157D01*
X156060000Y-68780000D02*
X156060000Y-69730000D01*
X153398528Y-76107157D02*
X153398528Y-78081472D01*
%TO.N,GPIO10*%
X154032843Y-74064215D02*
X154032842Y-76265686D01*
X153564213Y-80455787D02*
X152000000Y-82020000D01*
X156000000Y-70500000D02*
X155065686Y-70500000D01*
X153798528Y-76500000D02*
X153798528Y-78247158D01*
X155065686Y-70500000D02*
X154720000Y-70845686D01*
X153798528Y-78247158D02*
X153564213Y-78481472D01*
X153564213Y-78481472D02*
X153564213Y-80455787D01*
X154032842Y-76265686D02*
X153798528Y-76500000D01*
X157330000Y-69170000D02*
X156000000Y-70500000D01*
X154720000Y-73377057D02*
X154032843Y-74064215D01*
X154720000Y-70845686D02*
X154720000Y-73377057D01*
%TO.N,GPIO11*%
X158600000Y-69730000D02*
X158297157Y-70032843D01*
X154198527Y-78765686D02*
X153964213Y-79000000D01*
X154885685Y-73777057D02*
X154432843Y-74229901D01*
X155120000Y-73542743D02*
X154885685Y-73777057D01*
X154198528Y-76665686D02*
X154198527Y-78765686D01*
X156065685Y-71000000D02*
X155500000Y-71000000D01*
X157032843Y-70032843D02*
X156065685Y-71000000D01*
X153729898Y-82830102D02*
X152000000Y-84560000D01*
X158600000Y-68780000D02*
X158600000Y-69730000D01*
X153964213Y-80621473D02*
X153729898Y-80855787D01*
X153729898Y-80855787D02*
X153729898Y-82830102D01*
X154432842Y-76431372D02*
X154198528Y-76665686D01*
X158297157Y-70032843D02*
X157032843Y-70032843D01*
X155500000Y-71000000D02*
X155120000Y-71380000D01*
X153964213Y-79000000D02*
X153964213Y-80621473D01*
X155120000Y-71380000D02*
X155120000Y-73542743D01*
X154432843Y-74229901D02*
X154432842Y-76431372D01*
%TO.N,GPIO12*%
X154364212Y-81265686D02*
X154129898Y-81500000D01*
X155519999Y-73812844D02*
X154832843Y-74500000D01*
X154129898Y-81500000D02*
X154129898Y-83370102D01*
X159865181Y-70466388D02*
X159509215Y-70822354D01*
X156809017Y-70822354D02*
X155520000Y-72111371D01*
X153500000Y-85600000D02*
X152000000Y-87100000D01*
X159509215Y-70822354D02*
X156809017Y-70822354D01*
X153500000Y-84000000D02*
X153500000Y-85600000D01*
X154832843Y-74500000D02*
X154832842Y-76765686D01*
X154364212Y-79165686D02*
X154364212Y-81265686D01*
X154598527Y-78931372D02*
X154364212Y-79165686D01*
X159870000Y-68780000D02*
X159870000Y-69730000D01*
X154832842Y-76765686D02*
X154598528Y-77000000D01*
X154598528Y-77000000D02*
X154598527Y-78931372D01*
X154129898Y-83370102D02*
X153500000Y-84000000D01*
X159865181Y-69734819D02*
X159865181Y-70466388D01*
X155520000Y-72111371D02*
X155519999Y-73812844D01*
X159870000Y-69730000D02*
X159865181Y-69734819D01*
%TO.N,GPIO8*%
X152383970Y-64850000D02*
X152821894Y-65287924D01*
X151600000Y-64850000D02*
X152383970Y-64850000D01*
%TO.N,GPIO18*%
X152173728Y-63580000D02*
X152525562Y-63931834D01*
%TO.N,GPIO17*%
X152235312Y-62310000D02*
X152727846Y-62802534D01*
%TO.N,GPIO16*%
X152040000Y-61040000D02*
X153000000Y-62000000D01*
%TO.N,GPIO15*%
X152750000Y-60250000D02*
X152270000Y-59770000D01*
X152270000Y-59770000D02*
X151600000Y-59770000D01*
%TO.N,GPIO7*%
X152194949Y-58500000D02*
X152562218Y-58867269D01*
%TO.N,GPIO6*%
X152230000Y-57230000D02*
X153000000Y-58000000D01*
%TO.N,GPIO5*%
X151960000Y-55960000D02*
X153500000Y-57500000D01*
X153500000Y-57500000D02*
X153565687Y-57434313D01*
%TO.N,GPIO4*%
X152190000Y-54690000D02*
X153000000Y-55500000D01*
%TO.N,/CHIP_PU*%
X152950735Y-54240735D02*
X152130000Y-53420000D01*
X157000000Y-90500000D02*
X157500000Y-91000000D01*
X155500000Y-109480000D02*
X156500000Y-108480000D01*
X156990000Y-73000000D02*
X156990000Y-72010000D01*
X156990000Y-73000000D02*
X156990000Y-73990000D01*
X155500000Y-110100000D02*
X154600000Y-111000000D01*
X156990000Y-72010000D02*
X157000000Y-72000000D01*
X156990000Y-73990000D02*
X157000000Y-74000000D01*
X152000000Y-112500000D02*
X153000000Y-111500000D01*
X152950735Y-54549265D02*
X152950735Y-54240735D01*
X157000000Y-74000000D02*
X157000000Y-90500000D01*
%TO.N,ESP_3V3*%
X152650000Y-52150000D02*
X153000000Y-52500000D01*
X153600000Y-113440000D02*
X152000000Y-115040000D01*
X151600000Y-52150000D02*
X152650000Y-52150000D01*
X153600000Y-115980000D02*
X153600000Y-113440000D01*
X152000000Y-117580000D02*
X153600000Y-115980000D01*
X158010000Y-73000000D02*
X158010000Y-71510000D01*
X158010000Y-71510000D02*
X158000000Y-71500000D01*
%TO.N,D-*%
X159570044Y-66915553D02*
X158774491Y-66120000D01*
X158774491Y-66120000D02*
X151600000Y-66120000D01*
X160049999Y-110224999D02*
X160049999Y-109049999D01*
X160049999Y-109049999D02*
X160000000Y-109000000D01*
%TO.N,D+*%
X152725001Y-67390000D02*
X151600000Y-67390000D01*
X161949999Y-109050001D02*
X162000000Y-109000000D01*
X157220000Y-66720000D02*
X157020000Y-66520000D01*
X161949999Y-110225001D02*
X161949999Y-109050001D01*
X158402981Y-66720000D02*
X157220000Y-66720000D01*
X157020000Y-66520000D02*
X153595001Y-66520000D01*
X153595001Y-66520000D02*
X152725001Y-67390000D01*
%TO.N,GPIO13*%
X169000000Y-84600000D02*
X166900000Y-82500000D01*
X161842843Y-70432843D02*
X163801471Y-70432843D01*
X166131472Y-77000000D02*
X166131473Y-78474316D01*
X161140000Y-68780000D02*
X161140000Y-69730000D01*
X161140000Y-69730000D02*
X161842843Y-70432843D01*
X166131473Y-78474316D02*
X166657157Y-79000000D01*
X166891472Y-81082843D02*
X166891472Y-82500000D01*
X163801471Y-70432843D02*
X165400001Y-72031373D01*
X165897158Y-76765686D02*
X166131472Y-77000000D01*
X165400001Y-73900001D02*
X165897157Y-74397157D01*
X166657157Y-80848529D02*
X166891472Y-81082843D01*
X165400001Y-72031373D02*
X165400001Y-73900001D01*
X166900000Y-82500000D02*
X166891472Y-82500000D01*
X165897157Y-74397157D02*
X165897158Y-76765686D01*
X166657157Y-79000000D02*
X166657157Y-80848529D01*
%TO.N,GPIO14*%
X164934315Y-71000000D02*
X165500000Y-71000000D01*
X162410000Y-69730000D02*
X162712843Y-70032843D01*
X166531472Y-76500000D02*
X166531472Y-78182844D01*
X166297157Y-73999900D02*
X166297158Y-76265686D01*
X165500000Y-71000000D02*
X165800000Y-71300000D01*
X169000000Y-82060000D02*
X167057157Y-80117157D01*
X162712843Y-70032843D02*
X163967157Y-70032843D01*
X162410000Y-68780000D02*
X162410000Y-69730000D01*
X165800000Y-71300000D02*
X165800001Y-73502744D01*
X165800001Y-73502744D02*
X166297157Y-73999900D01*
X167057157Y-78708528D02*
X167057157Y-80117157D01*
X166531472Y-78182844D02*
X167057157Y-78708528D01*
X163967157Y-70032843D02*
X164934315Y-71000000D01*
X166297158Y-76265686D02*
X166531472Y-76500000D01*
%TO.N,GPIO21*%
X166200000Y-70765686D02*
X166200001Y-73337058D01*
X166980000Y-77500000D02*
X166931472Y-77500000D01*
X166200001Y-73337058D02*
X166697157Y-73834214D01*
X165934314Y-70500000D02*
X166200000Y-70765686D01*
X165000000Y-70500000D02*
X165934314Y-70500000D01*
X166697157Y-73834214D02*
X166697157Y-75808529D01*
X166697157Y-75808529D02*
X166931472Y-76042843D01*
X169000000Y-79520000D02*
X166980000Y-77500000D01*
X166931472Y-76042843D02*
X166931472Y-77500000D01*
X163680000Y-69180000D02*
X165000000Y-70500000D01*
%TO.N,GPIO47*%
X166600000Y-70600000D02*
X166600000Y-73171372D01*
X167097157Y-73668528D02*
X167097157Y-75077157D01*
X164950000Y-68780000D02*
X164950000Y-69730000D01*
X166600000Y-73171372D02*
X167097157Y-73668528D01*
X165220000Y-70000000D02*
X166000000Y-70000000D01*
X169000000Y-76980000D02*
X167097157Y-75077157D01*
X164950000Y-69730000D02*
X165220000Y-70000000D01*
X166000000Y-70000000D02*
X166600000Y-70600000D01*
%TO.N,GPIO48*%
X166220000Y-69220000D02*
X167000000Y-70000000D01*
X169000000Y-74440000D02*
X167060000Y-72500000D01*
X167000000Y-70000000D02*
X167000000Y-72500000D01*
X167060000Y-72500000D02*
X167000000Y-72500000D01*
%TO.N,GPIO45*%
X167490000Y-68780000D02*
X167490000Y-70390000D01*
X169000000Y-71900000D02*
X167490000Y-70390000D01*
%TO.N,GPIO35*%
X169400000Y-66120000D02*
X168380000Y-66120000D01*
X168380000Y-66120000D02*
X168000000Y-66500000D01*
%TO.N,GPIO36*%
X168650000Y-64850000D02*
X168000000Y-65500000D01*
X169400000Y-64850000D02*
X168650000Y-64850000D01*
%TO.N,GPIO37*%
X168920000Y-63580000D02*
X168000000Y-64500000D01*
%TO.N,GPIO38*%
X168690000Y-62310000D02*
X168000000Y-63000000D01*
X169400000Y-62310000D02*
X168690000Y-62310000D01*
%TO.N,GPIO39*%
X168960000Y-61040000D02*
X168000000Y-62000000D01*
%TO.N,GPIO40*%
X169400000Y-59770000D02*
X168730000Y-59770000D01*
X168730000Y-59770000D02*
X168000000Y-60500000D01*
%TO.N,GPIO41*%
X169000000Y-58500000D02*
X168000000Y-59500000D01*
%TO.N,GPIO42*%
X168770000Y-57230000D02*
X168000000Y-58000000D01*
%TO.N,U0RXD*%
X169040000Y-55960000D02*
X168000000Y-57000000D01*
%TO.N,U0TXD*%
X168810000Y-54690000D02*
X168000000Y-55500000D01*
%TO.N,GPIO2*%
X168580000Y-53420000D02*
X168000000Y-54000000D01*
X169400000Y-53420000D02*
X168580000Y-53420000D01*
%TO.N,GPIO1*%
X168850000Y-52150000D02*
X168000000Y-53000000D01*
%TO.N,CC2*%
X162239848Y-114666957D02*
X162239848Y-115507544D01*
X163013653Y-113893152D02*
X162239848Y-114666957D01*
%TO.N,CC1*%
X159250000Y-114640727D02*
X158500000Y-113890727D01*
X159250000Y-115507544D02*
X159250000Y-114640727D01*
%TO.N,USB_D+*%
X161225003Y-113687496D02*
X161225003Y-113462499D01*
X161200000Y-116457544D02*
X160300000Y-116457544D01*
X161250000Y-115507544D02*
X161250000Y-114532543D01*
X161600001Y-112850001D02*
X161950001Y-112500001D01*
X160250000Y-116407544D02*
X160250000Y-115507544D01*
X161250000Y-114532543D02*
X161225000Y-114507543D01*
X161225000Y-113687499D02*
X161225003Y-113687496D01*
X161600001Y-113203051D02*
X161600001Y-112850001D01*
X161250000Y-116407544D02*
X161200000Y-116457544D01*
X160300000Y-116457544D02*
X160250000Y-116407544D01*
X161250000Y-115507544D02*
X161250000Y-116407544D01*
X161225000Y-114507543D02*
X161225000Y-113687499D01*
X161225003Y-113462499D02*
X161340553Y-113462499D01*
X161340553Y-113462499D02*
X161600001Y-113203051D01*
%TO.N,USB_D-*%
X160700000Y-114557544D02*
X159800000Y-114557544D01*
X160750000Y-115507544D02*
X160750000Y-114607544D01*
X159800000Y-114557544D02*
X159750000Y-114607544D01*
X160750000Y-115507544D02*
X160750000Y-114532543D01*
X159750000Y-114607544D02*
X159750000Y-115507544D01*
X160659449Y-113462499D02*
X160400001Y-113203051D01*
X160400001Y-112849999D02*
X160050001Y-112499999D01*
X160775000Y-113462499D02*
X160659449Y-113462499D01*
X160775000Y-114507543D02*
X160775000Y-113462499D01*
X160400001Y-113203051D02*
X160400001Y-112849999D01*
X160750000Y-114607544D02*
X160700000Y-114557544D01*
X160750000Y-114532543D02*
X160775000Y-114507543D01*
%TD*%
%TA.AperFunction,Conductor*%
%TO.N,GND*%
G36*
X150705703Y-118024513D02*
G01*
X150742430Y-118079906D01*
X150747072Y-118094193D01*
X150748444Y-118098414D01*
X150844951Y-118287820D01*
X150969890Y-118459786D01*
X151120213Y-118610109D01*
X151292179Y-118735048D01*
X151292181Y-118735049D01*
X151292184Y-118735051D01*
X151481588Y-118831557D01*
X151510753Y-118841033D01*
X151568426Y-118880468D01*
X151595625Y-118944826D01*
X151583712Y-119013673D01*
X151536469Y-119065149D01*
X151528730Y-119069447D01*
X151397269Y-119136431D01*
X151381466Y-119147912D01*
X151381466Y-119147913D01*
X151870591Y-119637037D01*
X151807007Y-119654075D01*
X151692993Y-119719901D01*
X151599901Y-119812993D01*
X151534075Y-119927007D01*
X151517037Y-119990590D01*
X151027913Y-119501466D01*
X151027912Y-119501466D01*
X151016432Y-119517269D01*
X150934254Y-119678547D01*
X150934251Y-119678555D01*
X150878317Y-119850706D01*
X150850000Y-120029493D01*
X150850000Y-120210506D01*
X150878317Y-120389293D01*
X150934251Y-120561444D01*
X150934252Y-120561447D01*
X151016431Y-120722730D01*
X151027913Y-120738532D01*
X151027913Y-120738533D01*
X151517037Y-120249408D01*
X151534075Y-120312993D01*
X151599901Y-120427007D01*
X151692993Y-120520099D01*
X151807007Y-120585925D01*
X151870590Y-120602962D01*
X151381466Y-121092085D01*
X151381466Y-121092086D01*
X151397267Y-121103566D01*
X151397275Y-121103571D01*
X151558552Y-121185747D01*
X151558555Y-121185748D01*
X151730706Y-121241682D01*
X151802330Y-121253027D01*
X151865465Y-121282956D01*
X151902396Y-121342268D01*
X151901398Y-121412130D01*
X151862788Y-121470363D01*
X151798825Y-121498477D01*
X151782932Y-121499500D01*
X150624500Y-121499500D01*
X150557461Y-121479815D01*
X150511706Y-121427011D01*
X150500500Y-121375500D01*
X150500500Y-118118226D01*
X150520185Y-118051187D01*
X150572989Y-118005432D01*
X150642147Y-117995488D01*
X150705703Y-118024513D01*
G37*
%TD.AperFunction*%
%TA.AperFunction,Conductor*%
G36*
X153948165Y-116583582D02*
G01*
X153992512Y-116612083D01*
X155364803Y-117984374D01*
X155364813Y-117984385D01*
X155369143Y-117988715D01*
X155369144Y-117988716D01*
X155480948Y-118100520D01*
X155546581Y-118138412D01*
X155567759Y-118150639D01*
X155567761Y-118150641D01*
X155605815Y-118172611D01*
X155617879Y-118179577D01*
X155770607Y-118220501D01*
X155770610Y-118220501D01*
X155936317Y-118220501D01*
X155936333Y-118220500D01*
X167714281Y-118220500D01*
X167781320Y-118240185D01*
X167824765Y-118288205D01*
X167844947Y-118327814D01*
X167844948Y-118327815D01*
X167969890Y-118499786D01*
X168120213Y-118650109D01*
X168292179Y-118775048D01*
X168292181Y-118775049D01*
X168292184Y-118775051D01*
X168481588Y-118871557D01*
X168510753Y-118881033D01*
X168568426Y-118920468D01*
X168595625Y-118984826D01*
X168583712Y-119053673D01*
X168536469Y-119105149D01*
X168528730Y-119109447D01*
X168397269Y-119176431D01*
X168381466Y-119187912D01*
X168381466Y-119187913D01*
X168870591Y-119677037D01*
X168807007Y-119694075D01*
X168692993Y-119759901D01*
X168599901Y-119852993D01*
X168534075Y-119967007D01*
X168517037Y-120030590D01*
X168027912Y-119541466D01*
X168016432Y-119557269D01*
X167934254Y-119718547D01*
X167934251Y-119718555D01*
X167878317Y-119890706D01*
X167850000Y-120069493D01*
X167850000Y-120250506D01*
X167878317Y-120429293D01*
X167934251Y-120601444D01*
X167934252Y-120601447D01*
X168016431Y-120762730D01*
X168027913Y-120778532D01*
X168027913Y-120778533D01*
X168517037Y-120289408D01*
X168534075Y-120352993D01*
X168599901Y-120467007D01*
X168692993Y-120560099D01*
X168807007Y-120625925D01*
X168870590Y-120642962D01*
X168381466Y-121132085D01*
X168381466Y-121132086D01*
X168397267Y-121143566D01*
X168397275Y-121143571D01*
X168558552Y-121225747D01*
X168558555Y-121225748D01*
X168656491Y-121257569D01*
X168714166Y-121297006D01*
X168741365Y-121361365D01*
X168729451Y-121430211D01*
X168682207Y-121481687D01*
X168618173Y-121499500D01*
X165884329Y-121499500D01*
X165817290Y-121479815D01*
X165771535Y-121427011D01*
X165761591Y-121357853D01*
X165773844Y-121319205D01*
X165786535Y-121294297D01*
X165849873Y-121169989D01*
X165903402Y-121005245D01*
X165930500Y-120834155D01*
X165930500Y-120060933D01*
X165903402Y-119889843D01*
X165849873Y-119725099D01*
X165771232Y-119570756D01*
X165669414Y-119430616D01*
X165546928Y-119308130D01*
X165406788Y-119206312D01*
X165252445Y-119127671D01*
X165087701Y-119074142D01*
X165087699Y-119074141D01*
X165087698Y-119074141D01*
X164956271Y-119053325D01*
X164916611Y-119047044D01*
X164743389Y-119047044D01*
X164703728Y-119053325D01*
X164572302Y-119074141D01*
X164407552Y-119127672D01*
X164253211Y-119206312D01*
X164173256Y-119264403D01*
X164113072Y-119308130D01*
X164113070Y-119308132D01*
X164113069Y-119308132D01*
X163990588Y-119430613D01*
X163990588Y-119430614D01*
X163990586Y-119430616D01*
X163946859Y-119490800D01*
X163888768Y-119570755D01*
X163810128Y-119725096D01*
X163756597Y-119889846D01*
X163729500Y-120060933D01*
X163729500Y-120834155D01*
X163756598Y-121005245D01*
X163801543Y-121143571D01*
X163810128Y-121169991D01*
X163886156Y-121319205D01*
X163899052Y-121387875D01*
X163872776Y-121452615D01*
X163815669Y-121492872D01*
X163775671Y-121499500D01*
X157224329Y-121499500D01*
X157157290Y-121479815D01*
X157111535Y-121427011D01*
X157101591Y-121357853D01*
X157113844Y-121319205D01*
X157126535Y-121294297D01*
X157189873Y-121169989D01*
X157243402Y-121005245D01*
X157270500Y-120834155D01*
X157270500Y-120060933D01*
X157243402Y-119889843D01*
X157189873Y-119725099D01*
X157111232Y-119570756D01*
X157009414Y-119430616D01*
X156886928Y-119308130D01*
X156746788Y-119206312D01*
X156592445Y-119127671D01*
X156427701Y-119074142D01*
X156427699Y-119074141D01*
X156427698Y-119074141D01*
X156296271Y-119053325D01*
X156256611Y-119047044D01*
X156083389Y-119047044D01*
X156043728Y-119053325D01*
X155912302Y-119074141D01*
X155747552Y-119127672D01*
X155593211Y-119206312D01*
X155513256Y-119264403D01*
X155453072Y-119308130D01*
X155453070Y-119308132D01*
X155453069Y-119308132D01*
X155330588Y-119430613D01*
X155330588Y-119430614D01*
X155330586Y-119430616D01*
X155286859Y-119490800D01*
X155228768Y-119570755D01*
X155150128Y-119725096D01*
X155096597Y-119889846D01*
X155069500Y-120060933D01*
X155069500Y-120834155D01*
X155096598Y-121005245D01*
X155141543Y-121143571D01*
X155150128Y-121169991D01*
X155226156Y-121319205D01*
X155239052Y-121387875D01*
X155212776Y-121452615D01*
X155155669Y-121492872D01*
X155115671Y-121499500D01*
X152217068Y-121499500D01*
X152150029Y-121479815D01*
X152104274Y-121427011D01*
X152094330Y-121357853D01*
X152123355Y-121294297D01*
X152182133Y-121256523D01*
X152197670Y-121253027D01*
X152269293Y-121241682D01*
X152441444Y-121185748D01*
X152441452Y-121185745D01*
X152602730Y-121103568D01*
X152618532Y-121092085D01*
X152618533Y-121092085D01*
X152129410Y-120602962D01*
X152192993Y-120585925D01*
X152307007Y-120520099D01*
X152400099Y-120427007D01*
X152465925Y-120312993D01*
X152482962Y-120249409D01*
X152972085Y-120738532D01*
X152983568Y-120722730D01*
X153065745Y-120561452D01*
X153065748Y-120561444D01*
X153121682Y-120389293D01*
X153150000Y-120210506D01*
X153150000Y-120029493D01*
X153121682Y-119850706D01*
X153065748Y-119678555D01*
X153065747Y-119678552D01*
X152983571Y-119517275D01*
X152983566Y-119517267D01*
X152972085Y-119501466D01*
X152482962Y-119990589D01*
X152465925Y-119927007D01*
X152400099Y-119812993D01*
X152307007Y-119719901D01*
X152192993Y-119654075D01*
X152129409Y-119637037D01*
X152618533Y-119147913D01*
X152602727Y-119136429D01*
X152471269Y-119069447D01*
X152420474Y-119021473D01*
X152403679Y-118953651D01*
X152426217Y-118887517D01*
X152480932Y-118844066D01*
X152489216Y-118841043D01*
X152518412Y-118831557D01*
X152707816Y-118735051D01*
X152729789Y-118719086D01*
X152879786Y-118610109D01*
X152879788Y-118610106D01*
X152879792Y-118610104D01*
X153030104Y-118459792D01*
X153030106Y-118459788D01*
X153030109Y-118459786D01*
X153155048Y-118287820D01*
X153155047Y-118287820D01*
X153155051Y-118287816D01*
X153251557Y-118098412D01*
X153317246Y-117896243D01*
X153350500Y-117686287D01*
X153350500Y-117473713D01*
X153317246Y-117263757D01*
X153303506Y-117221473D01*
X153301512Y-117151635D01*
X153333755Y-117095478D01*
X153817154Y-116612080D01*
X153878473Y-116578598D01*
X153948165Y-116583582D01*
G37*
%TD.AperFunction*%
%TA.AperFunction,Conductor*%
G36*
X170430211Y-118046949D02*
G01*
X170481687Y-118094193D01*
X170499500Y-118158226D01*
X170499500Y-121375500D01*
X170479815Y-121442539D01*
X170427011Y-121488294D01*
X170375500Y-121499500D01*
X169381827Y-121499500D01*
X169314788Y-121479815D01*
X169269033Y-121427011D01*
X169259089Y-121357853D01*
X169288114Y-121294297D01*
X169343509Y-121257569D01*
X169441444Y-121225748D01*
X169441452Y-121225745D01*
X169602730Y-121143568D01*
X169618532Y-121132085D01*
X169618533Y-121132085D01*
X169129410Y-120642962D01*
X169192993Y-120625925D01*
X169307007Y-120560099D01*
X169400099Y-120467007D01*
X169465925Y-120352993D01*
X169482962Y-120289409D01*
X169972085Y-120778532D01*
X169983568Y-120762730D01*
X170065745Y-120601452D01*
X170065748Y-120601444D01*
X170121682Y-120429293D01*
X170150000Y-120250506D01*
X170150000Y-120069493D01*
X170121682Y-119890706D01*
X170065748Y-119718555D01*
X170065747Y-119718552D01*
X169983571Y-119557275D01*
X169983566Y-119557267D01*
X169972085Y-119541466D01*
X169482962Y-120030589D01*
X169465925Y-119967007D01*
X169400099Y-119852993D01*
X169307007Y-119759901D01*
X169192993Y-119694075D01*
X169129409Y-119677037D01*
X169618533Y-119187913D01*
X169602727Y-119176429D01*
X169471269Y-119109447D01*
X169420474Y-119061473D01*
X169403679Y-118993651D01*
X169426217Y-118927517D01*
X169480932Y-118884066D01*
X169489216Y-118881043D01*
X169518412Y-118871557D01*
X169707816Y-118775051D01*
X169762876Y-118735048D01*
X169879786Y-118650109D01*
X169879788Y-118650106D01*
X169879792Y-118650104D01*
X170030104Y-118499792D01*
X170030106Y-118499788D01*
X170030109Y-118499786D01*
X170155048Y-118327820D01*
X170155047Y-118327820D01*
X170155051Y-118327816D01*
X170251557Y-118138412D01*
X170257569Y-118119907D01*
X170297006Y-118062232D01*
X170361365Y-118035034D01*
X170430211Y-118046949D01*
G37*
%TD.AperFunction*%
%TA.AperFunction,Conductor*%
G36*
X160670884Y-70110566D02*
G01*
X160677362Y-70116598D01*
X160778349Y-70217585D01*
X160778355Y-70217590D01*
X161357982Y-70797217D01*
X161357992Y-70797228D01*
X161362322Y-70801558D01*
X161362323Y-70801559D01*
X161474127Y-70913363D01*
X161560938Y-70963482D01*
X161560940Y-70963484D01*
X161598994Y-70985454D01*
X161611058Y-70992420D01*
X161763786Y-71033343D01*
X161921900Y-71033343D01*
X163501374Y-71033343D01*
X163568413Y-71053028D01*
X163589055Y-71069662D01*
X164763182Y-72243789D01*
X164796667Y-72305112D01*
X164799501Y-72331470D01*
X164799501Y-73813331D01*
X164799500Y-73813349D01*
X164799500Y-73979055D01*
X164799499Y-73979055D01*
X164840424Y-74131787D01*
X164851426Y-74150841D01*
X164851427Y-74150846D01*
X164851428Y-74150846D01*
X164919476Y-74268710D01*
X164919480Y-74268715D01*
X164919481Y-74268717D01*
X165031285Y-74380521D01*
X165031286Y-74380522D01*
X165157051Y-74506287D01*
X165260338Y-74609573D01*
X165293823Y-74670896D01*
X165296657Y-74697254D01*
X165296657Y-76844740D01*
X165296656Y-76844740D01*
X165337582Y-76997475D01*
X165337583Y-76997476D01*
X165361292Y-77038540D01*
X165361293Y-77038542D01*
X165416633Y-77134395D01*
X165416639Y-77134403D01*
X165494653Y-77212417D01*
X165528138Y-77273740D01*
X165530972Y-77300098D01*
X165530972Y-78553370D01*
X165530971Y-78553370D01*
X165571896Y-78706101D01*
X165584354Y-78727678D01*
X165584355Y-78727681D01*
X165650948Y-78843025D01*
X165650954Y-78843033D01*
X165769822Y-78961901D01*
X165769828Y-78961906D01*
X166020338Y-79212416D01*
X166053823Y-79273739D01*
X166056657Y-79300097D01*
X166056657Y-80761861D01*
X166056656Y-80761879D01*
X166056656Y-80927586D01*
X166056657Y-80927588D01*
X166073341Y-80989854D01*
X166073353Y-80989896D01*
X166097580Y-81080314D01*
X166097583Y-81080319D01*
X166176632Y-81217238D01*
X166176638Y-81217246D01*
X166254653Y-81295261D01*
X166288138Y-81356584D01*
X166290972Y-81382942D01*
X166290972Y-82420943D01*
X166290972Y-82579057D01*
X166296109Y-82598226D01*
X166331895Y-82731783D01*
X166331898Y-82731790D01*
X166410947Y-82868709D01*
X166410951Y-82868714D01*
X166410952Y-82868716D01*
X166522756Y-82980520D01*
X166522757Y-82980521D01*
X166522759Y-82980522D01*
X166528797Y-82984008D01*
X166554480Y-83003715D01*
X167666241Y-84115476D01*
X167699726Y-84176799D01*
X167696492Y-84241473D01*
X167682753Y-84283757D01*
X167649500Y-84493713D01*
X167649500Y-84706286D01*
X167676418Y-84876243D01*
X167682754Y-84916243D01*
X167734075Y-85074193D01*
X167748444Y-85118414D01*
X167844951Y-85307820D01*
X167969890Y-85479786D01*
X168120213Y-85630109D01*
X168292182Y-85755050D01*
X168300946Y-85759516D01*
X168351742Y-85807491D01*
X168368536Y-85875312D01*
X168345998Y-85941447D01*
X168300946Y-85980484D01*
X168292182Y-85984949D01*
X168120213Y-86109890D01*
X167969890Y-86260213D01*
X167844951Y-86432179D01*
X167748444Y-86621585D01*
X167682753Y-86823760D01*
X167649500Y-87033713D01*
X167649500Y-87246286D01*
X167676418Y-87416243D01*
X167682754Y-87456243D01*
X167734075Y-87614193D01*
X167748444Y-87658414D01*
X167844951Y-87847820D01*
X167969890Y-88019786D01*
X168120213Y-88170109D01*
X168292182Y-88295050D01*
X168300946Y-88299516D01*
X168351742Y-88347491D01*
X168368536Y-88415312D01*
X168345998Y-88481447D01*
X168300946Y-88520484D01*
X168292182Y-88524949D01*
X168120213Y-88649890D01*
X167969890Y-88800213D01*
X167844951Y-88972179D01*
X167748444Y-89161585D01*
X167682753Y-89363760D01*
X167649500Y-89573713D01*
X167649500Y-89786286D01*
X167676418Y-89956243D01*
X167682754Y-89996243D01*
X167746124Y-90191276D01*
X167748444Y-90198414D01*
X167844951Y-90387820D01*
X167969890Y-90559786D01*
X168120213Y-90710109D01*
X168292182Y-90835050D01*
X168300946Y-90839516D01*
X168351742Y-90887491D01*
X168368536Y-90955312D01*
X168345998Y-91021447D01*
X168300946Y-91060484D01*
X168292182Y-91064949D01*
X168120213Y-91189890D01*
X167969890Y-91340213D01*
X167844951Y-91512179D01*
X167748444Y-91701585D01*
X167682753Y-91903760D01*
X167649500Y-92113713D01*
X167649500Y-92326286D01*
X167677013Y-92500000D01*
X167682754Y-92536243D01*
X167734075Y-92694193D01*
X167748444Y-92738414D01*
X167844951Y-92927820D01*
X167969890Y-93099786D01*
X168120213Y-93250109D01*
X168292182Y-93375050D01*
X168300946Y-93379516D01*
X168351742Y-93427491D01*
X168368536Y-93495312D01*
X168345998Y-93561447D01*
X168300946Y-93600484D01*
X168292182Y-93604949D01*
X168120213Y-93729890D01*
X167969890Y-93880213D01*
X167844951Y-94052179D01*
X167748444Y-94241585D01*
X167682753Y-94443760D01*
X167649500Y-94653713D01*
X167649500Y-94866286D01*
X167676418Y-95036243D01*
X167682754Y-95076243D01*
X167734075Y-95234193D01*
X167748444Y-95278414D01*
X167844951Y-95467820D01*
X167969890Y-95639786D01*
X168120213Y-95790109D01*
X168292182Y-95915050D01*
X168300946Y-95919516D01*
X168351742Y-95967491D01*
X168368536Y-96035312D01*
X168345998Y-96101447D01*
X168300946Y-96140484D01*
X168292182Y-96144949D01*
X168120213Y-96269890D01*
X167969890Y-96420213D01*
X167844951Y-96592179D01*
X167748444Y-96781585D01*
X167682753Y-96983760D01*
X167649500Y-97193713D01*
X167649500Y-97406286D01*
X167679086Y-97593088D01*
X167682754Y-97616243D01*
X167734075Y-97774193D01*
X167748444Y-97818414D01*
X167844951Y-98007820D01*
X167969890Y-98179786D01*
X168120213Y-98330109D01*
X168292182Y-98455050D01*
X168300946Y-98459516D01*
X168351742Y-98507491D01*
X168368536Y-98575312D01*
X168345998Y-98641447D01*
X168300946Y-98680484D01*
X168292182Y-98684949D01*
X168120213Y-98809890D01*
X167969890Y-98960213D01*
X167844951Y-99132179D01*
X167748444Y-99321585D01*
X167682753Y-99523760D01*
X167649500Y-99733713D01*
X167649500Y-99946286D01*
X167676418Y-100116243D01*
X167682754Y-100156243D01*
X167734075Y-100314193D01*
X167748444Y-100358414D01*
X167844951Y-100547820D01*
X167969890Y-100719786D01*
X168120213Y-100870109D01*
X168292182Y-100995050D01*
X168300946Y-100999516D01*
X168351742Y-101047491D01*
X168368536Y-101115312D01*
X168345998Y-101181447D01*
X168300946Y-101220484D01*
X168292182Y-101224949D01*
X168120213Y-101349890D01*
X167969890Y-101500213D01*
X167844951Y-101672179D01*
X167748444Y-101861585D01*
X167682753Y-102063760D01*
X167675254Y-102111109D01*
X167649500Y-102273713D01*
X167649500Y-102486287D01*
X167654553Y-102518190D01*
X167676418Y-102656243D01*
X167682754Y-102696243D01*
X167734075Y-102854193D01*
X167748444Y-102898414D01*
X167844951Y-103087820D01*
X167969890Y-103259786D01*
X168120213Y-103410109D01*
X168292182Y-103535050D01*
X168300946Y-103539516D01*
X168351742Y-103587491D01*
X168368536Y-103655312D01*
X168345998Y-103721447D01*
X168300946Y-103760484D01*
X168292182Y-103764949D01*
X168120213Y-103889890D01*
X167969890Y-104040213D01*
X167844951Y-104212179D01*
X167748444Y-104401585D01*
X167682753Y-104603760D01*
X167649500Y-104813713D01*
X167649500Y-105026286D01*
X167676418Y-105196243D01*
X167682754Y-105236243D01*
X167736124Y-105400499D01*
X167748444Y-105438414D01*
X167844951Y-105627820D01*
X167969890Y-105799786D01*
X168120213Y-105950109D01*
X168292182Y-106075050D01*
X168300946Y-106079516D01*
X168351742Y-106127491D01*
X168368536Y-106195312D01*
X168345998Y-106261447D01*
X168300946Y-106300484D01*
X168292182Y-106304949D01*
X168120213Y-106429890D01*
X167969890Y-106580213D01*
X167844951Y-106752179D01*
X167748444Y-106941585D01*
X167682753Y-107143760D01*
X167649500Y-107353713D01*
X167649500Y-107566286D01*
X167682106Y-107772157D01*
X167682754Y-107776243D01*
X167737364Y-107944315D01*
X167748444Y-107978414D01*
X167844951Y-108167820D01*
X167969890Y-108339786D01*
X168120213Y-108490109D01*
X168292182Y-108615050D01*
X168300946Y-108619516D01*
X168351742Y-108667491D01*
X168368536Y-108735312D01*
X168345998Y-108801447D01*
X168300946Y-108840484D01*
X168292182Y-108844949D01*
X168120213Y-108969890D01*
X167969890Y-109120213D01*
X167844951Y-109292179D01*
X167748444Y-109481585D01*
X167682753Y-109683760D01*
X167649500Y-109893713D01*
X167649500Y-110106286D01*
X167676418Y-110276243D01*
X167682754Y-110316243D01*
X167741593Y-110497331D01*
X167748444Y-110518414D01*
X167844951Y-110707820D01*
X167969890Y-110879786D01*
X168120213Y-111030109D01*
X168292182Y-111155050D01*
X168300946Y-111159516D01*
X168351742Y-111207491D01*
X168368536Y-111275312D01*
X168345998Y-111341447D01*
X168300946Y-111380484D01*
X168292182Y-111384949D01*
X168120213Y-111509890D01*
X167969890Y-111660213D01*
X167844951Y-111832179D01*
X167748444Y-112021585D01*
X167682753Y-112223760D01*
X167649500Y-112433713D01*
X167649500Y-112646286D01*
X167676418Y-112816243D01*
X167682754Y-112856243D01*
X167734075Y-113014193D01*
X167748444Y-113058414D01*
X167844951Y-113247820D01*
X167969890Y-113419786D01*
X168120213Y-113570109D01*
X168292182Y-113695050D01*
X168300946Y-113699516D01*
X168351742Y-113747491D01*
X168368536Y-113815312D01*
X168345998Y-113881447D01*
X168300946Y-113920484D01*
X168292182Y-113924949D01*
X168120213Y-114049890D01*
X167969890Y-114200213D01*
X167844951Y-114372179D01*
X167748444Y-114561585D01*
X167682753Y-114763760D01*
X167649500Y-114973713D01*
X167649500Y-115186286D01*
X167676418Y-115356243D01*
X167682754Y-115396243D01*
X167735286Y-115557920D01*
X167748444Y-115598414D01*
X167844951Y-115787820D01*
X167969890Y-115959786D01*
X168120213Y-116110109D01*
X168292182Y-116235050D01*
X168300946Y-116239516D01*
X168351742Y-116287491D01*
X168368536Y-116355312D01*
X168345998Y-116421447D01*
X168300946Y-116460484D01*
X168292182Y-116464949D01*
X168120213Y-116589890D01*
X167969890Y-116740213D01*
X167844948Y-116912184D01*
X167844947Y-116912185D01*
X167824765Y-116951795D01*
X167776791Y-117002591D01*
X167714281Y-117019500D01*
X166033659Y-117019500D01*
X165966620Y-116999815D01*
X165920865Y-116947011D01*
X165910921Y-116877853D01*
X165911186Y-116876103D01*
X165930500Y-116754155D01*
X165930500Y-115780933D01*
X165921097Y-115721567D01*
X165903402Y-115609843D01*
X165849873Y-115445099D01*
X165771232Y-115290756D01*
X165669414Y-115150616D01*
X165645478Y-115126680D01*
X165611993Y-115065357D01*
X165616977Y-114995665D01*
X165658849Y-114939732D01*
X165724313Y-114915315D01*
X165733159Y-114914999D01*
X166474786Y-114914999D01*
X166474808Y-114914997D01*
X166499869Y-114912091D01*
X166499873Y-114912090D01*
X166602474Y-114866788D01*
X166602479Y-114866785D01*
X166681785Y-114787479D01*
X166681788Y-114787474D01*
X166727089Y-114684877D01*
X166727089Y-114684875D01*
X166729999Y-114659794D01*
X166730000Y-114659791D01*
X166730000Y-114250000D01*
X165624000Y-114250000D01*
X165556961Y-114230315D01*
X165511206Y-114177511D01*
X165500000Y-114126000D01*
X165500000Y-114000000D01*
X165374000Y-114000000D01*
X165306961Y-113980315D01*
X165261206Y-113927511D01*
X165250000Y-113876000D01*
X165250000Y-113750000D01*
X165750000Y-113750000D01*
X166729999Y-113750000D01*
X166729999Y-113340214D01*
X166729997Y-113340191D01*
X166727091Y-113315130D01*
X166727090Y-113315126D01*
X166681788Y-113212525D01*
X166681785Y-113212520D01*
X166602479Y-113133214D01*
X166602474Y-113133211D01*
X166499876Y-113087910D01*
X166474794Y-113085000D01*
X165750000Y-113085000D01*
X165750000Y-113750000D01*
X165250000Y-113750000D01*
X165250000Y-113085000D01*
X164724500Y-113085000D01*
X164657461Y-113065315D01*
X164611706Y-113012511D01*
X164600500Y-112961000D01*
X164600500Y-110879499D01*
X164620185Y-110812460D01*
X164672989Y-110766705D01*
X164724500Y-110755499D01*
X166477871Y-110755499D01*
X166477872Y-110755499D01*
X166537483Y-110749091D01*
X166672331Y-110698796D01*
X166787546Y-110612546D01*
X166873796Y-110497331D01*
X166924091Y-110362483D01*
X166930500Y-110302873D01*
X166930499Y-108977128D01*
X166924091Y-108917517D01*
X166895360Y-108840486D01*
X166873797Y-108782671D01*
X166873793Y-108782664D01*
X166787547Y-108667455D01*
X166787544Y-108667452D01*
X166665231Y-108575888D01*
X166666230Y-108574553D01*
X166624136Y-108532454D01*
X166609288Y-108464181D01*
X166629871Y-108404141D01*
X166646551Y-108379179D01*
X166706894Y-108233497D01*
X166737657Y-108078842D01*
X166737657Y-107921158D01*
X166737657Y-107921155D01*
X166737656Y-107921153D01*
X166730852Y-107886949D01*
X166706894Y-107766503D01*
X166666183Y-107668216D01*
X166646554Y-107620827D01*
X166646547Y-107620814D01*
X166558946Y-107489711D01*
X166558943Y-107489707D01*
X166447449Y-107378213D01*
X166447445Y-107378210D01*
X166316342Y-107290609D01*
X166316329Y-107290602D01*
X166170658Y-107230264D01*
X166170646Y-107230261D01*
X166016002Y-107199500D01*
X166015999Y-107199500D01*
X165897607Y-107199500D01*
X165830568Y-107179815D01*
X165784813Y-107127011D01*
X165778530Y-107110093D01*
X165772869Y-107090608D01*
X165772869Y-107090607D01*
X165691135Y-106952402D01*
X165691133Y-106952400D01*
X165691130Y-106952396D01*
X165577603Y-106838869D01*
X165577595Y-106838863D01*
X165439393Y-106757131D01*
X165439388Y-106757129D01*
X165285208Y-106712335D01*
X165285202Y-106712334D01*
X165249181Y-106709500D01*
X164750830Y-106709500D01*
X164750796Y-106709502D01*
X164739521Y-106710389D01*
X164671145Y-106696021D01*
X164621391Y-106646967D01*
X164606510Y-106600022D01*
X164604091Y-106577516D01*
X164553797Y-106442671D01*
X164553793Y-106442664D01*
X164467547Y-106327455D01*
X164467544Y-106327452D01*
X164352335Y-106241206D01*
X164352328Y-106241202D01*
X164217482Y-106190908D01*
X164217483Y-106190908D01*
X164157883Y-106184501D01*
X164157881Y-106184500D01*
X164157873Y-106184500D01*
X164157865Y-106184500D01*
X163445097Y-106184500D01*
X163415656Y-106175855D01*
X163385670Y-106169332D01*
X163380654Y-106165577D01*
X163378058Y-106164815D01*
X163357416Y-106148181D01*
X163227590Y-106018355D01*
X163227588Y-106018352D01*
X163108717Y-105899481D01*
X163108716Y-105899480D01*
X163009245Y-105842051D01*
X163009244Y-105842050D01*
X162971783Y-105820422D01*
X162894790Y-105799792D01*
X162819057Y-105779499D01*
X162660943Y-105779499D01*
X162653347Y-105779499D01*
X162653331Y-105779500D01*
X161555940Y-105779500D01*
X161515019Y-105790464D01*
X161515019Y-105790465D01*
X161480233Y-105799786D01*
X161403214Y-105820423D01*
X161403209Y-105820426D01*
X161266290Y-105899475D01*
X161266282Y-105899481D01*
X161022583Y-106143181D01*
X160961260Y-106176666D01*
X160934902Y-106179500D01*
X160802052Y-106179500D01*
X160765326Y-106182390D01*
X160765320Y-106182391D01*
X160608107Y-106228066D01*
X160608104Y-106228068D01*
X160467182Y-106311408D01*
X160467174Y-106311414D01*
X160351414Y-106427174D01*
X160351408Y-106427182D01*
X160268068Y-106568104D01*
X160268066Y-106568107D01*
X160222391Y-106725320D01*
X160222390Y-106725326D01*
X160219500Y-106762052D01*
X160219500Y-107237947D01*
X160222390Y-107274673D01*
X160222391Y-107274679D01*
X160268066Y-107431892D01*
X160268068Y-107431895D01*
X160351408Y-107572817D01*
X160351414Y-107572825D01*
X160366408Y-107587819D01*
X160399893Y-107649142D01*
X160394909Y-107718834D01*
X160353037Y-107774767D01*
X160287573Y-107799184D01*
X160278727Y-107799500D01*
X159702972Y-107799500D01*
X159635933Y-107779815D01*
X159590178Y-107727011D01*
X159585930Y-107716454D01*
X159563404Y-107652078D01*
X159484641Y-107545358D01*
X159377919Y-107466594D01*
X159252727Y-107422787D01*
X159252725Y-107422786D01*
X159250000Y-107422530D01*
X159250000Y-107813989D01*
X159230315Y-107881028D01*
X159210500Y-107904740D01*
X159200194Y-107914335D01*
X159191284Y-107919480D01*
X159145513Y-107965250D01*
X159143902Y-107966751D01*
X159114546Y-107981447D01*
X159085760Y-107997166D01*
X159082434Y-107997523D01*
X159081425Y-107998029D01*
X159079578Y-107997830D01*
X159059402Y-108000000D01*
X159000000Y-108000000D01*
X159000000Y-108055500D01*
X158980315Y-108122539D01*
X158927511Y-108168294D01*
X158876000Y-108179500D01*
X158765302Y-108179500D01*
X158729008Y-108182356D01*
X158729002Y-108182357D01*
X158573610Y-108227503D01*
X158573605Y-108227506D01*
X158564766Y-108232732D01*
X158501648Y-108250000D01*
X158402331Y-108250000D01*
X158400800Y-108252157D01*
X158403971Y-108314289D01*
X158371051Y-108373144D01*
X158319883Y-108424312D01*
X158319879Y-108424318D01*
X158237505Y-108563606D01*
X158237504Y-108563609D01*
X158192357Y-108719002D01*
X158192356Y-108719008D01*
X158189500Y-108755302D01*
X158189500Y-109164697D01*
X158192356Y-109200991D01*
X158192357Y-109200997D01*
X158229680Y-109329461D01*
X158229481Y-109399330D01*
X158191539Y-109458000D01*
X158127900Y-109486844D01*
X158095820Y-109487171D01*
X158036104Y-109480000D01*
X157995000Y-109480000D01*
X157995000Y-109980000D01*
X158520000Y-109980000D01*
X158520000Y-109963897D01*
X158509868Y-109879532D01*
X158507919Y-109871820D01*
X158510010Y-109871291D01*
X158504732Y-109812862D01*
X158537065Y-109750924D01*
X158597752Y-109716299D01*
X158660965Y-109717875D01*
X158729002Y-109737642D01*
X158729005Y-109737642D01*
X158729007Y-109737643D01*
X158765310Y-109740500D01*
X158765318Y-109740500D01*
X159125499Y-109740500D01*
X159192538Y-109760185D01*
X159238293Y-109812989D01*
X159249499Y-109864500D01*
X159249499Y-110803200D01*
X159252400Y-110840066D01*
X159252401Y-110840072D01*
X159298253Y-110997892D01*
X159298254Y-110997894D01*
X159298255Y-110997897D01*
X159317302Y-111030104D01*
X159346125Y-111078842D01*
X159381917Y-111139363D01*
X159381922Y-111139369D01*
X159498128Y-111255575D01*
X159498131Y-111255577D01*
X159498134Y-111255580D01*
X159498449Y-111255766D01*
X159498645Y-111255976D01*
X159504297Y-111260360D01*
X159503589Y-111261271D01*
X159546133Y-111306835D01*
X159558637Y-111375576D01*
X159531993Y-111440166D01*
X159504079Y-111464355D01*
X159504299Y-111464638D01*
X159499105Y-111468666D01*
X159498462Y-111469224D01*
X159498144Y-111469412D01*
X159498130Y-111469422D01*
X159381924Y-111585628D01*
X159381918Y-111585636D01*
X159298256Y-111727102D01*
X159298255Y-111727105D01*
X159252403Y-111884925D01*
X159252402Y-111884931D01*
X159249501Y-111921797D01*
X159249501Y-112510495D01*
X159229816Y-112577534D01*
X159177012Y-112623289D01*
X159107854Y-112633233D01*
X159044298Y-112604208D01*
X159025732Y-112584130D01*
X158996066Y-112543935D01*
X158890559Y-112466066D01*
X158890557Y-112466065D01*
X158766784Y-112422755D01*
X158765283Y-112422427D01*
X158764281Y-112421879D01*
X158759663Y-112420263D01*
X158759930Y-112419498D01*
X158703989Y-112388890D01*
X158670557Y-112327538D01*
X158674039Y-112262282D01*
X158710349Y-112152708D01*
X158720500Y-112053345D01*
X158720499Y-111506656D01*
X158716743Y-111469890D01*
X158710349Y-111407292D01*
X158710348Y-111407289D01*
X158695507Y-111362501D01*
X158657003Y-111246303D01*
X158656999Y-111246297D01*
X158656998Y-111246294D01*
X158567970Y-111101959D01*
X158567967Y-111101955D01*
X158448043Y-110982031D01*
X158432190Y-110972253D01*
X158385466Y-110920305D01*
X158374245Y-110851342D01*
X158398485Y-110791789D01*
X158456922Y-110714729D01*
X158509868Y-110580468D01*
X158509868Y-110580467D01*
X158520000Y-110496102D01*
X158520000Y-110480000D01*
X157869000Y-110480000D01*
X157801961Y-110460315D01*
X157756206Y-110407511D01*
X157745000Y-110356000D01*
X157745000Y-110230000D01*
X157619000Y-110230000D01*
X157551961Y-110210315D01*
X157506206Y-110157511D01*
X157495000Y-110106000D01*
X157495000Y-109480000D01*
X157453898Y-109480000D01*
X157369532Y-109490131D01*
X157369531Y-109490131D01*
X157235270Y-109543077D01*
X157129424Y-109623343D01*
X157116476Y-109628264D01*
X157106010Y-109637333D01*
X157084463Y-109640431D01*
X157064112Y-109648166D01*
X157050560Y-109645305D01*
X157036852Y-109647277D01*
X157017049Y-109638233D01*
X156995749Y-109633738D01*
X156985895Y-109624005D01*
X156973296Y-109618252D01*
X156961525Y-109599936D01*
X156946038Y-109584640D01*
X156942230Y-109569912D01*
X156935522Y-109559474D01*
X156930499Y-109524539D01*
X156930499Y-109280794D01*
X156950184Y-109213755D01*
X156991376Y-109174063D01*
X157065687Y-109130117D01*
X157180117Y-109015687D01*
X157262494Y-108876395D01*
X157307643Y-108720993D01*
X157310500Y-108684690D01*
X157310500Y-108275310D01*
X157307643Y-108239007D01*
X157307102Y-108237146D01*
X157266041Y-108095815D01*
X157262494Y-108083605D01*
X157180117Y-107944313D01*
X157180115Y-107944311D01*
X157180112Y-107944307D01*
X157128950Y-107893145D01*
X157121000Y-107878585D01*
X157109033Y-107867097D01*
X157104601Y-107848553D01*
X157095465Y-107831822D01*
X157096513Y-107814712D01*
X157092792Y-107799141D01*
X157098329Y-107770931D01*
X157097668Y-107770000D01*
X156998352Y-107770000D01*
X156935233Y-107752732D01*
X156930613Y-107750000D01*
X158402332Y-107750000D01*
X158750000Y-107750000D01*
X158750000Y-107422531D01*
X158749999Y-107422530D01*
X158747274Y-107422786D01*
X158747272Y-107422787D01*
X158622080Y-107466594D01*
X158515358Y-107545358D01*
X158436596Y-107652077D01*
X158402332Y-107750000D01*
X156930613Y-107750000D01*
X156926395Y-107747506D01*
X156926393Y-107747505D01*
X156926389Y-107747503D01*
X156770997Y-107702357D01*
X156770991Y-107702356D01*
X156734697Y-107699500D01*
X156734690Y-107699500D01*
X156265310Y-107699500D01*
X156265302Y-107699500D01*
X156229008Y-107702356D01*
X156229002Y-107702357D01*
X156073610Y-107747503D01*
X156073605Y-107747506D01*
X156064766Y-107752732D01*
X156001648Y-107770000D01*
X155902331Y-107770000D01*
X155900800Y-107772157D01*
X155903971Y-107834289D01*
X155871051Y-107893144D01*
X155819883Y-107944312D01*
X155819879Y-107944318D01*
X155737505Y-108083606D01*
X155737504Y-108083609D01*
X155692357Y-108239002D01*
X155692356Y-108239008D01*
X155689500Y-108275302D01*
X155689500Y-108389902D01*
X155669815Y-108456941D01*
X155653181Y-108477583D01*
X155462583Y-108668181D01*
X155401260Y-108701666D01*
X155374902Y-108704500D01*
X154724500Y-108704500D01*
X154657461Y-108684815D01*
X154611706Y-108632011D01*
X154600500Y-108580500D01*
X154600500Y-107270000D01*
X155902332Y-107270000D01*
X156250000Y-107270000D01*
X156250000Y-106978010D01*
X156750000Y-106978010D01*
X156750000Y-107270000D01*
X157097668Y-107270000D01*
X157063403Y-107172077D01*
X156984641Y-107065358D01*
X156877920Y-106986594D01*
X156822916Y-106967347D01*
X156750000Y-106978010D01*
X156250000Y-106978010D01*
X156250000Y-106942531D01*
X156249999Y-106942530D01*
X156247274Y-106942786D01*
X156247272Y-106942787D01*
X156122080Y-106986594D01*
X156015358Y-107065358D01*
X155936596Y-107172077D01*
X155902332Y-107270000D01*
X154600500Y-107270000D01*
X154600500Y-106750000D01*
X157250000Y-106750000D01*
X157291102Y-106750000D01*
X157375467Y-106739868D01*
X157375468Y-106739868D01*
X157509729Y-106686922D01*
X157624721Y-106599721D01*
X157711922Y-106484729D01*
X157764868Y-106350468D01*
X157764868Y-106350467D01*
X157775000Y-106266102D01*
X157775000Y-106250000D01*
X157250000Y-106250000D01*
X157250000Y-106750000D01*
X154600500Y-106750000D01*
X154600500Y-106630096D01*
X154620185Y-106563057D01*
X154636814Y-106542420D01*
X154913132Y-106266102D01*
X156225000Y-106266102D01*
X156235131Y-106350467D01*
X156235131Y-106350468D01*
X156288077Y-106484729D01*
X156375278Y-106599721D01*
X156490270Y-106686922D01*
X156624529Y-106739867D01*
X156646514Y-106742506D01*
X156750000Y-106727372D01*
X156750000Y-106250000D01*
X156225000Y-106250000D01*
X156225000Y-106266102D01*
X154913132Y-106266102D01*
X156026431Y-105152802D01*
X156032060Y-105149728D01*
X156035687Y-105144434D01*
X156062352Y-105133188D01*
X156087752Y-105119319D01*
X156094152Y-105119776D01*
X156100066Y-105117283D01*
X156128576Y-105122238D01*
X156157443Y-105124303D01*
X156164162Y-105128423D01*
X156168903Y-105129248D01*
X156189148Y-105143748D01*
X156198023Y-105149191D01*
X156199952Y-105150964D01*
X156296956Y-105247968D01*
X156322897Y-105263968D01*
X156331624Y-105271990D01*
X156343776Y-105292176D01*
X156359532Y-105309693D01*
X156361462Y-105321554D01*
X156367660Y-105331849D01*
X156366970Y-105355398D01*
X156370755Y-105378655D01*
X156365942Y-105390478D01*
X156365614Y-105401689D01*
X156355176Y-105416929D01*
X156346515Y-105438209D01*
X156288077Y-105515270D01*
X156235131Y-105649531D01*
X156235131Y-105649532D01*
X156225000Y-105733897D01*
X156225000Y-105750000D01*
X157774998Y-105750000D01*
X157810981Y-105714017D01*
X157872304Y-105680532D01*
X157939619Y-105684657D01*
X157986707Y-105701134D01*
X157989435Y-105701389D01*
X158489435Y-105701389D01*
X158492164Y-105701134D01*
X158617354Y-105657327D01*
X158724076Y-105578563D01*
X158802838Y-105471844D01*
X158837103Y-105373922D01*
X158489435Y-105373922D01*
X158489435Y-105701389D01*
X157989435Y-105701389D01*
X157989435Y-105247922D01*
X158009120Y-105180883D01*
X158061924Y-105135128D01*
X158113435Y-105123922D01*
X158239435Y-105123922D01*
X158239435Y-105068422D01*
X158259120Y-105001383D01*
X158311924Y-104955628D01*
X158363435Y-104944422D01*
X158474117Y-104944422D01*
X158474125Y-104944422D01*
X158510428Y-104941565D01*
X158510430Y-104941564D01*
X158510432Y-104941564D01*
X158665824Y-104896418D01*
X158665824Y-104896417D01*
X158665830Y-104896416D01*
X158674668Y-104891189D01*
X158737787Y-104873922D01*
X158837104Y-104873922D01*
X158871538Y-104825389D01*
X158879837Y-104807219D01*
X158884765Y-104804051D01*
X158887677Y-104798969D01*
X158913823Y-104785377D01*
X158938615Y-104769445D01*
X158946712Y-104768280D01*
X158949671Y-104766743D01*
X158973550Y-104764422D01*
X158999409Y-104764422D01*
X158999425Y-104764423D01*
X159007021Y-104764423D01*
X159165132Y-104764423D01*
X159165135Y-104764423D01*
X159317863Y-104723499D01*
X159390115Y-104681784D01*
X159454794Y-104644442D01*
X159566598Y-104532638D01*
X159566598Y-104532636D01*
X159576800Y-104522435D01*
X159576803Y-104522430D01*
X159602418Y-104496816D01*
X159663741Y-104463333D01*
X159690097Y-104460500D01*
X162323994Y-104460500D01*
X162391033Y-104480185D01*
X162436788Y-104532989D01*
X162440176Y-104541168D01*
X162446205Y-104557333D01*
X162446205Y-104557334D01*
X162532452Y-104672544D01*
X162532455Y-104672547D01*
X162647664Y-104758793D01*
X162647671Y-104758797D01*
X162782517Y-104809091D01*
X162782516Y-104809091D01*
X162789444Y-104809835D01*
X162842127Y-104815500D01*
X164157872Y-104815499D01*
X164217483Y-104809091D01*
X164352331Y-104758796D01*
X164467546Y-104672546D01*
X164553796Y-104557331D01*
X164604091Y-104422483D01*
X164610500Y-104362873D01*
X164610499Y-103357128D01*
X164604091Y-103297517D01*
X164590020Y-103259792D01*
X164553797Y-103162671D01*
X164553793Y-103162664D01*
X164467547Y-103047455D01*
X164467544Y-103047452D01*
X164352335Y-102961206D01*
X164352328Y-102961202D01*
X164217482Y-102910908D01*
X164217483Y-102910908D01*
X164157883Y-102904501D01*
X164157881Y-102904500D01*
X164157873Y-102904500D01*
X164157864Y-102904500D01*
X162842129Y-102904500D01*
X162842123Y-102904501D01*
X162782516Y-102910908D01*
X162647671Y-102961202D01*
X162647664Y-102961206D01*
X162532455Y-103047452D01*
X162532452Y-103047455D01*
X162446205Y-103162665D01*
X162446205Y-103162666D01*
X162440176Y-103178832D01*
X162398306Y-103234766D01*
X162332842Y-103259184D01*
X162323994Y-103259500D01*
X159890098Y-103259500D01*
X159823059Y-103239815D01*
X159802417Y-103223181D01*
X159136818Y-102557582D01*
X159103333Y-102496259D01*
X159100499Y-102469901D01*
X159100499Y-101848877D01*
X159100498Y-101848876D01*
X159097600Y-101806111D01*
X159051641Y-101621307D01*
X158970667Y-101458037D01*
X158967032Y-101450707D01*
X158967030Y-101450704D01*
X158847722Y-101302278D01*
X158847721Y-101302277D01*
X158778514Y-101246647D01*
X158738595Y-101189304D01*
X158736015Y-101119482D01*
X158771594Y-101059349D01*
X158778514Y-101053353D01*
X158796922Y-101038556D01*
X158847722Y-100997722D01*
X158967030Y-100849296D01*
X159051641Y-100678693D01*
X159054628Y-100672671D01*
X159056535Y-100673617D01*
X159092131Y-100625590D01*
X159157478Y-100600860D01*
X159166916Y-100600500D01*
X162275501Y-100600500D01*
X162342540Y-100620185D01*
X162388295Y-100672989D01*
X162399501Y-100724500D01*
X162399501Y-101458034D01*
X162410113Y-101577415D01*
X162466089Y-101773045D01*
X162466090Y-101773048D01*
X162466091Y-101773049D01*
X162560302Y-101953407D01*
X162594977Y-101995933D01*
X162688890Y-102111109D01*
X162782803Y-102187684D01*
X162846593Y-102239698D01*
X163026951Y-102333909D01*
X163222582Y-102389886D01*
X163341963Y-102400500D01*
X164458036Y-102400499D01*
X164577418Y-102389886D01*
X164773049Y-102333909D01*
X164953407Y-102239698D01*
X165111109Y-102111109D01*
X165239698Y-101953407D01*
X165333909Y-101773049D01*
X165389886Y-101577418D01*
X165400500Y-101458037D01*
X165400499Y-98541964D01*
X165389886Y-98422582D01*
X165333909Y-98226951D01*
X165239698Y-98046593D01*
X165160937Y-97950000D01*
X165111109Y-97888890D01*
X164995933Y-97794977D01*
X164953407Y-97760302D01*
X164773049Y-97666091D01*
X164773046Y-97666090D01*
X164648512Y-97630456D01*
X164589474Y-97593088D01*
X164560011Y-97529734D01*
X164569477Y-97460509D01*
X164594940Y-97423562D01*
X165229358Y-96789146D01*
X165290681Y-96755661D01*
X165317039Y-96752827D01*
X165431623Y-96752827D01*
X165431631Y-96752827D01*
X165467934Y-96749970D01*
X165467936Y-96749969D01*
X165467938Y-96749969D01*
X165541124Y-96728706D01*
X165623336Y-96704821D01*
X165762628Y-96622444D01*
X165877058Y-96508014D01*
X165959435Y-96368722D01*
X166001818Y-96222842D01*
X166004583Y-96213324D01*
X166004584Y-96213318D01*
X166007440Y-96177024D01*
X166007441Y-96177017D01*
X166007441Y-95767637D01*
X166004584Y-95731334D01*
X165959435Y-95575932D01*
X165877058Y-95436640D01*
X165877056Y-95436638D01*
X165877053Y-95436634D01*
X165825891Y-95385472D01*
X165792406Y-95324149D01*
X165796068Y-95264383D01*
X165794609Y-95262327D01*
X165695293Y-95262327D01*
X165632174Y-95245059D01*
X165623336Y-95239833D01*
X165623334Y-95239832D01*
X165623330Y-95239830D01*
X165467938Y-95194684D01*
X165467932Y-95194683D01*
X165431638Y-95191827D01*
X165431631Y-95191827D01*
X165320941Y-95191827D01*
X165253902Y-95172142D01*
X165208147Y-95119338D01*
X165196941Y-95067827D01*
X165196941Y-95012327D01*
X165070941Y-95012327D01*
X165003902Y-94992642D01*
X164958147Y-94939838D01*
X164946941Y-94888327D01*
X164946941Y-94762327D01*
X165446941Y-94762327D01*
X165794609Y-94762327D01*
X165760344Y-94664404D01*
X165681582Y-94557685D01*
X165574860Y-94478921D01*
X165449668Y-94435114D01*
X165449666Y-94435113D01*
X165446941Y-94434857D01*
X165446941Y-94762327D01*
X164946941Y-94762327D01*
X164946941Y-94434858D01*
X164946940Y-94434857D01*
X164944215Y-94435113D01*
X164944213Y-94435114D01*
X164819021Y-94478921D01*
X164712299Y-94557685D01*
X164633536Y-94664405D01*
X164621151Y-94699799D01*
X164580428Y-94756574D01*
X164515475Y-94782320D01*
X164465107Y-94776548D01*
X164381356Y-94748796D01*
X164281991Y-94738645D01*
X163685307Y-94738645D01*
X163685289Y-94738646D01*
X163585937Y-94748795D01*
X163585934Y-94748796D01*
X163424950Y-94802141D01*
X163424939Y-94802146D01*
X163280604Y-94891174D01*
X163280600Y-94891177D01*
X163160677Y-95011100D01*
X163160674Y-95011104D01*
X163071646Y-95155439D01*
X163071641Y-95155450D01*
X163018296Y-95316435D01*
X163008145Y-95415792D01*
X163008145Y-95962482D01*
X163008146Y-95962500D01*
X163018295Y-96061852D01*
X163018296Y-96061855D01*
X163071641Y-96222839D01*
X163071646Y-96222850D01*
X163160674Y-96367185D01*
X163160677Y-96367189D01*
X163280600Y-96487112D01*
X163280604Y-96487115D01*
X163424939Y-96576143D01*
X163424942Y-96576144D01*
X163424948Y-96576148D01*
X163473675Y-96592294D01*
X163500503Y-96610868D01*
X163528027Y-96628388D01*
X163529070Y-96630646D01*
X163531118Y-96632064D01*
X163543647Y-96662199D01*
X163557330Y-96691816D01*
X163556986Y-96694281D01*
X163557942Y-96696580D01*
X163552189Y-96728706D01*
X163547688Y-96761017D01*
X163545956Y-96763523D01*
X163545628Y-96765356D01*
X163528737Y-96790792D01*
X163525675Y-96794356D01*
X163419480Y-96900552D01*
X163394536Y-96943757D01*
X163340423Y-97037483D01*
X163299499Y-97190211D01*
X163299499Y-97190213D01*
X163299499Y-97358314D01*
X163299500Y-97358327D01*
X163299500Y-97494609D01*
X163279815Y-97561648D01*
X163227011Y-97607403D01*
X163209612Y-97613825D01*
X163026953Y-97666090D01*
X163026951Y-97666090D01*
X163026951Y-97666091D01*
X162846593Y-97760302D01*
X162846591Y-97760303D01*
X162846590Y-97760304D01*
X162688890Y-97888890D01*
X162560304Y-98046590D01*
X162466089Y-98226954D01*
X162429719Y-98354064D01*
X162410992Y-98419516D01*
X162410114Y-98422583D01*
X162410113Y-98422586D01*
X162406830Y-98459514D01*
X162400092Y-98535312D01*
X162399500Y-98541966D01*
X162399500Y-99275500D01*
X162379815Y-99342539D01*
X162327011Y-99388294D01*
X162275500Y-99399500D01*
X159166916Y-99399500D01*
X159099877Y-99379815D01*
X159054122Y-99327011D01*
X159052425Y-99322887D01*
X158967032Y-99150707D01*
X158967030Y-99150704D01*
X158847722Y-99002278D01*
X158847721Y-99002277D01*
X158699295Y-98882969D01*
X158623638Y-98845447D01*
X158572326Y-98798026D01*
X158554797Y-98730391D01*
X158576616Y-98664016D01*
X158614585Y-98628241D01*
X158644340Y-98610253D01*
X158644342Y-98610252D01*
X158760252Y-98494342D01*
X158760256Y-98494337D01*
X158845052Y-98354065D01*
X158893820Y-98197562D01*
X158900000Y-98129556D01*
X158900000Y-97950000D01*
X156300001Y-97950000D01*
X156300001Y-98129566D01*
X156306178Y-98197561D01*
X156306181Y-98197572D01*
X156354944Y-98354060D01*
X156354946Y-98354064D01*
X156439743Y-98494337D01*
X156439747Y-98494342D01*
X156555657Y-98610252D01*
X156555661Y-98610255D01*
X156585415Y-98628242D01*
X156632603Y-98679769D01*
X156644442Y-98748628D01*
X156617174Y-98812957D01*
X156576361Y-98845447D01*
X156500704Y-98882969D01*
X156352278Y-99002277D01*
X156352277Y-99002278D01*
X156232969Y-99150704D01*
X156232967Y-99150707D01*
X156148360Y-99321302D01*
X156102400Y-99506107D01*
X156099500Y-99548879D01*
X156099500Y-99999902D01*
X156079815Y-100066941D01*
X156063181Y-100087583D01*
X153553738Y-102597025D01*
X153492415Y-102630510D01*
X153422723Y-102625526D01*
X153366790Y-102583654D01*
X153342373Y-102518190D01*
X153343583Y-102489955D01*
X153350500Y-102446287D01*
X153350500Y-102233713D01*
X153317246Y-102023757D01*
X153251557Y-101821588D01*
X153155051Y-101632184D01*
X153155049Y-101632181D01*
X153155048Y-101632179D01*
X153030109Y-101460213D01*
X152879786Y-101309890D01*
X152707820Y-101184951D01*
X152703932Y-101182970D01*
X152699054Y-101180485D01*
X152648259Y-101132512D01*
X152631463Y-101064692D01*
X152653999Y-100998556D01*
X152699054Y-100959515D01*
X152707816Y-100955051D01*
X152729789Y-100939086D01*
X152879786Y-100830109D01*
X152879788Y-100830106D01*
X152879792Y-100830104D01*
X153030104Y-100679792D01*
X153030106Y-100679788D01*
X153030109Y-100679786D01*
X153155048Y-100507820D01*
X153155047Y-100507820D01*
X153155051Y-100507816D01*
X153251557Y-100318412D01*
X153317246Y-100116243D01*
X153350500Y-99906287D01*
X153350500Y-99693713D01*
X153317246Y-99483757D01*
X153251557Y-99281588D01*
X153155051Y-99092184D01*
X153155049Y-99092181D01*
X153155048Y-99092179D01*
X153030109Y-98920213D01*
X152879786Y-98769890D01*
X152707820Y-98644951D01*
X152707115Y-98644591D01*
X152699054Y-98640485D01*
X152648259Y-98592512D01*
X152631463Y-98524692D01*
X152653999Y-98458556D01*
X152699054Y-98419515D01*
X152707816Y-98415051D01*
X152791758Y-98354064D01*
X152879786Y-98290109D01*
X152879788Y-98290106D01*
X152879792Y-98290104D01*
X153030104Y-98139792D01*
X153030106Y-98139788D01*
X153030109Y-98139786D01*
X153155048Y-97967820D01*
X153155047Y-97967820D01*
X153155051Y-97967816D01*
X153251557Y-97778412D01*
X153317246Y-97576243D01*
X153350500Y-97366287D01*
X153350500Y-97270443D01*
X156300000Y-97270443D01*
X156300000Y-97450000D01*
X157350000Y-97450000D01*
X157850000Y-97450000D01*
X158899999Y-97450000D01*
X158899999Y-97270433D01*
X158893821Y-97202438D01*
X158893818Y-97202427D01*
X158845055Y-97045939D01*
X158845053Y-97045935D01*
X158760256Y-96905662D01*
X158760252Y-96905657D01*
X158644342Y-96789747D01*
X158644337Y-96789743D01*
X158504065Y-96704947D01*
X158347562Y-96656179D01*
X158279556Y-96650000D01*
X157850000Y-96650000D01*
X157850000Y-97450000D01*
X157350000Y-97450000D01*
X157350000Y-96650000D01*
X156920433Y-96650000D01*
X156852438Y-96656178D01*
X156852427Y-96656181D01*
X156695939Y-96704944D01*
X156695935Y-96704946D01*
X156555662Y-96789743D01*
X156555657Y-96789747D01*
X156439747Y-96905657D01*
X156439743Y-96905662D01*
X156354947Y-97045934D01*
X156306179Y-97202437D01*
X156300000Y-97270443D01*
X153350500Y-97270443D01*
X153350500Y-97153713D01*
X153317246Y-96943757D01*
X153251557Y-96741588D01*
X153155051Y-96552184D01*
X153155049Y-96552181D01*
X153155048Y-96552179D01*
X153030109Y-96380213D01*
X152879786Y-96229890D01*
X152707820Y-96104951D01*
X152707115Y-96104591D01*
X152699054Y-96100485D01*
X152648259Y-96052512D01*
X152631463Y-95984692D01*
X152653999Y-95918556D01*
X152699054Y-95879515D01*
X152707816Y-95875051D01*
X152729789Y-95859086D01*
X152879786Y-95750109D01*
X152879788Y-95750106D01*
X152879792Y-95750104D01*
X153030104Y-95599792D01*
X153030106Y-95599788D01*
X153030109Y-95599786D01*
X153155048Y-95427820D01*
X153155047Y-95427820D01*
X153155051Y-95427816D01*
X153251557Y-95238412D01*
X153317246Y-95036243D01*
X153350500Y-94826287D01*
X153350500Y-94613713D01*
X153317246Y-94403757D01*
X153251557Y-94201588D01*
X153155051Y-94012184D01*
X153155049Y-94012181D01*
X153155048Y-94012179D01*
X153030109Y-93840213D01*
X152879786Y-93689890D01*
X152707820Y-93564951D01*
X152707115Y-93564591D01*
X152699054Y-93560485D01*
X152648259Y-93512512D01*
X152631463Y-93444692D01*
X152653999Y-93378556D01*
X152699054Y-93339515D01*
X152707816Y-93335051D01*
X152729789Y-93319086D01*
X152879786Y-93210109D01*
X152879788Y-93210106D01*
X152879792Y-93210104D01*
X153030104Y-93059792D01*
X153030106Y-93059788D01*
X153030109Y-93059786D01*
X153155048Y-92887820D01*
X153155047Y-92887820D01*
X153155051Y-92887816D01*
X153251557Y-92698412D01*
X153317246Y-92496243D01*
X153350500Y-92286287D01*
X153350500Y-92073713D01*
X153317246Y-91863757D01*
X153251557Y-91661588D01*
X153155051Y-91472184D01*
X153155049Y-91472181D01*
X153155048Y-91472179D01*
X153030109Y-91300213D01*
X152879786Y-91149890D01*
X152707820Y-91024951D01*
X152707115Y-91024591D01*
X152699054Y-91020485D01*
X152648259Y-90972512D01*
X152631463Y-90904692D01*
X152653999Y-90838556D01*
X152699054Y-90799515D01*
X152707816Y-90795051D01*
X152747100Y-90766510D01*
X152879786Y-90670109D01*
X152879788Y-90670106D01*
X152879792Y-90670104D01*
X153030104Y-90519792D01*
X153030106Y-90519788D01*
X153030109Y-90519786D01*
X153155048Y-90347820D01*
X153155047Y-90347820D01*
X153155051Y-90347816D01*
X153251557Y-90158412D01*
X153317246Y-89956243D01*
X153350500Y-89746287D01*
X153350500Y-89533713D01*
X153317246Y-89323757D01*
X153251557Y-89121588D01*
X153155051Y-88932184D01*
X153155049Y-88932181D01*
X153155048Y-88932179D01*
X153030109Y-88760213D01*
X152879786Y-88609890D01*
X152707820Y-88484951D01*
X152707115Y-88484591D01*
X152699054Y-88480485D01*
X152648259Y-88432512D01*
X152631463Y-88364692D01*
X152653999Y-88298556D01*
X152699054Y-88259515D01*
X152707816Y-88255051D01*
X152729789Y-88239086D01*
X152879786Y-88130109D01*
X152879788Y-88130106D01*
X152879792Y-88130104D01*
X153030104Y-87979792D01*
X153030106Y-87979788D01*
X153030109Y-87979786D01*
X153155048Y-87807820D01*
X153155047Y-87807820D01*
X153155051Y-87807816D01*
X153251557Y-87618412D01*
X153317246Y-87416243D01*
X153350500Y-87206287D01*
X153350500Y-86993713D01*
X153317246Y-86783757D01*
X153303506Y-86741473D01*
X153301512Y-86671635D01*
X153333755Y-86615478D01*
X153858506Y-86090728D01*
X153858511Y-86090724D01*
X153868714Y-86080520D01*
X153868716Y-86080520D01*
X153980520Y-85968716D01*
X154059577Y-85831784D01*
X154090855Y-85715051D01*
X154100500Y-85679058D01*
X154100500Y-85520943D01*
X154100500Y-84300096D01*
X154120185Y-84233057D01*
X154136815Y-84212419D01*
X154488404Y-83860829D01*
X154488409Y-83860826D01*
X154498612Y-83850622D01*
X154498614Y-83850622D01*
X154610418Y-83738818D01*
X154672502Y-83631284D01*
X154689475Y-83601887D01*
X154730398Y-83449160D01*
X154730398Y-83291045D01*
X154730398Y-81800098D01*
X154736866Y-81778069D01*
X154738815Y-81755193D01*
X154747487Y-81741896D01*
X154750083Y-81733059D01*
X154756148Y-81724448D01*
X154761041Y-81718092D01*
X154844732Y-81634402D01*
X154898318Y-81541588D01*
X154923789Y-81497471D01*
X154964713Y-81344743D01*
X154964713Y-81186629D01*
X154964713Y-81179034D01*
X154964712Y-81179016D01*
X154964712Y-79465785D01*
X154984397Y-79398746D01*
X155001031Y-79378104D01*
X155016923Y-79362212D01*
X155079047Y-79300088D01*
X155158104Y-79163156D01*
X155172003Y-79111284D01*
X155199028Y-79010430D01*
X155199028Y-78852316D01*
X155199028Y-78844721D01*
X155199027Y-78844703D01*
X155199027Y-77300099D01*
X155218712Y-77233060D01*
X155235346Y-77212418D01*
X155245027Y-77202737D01*
X155313362Y-77134402D01*
X155364235Y-77046287D01*
X155368707Y-77038542D01*
X155368708Y-77038540D01*
X155392416Y-76997476D01*
X155392417Y-76997475D01*
X155392417Y-76997473D01*
X155392419Y-76997471D01*
X155433343Y-76844743D01*
X155433343Y-76686629D01*
X155433343Y-76679034D01*
X155433342Y-76679016D01*
X155433342Y-74800097D01*
X155453027Y-74733058D01*
X155469661Y-74712416D01*
X155635790Y-74546287D01*
X155878505Y-74303572D01*
X155878510Y-74303568D01*
X155888713Y-74293364D01*
X155888715Y-74293364D01*
X156000519Y-74181560D01*
X156079576Y-74044628D01*
X156115258Y-73911460D01*
X156120499Y-73891902D01*
X156120499Y-73733787D01*
X156120499Y-73644720D01*
X156140184Y-73577681D01*
X156192988Y-73531926D01*
X156262146Y-73521982D01*
X156325702Y-73551007D01*
X156343274Y-73572063D01*
X156344085Y-73571435D01*
X156348863Y-73577595D01*
X156348865Y-73577598D01*
X156353178Y-73581911D01*
X156386665Y-73643231D01*
X156389500Y-73669595D01*
X156389500Y-73903330D01*
X156389499Y-73903348D01*
X156389499Y-74069057D01*
X156395275Y-74090613D01*
X156399500Y-74122706D01*
X156399500Y-90413330D01*
X156399499Y-90413348D01*
X156399499Y-90579054D01*
X156399498Y-90579054D01*
X156434615Y-90710109D01*
X156440423Y-90731785D01*
X156460468Y-90766503D01*
X156519480Y-90868716D01*
X156631284Y-90980520D01*
X156631285Y-90980521D01*
X156663276Y-91012512D01*
X156665425Y-91014660D01*
X156698911Y-91075983D01*
X156699362Y-91078151D01*
X156730261Y-91233491D01*
X156730264Y-91233501D01*
X156790602Y-91379172D01*
X156790609Y-91379185D01*
X156878210Y-91510288D01*
X156878213Y-91510292D01*
X156989707Y-91621786D01*
X156989711Y-91621789D01*
X157120814Y-91709390D01*
X157120827Y-91709397D01*
X157230427Y-91754794D01*
X157266503Y-91769737D01*
X157391331Y-91794567D01*
X157421153Y-91800499D01*
X157421156Y-91800500D01*
X157421158Y-91800500D01*
X157578844Y-91800500D01*
X157578845Y-91800499D01*
X157733497Y-91769737D01*
X157879179Y-91709394D01*
X158010289Y-91621789D01*
X158121789Y-91510289D01*
X158209394Y-91379179D01*
X158214771Y-91366199D01*
X158228797Y-91332335D01*
X158269737Y-91233497D01*
X158300500Y-91078842D01*
X158300500Y-90921158D01*
X158300500Y-90921155D01*
X158300499Y-90921153D01*
X158299337Y-90915312D01*
X158269737Y-90766503D01*
X158255718Y-90732657D01*
X158209397Y-90620827D01*
X158209390Y-90620814D01*
X158121789Y-90489711D01*
X158121786Y-90489707D01*
X158010292Y-90378213D01*
X158010288Y-90378210D01*
X157879185Y-90290609D01*
X157879172Y-90290602D01*
X157733501Y-90230264D01*
X157733489Y-90230261D01*
X157700309Y-90223661D01*
X157638398Y-90191276D01*
X157603824Y-90130561D01*
X157600500Y-90102044D01*
X157600500Y-87509097D01*
X157620185Y-87442058D01*
X157672989Y-87396303D01*
X157742147Y-87386359D01*
X157805703Y-87415384D01*
X157812181Y-87421416D01*
X163393181Y-93002416D01*
X163426666Y-93063739D01*
X163429500Y-93090096D01*
X163429500Y-93209168D01*
X163429501Y-93209192D01*
X163432335Y-93245205D01*
X163477129Y-93399388D01*
X163477131Y-93399393D01*
X163558863Y-93537595D01*
X163558869Y-93537603D01*
X163672396Y-93651130D01*
X163672400Y-93651133D01*
X163672402Y-93651135D01*
X163810607Y-93732869D01*
X163851268Y-93744682D01*
X163964791Y-93777664D01*
X163964794Y-93777664D01*
X163964796Y-93777665D01*
X164000819Y-93780500D01*
X164499180Y-93780499D01*
X164535204Y-93777665D01*
X164689393Y-93732869D01*
X164827598Y-93651135D01*
X164941135Y-93537598D01*
X165022869Y-93399393D01*
X165066240Y-93250109D01*
X165067664Y-93245208D01*
X165067664Y-93245206D01*
X165067665Y-93245204D01*
X165070500Y-93209181D01*
X165070499Y-92810820D01*
X165067665Y-92774796D01*
X165022869Y-92620607D01*
X164988869Y-92563117D01*
X164971688Y-92495398D01*
X164988869Y-92436882D01*
X165022869Y-92379393D01*
X165067665Y-92225204D01*
X165070500Y-92189181D01*
X165070499Y-91790820D01*
X165067665Y-91754796D01*
X165022869Y-91600607D01*
X164941135Y-91462402D01*
X164941134Y-91462401D01*
X164941132Y-91462398D01*
X164937759Y-91459026D01*
X164904270Y-91397705D01*
X164907728Y-91332340D01*
X164949396Y-91206597D01*
X164959460Y-91108086D01*
X164959460Y-90574738D01*
X164949396Y-90476227D01*
X164896509Y-90316625D01*
X164896505Y-90316619D01*
X164896504Y-90316616D01*
X164808243Y-90173524D01*
X164808240Y-90173520D01*
X164689350Y-90054630D01*
X164648887Y-90029672D01*
X164602163Y-89977724D01*
X164590942Y-89908761D01*
X164615182Y-89849208D01*
X164696634Y-89741798D01*
X164748949Y-89609136D01*
X164758960Y-89525767D01*
X164758960Y-89516412D01*
X163208960Y-89516412D01*
X163208960Y-89525767D01*
X163218970Y-89609136D01*
X163271285Y-89741798D01*
X163352738Y-89849209D01*
X163377561Y-89914520D01*
X163363133Y-89982884D01*
X163319033Y-90029671D01*
X163278572Y-90054628D01*
X163278568Y-90054631D01*
X163159679Y-90173520D01*
X163159676Y-90173524D01*
X163071415Y-90316616D01*
X163071411Y-90316625D01*
X163018524Y-90476227D01*
X163018524Y-90476228D01*
X163018523Y-90476228D01*
X163008460Y-90574730D01*
X163008460Y-90619863D01*
X162988775Y-90686902D01*
X162935971Y-90732657D01*
X162866813Y-90742601D01*
X162803257Y-90713576D01*
X162796779Y-90707544D01*
X161096291Y-89007056D01*
X163208960Y-89007056D01*
X163208960Y-89016412D01*
X163733960Y-89016412D01*
X164233960Y-89016412D01*
X164758960Y-89016412D01*
X164758960Y-89007056D01*
X164748949Y-88923687D01*
X164696634Y-88791025D01*
X164610470Y-88677401D01*
X164496846Y-88591237D01*
X164364184Y-88538922D01*
X164280816Y-88528912D01*
X164233960Y-88528912D01*
X164233960Y-89016412D01*
X163733960Y-89016412D01*
X163733960Y-88528912D01*
X163687104Y-88528912D01*
X163603735Y-88538922D01*
X163471073Y-88591237D01*
X163357449Y-88677401D01*
X163271285Y-88791025D01*
X163218970Y-88923687D01*
X163208960Y-89007056D01*
X161096291Y-89007056D01*
X158036819Y-85947584D01*
X158003334Y-85886261D01*
X158000500Y-85859903D01*
X158000500Y-73944499D01*
X158020185Y-73877460D01*
X158072989Y-73831705D01*
X158124500Y-73820499D01*
X158209168Y-73820499D01*
X158209180Y-73820499D01*
X158245204Y-73817665D01*
X158399393Y-73772869D01*
X158537598Y-73691135D01*
X158651135Y-73577598D01*
X158732869Y-73439393D01*
X158777665Y-73285204D01*
X158780500Y-73249181D01*
X158780499Y-72750820D01*
X158777665Y-72714796D01*
X158732869Y-72560607D01*
X158651135Y-72422402D01*
X158651133Y-72422400D01*
X158651130Y-72422396D01*
X158646819Y-72418085D01*
X158613334Y-72356762D01*
X158610500Y-72330404D01*
X158610500Y-72064799D01*
X158630185Y-71997760D01*
X158631398Y-71995908D01*
X158709390Y-71879185D01*
X158709390Y-71879184D01*
X158709394Y-71879179D01*
X158769737Y-71733497D01*
X158800500Y-71578842D01*
X158800500Y-71546854D01*
X158820185Y-71479815D01*
X158872989Y-71434060D01*
X158924500Y-71422854D01*
X159422546Y-71422854D01*
X159422562Y-71422855D01*
X159430158Y-71422855D01*
X159588269Y-71422855D01*
X159588272Y-71422855D01*
X159741000Y-71381931D01*
X159797172Y-71349500D01*
X159797173Y-71349500D01*
X159877924Y-71302878D01*
X159877923Y-71302878D01*
X159877931Y-71302874D01*
X159989735Y-71191070D01*
X159989735Y-71191068D01*
X159999939Y-71180865D01*
X159999943Y-71180860D01*
X160223687Y-70957116D01*
X160223692Y-70957112D01*
X160233895Y-70946908D01*
X160233897Y-70946908D01*
X160345701Y-70835104D01*
X160352868Y-70822691D01*
X160405343Y-70731801D01*
X160405346Y-70731792D01*
X160405352Y-70731784D01*
X160424758Y-70698173D01*
X160465682Y-70545445D01*
X160465682Y-70387331D01*
X160465682Y-70379736D01*
X160465681Y-70379718D01*
X160465681Y-70204279D01*
X160485366Y-70137240D01*
X160538170Y-70091485D01*
X160607328Y-70081541D01*
X160670884Y-70110566D01*
G37*
%TD.AperFunction*%
%TA.AperFunction,Conductor*%
G36*
X155139713Y-115098547D02*
G01*
X155152262Y-115097470D01*
X155172604Y-115108205D01*
X155194669Y-115114684D01*
X155202914Y-115124200D01*
X155214055Y-115130079D01*
X155225364Y-115150108D01*
X155240424Y-115167488D01*
X155242216Y-115179952D01*
X155248409Y-115190920D01*
X155247094Y-115213880D01*
X155250368Y-115236646D01*
X155245040Y-115249771D01*
X155244416Y-115260676D01*
X155230876Y-115286332D01*
X155231314Y-115286600D01*
X155228772Y-115290747D01*
X155150128Y-115445096D01*
X155096597Y-115609845D01*
X155078902Y-115721567D01*
X155048972Y-115784701D01*
X154989661Y-115821632D01*
X154919798Y-115820634D01*
X154868748Y-115789849D01*
X154636819Y-115557920D01*
X154603334Y-115496597D01*
X154600500Y-115470239D01*
X154600500Y-115218999D01*
X154620185Y-115151960D01*
X154672989Y-115106205D01*
X154724500Y-115094999D01*
X155127630Y-115094999D01*
X155139713Y-115098547D01*
G37*
%TD.AperFunction*%
%TA.AperFunction,Conductor*%
G36*
X156956416Y-110676018D02*
G01*
X156965831Y-110675345D01*
X156988696Y-110687830D01*
X157013165Y-110696784D01*
X157023144Y-110706639D01*
X157027155Y-110708830D01*
X157038276Y-110721585D01*
X157091514Y-110791789D01*
X157116338Y-110857101D01*
X157101910Y-110925464D01*
X157057811Y-110972252D01*
X157041955Y-110982032D01*
X156922032Y-111101955D01*
X156922029Y-111101959D01*
X156833001Y-111246294D01*
X156832996Y-111246305D01*
X156779651Y-111407290D01*
X156769500Y-111506647D01*
X156769500Y-112053337D01*
X156769501Y-112053355D01*
X156779650Y-112152707D01*
X156779651Y-112152710D01*
X156832996Y-112313694D01*
X156833001Y-112313705D01*
X156922029Y-112458040D01*
X156922032Y-112458044D01*
X157041956Y-112577968D01*
X157085597Y-112604886D01*
X157132321Y-112656832D01*
X157144500Y-112710424D01*
X157144500Y-114373609D01*
X157124815Y-114440648D01*
X157072011Y-114486403D01*
X157040100Y-114496050D01*
X156873599Y-114522703D01*
X156841843Y-114518652D01*
X156809934Y-114516168D01*
X156807421Y-114514262D01*
X156804291Y-114513863D01*
X156779765Y-114493286D01*
X156754265Y-114473945D01*
X156753181Y-114470982D01*
X156750765Y-114468955D01*
X156742554Y-114442555D01*
X156729999Y-114430000D01*
X155624000Y-114430000D01*
X155556961Y-114410315D01*
X155511206Y-114357511D01*
X155500000Y-114306000D01*
X155500000Y-114180000D01*
X155374000Y-114180000D01*
X155306961Y-114160315D01*
X155261206Y-114107511D01*
X155250000Y-114056000D01*
X155250000Y-113930000D01*
X155750000Y-113930000D01*
X156729999Y-113930000D01*
X156729999Y-113520214D01*
X156729997Y-113520191D01*
X156727091Y-113495130D01*
X156727090Y-113495126D01*
X156681788Y-113392525D01*
X156681785Y-113392520D01*
X156602479Y-113313214D01*
X156602474Y-113313211D01*
X156499876Y-113267910D01*
X156474794Y-113265000D01*
X155750000Y-113265000D01*
X155750000Y-113930000D01*
X155250000Y-113930000D01*
X155250000Y-113265000D01*
X154724500Y-113265000D01*
X154657461Y-113245315D01*
X154611706Y-113192511D01*
X154600500Y-113141000D01*
X154600500Y-111917847D01*
X154620185Y-111850808D01*
X154672989Y-111805053D01*
X154700309Y-111796230D01*
X154720674Y-111792179D01*
X154833497Y-111769737D01*
X154979179Y-111709394D01*
X155110289Y-111621789D01*
X155221789Y-111510289D01*
X155309394Y-111379179D01*
X155369737Y-111233497D01*
X155400500Y-111078842D01*
X155400500Y-111078839D01*
X155400637Y-111078151D01*
X155409401Y-111061394D01*
X155413422Y-111042914D01*
X155432162Y-111017881D01*
X155433021Y-111016240D01*
X155434533Y-111014700D01*
X155456303Y-110992930D01*
X155477418Y-110971817D01*
X155538741Y-110938332D01*
X155565098Y-110935499D01*
X156477871Y-110935499D01*
X156477872Y-110935499D01*
X156537483Y-110929091D01*
X156672331Y-110878796D01*
X156787546Y-110792546D01*
X156840208Y-110722198D01*
X156861064Y-110706585D01*
X156879371Y-110688050D01*
X156888583Y-110685985D01*
X156896140Y-110680329D01*
X156922124Y-110678470D01*
X156947550Y-110672774D01*
X156956416Y-110676018D01*
G37*
%TD.AperFunction*%
%TA.AperFunction,Conductor*%
G36*
X162910095Y-109264779D02*
G01*
X162934504Y-109283740D01*
X163363181Y-109712416D01*
X163396666Y-109773739D01*
X163399500Y-109800097D01*
X163399500Y-112180900D01*
X163379815Y-112247939D01*
X163327011Y-112293694D01*
X163263925Y-112304359D01*
X163263653Y-112304333D01*
X163263653Y-112749152D01*
X163243968Y-112816191D01*
X163191164Y-112861946D01*
X163139653Y-112873152D01*
X162887653Y-112873152D01*
X162820614Y-112853467D01*
X162774859Y-112800663D01*
X162763653Y-112749152D01*
X162763653Y-112284275D01*
X162754698Y-112269555D01*
X162750501Y-112237566D01*
X162750501Y-111921814D01*
X162750500Y-111921805D01*
X162747599Y-111884932D01*
X162747598Y-111884930D01*
X162747598Y-111884927D01*
X162701746Y-111727107D01*
X162701745Y-111727103D01*
X162618082Y-111585636D01*
X162618080Y-111585634D01*
X162618077Y-111585630D01*
X162501871Y-111469424D01*
X162501860Y-111469415D01*
X162501546Y-111469230D01*
X162501350Y-111469020D01*
X162495703Y-111464640D01*
X162496409Y-111463728D01*
X162453864Y-111418159D01*
X162441362Y-111349417D01*
X162468010Y-111284829D01*
X162495920Y-111260645D01*
X162495701Y-111260362D01*
X162500923Y-111256311D01*
X162501552Y-111255766D01*
X162501864Y-111255582D01*
X162618080Y-111139366D01*
X162701743Y-110997899D01*
X162747597Y-110840070D01*
X162750499Y-110803195D01*
X162750499Y-109646807D01*
X162747597Y-109609932D01*
X162740249Y-109584640D01*
X162704594Y-109461914D01*
X162704662Y-109437799D01*
X162700380Y-109414065D01*
X162704779Y-109396827D01*
X162704793Y-109392045D01*
X162709108Y-109379867D01*
X162709391Y-109379183D01*
X162709394Y-109379179D01*
X162732264Y-109323965D01*
X162776102Y-109269566D01*
X162842396Y-109247500D01*
X162910095Y-109264779D01*
G37*
%TD.AperFunction*%
%TA.AperFunction,Conductor*%
G36*
X150667833Y-68306236D02*
G01*
X150742517Y-68334091D01*
X150742516Y-68334091D01*
X150748525Y-68334737D01*
X150802127Y-68340500D01*
X152397872Y-68340499D01*
X152397874Y-68340498D01*
X152397887Y-68340498D01*
X152426803Y-68337388D01*
X152432244Y-68336804D01*
X152501003Y-68349208D01*
X152552141Y-68396818D01*
X152569500Y-68460093D01*
X152569500Y-69577870D01*
X152569501Y-69577876D01*
X152575908Y-69637483D01*
X152626202Y-69772328D01*
X152626206Y-69772335D01*
X152712452Y-69887544D01*
X152712455Y-69887547D01*
X152827665Y-69973794D01*
X152827667Y-69973794D01*
X152827669Y-69973796D01*
X152838830Y-69977958D01*
X152894764Y-70019826D01*
X152919184Y-70085289D01*
X152919500Y-70094141D01*
X152919500Y-70586000D01*
X152899815Y-70653039D01*
X152847011Y-70698794D01*
X152795500Y-70710000D01*
X152250000Y-70710000D01*
X152250000Y-71426988D01*
X152192993Y-71394075D01*
X152065826Y-71360000D01*
X151934174Y-71360000D01*
X151807007Y-71394075D01*
X151750000Y-71426988D01*
X151750000Y-70710000D01*
X151105214Y-70710000D01*
X151105191Y-70710002D01*
X151080130Y-70712908D01*
X151080126Y-70712909D01*
X150977525Y-70758211D01*
X150977520Y-70758214D01*
X150898214Y-70837520D01*
X150898211Y-70837525D01*
X150852910Y-70940122D01*
X150852910Y-70940124D01*
X150850000Y-70965205D01*
X150850000Y-71610000D01*
X151566988Y-71610000D01*
X151534075Y-71667007D01*
X151500000Y-71794174D01*
X151500000Y-71925826D01*
X151534075Y-72052993D01*
X151566988Y-72110000D01*
X150850001Y-72110000D01*
X150850001Y-72754785D01*
X150850002Y-72754808D01*
X150852908Y-72779869D01*
X150852909Y-72779873D01*
X150898211Y-72882474D01*
X150898214Y-72882479D01*
X150977520Y-72961785D01*
X150977525Y-72961788D01*
X151080123Y-73007089D01*
X151105206Y-73009999D01*
X151236799Y-73009999D01*
X151303839Y-73029683D01*
X151349594Y-73082487D01*
X151359538Y-73151645D01*
X151330514Y-73215201D01*
X151296148Y-73242098D01*
X151296336Y-73242404D01*
X151293674Y-73244034D01*
X151293111Y-73244476D01*
X151292182Y-73244949D01*
X151120213Y-73369890D01*
X150969890Y-73520213D01*
X150844951Y-73692179D01*
X150748445Y-73881582D01*
X150748443Y-73881587D01*
X150748443Y-73881588D01*
X150742429Y-73900094D01*
X150702992Y-73957768D01*
X150638633Y-73984965D01*
X150569787Y-73973050D01*
X150518312Y-73925805D01*
X150500500Y-73861773D01*
X150500500Y-68422418D01*
X150520185Y-68355379D01*
X150572989Y-68309624D01*
X150642147Y-68299680D01*
X150667833Y-68306236D01*
G37*
%TD.AperFunction*%
%TA.AperFunction,Conductor*%
G36*
X168423412Y-50019685D02*
G01*
X168469167Y-50072489D01*
X168479111Y-50141647D01*
X168450086Y-50205203D01*
X168444054Y-50211681D01*
X168398214Y-50257520D01*
X168398211Y-50257525D01*
X168352910Y-50360122D01*
X168352910Y-50360124D01*
X168350000Y-50385205D01*
X168350000Y-50630000D01*
X169276000Y-50630000D01*
X169343039Y-50649685D01*
X169388794Y-50702489D01*
X169400000Y-50754000D01*
X169400000Y-51006000D01*
X169380315Y-51073039D01*
X169327511Y-51118794D01*
X169276000Y-51130000D01*
X168350000Y-51130000D01*
X168350000Y-51237306D01*
X168330315Y-51304345D01*
X168300316Y-51336568D01*
X168292453Y-51342454D01*
X168292452Y-51342455D01*
X168206206Y-51457664D01*
X168206202Y-51457671D01*
X168155908Y-51592517D01*
X168149501Y-51652116D01*
X168149500Y-51652135D01*
X168149500Y-51949900D01*
X168140854Y-51979343D01*
X168134332Y-52009326D01*
X168130577Y-52014341D01*
X168129815Y-52016939D01*
X168113182Y-52037581D01*
X167985338Y-52165426D01*
X167924015Y-52198911D01*
X167921848Y-52199362D01*
X167766508Y-52230261D01*
X167766498Y-52230264D01*
X167620827Y-52290602D01*
X167620814Y-52290609D01*
X167489711Y-52378210D01*
X167489707Y-52378213D01*
X167378213Y-52489707D01*
X167378210Y-52489711D01*
X167290609Y-52620814D01*
X167290602Y-52620827D01*
X167230264Y-52766498D01*
X167230261Y-52766510D01*
X167199500Y-52921153D01*
X167199500Y-53078846D01*
X167230261Y-53233489D01*
X167230264Y-53233501D01*
X167290602Y-53379172D01*
X167290609Y-53379185D01*
X167325304Y-53431109D01*
X167346182Y-53497786D01*
X167327698Y-53565167D01*
X167325304Y-53568891D01*
X167290609Y-53620814D01*
X167290602Y-53620827D01*
X167230264Y-53766498D01*
X167230261Y-53766510D01*
X167199500Y-53921153D01*
X167199500Y-54078846D01*
X167230261Y-54233489D01*
X167230264Y-54233501D01*
X167290602Y-54379172D01*
X167290609Y-54379185D01*
X167378210Y-54510288D01*
X167378213Y-54510292D01*
X167489707Y-54621786D01*
X167527289Y-54646898D01*
X167572093Y-54700511D01*
X167580800Y-54769836D01*
X167550645Y-54832863D01*
X167527289Y-54853102D01*
X167489707Y-54878213D01*
X167378213Y-54989707D01*
X167378210Y-54989711D01*
X167290609Y-55120814D01*
X167290602Y-55120827D01*
X167230264Y-55266498D01*
X167230261Y-55266510D01*
X167199500Y-55421153D01*
X167199500Y-55578846D01*
X167230261Y-55733489D01*
X167230264Y-55733501D01*
X167290602Y-55879172D01*
X167290609Y-55879185D01*
X167378210Y-56010288D01*
X167378213Y-56010292D01*
X167489707Y-56121786D01*
X167527289Y-56146898D01*
X167572093Y-56200511D01*
X167580800Y-56269836D01*
X167550645Y-56332863D01*
X167527289Y-56353102D01*
X167489707Y-56378213D01*
X167378213Y-56489707D01*
X167378210Y-56489711D01*
X167290609Y-56620814D01*
X167290602Y-56620827D01*
X167230264Y-56766498D01*
X167230261Y-56766510D01*
X167199500Y-56921153D01*
X167199500Y-57078846D01*
X167230261Y-57233489D01*
X167230264Y-57233501D01*
X167290602Y-57379172D01*
X167290609Y-57379185D01*
X167325304Y-57431109D01*
X167346182Y-57497786D01*
X167327698Y-57565167D01*
X167325304Y-57568891D01*
X167290609Y-57620814D01*
X167290602Y-57620827D01*
X167230264Y-57766498D01*
X167230261Y-57766510D01*
X167199500Y-57921153D01*
X167199500Y-58078846D01*
X167230261Y-58233489D01*
X167230264Y-58233501D01*
X167290602Y-58379172D01*
X167290609Y-58379185D01*
X167378210Y-58510288D01*
X167378213Y-58510292D01*
X167489707Y-58621786D01*
X167489710Y-58621788D01*
X167489711Y-58621789D01*
X167515219Y-58638833D01*
X167527289Y-58646898D01*
X167572093Y-58700511D01*
X167580800Y-58769836D01*
X167550645Y-58832863D01*
X167527289Y-58853102D01*
X167489707Y-58878213D01*
X167378213Y-58989707D01*
X167378210Y-58989711D01*
X167290609Y-59120814D01*
X167290602Y-59120827D01*
X167230264Y-59266498D01*
X167230261Y-59266510D01*
X167199500Y-59421153D01*
X167199500Y-59578846D01*
X167230261Y-59733489D01*
X167230264Y-59733501D01*
X167290602Y-59879172D01*
X167290609Y-59879185D01*
X167325304Y-59931109D01*
X167346182Y-59997786D01*
X167327698Y-60065167D01*
X167325304Y-60068891D01*
X167290609Y-60120814D01*
X167290602Y-60120827D01*
X167230264Y-60266498D01*
X167230261Y-60266510D01*
X167199500Y-60421153D01*
X167199500Y-60578846D01*
X167230261Y-60733489D01*
X167230264Y-60733501D01*
X167290602Y-60879172D01*
X167290609Y-60879185D01*
X167378210Y-61010288D01*
X167378213Y-61010292D01*
X167489707Y-61121786D01*
X167527289Y-61146898D01*
X167572093Y-61200511D01*
X167580800Y-61269836D01*
X167550645Y-61332863D01*
X167527289Y-61353102D01*
X167489707Y-61378213D01*
X167378213Y-61489707D01*
X167378210Y-61489711D01*
X167290609Y-61620814D01*
X167290602Y-61620827D01*
X167230264Y-61766498D01*
X167230261Y-61766510D01*
X167199500Y-61921153D01*
X167199500Y-62078846D01*
X167230261Y-62233489D01*
X167230264Y-62233501D01*
X167290602Y-62379172D01*
X167290609Y-62379185D01*
X167325304Y-62431109D01*
X167346182Y-62497786D01*
X167327698Y-62565167D01*
X167325304Y-62568891D01*
X167290609Y-62620814D01*
X167290602Y-62620827D01*
X167230264Y-62766498D01*
X167230261Y-62766510D01*
X167199500Y-62921153D01*
X167199500Y-63078846D01*
X167230261Y-63233489D01*
X167230264Y-63233501D01*
X167290602Y-63379172D01*
X167290609Y-63379185D01*
X167378210Y-63510288D01*
X167378213Y-63510292D01*
X167489707Y-63621786D01*
X167527289Y-63646898D01*
X167572093Y-63700511D01*
X167580800Y-63769836D01*
X167550645Y-63832863D01*
X167527289Y-63853102D01*
X167489707Y-63878213D01*
X167378213Y-63989707D01*
X167378210Y-63989711D01*
X167290609Y-64120814D01*
X167290602Y-64120827D01*
X167230264Y-64266498D01*
X167230261Y-64266510D01*
X167199500Y-64421153D01*
X167199500Y-64578846D01*
X167230261Y-64733489D01*
X167230264Y-64733501D01*
X167290602Y-64879172D01*
X167290609Y-64879185D01*
X167325304Y-64931109D01*
X167346182Y-64997786D01*
X167327698Y-65065167D01*
X167325304Y-65068891D01*
X167290609Y-65120814D01*
X167290602Y-65120827D01*
X167230264Y-65266498D01*
X167230261Y-65266510D01*
X167199500Y-65421153D01*
X167199500Y-65578846D01*
X167230261Y-65733489D01*
X167230264Y-65733501D01*
X167290602Y-65879172D01*
X167290609Y-65879185D01*
X167325304Y-65931109D01*
X167346182Y-65997786D01*
X167327698Y-66065167D01*
X167325304Y-66068891D01*
X167290609Y-66120814D01*
X167290602Y-66120827D01*
X167230264Y-66266498D01*
X167230261Y-66266510D01*
X167199500Y-66421153D01*
X167199500Y-66421158D01*
X167199500Y-66578842D01*
X167199500Y-66578844D01*
X167199499Y-66578844D01*
X167211925Y-66641308D01*
X167205698Y-66710900D01*
X167162835Y-66766077D01*
X167096945Y-66789322D01*
X167090308Y-66789500D01*
X163362117Y-66789500D01*
X163295078Y-66769815D01*
X163249323Y-66717011D01*
X163247556Y-66712952D01*
X163209397Y-66620827D01*
X163209390Y-66620814D01*
X163121789Y-66489711D01*
X163121786Y-66489707D01*
X163010292Y-66378213D01*
X163010288Y-66378210D01*
X162879185Y-66290609D01*
X162879172Y-66290602D01*
X162733501Y-66230264D01*
X162733489Y-66230261D01*
X162578845Y-66199500D01*
X162578842Y-66199500D01*
X162421158Y-66199500D01*
X162421155Y-66199500D01*
X162266510Y-66230261D01*
X162266498Y-66230264D01*
X162120827Y-66290602D01*
X162120814Y-66290609D01*
X161989711Y-66378210D01*
X161989707Y-66378213D01*
X161878213Y-66489707D01*
X161878210Y-66489711D01*
X161790609Y-66620814D01*
X161790602Y-66620827D01*
X161730264Y-66766498D01*
X161730261Y-66766510D01*
X161699500Y-66921153D01*
X161699500Y-67078846D01*
X161730261Y-67233489D01*
X161730264Y-67233501D01*
X161782914Y-67360610D01*
X161790383Y-67430079D01*
X161759108Y-67492558D01*
X161699018Y-67528210D01*
X161655103Y-67531352D01*
X161644690Y-67530233D01*
X161637873Y-67529500D01*
X161637870Y-67529500D01*
X160642129Y-67529500D01*
X160642123Y-67529501D01*
X160582518Y-67535908D01*
X160548331Y-67548659D01*
X160483114Y-67554529D01*
X160472123Y-67552558D01*
X160427483Y-67535909D01*
X160367873Y-67529500D01*
X160343531Y-67529500D01*
X160332673Y-67527553D01*
X160310885Y-67516675D01*
X160287520Y-67509815D01*
X160280183Y-67501348D01*
X160270161Y-67496345D01*
X160257711Y-67475414D01*
X160241765Y-67457011D01*
X160240170Y-67445923D01*
X160234444Y-67436295D01*
X160235287Y-67411958D01*
X160231821Y-67387853D01*
X160236549Y-67375512D01*
X160236863Y-67366467D01*
X160243918Y-67356281D01*
X160251457Y-67336609D01*
X160264012Y-67317818D01*
X160279438Y-67294732D01*
X160339781Y-67149050D01*
X160370544Y-66994395D01*
X160370544Y-66836711D01*
X160370544Y-66836708D01*
X160370543Y-66836706D01*
X160356580Y-66766510D01*
X160339781Y-66682056D01*
X160322903Y-66641308D01*
X160279441Y-66536380D01*
X160279434Y-66536367D01*
X160191833Y-66405264D01*
X160191830Y-66405260D01*
X160080336Y-66293766D01*
X160080332Y-66293763D01*
X159949229Y-66206162D01*
X159949216Y-66206155D01*
X159803545Y-66145817D01*
X159803535Y-66145814D01*
X159648193Y-66114914D01*
X159586282Y-66082529D01*
X159584704Y-66080978D01*
X159262081Y-65758355D01*
X159262079Y-65758352D01*
X159143208Y-65639481D01*
X159143207Y-65639480D01*
X159056395Y-65589360D01*
X159056395Y-65589359D01*
X159056391Y-65589358D01*
X159006276Y-65560423D01*
X158853548Y-65519499D01*
X158695434Y-65519499D01*
X158687838Y-65519499D01*
X158687822Y-65519500D01*
X153743108Y-65519500D01*
X153676069Y-65499815D01*
X153630314Y-65447011D01*
X153620370Y-65377853D01*
X153621491Y-65371308D01*
X153622394Y-65366768D01*
X153622394Y-65209079D01*
X153622393Y-65209077D01*
X153604839Y-65120827D01*
X153591631Y-65054427D01*
X153568170Y-64997786D01*
X153531291Y-64908751D01*
X153531284Y-64908738D01*
X153443683Y-64777635D01*
X153443680Y-64777631D01*
X153332186Y-64666137D01*
X153332182Y-64666134D01*
X153204023Y-64580500D01*
X153159218Y-64526887D01*
X153150511Y-64457562D01*
X153169810Y-64408510D01*
X153234956Y-64311013D01*
X153295299Y-64165331D01*
X153326062Y-64010676D01*
X153326062Y-63852992D01*
X153326062Y-63852989D01*
X153326061Y-63852987D01*
X153322058Y-63832863D01*
X153295299Y-63698337D01*
X153234956Y-63552655D01*
X153234953Y-63552650D01*
X153234713Y-63552200D01*
X153234657Y-63551932D01*
X153232625Y-63547026D01*
X153233555Y-63546640D01*
X153220472Y-63483797D01*
X153245473Y-63418554D01*
X153256384Y-63406073D01*
X153349635Y-63312823D01*
X153437240Y-63181713D01*
X153497583Y-63036031D01*
X153528346Y-62881376D01*
X153528346Y-62723692D01*
X153528346Y-62723689D01*
X153521374Y-62688641D01*
X153527601Y-62619050D01*
X153555308Y-62576769D01*
X153621789Y-62510289D01*
X153709394Y-62379179D01*
X153769737Y-62233497D01*
X153800500Y-62078842D01*
X153800500Y-61921158D01*
X153800500Y-61921155D01*
X153800499Y-61921153D01*
X153769738Y-61766510D01*
X153769737Y-61766503D01*
X153769735Y-61766498D01*
X153709397Y-61620827D01*
X153709390Y-61620814D01*
X153621789Y-61489711D01*
X153621786Y-61489707D01*
X153510292Y-61378213D01*
X153510288Y-61378210D01*
X153379185Y-61290609D01*
X153379172Y-61290602D01*
X153233501Y-61230264D01*
X153233491Y-61230261D01*
X153122157Y-61208115D01*
X153060246Y-61175730D01*
X153025672Y-61115014D01*
X153029413Y-61045244D01*
X153070279Y-60988573D01*
X153098893Y-60971938D01*
X153129179Y-60959394D01*
X153260289Y-60871789D01*
X153371789Y-60760289D01*
X153459394Y-60629179D01*
X153519203Y-60484785D01*
X156850001Y-60484785D01*
X156850002Y-60484808D01*
X156852908Y-60509869D01*
X156852909Y-60509873D01*
X156898211Y-60612474D01*
X156898214Y-60612479D01*
X156977520Y-60691785D01*
X156977525Y-60691788D01*
X157080123Y-60737089D01*
X157105206Y-60739999D01*
X157349999Y-60739999D01*
X157850000Y-60739999D01*
X158094786Y-60739999D01*
X158094808Y-60739997D01*
X158119869Y-60737091D01*
X158119873Y-60737090D01*
X158222475Y-60691788D01*
X158229919Y-60686689D01*
X158296349Y-60665040D01*
X158363939Y-60682742D01*
X158370081Y-60686689D01*
X158377524Y-60691788D01*
X158480123Y-60737089D01*
X158505206Y-60739999D01*
X158749999Y-60739999D01*
X159250000Y-60739999D01*
X159494786Y-60739999D01*
X159494808Y-60739997D01*
X159519869Y-60737091D01*
X159519873Y-60737090D01*
X159622475Y-60691788D01*
X159629919Y-60686689D01*
X159696349Y-60665040D01*
X159763939Y-60682742D01*
X159770081Y-60686689D01*
X159777524Y-60691788D01*
X159880123Y-60737089D01*
X159905206Y-60739999D01*
X160149999Y-60739999D01*
X160650000Y-60739999D01*
X160894786Y-60739999D01*
X160894808Y-60739997D01*
X160919869Y-60737091D01*
X160919873Y-60737090D01*
X161022474Y-60691788D01*
X161022479Y-60691785D01*
X161101785Y-60612479D01*
X161101788Y-60612474D01*
X161147089Y-60509877D01*
X161147089Y-60509875D01*
X161149999Y-60484794D01*
X161150000Y-60484791D01*
X161150000Y-60240000D01*
X160650000Y-60240000D01*
X160650000Y-60739999D01*
X160149999Y-60739999D01*
X160150000Y-60739998D01*
X160150000Y-60240000D01*
X159250000Y-60240000D01*
X159250000Y-60739999D01*
X158749999Y-60739999D01*
X158750000Y-60739998D01*
X158750000Y-60240000D01*
X157850000Y-60240000D01*
X157850000Y-60739999D01*
X157349999Y-60739999D01*
X157350000Y-60739998D01*
X157350000Y-60240000D01*
X156850001Y-60240000D01*
X156850001Y-60484785D01*
X153519203Y-60484785D01*
X153519737Y-60483497D01*
X153550500Y-60328842D01*
X153550500Y-60171158D01*
X153550500Y-60171155D01*
X153550499Y-60171153D01*
X153535544Y-60095970D01*
X153519737Y-60016503D01*
X153498460Y-59965136D01*
X158175000Y-59965136D01*
X158175000Y-60014864D01*
X158194030Y-60060807D01*
X158229193Y-60095970D01*
X158275136Y-60115000D01*
X158324864Y-60115000D01*
X158370807Y-60095970D01*
X158405970Y-60060807D01*
X158425000Y-60014864D01*
X158425000Y-59965136D01*
X159575000Y-59965136D01*
X159575000Y-60014864D01*
X159594030Y-60060807D01*
X159629193Y-60095970D01*
X159675136Y-60115000D01*
X159724864Y-60115000D01*
X159770807Y-60095970D01*
X159805970Y-60060807D01*
X159825000Y-60014864D01*
X159825000Y-59965136D01*
X159805970Y-59919193D01*
X159770807Y-59884030D01*
X159724864Y-59865000D01*
X159675136Y-59865000D01*
X159629193Y-59884030D01*
X159594030Y-59919193D01*
X159575000Y-59965136D01*
X158425000Y-59965136D01*
X158405970Y-59919193D01*
X158370807Y-59884030D01*
X158324864Y-59865000D01*
X158275136Y-59865000D01*
X158229193Y-59884030D01*
X158194030Y-59919193D01*
X158175000Y-59965136D01*
X153498460Y-59965136D01*
X153484366Y-59931109D01*
X153459397Y-59870827D01*
X153459390Y-59870814D01*
X153371789Y-59739711D01*
X153371786Y-59739707D01*
X153260289Y-59628210D01*
X153210177Y-59594727D01*
X153210176Y-59594726D01*
X153189935Y-59581201D01*
X153145131Y-59527588D01*
X153141064Y-59495205D01*
X156850000Y-59495205D01*
X156850000Y-59740000D01*
X157350000Y-59740000D01*
X160650000Y-59740000D01*
X161149999Y-59740000D01*
X161149999Y-59495214D01*
X161149997Y-59495191D01*
X161147091Y-59470130D01*
X161147090Y-59470126D01*
X161101788Y-59367524D01*
X161096689Y-59360081D01*
X161075040Y-59293651D01*
X161092742Y-59226061D01*
X161096689Y-59219919D01*
X161101788Y-59212475D01*
X161147089Y-59109877D01*
X161147089Y-59109875D01*
X161149999Y-59084794D01*
X161150000Y-59084791D01*
X161150000Y-58840000D01*
X160650000Y-58840000D01*
X160650000Y-59740000D01*
X157350000Y-59740000D01*
X157350000Y-59265136D01*
X157475000Y-59265136D01*
X157475000Y-59314864D01*
X157494030Y-59360807D01*
X157529193Y-59395970D01*
X157575136Y-59415000D01*
X157624864Y-59415000D01*
X157670807Y-59395970D01*
X157705970Y-59360807D01*
X157725000Y-59314864D01*
X157725000Y-59289999D01*
X157882842Y-59289999D01*
X158300000Y-59707157D01*
X158717157Y-59290000D01*
X158692293Y-59265136D01*
X158875000Y-59265136D01*
X158875000Y-59314864D01*
X158894030Y-59360807D01*
X158929193Y-59395970D01*
X158975136Y-59415000D01*
X159024864Y-59415000D01*
X159070807Y-59395970D01*
X159105970Y-59360807D01*
X159125000Y-59314864D01*
X159125000Y-59289999D01*
X159282842Y-59289999D01*
X159700000Y-59707157D01*
X160117157Y-59290000D01*
X160092293Y-59265136D01*
X160275000Y-59265136D01*
X160275000Y-59314864D01*
X160294030Y-59360807D01*
X160329193Y-59395970D01*
X160375136Y-59415000D01*
X160424864Y-59415000D01*
X160470807Y-59395970D01*
X160505970Y-59360807D01*
X160525000Y-59314864D01*
X160525000Y-59265136D01*
X160505970Y-59219193D01*
X160470807Y-59184030D01*
X160424864Y-59165000D01*
X160375136Y-59165000D01*
X160329193Y-59184030D01*
X160294030Y-59219193D01*
X160275000Y-59265136D01*
X160092293Y-59265136D01*
X159830542Y-59003385D01*
X159830541Y-59003385D01*
X159703477Y-58876319D01*
X159703475Y-58876316D01*
X159700001Y-58872842D01*
X159550583Y-59022257D01*
X159550579Y-59022263D01*
X159282842Y-59289999D01*
X159125000Y-59289999D01*
X159125000Y-59265136D01*
X159105970Y-59219193D01*
X159070807Y-59184030D01*
X159024864Y-59165000D01*
X158975136Y-59165000D01*
X158929193Y-59184030D01*
X158894030Y-59219193D01*
X158875000Y-59265136D01*
X158692293Y-59265136D01*
X158430541Y-59003384D01*
X158300000Y-58872842D01*
X158150583Y-59022257D01*
X158150579Y-59022263D01*
X157882842Y-59289999D01*
X157725000Y-59289999D01*
X157725000Y-59265136D01*
X157705970Y-59219193D01*
X157670807Y-59184030D01*
X157624864Y-59165000D01*
X157575136Y-59165000D01*
X157529193Y-59184030D01*
X157494030Y-59219193D01*
X157475000Y-59265136D01*
X157350000Y-59265136D01*
X157350000Y-58840000D01*
X156850001Y-58840000D01*
X156850001Y-59084785D01*
X156850002Y-59084808D01*
X156852908Y-59109869D01*
X156852909Y-59109873D01*
X156898213Y-59212480D01*
X156903312Y-59219923D01*
X156924959Y-59286354D01*
X156907254Y-59353944D01*
X156903312Y-59360077D01*
X156898213Y-59367519D01*
X156852910Y-59470122D01*
X156852910Y-59470124D01*
X156850000Y-59495205D01*
X153141064Y-59495205D01*
X153136424Y-59458263D01*
X153166579Y-59395236D01*
X153171129Y-59390435D01*
X153184007Y-59377558D01*
X153271612Y-59246448D01*
X153331955Y-59100766D01*
X153362718Y-58946111D01*
X153362718Y-58788427D01*
X153362718Y-58786672D01*
X153382403Y-58719633D01*
X153417828Y-58683570D01*
X153472711Y-58646898D01*
X153510289Y-58621789D01*
X153566942Y-58565136D01*
X158175000Y-58565136D01*
X158175000Y-58614864D01*
X158194030Y-58660807D01*
X158229193Y-58695970D01*
X158275136Y-58715000D01*
X158324864Y-58715000D01*
X158370807Y-58695970D01*
X158405970Y-58660807D01*
X158425000Y-58614864D01*
X158425000Y-58565136D01*
X159575000Y-58565136D01*
X159575000Y-58614864D01*
X159594030Y-58660807D01*
X159629193Y-58695970D01*
X159675136Y-58715000D01*
X159724864Y-58715000D01*
X159770807Y-58695970D01*
X159805970Y-58660807D01*
X159825000Y-58614864D01*
X159825000Y-58565136D01*
X159805970Y-58519193D01*
X159770807Y-58484030D01*
X159724864Y-58465000D01*
X159675136Y-58465000D01*
X159629193Y-58484030D01*
X159594030Y-58519193D01*
X159575000Y-58565136D01*
X158425000Y-58565136D01*
X158405970Y-58519193D01*
X158370807Y-58484030D01*
X158324864Y-58465000D01*
X158275136Y-58465000D01*
X158229193Y-58484030D01*
X158194030Y-58519193D01*
X158175000Y-58565136D01*
X153566942Y-58565136D01*
X153621789Y-58510289D01*
X153709394Y-58379179D01*
X153709395Y-58379176D01*
X153709397Y-58379173D01*
X153758706Y-58260128D01*
X153802546Y-58205724D01*
X153825815Y-58193019D01*
X153944860Y-58143710D01*
X153944863Y-58143708D01*
X153944866Y-58143707D01*
X153989411Y-58113943D01*
X156850000Y-58113943D01*
X156850000Y-58340000D01*
X157350000Y-58340000D01*
X160650000Y-58340000D01*
X161149999Y-58340000D01*
X161149999Y-58095214D01*
X161149997Y-58095191D01*
X161147091Y-58070130D01*
X161147090Y-58070126D01*
X161101788Y-57967524D01*
X161096689Y-57960081D01*
X161075040Y-57893651D01*
X161092742Y-57826061D01*
X161096689Y-57819919D01*
X161101788Y-57812475D01*
X161147089Y-57709877D01*
X161147089Y-57709875D01*
X161149999Y-57684794D01*
X161150000Y-57684791D01*
X161150000Y-57440000D01*
X160650000Y-57440000D01*
X160650000Y-58340000D01*
X157350000Y-58340000D01*
X157350000Y-57865136D01*
X157475000Y-57865136D01*
X157475000Y-57914864D01*
X157494030Y-57960807D01*
X157529193Y-57995970D01*
X157575136Y-58015000D01*
X157624864Y-58015000D01*
X157670807Y-57995970D01*
X157705970Y-57960807D01*
X157725000Y-57914864D01*
X157725000Y-57889999D01*
X157882842Y-57889999D01*
X158300000Y-58307157D01*
X158717157Y-57890000D01*
X158692293Y-57865136D01*
X158875000Y-57865136D01*
X158875000Y-57914864D01*
X158894030Y-57960807D01*
X158929193Y-57995970D01*
X158975136Y-58015000D01*
X159024864Y-58015000D01*
X159070807Y-57995970D01*
X159105970Y-57960807D01*
X159125000Y-57914864D01*
X159125000Y-57889999D01*
X159282842Y-57889999D01*
X159700000Y-58307157D01*
X160117157Y-57890000D01*
X160092293Y-57865136D01*
X160275000Y-57865136D01*
X160275000Y-57914864D01*
X160294030Y-57960807D01*
X160329193Y-57995970D01*
X160375136Y-58015000D01*
X160424864Y-58015000D01*
X160470807Y-57995970D01*
X160505970Y-57960807D01*
X160525000Y-57914864D01*
X160525000Y-57865136D01*
X160505970Y-57819193D01*
X160470807Y-57784030D01*
X160424864Y-57765000D01*
X160375136Y-57765000D01*
X160329193Y-57784030D01*
X160294030Y-57819193D01*
X160275000Y-57865136D01*
X160092293Y-57865136D01*
X159830542Y-57603385D01*
X159830541Y-57603385D01*
X159703477Y-57476319D01*
X159703475Y-57476316D01*
X159700001Y-57472842D01*
X159550583Y-57622257D01*
X159550579Y-57622263D01*
X159282842Y-57889999D01*
X159125000Y-57889999D01*
X159125000Y-57865136D01*
X159105970Y-57819193D01*
X159070807Y-57784030D01*
X159024864Y-57765000D01*
X158975136Y-57765000D01*
X158929193Y-57784030D01*
X158894030Y-57819193D01*
X158875000Y-57865136D01*
X158692293Y-57865136D01*
X158430541Y-57603384D01*
X158300000Y-57472842D01*
X158150583Y-57622257D01*
X158150579Y-57622263D01*
X157882842Y-57889999D01*
X157725000Y-57889999D01*
X157725000Y-57865136D01*
X157705970Y-57819193D01*
X157670807Y-57784030D01*
X157624864Y-57765000D01*
X157575136Y-57765000D01*
X157529193Y-57784030D01*
X157494030Y-57819193D01*
X157475000Y-57865136D01*
X157350000Y-57865136D01*
X157350000Y-57440000D01*
X156850001Y-57440000D01*
X156850001Y-57684785D01*
X156850002Y-57684808D01*
X156852908Y-57709869D01*
X156852909Y-57709873D01*
X156898213Y-57812480D01*
X156903312Y-57819923D01*
X156905285Y-57825980D01*
X156909796Y-57830483D01*
X156915980Y-57858800D01*
X156924959Y-57886354D01*
X156923344Y-57892518D01*
X156924704Y-57898744D01*
X156917230Y-57933238D01*
X156850000Y-58113943D01*
X153989411Y-58113943D01*
X154075976Y-58056102D01*
X154075979Y-58056099D01*
X154128135Y-58003944D01*
X154187473Y-57944605D01*
X154187476Y-57944602D01*
X154275081Y-57813492D01*
X154335424Y-57667810D01*
X154366187Y-57513155D01*
X154366187Y-57355471D01*
X154366187Y-57355468D01*
X154366186Y-57355466D01*
X154341925Y-57233501D01*
X154335424Y-57200816D01*
X154320645Y-57165136D01*
X158175000Y-57165136D01*
X158175000Y-57214864D01*
X158194030Y-57260807D01*
X158229193Y-57295970D01*
X158275136Y-57315000D01*
X158324864Y-57315000D01*
X158370807Y-57295970D01*
X158405970Y-57260807D01*
X158425000Y-57214864D01*
X158425000Y-57165136D01*
X159575000Y-57165136D01*
X159575000Y-57214864D01*
X159594030Y-57260807D01*
X159629193Y-57295970D01*
X159675136Y-57315000D01*
X159724864Y-57315000D01*
X159770807Y-57295970D01*
X159805970Y-57260807D01*
X159825000Y-57214864D01*
X159825000Y-57165136D01*
X159805970Y-57119193D01*
X159770807Y-57084030D01*
X159724864Y-57065000D01*
X159675136Y-57065000D01*
X159629193Y-57084030D01*
X159594030Y-57119193D01*
X159575000Y-57165136D01*
X158425000Y-57165136D01*
X158405970Y-57119193D01*
X158370807Y-57084030D01*
X158324864Y-57065000D01*
X158275136Y-57065000D01*
X158229193Y-57084030D01*
X158194030Y-57119193D01*
X158175000Y-57165136D01*
X154320645Y-57165136D01*
X154284903Y-57078846D01*
X154275084Y-57055140D01*
X154275077Y-57055127D01*
X154187476Y-56924024D01*
X154187473Y-56924020D01*
X154075979Y-56812526D01*
X154049341Y-56794727D01*
X154049339Y-56794725D01*
X153944872Y-56724922D01*
X153944859Y-56724915D01*
X153873132Y-56695205D01*
X156850000Y-56695205D01*
X156850000Y-56940000D01*
X157350000Y-56940000D01*
X157850000Y-56940000D01*
X158750000Y-56940000D01*
X159250000Y-56940000D01*
X160150000Y-56940000D01*
X160650000Y-56940000D01*
X161149999Y-56940000D01*
X161149999Y-56695214D01*
X161149997Y-56695191D01*
X161147091Y-56670130D01*
X161147090Y-56670126D01*
X161101788Y-56567525D01*
X161101785Y-56567520D01*
X161022479Y-56488214D01*
X161022474Y-56488211D01*
X160919876Y-56442910D01*
X160894794Y-56440000D01*
X160650000Y-56440000D01*
X160650000Y-56940000D01*
X160150000Y-56940000D01*
X160150000Y-56440000D01*
X159905214Y-56440000D01*
X159905191Y-56440002D01*
X159880130Y-56442908D01*
X159880126Y-56442909D01*
X159777519Y-56488213D01*
X159770077Y-56493312D01*
X159703646Y-56514959D01*
X159636056Y-56497254D01*
X159629923Y-56493312D01*
X159622480Y-56488213D01*
X159519876Y-56442910D01*
X159494794Y-56440000D01*
X159250000Y-56440000D01*
X159250000Y-56940000D01*
X158750000Y-56940000D01*
X158750000Y-56440000D01*
X158505214Y-56440000D01*
X158505191Y-56440002D01*
X158480130Y-56442908D01*
X158480126Y-56442909D01*
X158377519Y-56488213D01*
X158370077Y-56493312D01*
X158303646Y-56514959D01*
X158236056Y-56497254D01*
X158229923Y-56493312D01*
X158222480Y-56488213D01*
X158119876Y-56442910D01*
X158094794Y-56440000D01*
X157850000Y-56440000D01*
X157850000Y-56940000D01*
X157350000Y-56940000D01*
X157350000Y-56440000D01*
X157105214Y-56440000D01*
X157105191Y-56440002D01*
X157080130Y-56442908D01*
X157080126Y-56442909D01*
X156977525Y-56488211D01*
X156977520Y-56488214D01*
X156898214Y-56567520D01*
X156898211Y-56567525D01*
X156852910Y-56670122D01*
X156852910Y-56670124D01*
X156850000Y-56695205D01*
X153873132Y-56695205D01*
X153799188Y-56664577D01*
X153799176Y-56664574D01*
X153644532Y-56633813D01*
X153644529Y-56633813D01*
X153534410Y-56633813D01*
X153504969Y-56625168D01*
X153474983Y-56618645D01*
X153469967Y-56614890D01*
X153467371Y-56614128D01*
X153446729Y-56597494D01*
X153283740Y-56434505D01*
X153250255Y-56373182D01*
X153255239Y-56303490D01*
X153297111Y-56247557D01*
X153323969Y-56232263D01*
X153379172Y-56209397D01*
X153379172Y-56209396D01*
X153379179Y-56209394D01*
X153510289Y-56121789D01*
X153621789Y-56010289D01*
X153709394Y-55879179D01*
X153769737Y-55733497D01*
X153800500Y-55578842D01*
X153800500Y-55421158D01*
X153800500Y-55421155D01*
X153800499Y-55421153D01*
X153769738Y-55266510D01*
X153769737Y-55266503D01*
X153769735Y-55266498D01*
X153709397Y-55120827D01*
X153709391Y-55120816D01*
X153666187Y-55056156D01*
X153645310Y-54989479D01*
X153658586Y-54934399D01*
X153657798Y-54934073D01*
X153659873Y-54929062D01*
X153659935Y-54928807D01*
X153660125Y-54928448D01*
X153660129Y-54928444D01*
X153720472Y-54782762D01*
X153751235Y-54628107D01*
X153751235Y-54470423D01*
X153751235Y-54470420D01*
X153751234Y-54470418D01*
X153720472Y-54315768D01*
X153686396Y-54233501D01*
X153660132Y-54170092D01*
X153660125Y-54170079D01*
X153572525Y-54038977D01*
X153572524Y-54038976D01*
X153477885Y-53944337D01*
X153458182Y-53918659D01*
X153431255Y-53872019D01*
X153060128Y-53500892D01*
X153026643Y-53439569D01*
X153031627Y-53369877D01*
X153073499Y-53313944D01*
X153123618Y-53291594D01*
X153177075Y-53280959D01*
X153233497Y-53269737D01*
X153379179Y-53209394D01*
X153510289Y-53121789D01*
X153621789Y-53010289D01*
X153709394Y-52879179D01*
X153769737Y-52733497D01*
X153800500Y-52578842D01*
X153800500Y-52421158D01*
X153800500Y-52421155D01*
X153800499Y-52421153D01*
X153774531Y-52290606D01*
X153769737Y-52266503D01*
X153769735Y-52266498D01*
X153709397Y-52120827D01*
X153709390Y-52120814D01*
X153621789Y-51989711D01*
X153621786Y-51989707D01*
X153510292Y-51878213D01*
X153510288Y-51878210D01*
X153379185Y-51790609D01*
X153379172Y-51790602D01*
X153233501Y-51730264D01*
X153233491Y-51730261D01*
X153078151Y-51699362D01*
X153038037Y-51683767D01*
X153025243Y-51676007D01*
X153018716Y-51669480D01*
X152931904Y-51619360D01*
X152881785Y-51590423D01*
X152881784Y-51590422D01*
X152874746Y-51586359D01*
X152876050Y-51584098D01*
X152831731Y-51548370D01*
X152817417Y-51521000D01*
X152793798Y-51457673D01*
X152793793Y-51457664D01*
X152707548Y-51342457D01*
X152707546Y-51342454D01*
X152707542Y-51342451D01*
X152707540Y-51342449D01*
X152699686Y-51336569D01*
X152657816Y-51280635D01*
X152649999Y-51237303D01*
X152650000Y-51130000D01*
X151724000Y-51130000D01*
X151656961Y-51110315D01*
X151611206Y-51057511D01*
X151600000Y-51006000D01*
X151600000Y-50754000D01*
X151619685Y-50686961D01*
X151672489Y-50641206D01*
X151724000Y-50630000D01*
X152649999Y-50630000D01*
X152649999Y-50385214D01*
X152649997Y-50385191D01*
X152647091Y-50360130D01*
X152647090Y-50360126D01*
X152601788Y-50257525D01*
X152601785Y-50257520D01*
X152555946Y-50211681D01*
X152522461Y-50150358D01*
X152527445Y-50080666D01*
X152569317Y-50024733D01*
X152634781Y-50000316D01*
X152643627Y-50000000D01*
X168356373Y-50000000D01*
X168423412Y-50019685D01*
G37*
%TD.AperFunction*%
%TA.AperFunction,Conductor*%
G36*
X156736362Y-67125333D02*
G01*
X156753515Y-67125143D01*
X156769189Y-67134972D01*
X156786941Y-67140185D01*
X156807582Y-67156818D01*
X156851284Y-67200520D01*
X156851286Y-67200521D01*
X156851290Y-67200524D01*
X156908402Y-67233497D01*
X156988216Y-67279577D01*
X157011165Y-67285726D01*
X157070824Y-67322089D01*
X157101354Y-67384935D01*
X157093060Y-67454311D01*
X157048576Y-67508189D01*
X156982024Y-67529465D01*
X156979072Y-67529500D01*
X156832130Y-67529500D01*
X156832123Y-67529501D01*
X156772518Y-67535908D01*
X156738331Y-67548659D01*
X156734476Y-67548934D01*
X156731252Y-67551058D01*
X156699917Y-67551405D01*
X156668639Y-67553642D01*
X156665247Y-67551790D01*
X156661387Y-67551833D01*
X156651669Y-67548659D01*
X156617480Y-67535908D01*
X156617482Y-67535908D01*
X156557883Y-67529501D01*
X156557881Y-67529500D01*
X156557873Y-67529500D01*
X156557864Y-67529500D01*
X155562129Y-67529500D01*
X155562123Y-67529501D01*
X155502518Y-67535908D01*
X155468331Y-67548659D01*
X155398639Y-67553642D01*
X155381669Y-67548659D01*
X155347480Y-67535908D01*
X155347482Y-67535908D01*
X155287883Y-67529501D01*
X155287881Y-67529500D01*
X155287873Y-67529500D01*
X155287864Y-67529500D01*
X154292129Y-67529500D01*
X154292123Y-67529501D01*
X154232518Y-67535908D01*
X154198331Y-67548659D01*
X154128639Y-67553642D01*
X154111669Y-67548659D01*
X154077480Y-67535908D01*
X154077482Y-67535908D01*
X154017883Y-67529501D01*
X154017881Y-67529500D01*
X154017873Y-67529500D01*
X154017865Y-67529500D01*
X153734098Y-67529500D01*
X153667059Y-67509815D01*
X153621304Y-67457011D01*
X153611360Y-67387853D01*
X153640385Y-67324297D01*
X153646403Y-67317833D01*
X153807419Y-67156817D01*
X153868741Y-67123334D01*
X153895099Y-67120500D01*
X156719902Y-67120500D01*
X156736362Y-67125333D01*
G37*
%TD.AperFunction*%
%TD*%
M02*
