M48
; DRILL file KiCad 10.0.4 date 2026-06-30T23:48:36
; FORMAT={-:-/ absolute / inch / decimal}
; #@! TF.CreationDate,2026-06-30T23:48:36-07:00
; #@! TF.GenerationSoftware,Kicad,Pcbnew,10.0.4
; #@! TF.FileFunction,Plated,1,2,PTH
FMAT,2
INCH
; #@! TA.AperFunction,Plated,PTH,ComponentDrill
T1C0.0098
; #@! TA.AperFunction,Plated,PTH,ViaDrill
T2C0.0118
; #@! TA.AperFunction,Plated,PTH,ComponentDrill
T3C0.0295
; #@! TA.AperFunction,Plated,PTH,ComponentDrill
T4C0.0315
; #@! TA.AperFunction,Plated,PTH,ComponentDrill
T5C0.0394
%
G90
G05
T1
X6.2047Y-2.2791
X6.2047Y-2.3343
X6.2323Y-2.2516
X6.2323Y-2.3067
X6.2323Y-2.3618
X6.2598Y-2.2791
X6.2598Y-2.3343
X6.2874Y-2.2516
X6.2874Y-2.3067
X6.2874Y-2.3618
X6.315Y-2.2791
X6.315Y-2.3343
T2
X6.0049Y-2.517
X6.0064Y-2.3176
X6.0129Y-2.4725
X6.0138Y-2.372
X6.0166Y-2.5704
X6.0217Y-2.1476
X6.0236Y-2.0669
X6.0236Y-2.185
X6.0236Y-2.2835
X6.0236Y-2.4409
X6.0236Y-4.3898
X6.0459Y-2.2612
X6.0827Y-4.6654
X6.0866Y-4.3701
X6.1024Y-2.0079
X6.1024Y-4.5276
X6.1811Y-2.8346
X6.2008Y-3.5827
X6.2205Y-2.815
X6.2348Y-2.6587
X6.2363Y-2.6268
X6.2402Y-3.7205
X6.2402Y-4.2126
X6.2795Y-2.0472
X6.2795Y-2.8346
X6.2795Y-3.0512
X6.2795Y-3.248
X6.2823Y-2.6345
X6.2992Y-4.2913
X6.3386Y-2.6116
X6.378Y-4.2913
X6.3976Y-2.6378
X6.3976Y-3.7795
X6.4173Y-2.2441
X6.4173Y-4.3898
X6.4961Y-2.0472
X6.533Y-4.252
X6.5551Y-4.7047
X6.6142Y-2.0079
X6.6142Y-2.0866
X6.6142Y-2.126
X6.6142Y-2.185
X6.6142Y-2.2441
X6.6142Y-2.2835
X6.6142Y-2.3425
X6.6142Y-2.3819
X6.6142Y-2.4409
X6.6142Y-2.4803
X6.6142Y-2.5394
X6.6142Y-2.5787
X6.6142Y-2.6181
T3
X6.2047Y-4.5971
X6.4331Y-4.5971
T5
X5.9843Y-2.8291
X5.9843Y-2.9291
X5.9843Y-3.0291
X5.9843Y-3.1291
X5.9843Y-3.2291
X5.9843Y-3.3291
X5.9843Y-3.4291
X5.9843Y-3.5291
X5.9843Y-3.6291
X5.9843Y-3.7291
X5.9843Y-3.8291
X5.9843Y-3.9291
X5.9843Y-4.0291
X5.9843Y-4.1291
X5.9843Y-4.2291
X5.9843Y-4.3291
X5.9843Y-4.4291
X5.9843Y-4.5291
X5.9843Y-4.6291
X5.9843Y-4.7291
X6.6535Y-2.8307
X6.6535Y-2.9307
X6.6535Y-3.0307
X6.6535Y-3.1307
X6.6535Y-3.2307
X6.6535Y-3.3307
X6.6535Y-3.4307
X6.6535Y-3.5307
X6.6535Y-3.6307
X6.6535Y-3.7307
X6.6535Y-3.8307
X6.6535Y-3.9307
X6.6535Y-4.0307
X6.6535Y-4.1307
X6.6535Y-4.2307
X6.6535Y-4.3307
X6.6535Y-4.4307
X6.6535Y-4.5307
X6.6535Y-4.6307
X6.6535Y-4.7307
T4
G00X6.1484Y-4.5617
M15
G01X6.1484Y-4.5932
M16
G05
G00X6.1484Y-4.7302
M15
G01X6.1484Y-4.7538
M16
G05
G00X6.4894Y-4.5617
M15
G01X6.4894Y-4.5932
M16
G05
G00X6.4894Y-4.7302
M15
G01X6.4894Y-4.7538
M16
G05
M30
