%TF.GenerationSoftware,KiCad,Pcbnew,10.0.4*%
%TF.CreationDate,2026-06-30T23:48:36-07:00*%
%TF.ProjectId,esp32-breadboard-board,65737033-322d-4627-9265-6164626f6172,rev?*%
%TF.SameCoordinates,Original*%
%TF.FileFunction,Legend,Top*%
%TF.FilePolarity,Positive*%
%FSLAX46Y46*%
G04 Gerber Fmt 4.6, Leading zero omitted, Abs format (unit mm)*
G04 Created by KiCad (PCBNEW 10.0.4) date 2026-06-30 23:48:36*
%MOMM*%
%LPD*%
G01*
G04 APERTURE LIST*
G04 Aperture macros list*
%AMRoundRect*
0 Rectangle with rounded corners*
0 $1 Rounding radius*
0 $2 $3 $4 $5 $6 $7 $8 $9 X,Y pos of 4 corners*
0 Add a 4 corners polygon primitive as box body*
4,1,4,$2,$3,$4,$5,$6,$7,$8,$9,$2,$3,0*
0 Add four circle primitives for the rounded corners*
1,1,$1+$1,$2,$3*
1,1,$1+$1,$4,$5*
1,1,$1+$1,$6,$7*
1,1,$1+$1,$8,$9*
0 Add four rect primitives between the rounded corners*
20,1,$1+$1,$2,$3,$4,$5,0*
20,1,$1+$1,$4,$5,$6,$7,0*
20,1,$1+$1,$6,$7,$8,$9,0*
20,1,$1+$1,$8,$9,$2,$3,0*%
%AMFreePoly0*
4,1,17,0.335278,0.685443,0.349923,0.650088,0.349923,-0.649935,0.335278,-0.685290,0.299923,-0.699935,0.000318,-0.699935,-0.000051,-0.700088,-0.300050,-0.700088,-0.335405,-0.685443,-0.350050,-0.650088,-0.350050,0.649935,-0.335405,0.685290,-0.300050,0.699935,-0.000445,0.699935,-0.000076,0.700088,0.299923,0.700088,0.335278,0.685443,0.335278,0.685443,$1*%
%AMFreePoly1*
4,1,17,0.335431,0.685290,0.350076,0.649935,0.350076,-0.650037,0.335431,-0.685392,0.300076,-0.700037,0.000187,-0.700037,0.000127,-0.700062,-0.299898,-0.700062,-0.335253,-0.685417,-0.349898,-0.650062,-0.349898,0.649910,-0.335253,0.685265,-0.299898,0.699910,-0.000009,0.699910,0.000051,0.699935,0.300076,0.699935,0.335431,0.685290,0.335431,0.685290,$1*%
%AMFreePoly2*
4,1,13,0.335227,0.685443,0.349872,0.650088,0.349872,-0.649884,0.335227,-0.685239,0.299872,-0.699884,-0.300152,-0.699884,-0.335507,-0.685239,-0.350152,-0.649884,-0.350152,0.650088,-0.335507,0.685443,-0.300152,0.700088,0.299872,0.700088,0.335227,0.685443,0.335227,0.685443,$1*%
G04 Aperture macros list end*
%ADD10C,0.302787*%
%ADD11C,0.150000*%
%ADD12C,0.187500*%
%ADD13C,0.120000*%
%ADD14C,0.060000*%
%ADD15C,0.000000*%
%ADD16C,0.250000*%
%ADD17RoundRect,0.375000X-0.625000X-0.375000X0.625000X-0.375000X0.625000X0.375000X-0.625000X0.375000X0*%
%ADD18RoundRect,0.500000X-0.500000X-1.400000X0.500000X-1.400000X0.500000X1.400000X-0.500000X1.400000X0*%
%ADD19RoundRect,0.140000X-0.170000X0.140000X-0.170000X-0.140000X0.170000X-0.140000X0.170000X0.140000X0*%
%ADD20R,1.220000X0.910000*%
%ADD21R,1.860000X1.230000*%
%ADD22R,1.700000X1.700000*%
%ADD23C,1.700000*%
%ADD24RoundRect,0.225000X0.250000X-0.225000X0.250000X0.225000X-0.250000X0.225000X-0.250000X-0.225000X0*%
%ADD25R,1.500000X0.900000*%
%ADD26R,0.900000X1.500000*%
%ADD27R,0.900000X0.900000*%
%ADD28C,0.400000*%
%ADD29RoundRect,0.225000X-0.250000X0.225000X-0.250000X-0.225000X0.250000X-0.225000X0.250000X0.225000X0*%
%ADD30RoundRect,0.135000X0.185000X-0.135000X0.185000X0.135000X-0.185000X0.135000X-0.185000X-0.135000X0*%
%ADD31RoundRect,0.218750X-0.256250X0.218750X-0.256250X-0.218750X0.256250X-0.218750X0.256250X0.218750X0*%
%ADD32C,0.750000*%
%ADD33FreePoly0,0.000000*%
%ADD34FreePoly1,0.000000*%
%ADD35R,0.300000X1.300000*%
%ADD36FreePoly2,0.000000*%
%ADD37O,1.200000X2.000000*%
%ADD38O,1.200000X1.800000*%
%ADD39RoundRect,0.140000X0.170000X-0.140000X0.170000X0.140000X-0.170000X0.140000X-0.170000X-0.140000X0*%
%ADD40RoundRect,0.150000X0.150000X-0.512500X0.150000X0.512500X-0.150000X0.512500X-0.150000X-0.512500X0*%
%ADD41RoundRect,0.147500X0.147500X0.172500X-0.147500X0.172500X-0.147500X-0.172500X0.147500X-0.172500X0*%
%ADD42RoundRect,0.135000X-0.135000X-0.185000X0.135000X-0.185000X0.135000X0.185000X-0.135000X0.185000X0*%
G04 APERTURE END LIST*
D10*
X154513391Y-85772630D02*
G75*
G02*
X154527162Y-85628040I1233909J-44570D01*
G01*
X154516369Y-85919431D02*
G75*
G02*
X154513386Y-85772630I1294431J99731D01*
G01*
X154532676Y-86044399D02*
G75*
G02*
X154516366Y-85919431I1168824J216099D01*
G01*
X154553343Y-85458467D02*
X154527167Y-85628041D01*
X154563575Y-86101314D02*
G75*
G02*
X154532694Y-86044396I72025J75914D01*
G01*
X154590398Y-86119973D02*
G75*
G02*
X154563582Y-86101307I48502J98273D01*
G01*
X154590398Y-86119973D02*
X154754306Y-86200672D01*
X154754306Y-86200672D02*
X154946328Y-86293146D01*
X154946328Y-86293146D02*
X155168108Y-86397139D01*
X155168108Y-86397139D02*
X155435608Y-86523591D01*
X155172161Y-85677026D02*
G75*
G02*
X155173832Y-85669842I2839J3126D01*
G01*
X155173832Y-85669841D02*
X155371136Y-85593320D01*
X155183727Y-85680728D02*
G75*
G02*
X155172156Y-85677032I-1927J13928D01*
G01*
X155227323Y-85929796D02*
G75*
G02*
X155229279Y-85923595I2577J2596D01*
G01*
X155229276Y-85923576D02*
X155293447Y-85914356D01*
X155239413Y-85938045D02*
G75*
G02*
X155227320Y-85929799I20287J42745D01*
G01*
X155290711Y-85159878D02*
X154553343Y-85458467D01*
X155293077Y-85963461D02*
X155239413Y-85938045D01*
X155293447Y-85914356D02*
X155374224Y-85905218D01*
X155336732Y-85660298D02*
X155183727Y-85680728D01*
X155357167Y-85992691D02*
X155293077Y-85963461D01*
X155371136Y-85593320D02*
X155596542Y-85507819D01*
X155374224Y-85905218D02*
X155473153Y-85897037D01*
X155430331Y-86024666D02*
X155357167Y-85992691D01*
X155435608Y-86523591D02*
X155770390Y-86686398D01*
X155473153Y-85897037D02*
X155600106Y-85883560D01*
X155510752Y-85635442D02*
X155336732Y-85660298D01*
X155596542Y-85507819D02*
X155866742Y-85408474D01*
X155600106Y-85883560D02*
X155771100Y-85856921D01*
X155685682Y-86143266D02*
X155430331Y-86024666D01*
X155715100Y-85603691D02*
X155510752Y-85635442D01*
X155770390Y-86686398D02*
X156114668Y-86856976D01*
X155771100Y-85856921D02*
X155953909Y-85823175D01*
X155855789Y-84938663D02*
X155290711Y-85159878D01*
X155866742Y-85408474D02*
X156573623Y-85151542D01*
X155953909Y-85823175D02*
X156121394Y-85786701D01*
X156114668Y-86856976D02*
X156414214Y-87008856D01*
X156121394Y-85786701D02*
X156508936Y-85694972D01*
X156207268Y-85528380D02*
X155715100Y-85603691D01*
X156207268Y-85528380D02*
G75*
G02*
X156451717Y-85507382I265632J-1659020D01*
G01*
X156251755Y-84804046D02*
X155855789Y-84938663D01*
X156281584Y-86443438D02*
X155685682Y-86143266D01*
X156414214Y-87008856D02*
X156732548Y-87166960D01*
X156451717Y-85507388D02*
G75*
G02*
X156615450Y-85526384I8183J-644612D01*
G01*
X156508025Y-84738292D02*
X156251755Y-84804046D01*
X156508025Y-84738292D02*
G75*
G02*
X156685797Y-84737701I89875J-297008D01*
G01*
X156508936Y-85694972D02*
X156785851Y-85825445D01*
X156573623Y-85151542D02*
X156770104Y-85234942D01*
X156615451Y-85526379D02*
G75*
G02*
X156814900Y-85589709I-394651J-1588621D01*
G01*
X156732548Y-87166960D02*
X157040384Y-87308692D01*
X156770104Y-85234942D02*
X157122926Y-85379313D01*
X156785851Y-85825445D02*
X156920766Y-85887671D01*
X156814102Y-84781189D02*
X156685795Y-84737706D01*
X156884870Y-86751369D02*
X156281584Y-86443438D01*
X156920766Y-85887671D02*
X157102194Y-85968644D01*
X157040384Y-87308692D02*
X157326639Y-87429268D01*
X157079759Y-86861610D02*
X156884870Y-86751369D01*
X157102194Y-85968644D02*
X157296251Y-86053588D01*
X157122926Y-85379313D02*
X157887968Y-85679443D01*
X157158928Y-86900122D02*
G75*
G02*
X157079753Y-86861620I147472J403922D01*
G01*
X157167849Y-85737506D02*
X156814899Y-85589712D01*
X157296251Y-86053588D02*
X157473938Y-86129669D01*
X157326639Y-87429268D02*
X157579201Y-87523089D01*
X157404235Y-85008008D02*
X156814102Y-84781189D01*
X157424661Y-86995416D02*
X157158928Y-86900122D01*
X157473938Y-86129669D02*
X157673775Y-86216832D01*
X157579201Y-87523089D02*
X158038497Y-87689642D01*
X157673775Y-86216832D02*
X157942070Y-86339208D01*
X157742707Y-87104525D02*
X157424661Y-86995416D01*
X157887968Y-85679443D02*
X158719692Y-86003679D01*
X157942070Y-86339208D02*
X158228430Y-86473129D01*
X157967114Y-85226340D02*
X157404235Y-85008008D01*
X158028028Y-86126228D02*
X157167849Y-85737506D01*
X158038497Y-87689642D02*
X158637982Y-87925357D01*
X158098796Y-87220902D02*
X157742707Y-87104525D01*
X158228430Y-86473129D02*
X158490180Y-86599077D01*
X158310798Y-85364050D02*
X157967114Y-85226340D01*
X158461631Y-76191533D02*
X158462199Y-77172152D01*
X158461733Y-74278778D02*
X158461631Y-76191533D01*
X158462199Y-77172152D02*
X158464283Y-78618873D01*
X158464283Y-78618873D02*
X158467329Y-80225625D01*
X158467329Y-80225625D02*
X158470879Y-81768958D01*
X158468274Y-87342729D02*
X158098796Y-87220902D01*
X158470879Y-81768958D02*
X158480260Y-85433676D01*
X158480260Y-85433676D02*
X158310798Y-85364050D01*
X158490180Y-86599077D02*
X159086074Y-86885981D01*
X158637982Y-87925357D02*
X159253499Y-88174956D01*
X158814805Y-91960487D02*
G75*
G02*
X158820609Y-91905906I95095J17487D01*
G01*
X158820627Y-91905913D02*
G75*
G02*
X158858285Y-91836965I343373J-142787D01*
G01*
X158825593Y-86037400D02*
G75*
G02*
X158719692Y-86003679I214507J856800D01*
G01*
X158825593Y-86037400D02*
G75*
G02*
X158855104Y-86046664I-62393J-250400D01*
G01*
X158827145Y-87468266D02*
X158468274Y-87342729D01*
X158846259Y-92023375D02*
G75*
G02*
X158814790Y-91960490I92041J85375D01*
G01*
X158846259Y-92023375D02*
X158996488Y-92189889D01*
X158855105Y-86046661D02*
G75*
G02*
X158885754Y-86059867I-125505J-333439D01*
G01*
X158858288Y-91836967D02*
G75*
G02*
X158936430Y-91736064I966712J-667933D01*
G01*
X158885755Y-86059865D02*
G75*
G02*
X158913046Y-86074775I-145155J-298135D01*
G01*
X158890650Y-86520812D02*
X158028028Y-86126228D01*
X158902222Y-73804567D02*
X158461733Y-74278778D01*
X158913045Y-86074777D02*
G75*
G02*
X158931787Y-86089088I-58945J-96623D01*
G01*
X158965561Y-86102733D02*
G75*
G02*
X158931782Y-86089093I439J49733D01*
G01*
X158965561Y-86102733D02*
X159425674Y-86106332D01*
X158982246Y-74481372D02*
G75*
G02*
X158987674Y-74426337I265754J1572D01*
G01*
X158987677Y-74426338D02*
G75*
G02*
X159010743Y-74379609I100523J-20562D01*
G01*
X158990076Y-75925827D02*
X158982246Y-74481372D01*
X158996488Y-92189889D02*
X159220496Y-92424458D01*
X159000365Y-77536552D02*
X158990076Y-75925827D01*
X159010749Y-74379615D02*
X159182015Y-74175591D01*
X159015240Y-79436477D02*
X159000365Y-77536552D01*
X159031416Y-81375834D02*
X159015240Y-79436477D01*
X159045779Y-83112494D02*
X159031416Y-81375834D01*
X159057809Y-84575088D02*
X159045779Y-83112494D01*
X159061123Y-85009669D02*
X159057809Y-84575088D01*
X159064257Y-85253583D02*
X159061123Y-85009669D01*
X159070056Y-85464277D02*
X159064257Y-85253583D01*
X159077221Y-85645617D02*
X159070056Y-85464277D01*
X159077253Y-85645618D02*
X159077221Y-85645617D01*
X159085285Y-85672077D02*
G75*
G02*
X159077245Y-85645618I46815J28677D01*
G01*
X159093076Y-91558121D02*
X158936430Y-91736064D01*
X159098322Y-87568728D02*
X158827145Y-87468266D01*
X159098322Y-87568728D02*
G75*
G02*
X159302408Y-87654681I-710122J-1971372D01*
G01*
X159102888Y-73586454D02*
X158902222Y-73804567D01*
X159104918Y-85683806D02*
G75*
G02*
X159085300Y-85672068I1282J24406D01*
G01*
X159182015Y-74175591D02*
X159389751Y-73935734D01*
X159189794Y-85687151D02*
X159104918Y-85683806D01*
X159207720Y-86677889D02*
X158890650Y-86520812D01*
X159220496Y-92424458D02*
X159569582Y-92775732D01*
X159253499Y-88174956D02*
G75*
G02*
X159343323Y-88233363I-106099J-261444D01*
G01*
X159293801Y-85685905D02*
X159189794Y-85687151D01*
X159305999Y-86968600D02*
G75*
G02*
X159086075Y-86885979I384501J1357500D01*
G01*
X159314674Y-86729886D02*
X159207720Y-86677889D01*
X159343334Y-88233352D02*
G75*
G02*
X159356628Y-88262221I-30734J-31648D01*
G01*
X159343469Y-73320949D02*
X159102888Y-73586454D01*
X159356638Y-88262220D02*
X159363978Y-88352468D01*
X159360619Y-89161668D02*
X159363149Y-89607758D01*
X159360779Y-88783417D02*
X159360619Y-89161668D01*
X159363149Y-89607758D02*
X159368616Y-90074838D01*
X159363978Y-88352468D02*
X159367386Y-88464929D01*
X159364915Y-88591937D02*
X159360779Y-88783417D01*
X159366658Y-91924057D02*
G75*
G02*
X159375524Y-91900085I33442J1257D01*
G01*
X159367386Y-88464929D02*
X159364915Y-88591937D01*
X159368616Y-90074838D02*
X159385360Y-91232567D01*
X159375501Y-91900063D02*
X159413561Y-91855246D01*
X159377738Y-91949786D02*
G75*
G02*
X159366643Y-91924058I27662J27186D01*
G01*
X159385360Y-91232567D02*
X159093076Y-91558121D01*
X159389751Y-73935734D02*
X159637206Y-73659887D01*
X159393302Y-86749583D02*
G75*
G02*
X159314663Y-86729907I98J167383D01*
G01*
X159413449Y-85678381D02*
X159293801Y-85685905D01*
X159413561Y-91855246D02*
X159466022Y-91801296D01*
X159425674Y-86106332D02*
X159948628Y-86106371D01*
X159452551Y-86974412D02*
G75*
G02*
X159306004Y-86968583I-61151J307712D01*
G01*
X159462895Y-86735974D02*
G75*
G02*
X159393302Y-86749563I-69195J169374D01*
G01*
X159466022Y-91801296D02*
X159528485Y-91744714D01*
X159528485Y-91744714D02*
X159598820Y-91682825D01*
X159529073Y-92104709D02*
X159377738Y-91949786D01*
X159569582Y-92775732D02*
X159857413Y-93060407D01*
X159584223Y-73052332D02*
X159343469Y-73320949D01*
X159592443Y-86678507D02*
X159462895Y-86735974D01*
X159597314Y-87797635D02*
X159302408Y-87654680D01*
X159598820Y-91682825D02*
X159675069Y-91612809D01*
X159607601Y-86915573D02*
G75*
G02*
X159452548Y-86974399I-252801J432573D01*
G01*
X159607601Y-86915573D02*
X159698033Y-86865695D01*
X159637206Y-73659887D02*
X159886271Y-73385507D01*
X159655530Y-80769621D02*
X159659593Y-82892260D01*
X159659593Y-82892260D02*
X159699146Y-84884207D01*
X159669688Y-91927169D02*
G75*
G02*
X159701699Y-91873827I375612J-189131D01*
G01*
X159670667Y-91956754D02*
G75*
G02*
X159669716Y-91927183I26533J15654D01*
G01*
X159675069Y-91612809D02*
X159745797Y-91545442D01*
X159686841Y-78496211D02*
X159655530Y-80769621D01*
X159692133Y-91983498D02*
G75*
G02*
X159670672Y-91956751I84267J89598D01*
G01*
X159692133Y-91983498D02*
X159803259Y-92087812D01*
X159698033Y-86865695D02*
X159829883Y-86798606D01*
X159699146Y-84884207D02*
X159721952Y-85652624D01*
X159701705Y-91873831D02*
G75*
G02*
X159759883Y-91800314I703795J-497169D01*
G01*
X159706734Y-92281636D02*
X159529073Y-92104709D01*
X159721952Y-85652624D02*
X159413449Y-85678381D01*
X159745797Y-91545442D02*
X159797889Y-91492796D01*
X159753916Y-76049769D02*
X159686841Y-78496211D01*
X159773656Y-75440717D02*
X159753916Y-76049769D01*
X159782802Y-91930770D02*
X159961515Y-91742549D01*
X159785783Y-72824131D02*
X159584223Y-73052332D01*
X159789132Y-74918142D02*
X159773656Y-75440717D01*
X159797889Y-91492796D02*
X159860185Y-91431581D01*
X159799539Y-74413047D02*
G75*
G02*
X159801727Y-74459339I-303739J-37553D01*
G01*
X159799539Y-74413047D02*
G75*
G02*
X159826441Y-74309121I144861J17947D01*
G01*
X159800573Y-88913789D02*
X159801767Y-88680976D01*
X159800855Y-89251316D02*
X159800573Y-88913789D01*
X159801726Y-74459339D02*
X159801736Y-74459329D01*
X159801736Y-74459329D02*
X159789132Y-74918142D01*
X159801767Y-88680976D02*
X159806259Y-88222479D01*
X159802284Y-89623753D02*
X159800855Y-89251316D01*
X159803259Y-92087812D02*
X159935697Y-92209404D01*
X159804796Y-89978645D02*
X159802284Y-89623753D01*
X159806259Y-88222479D02*
X160137890Y-87897957D01*
X159811547Y-90523611D02*
X159804796Y-89978645D01*
X159825198Y-90719556D02*
G75*
G02*
X159811552Y-90523611I1608402J210456D01*
G01*
X159829883Y-86798606D02*
X159976068Y-86727396D01*
X159853093Y-91698490D02*
X159759882Y-91800313D01*
X159857413Y-93060407D02*
X160108686Y-93303924D01*
X159857748Y-90814585D02*
G75*
G02*
X159825196Y-90719556I218352J127885D01*
G01*
X159860185Y-91431581D02*
G75*
G02*
X159899074Y-91408633I73315J-79819D01*
G01*
X159860353Y-87521300D02*
X159597314Y-87797635D01*
X159886271Y-73385507D02*
X160108518Y-73139559D01*
X159899079Y-91408647D02*
G75*
G02*
X159935248Y-91408690I18021J-54053D01*
G01*
X159917338Y-92484171D02*
X159706734Y-92281636D01*
X159922365Y-90876806D02*
G75*
G02*
X159857748Y-90814585I78135J145806D01*
G01*
X159933192Y-85634351D02*
X159938466Y-85538899D01*
X159934353Y-87449381D02*
G75*
G02*
X160255477Y-87169553I1656347J-1576619D01*
G01*
X159935251Y-91408681D02*
G75*
G02*
X159981725Y-91431040I-67951J-200719D01*
G01*
X159935697Y-92209404D02*
X160088247Y-92345852D01*
X159938466Y-85538899D02*
X159972187Y-83561101D01*
X159948628Y-86106371D02*
X160562683Y-86099898D01*
X159952119Y-85654556D02*
G75*
G02*
X159933117Y-85634344I-619J18456D01*
G01*
X159957293Y-72627686D02*
X159785783Y-72824131D01*
X159961515Y-91742549D02*
X160054548Y-91648179D01*
X159972187Y-83561101D02*
X160001440Y-81792677D01*
X159976068Y-86727396D02*
X160115986Y-86662436D01*
X159981723Y-91431042D02*
X159981734Y-91431030D01*
X159981734Y-91431030D02*
X160059536Y-91480949D01*
X160001440Y-81792677D02*
X160016950Y-80707322D01*
X160016950Y-80707322D02*
X160029583Y-79495319D01*
X160017731Y-89051318D02*
X160029237Y-89584973D01*
X160018124Y-74396118D02*
X160146388Y-74230289D01*
X160022943Y-88617909D02*
X160017731Y-89051318D01*
X160028425Y-75971649D02*
X160018124Y-74396118D01*
X160029237Y-89584973D02*
X160036209Y-89840392D01*
X160029583Y-79495319D02*
X160035366Y-78422572D01*
X160032375Y-90935840D02*
X159922365Y-90876806D01*
X160033264Y-86468880D02*
X159592443Y-86678507D01*
X160034911Y-77310235D02*
X160028425Y-75971649D01*
X160035366Y-78422572D02*
X160034911Y-77310235D01*
X160036209Y-89840392D02*
X160040795Y-90116128D01*
X160038415Y-88267801D02*
X160022943Y-88617909D01*
X160038415Y-88267801D02*
G75*
G02*
X160075427Y-88221255I49785J-1599D01*
G01*
X160040740Y-90557843D02*
X160032375Y-90935840D01*
X160040795Y-90116128D02*
X160042601Y-90371645D01*
X160042601Y-90371645D02*
X160040740Y-90557843D01*
X160054548Y-91648179D02*
G75*
G02*
X160115017Y-91598089I335952J-344021D01*
G01*
X160059536Y-91480949D02*
X159853093Y-91698490D01*
X160061146Y-87326053D02*
X159934353Y-87449381D01*
X160088249Y-73956650D02*
X159826461Y-74309136D01*
X160088247Y-92345852D02*
X160481776Y-92694266D01*
X160097791Y-88206639D02*
G75*
G02*
X160075424Y-88221243I-32691J25639D01*
G01*
X160105597Y-72456762D02*
X159957293Y-72627686D01*
X160108518Y-73139559D02*
X160295349Y-72931957D01*
X160108686Y-93303924D02*
X160328733Y-93513746D01*
X160115014Y-91598084D02*
G75*
G02*
X160159825Y-91576163I92886J-133116D01*
G01*
X160115986Y-86662436D02*
X160447485Y-86512556D01*
X160133119Y-92247909D02*
X159782802Y-91930770D01*
X160137890Y-87897957D02*
X160267979Y-87771941D01*
X160143051Y-88146814D02*
X160097791Y-88206639D01*
X160146388Y-74230289D02*
X160202112Y-74159124D01*
X160159824Y-91576160D02*
G75*
G02*
X160197044Y-91577924I16176J-52240D01*
G01*
X160194145Y-88071066D02*
X160143051Y-88146814D01*
X160197055Y-91577897D02*
G75*
G02*
X160235326Y-91598311I-86155J-207603D01*
G01*
X160202112Y-74159124D02*
X160263590Y-74082463D01*
X160233214Y-72308887D02*
X160105597Y-72456762D01*
X160235331Y-91598304D02*
X160252188Y-91608754D01*
X160246048Y-88912453D02*
X160255092Y-88600003D01*
X160246867Y-87983338D02*
X160194145Y-88071066D01*
X160250954Y-89643425D02*
X160246048Y-88912453D01*
X160251822Y-91016207D02*
G75*
G02*
X160252374Y-90954273I366378J27707D01*
G01*
X160252188Y-91608754D02*
X160281207Y-91629553D01*
X160252303Y-72284344D02*
G75*
G02*
X160233214Y-72308887I-255003J178644D01*
G01*
X160252303Y-72284344D02*
G75*
G02*
X160268710Y-72270291I35597J-24956D01*
G01*
X160254873Y-90109813D02*
X160250954Y-89643425D01*
X160255092Y-88600003D02*
G75*
G02*
X160281345Y-88414022I1189708J-73097D01*
G01*
X160255480Y-87169557D02*
G75*
G02*
X160426094Y-87061619I995120J-1384143D01*
G01*
X160256281Y-90869991D02*
G75*
G02*
X160252373Y-90954273I-923481J591D01*
G01*
X160256281Y-90869991D02*
X160256376Y-90521612D01*
X160256376Y-90521612D02*
X160254873Y-90109813D01*
X160263590Y-74082463D02*
X160321607Y-74011565D01*
X160263948Y-91061862D02*
G75*
G02*
X160251833Y-91016206I118052J55762D01*
G01*
X160267979Y-87771941D02*
X160384357Y-87661940D01*
X160268705Y-72270282D02*
G75*
G02*
X160303124Y-72255626I150595J-305918D01*
G01*
X160273953Y-86361038D02*
X160033264Y-86468880D01*
X160281207Y-91629553D02*
G75*
G02*
X160304867Y-91649796I-184807J-239947D01*
G01*
X160281346Y-88414022D02*
G75*
G02*
X160344529Y-88252506I552154J-122878D01*
G01*
X160292166Y-91101730D02*
G75*
G02*
X160263944Y-91061864I99034J100030D01*
G01*
X160295349Y-72931957D02*
X160360272Y-72857240D01*
X160303123Y-72255623D02*
G75*
G02*
X160345943Y-72242729I141777J-393277D01*
G01*
X160321607Y-74011565D02*
X160365355Y-73959999D01*
X160326462Y-87847656D02*
X160246867Y-87983338D01*
X160326462Y-87847656D02*
G75*
G02*
X160372345Y-87786961I257338J-146844D01*
G01*
X160343114Y-91145711D02*
G75*
G02*
X160292163Y-91101734I293986J392111D01*
G01*
X160344532Y-88252508D02*
X160431898Y-88096309D01*
X160345942Y-72242725D02*
G75*
G02*
X160392219Y-72233767I117458J-482775D01*
G01*
X160359215Y-73608838D02*
X160088249Y-73956650D01*
X160359215Y-73608838D02*
G75*
G02*
X160443985Y-73566993I84385J-64162D01*
G01*
X160360272Y-72857240D02*
G75*
G02*
X160379597Y-72836916I368728J-331260D01*
G01*
X160364534Y-93536706D02*
G75*
G02*
X160328735Y-93513744I46066J111206D01*
G01*
X160365355Y-73959999D02*
X160456036Y-73855501D01*
X160365848Y-91673956D02*
G75*
G02*
X160304868Y-91649795I-348J88156D01*
G01*
X160372347Y-87786963D02*
G75*
G02*
X160414378Y-87760968I73853J-72437D01*
G01*
X160379597Y-72836916D02*
G75*
G02*
X160408641Y-72811865I189103J-189884D01*
G01*
X160384357Y-87661940D02*
X160483387Y-87570344D01*
X160392219Y-72233767D02*
G75*
G02*
X160459996Y-72232889I37181J-253833D01*
G01*
X160405424Y-91186347D02*
G75*
G02*
X160343110Y-91145717I280076J497647D01*
G01*
X160408636Y-72811859D02*
G75*
G02*
X160432714Y-72796942I99764J-134141D01*
G01*
X160414385Y-87760989D02*
G75*
G02*
X160476859Y-87748766I82715J-257011D01*
G01*
X160417565Y-85642764D02*
X159952119Y-85654556D01*
X160418648Y-86304229D02*
X160273953Y-86361038D01*
X160418648Y-86304229D02*
G75*
G02*
X160498897Y-86293199I60452J-142371D01*
G01*
X160426092Y-87061616D02*
G75*
G02*
X160544085Y-87029582I124508J-225284D01*
G01*
X160431898Y-88096309D02*
G75*
G02*
X160484325Y-88031202I238502J-138391D01*
G01*
X160432712Y-72796938D02*
G75*
G02*
X160445201Y-72798751I4988J-9562D01*
G01*
X160443985Y-73567017D02*
G75*
G02*
X160480600Y-73577660I-285J-69283D01*
G01*
X160445214Y-72798737D02*
G75*
G02*
X160528813Y-72885420I-936014J-986363D01*
G01*
X160447276Y-91195837D02*
G75*
G02*
X160405418Y-91186357I-5076J74737D01*
G01*
X160447485Y-86512556D02*
X160815270Y-86676123D01*
X160456036Y-73855501D02*
X160735627Y-74154706D01*
X160459996Y-72232890D02*
G75*
G02*
X160527584Y-72249387I-34296J-287210D01*
G01*
X160466430Y-93005236D02*
X159917338Y-92484171D01*
X160476603Y-93538895D02*
G75*
G02*
X160364544Y-93536683I-53203J144295D01*
G01*
X160476860Y-87748778D02*
G75*
G02*
X160534805Y-87751177I18840J-245922D01*
G01*
X160477872Y-91663416D02*
G75*
G02*
X160365848Y-91673952I-114672J618416D01*
G01*
X160480600Y-73577660D02*
G75*
G02*
X160528621Y-73613751I-200100J-316240D01*
G01*
X160481776Y-92694266D02*
X160601635Y-92610961D01*
X160483387Y-87570344D02*
G75*
G02*
X160511095Y-87550224I98313J-106256D01*
G01*
X160483429Y-92565027D02*
X160133119Y-92247909D01*
X160484326Y-88031203D02*
G75*
G02*
X160525001Y-88024034I25974J-28397D01*
G01*
X160491083Y-91181387D02*
G75*
G02*
X160447276Y-91195841I-50283J78787D01*
G01*
X160498900Y-86293178D02*
G75*
G02*
X160545760Y-86304555I-28000J-217522D01*
G01*
X160511103Y-87550238D02*
G75*
G02*
X160544059Y-87551035I15797J-28562D01*
G01*
X160525001Y-88024033D02*
G75*
G02*
X160565102Y-88058324I-32301J-78367D01*
G01*
X160527582Y-72249393D02*
G75*
G02*
X160607417Y-72287728I-182282J-481907D01*
G01*
X160528615Y-73613758D02*
G75*
G02*
X160589183Y-73673694I-498515J-564342D01*
G01*
X160528810Y-72885423D02*
X161192989Y-73638053D01*
X160534804Y-87751182D02*
G75*
G02*
X160580079Y-87768135I-19504J-121018D01*
G01*
X160544070Y-87551017D02*
G75*
G02*
X160664591Y-87642340I-438270J-703583D01*
G01*
X160544085Y-87029580D02*
G75*
G02*
X160598316Y-87044195I2615J-98220D01*
G01*
X160562683Y-86099898D02*
X162157624Y-86076619D01*
X160563679Y-91130622D02*
X160491083Y-91181387D01*
X160580083Y-87768129D02*
G75*
G02*
X160626635Y-87806674I-119883J-192171D01*
G01*
X160591388Y-91631415D02*
G75*
G02*
X160477872Y-91663418I-230088J598815D01*
G01*
X160599784Y-88107093D02*
G75*
G02*
X160565096Y-88058328I337216J276593D01*
G01*
X160599784Y-88107093D02*
X160616958Y-88129027D01*
X160601030Y-92441448D02*
X160483429Y-92565027D01*
X160601635Y-92610961D02*
X160483429Y-92565027D01*
X160607112Y-93463976D02*
G75*
G02*
X160476598Y-93538881I-288012J350676D01*
G01*
X160610246Y-87787791D02*
G75*
G02*
X160853300Y-88109896I-1500646J-1385109D01*
G01*
X160613636Y-87599469D02*
X160664596Y-87642334D01*
X160616958Y-88129027D02*
X160649399Y-88166724D01*
X160631497Y-91071555D02*
G75*
G02*
X160514418Y-91165063I-497497J502855D01*
G01*
X160644674Y-72311233D02*
G75*
G02*
X160895119Y-72498420I-738174J-1248767D01*
G01*
X160649399Y-88166724D02*
X160685670Y-88204103D01*
X160649399Y-88166724D02*
X160853298Y-88109897D01*
X160657484Y-86346026D02*
X160545757Y-86304564D01*
X160661347Y-92380301D02*
X160601030Y-92441448D01*
X160663442Y-91583366D02*
G75*
G02*
X160591387Y-91631412I-142842J136166D01*
G01*
X160663442Y-91583366D02*
G75*
G02*
X160712993Y-91570105I35658J-34034D01*
G01*
X160664422Y-91022015D02*
G75*
G02*
X160631507Y-91071565I-137022J55315D01*
G01*
X160667630Y-73764508D02*
X160589184Y-73673693D01*
X160672617Y-92787677D02*
X160466430Y-93005236D01*
X160677229Y-92548321D02*
G75*
G02*
X160601637Y-92610964I-404529J411221D01*
G01*
X160677229Y-92548321D02*
X160769108Y-92460548D01*
X160679003Y-90957077D02*
G75*
G02*
X160664412Y-91022011I-207303J12477D01*
G01*
X160682647Y-90835056D02*
X160679003Y-90957077D01*
X160684074Y-90701629D02*
X160682647Y-90835056D01*
X160685670Y-88204103D02*
G75*
G02*
X160717314Y-88282668I-91470J-82497D01*
G01*
X160692388Y-90343201D02*
X160684074Y-90701629D01*
X160693148Y-87883393D02*
X160610246Y-87787791D01*
X160703188Y-89915732D02*
X160692388Y-90343201D01*
X160705831Y-87116103D02*
X160598308Y-87044209D01*
X160712956Y-87683004D02*
X160862521Y-87822408D01*
X160712998Y-91570089D02*
G75*
G02*
X160798843Y-91606743I-111298J-379511D01*
G01*
X160716046Y-89447806D02*
X160703188Y-89915732D01*
X160716097Y-72356334D02*
X160607416Y-72287730D01*
X160717302Y-88282668D02*
X160730105Y-88475218D01*
X160730105Y-88475218D02*
X160731599Y-88807824D01*
X160731599Y-88807824D02*
X160716046Y-89447806D01*
X160735627Y-74154706D02*
X160844309Y-74271291D01*
X160745917Y-73857291D02*
X160667630Y-73764508D01*
X160749623Y-92295014D02*
X160661347Y-92380301D01*
X160769108Y-92460548D02*
X160886706Y-92341356D01*
X160772682Y-92679793D02*
X160672617Y-92787677D01*
X160790513Y-86398853D02*
X160657484Y-86346026D01*
X160798843Y-91606743D02*
G75*
G02*
X160956157Y-91723786I-418143J-726257D01*
G01*
X160815270Y-86676123D02*
X161222773Y-86843097D01*
X160830021Y-93255809D02*
G75*
G02*
X160607111Y-93463975I-1743921J1644009D01*
G01*
X160830021Y-93255809D02*
X161277891Y-92786105D01*
X160844309Y-74271291D02*
X160939276Y-74373823D01*
X160847735Y-92202647D02*
X160749623Y-92295014D01*
X160848027Y-73974934D02*
X160745917Y-73857291D01*
X160853298Y-88109897D02*
G75*
G02*
X160923969Y-88293885I-468198J-285403D01*
G01*
X160855695Y-87230273D02*
X160705831Y-87116103D01*
X160862521Y-87822408D02*
X161172365Y-88117742D01*
X160871588Y-91489781D02*
G75*
G02*
X160885696Y-91454958I51312J-519D01*
G01*
X160876498Y-85628879D02*
X160876516Y-85628908D01*
X160876516Y-85628908D02*
X160417565Y-85642764D01*
X160878683Y-81416981D02*
X160914335Y-83942594D01*
X160883572Y-91528046D02*
G75*
G02*
X160871564Y-91489781I53628J37846D01*
G01*
X160884809Y-79241975D02*
X160878683Y-81416981D01*
X160885688Y-91454950D02*
G75*
G02*
X160942197Y-91440574I39712J-37850D01*
G01*
X160886706Y-92341356D02*
X161003432Y-92215864D01*
X160895112Y-72498428D02*
G75*
G02*
X161081110Y-72689794I-1826012J-1960872D01*
G01*
X160906946Y-92530586D02*
X160772682Y-92679793D01*
X160913410Y-90704342D02*
X160919792Y-90570515D01*
X160914335Y-83942594D02*
X160925707Y-84573159D01*
X160915210Y-90827154D02*
G75*
G02*
X160913412Y-90704342I774390J72754D01*
G01*
X160919792Y-90570515D02*
X160928754Y-90377521D01*
X160923971Y-88293885D02*
G75*
G02*
X160949331Y-88555850I-1450371J-272615D01*
G01*
X160925147Y-85607102D02*
G75*
G02*
X160876498Y-85628867I-50847J48402D01*
G01*
X160925707Y-84573159D02*
X160931531Y-85108064D01*
X160927459Y-90878839D02*
G75*
G02*
X160915200Y-90827155I178941J69739D01*
G01*
X160928754Y-90377521D02*
X160937459Y-90038818D01*
X160931531Y-85108064D02*
X160934362Y-85583808D01*
X160932951Y-91584623D02*
G75*
G02*
X160883575Y-91528044I256549J273723D01*
G01*
X160934052Y-86459626D02*
X160790513Y-86398853D01*
X160934362Y-85583808D02*
G75*
G02*
X160925147Y-85607102I-33562J-192D01*
G01*
X160934718Y-77174851D02*
X160884809Y-79241975D01*
X160937459Y-90038818D02*
X160944724Y-89645706D01*
X160939276Y-74373823D02*
X161020228Y-74461558D01*
X160941865Y-92116517D02*
X160847735Y-92202647D01*
X160942204Y-91440554D02*
G75*
G02*
X161040497Y-91485701I-142004J-438746D01*
G01*
X160944724Y-89645706D02*
X160949177Y-89244952D01*
X160949177Y-89244952D02*
X160949322Y-88555850D01*
X160949521Y-90886772D02*
G75*
G02*
X160927438Y-90878847I-7521J13772D01*
G01*
X160955686Y-74096653D02*
X160848027Y-73974934D01*
X160956148Y-91723796D02*
X161048917Y-91805404D01*
X160973425Y-90873527D02*
X160949521Y-90886772D01*
X161002659Y-90857411D02*
X160973425Y-90873527D01*
X161003432Y-92215864D02*
X161285407Y-91904073D01*
X161020228Y-74461558D02*
X161036359Y-74480388D01*
X161032011Y-74983500D02*
X160934718Y-77174851D01*
X161032325Y-90841054D02*
X161002659Y-90857411D01*
X161036359Y-74480388D02*
G75*
G02*
X161044292Y-74503086I-28259J-22612D01*
G01*
X161040295Y-74798924D02*
X161032011Y-74983500D01*
X161040500Y-91485696D02*
G75*
G02*
X161219446Y-91622754I-556100J-911404D01*
G01*
X161043840Y-74639116D02*
X161040295Y-74798924D01*
X161044285Y-74503086D02*
X161043840Y-74639116D01*
X161048917Y-91805404D02*
X161165107Y-91915091D01*
X161049991Y-92368693D02*
X160906946Y-92530586D01*
X161052392Y-74203580D02*
X160955686Y-74096653D01*
X161057699Y-90827112D02*
X161032325Y-90841054D01*
X161062574Y-91703682D02*
X160932951Y-91584623D01*
X161074376Y-87410118D02*
X160855695Y-87230273D01*
X161083168Y-90794871D02*
G75*
G02*
X161057698Y-90827109I-50568J13771D01*
G01*
X161095970Y-86527816D02*
X160934052Y-86459626D01*
X161099057Y-90716037D02*
G75*
G02*
X161083174Y-90794873I-585957J77037D01*
G01*
X161108085Y-90600362D02*
G75*
G02*
X161099057Y-90716037I-1096185J27362D01*
G01*
X161108359Y-90267525D02*
X161108949Y-90437466D01*
X161108949Y-90437466D02*
X161108085Y-90600362D01*
X161111040Y-90049814D02*
X161108359Y-90267525D01*
X161116206Y-89822686D02*
X161111040Y-90049814D01*
X161123304Y-89621422D02*
X161116206Y-89822686D01*
X161131911Y-89408772D02*
X161123304Y-89621422D01*
X161141483Y-89144752D02*
X161131911Y-89408772D01*
X161150566Y-88874530D02*
X161141483Y-89144752D01*
X161155723Y-85568968D02*
X161168949Y-83969313D01*
X161157620Y-88640945D02*
X161150566Y-88874530D01*
X161165107Y-91915091D02*
X160941865Y-92116517D01*
X161168949Y-83969313D02*
X161189240Y-82111536D01*
X161172365Y-88117742D02*
X161157620Y-88640945D01*
X161174136Y-85612338D02*
G75*
G02*
X161155715Y-85568968I41064J43038D01*
G01*
X161180631Y-92217885D02*
X161049991Y-92368693D01*
X161189240Y-82111536D02*
X161223704Y-79748683D01*
X161192468Y-85620677D02*
G75*
G02*
X161174112Y-85612363I3332J31777D01*
G01*
X161192989Y-73638053D02*
X161853306Y-74387330D01*
X161219445Y-91622755D02*
X161345141Y-91735381D01*
X161223704Y-79748683D02*
X161245815Y-78244061D01*
X161245815Y-78244061D02*
X161260695Y-76979577D01*
X161251686Y-87556610D02*
X161074376Y-87410118D01*
X161260695Y-76979577D02*
X161269595Y-75843951D01*
X161269595Y-75843951D02*
X161273454Y-74736019D01*
X161273454Y-74736019D02*
X161273824Y-74445336D01*
X161273824Y-74445336D02*
X161052392Y-74203580D01*
X161277891Y-92786105D02*
X161599827Y-92441343D01*
X161284982Y-86603142D02*
X161095970Y-86527816D01*
X161285407Y-91904073D02*
X161062574Y-91703682D01*
X161289085Y-85630140D02*
X161192468Y-85620677D01*
X161307511Y-72965707D02*
X161081110Y-72689794D01*
X161345141Y-91735381D02*
X161482359Y-91865595D01*
X161358421Y-91175181D02*
X161435543Y-91120765D01*
X161403896Y-85638667D02*
X161289085Y-85630140D01*
X161406199Y-87679788D02*
X161251686Y-87556610D01*
X161470929Y-86674017D02*
X161284982Y-86603142D01*
X161482359Y-91865595D02*
X161180631Y-92217885D01*
X161494538Y-91039698D02*
G75*
G02*
X161435548Y-91120772I-148838J46298D01*
G01*
X161529465Y-90827851D02*
G75*
G02*
X161494531Y-91039696I-779565J19751D01*
G01*
X161529465Y-90827851D02*
X161543516Y-90608785D01*
X161536076Y-85645029D02*
X161403896Y-85638667D01*
X161541032Y-87784215D02*
X161406199Y-87679788D01*
X161541032Y-87784215D02*
X161541032Y-87784215D01*
X161543516Y-90608785D02*
X161557753Y-89937435D01*
X161557753Y-89937435D02*
X161563804Y-89608741D01*
X161562819Y-87791101D02*
G75*
G02*
X161541020Y-87784231I-1519J33201D01*
G01*
X161563804Y-89608741D02*
X161570836Y-89255912D01*
X161570836Y-89255912D02*
X161577870Y-88930343D01*
X161577870Y-88930343D02*
X161583641Y-88695424D01*
X161582893Y-86959583D02*
G75*
G02*
X161222774Y-86843095I1072207J3929583D01*
G01*
X161583641Y-88695424D02*
X161596223Y-88221138D01*
X161596223Y-88221138D02*
X161753550Y-88180466D01*
X161599827Y-92441343D02*
X161812039Y-92204604D01*
X161621210Y-87779499D02*
G75*
G02*
X161562819Y-87791092I-68110J190199D01*
G01*
X161622299Y-86727959D02*
X161470929Y-86674017D01*
X161623150Y-91407238D02*
X161358421Y-91175181D01*
X161624583Y-73389493D02*
X161307511Y-72965707D01*
X161750098Y-73558512D02*
X161624583Y-73389493D01*
X161753184Y-85651374D02*
X161536076Y-85645029D01*
X161789075Y-91561524D02*
X161623150Y-91407238D01*
X161789075Y-91561524D02*
G75*
G02*
X161945976Y-91739606I-608375J-694176D01*
G01*
X161812039Y-92204604D02*
X161956172Y-92033532D01*
X161832647Y-85643109D02*
G75*
G02*
X161753184Y-85651368I-68547J273109D01*
G01*
X161853306Y-74387330D02*
X161937300Y-74490553D01*
X161866684Y-85615401D02*
G75*
G02*
X161832639Y-85643078I-46484J22401D01*
G01*
X161877095Y-87023764D02*
G75*
G02*
X161582892Y-86959587I470705J2864264D01*
G01*
X161880669Y-85558791D02*
G75*
G02*
X161866665Y-85615392I-142369J5191D01*
G01*
X161893176Y-73746138D02*
X161750098Y-73558512D01*
X161894634Y-84920384D02*
X161880669Y-85558791D01*
X161898936Y-78487655D02*
X161907986Y-80299824D01*
X161905510Y-83197050D02*
X161894634Y-84920384D01*
X161906344Y-77106106D02*
X161898936Y-78487655D01*
X161907986Y-80299824D02*
X161911662Y-81467980D01*
X161911662Y-81467980D02*
X161905510Y-83197050D01*
X161930130Y-76009563D02*
X161906344Y-77106106D01*
X161937300Y-74490553D02*
G75*
G02*
X161970065Y-74561604I-147600J-111147D01*
G01*
X161945963Y-91739615D02*
G75*
G02*
X161998431Y-91854994I-317463J-213985D01*
G01*
X161949937Y-86839431D02*
X161622299Y-86727959D01*
X161970073Y-74561602D02*
G75*
G02*
X161985255Y-74669546I-651673J-146698D01*
G01*
X161972824Y-75103924D02*
X161930130Y-76009563D01*
X161984704Y-74873447D02*
X161972824Y-75103924D01*
X161985262Y-74669546D02*
G75*
G02*
X161984705Y-74873447I-1682262J-97354D01*
G01*
X161995928Y-91959919D02*
G75*
G02*
X161956173Y-92033533I-213428J67719D01*
G01*
X161998419Y-91854997D02*
G75*
G02*
X161995930Y-91959920I-180719J-48203D01*
G01*
X162031624Y-73923749D02*
X161893176Y-73746138D01*
X162060434Y-87015911D02*
G75*
G02*
X161877098Y-87023748I-110434J435111D01*
G01*
X162140997Y-74059329D02*
X162031624Y-73923749D01*
X162157624Y-86076619D02*
X161832647Y-85643109D01*
X162157624Y-86076619D02*
X162478572Y-85926920D01*
X162198128Y-88040446D02*
G75*
G02*
X161753549Y-88180461I-1569428J4207446D01*
G01*
X162198128Y-88040446D02*
X163214327Y-87665990D01*
X162223342Y-87563935D02*
X161621210Y-87779499D01*
X162232375Y-74173575D02*
X162140997Y-74059329D01*
X162314191Y-74283358D02*
X162232375Y-74173575D01*
X162318047Y-85287682D02*
X162321205Y-85161431D01*
X162318710Y-85397245D02*
X162318047Y-85287682D01*
X162321205Y-85161431D02*
X162332369Y-84729379D01*
X162321806Y-85489148D02*
X162318710Y-85397245D01*
X162324162Y-86610991D02*
X161949937Y-86839431D01*
X162329760Y-85506830D02*
G75*
G02*
X162321823Y-85489147I17840J18630D01*
G01*
X162332369Y-84729379D02*
X162340424Y-84020900D01*
X162340424Y-84020900D02*
X162345108Y-83188929D01*
X162345108Y-83188929D02*
X162345403Y-82315867D01*
X162345403Y-82315867D02*
X162346918Y-80345745D01*
X162346918Y-80345745D02*
X162359755Y-78316018D01*
X162347198Y-85509765D02*
G75*
G02*
X162329774Y-85506816I-6598J13965D01*
G01*
X162359755Y-78316018D02*
X162380895Y-76500961D01*
X162375658Y-74372129D02*
X162314191Y-74283358D01*
X162375658Y-74372129D02*
G75*
G02*
X162403412Y-74425610I-171558J-122971D01*
G01*
X162380895Y-76500961D02*
X162408490Y-75287954D01*
X162403406Y-74425612D02*
G75*
G02*
X162414343Y-74487321I-184306J-64488D01*
G01*
X162408490Y-75287954D02*
X162415685Y-74983645D01*
X162415685Y-74983645D02*
X162417030Y-74713563D01*
X162417030Y-74713563D02*
X162414325Y-74487321D01*
X162418218Y-86902569D02*
G75*
G02*
X162060435Y-87015916I-1148418J3003669D01*
G01*
X162449987Y-85462703D02*
X162347198Y-85509765D01*
X162478572Y-85926920D02*
X162641618Y-85852840D01*
X162570630Y-85403332D02*
X162449987Y-85462703D01*
X162641618Y-85852840D02*
X162877616Y-85749384D01*
X162709879Y-85329040D02*
X162570630Y-85403332D01*
X162765872Y-86746925D02*
G75*
G02*
X162418217Y-86902567I-1566172J3032225D01*
G01*
X162828976Y-87344261D02*
X162223342Y-87563935D01*
X162877616Y-85749384D02*
X163138131Y-85637314D01*
X163074476Y-85133770D02*
X162709879Y-85329040D01*
X163138131Y-85637314D02*
X163386371Y-85532728D01*
X163181884Y-86097680D02*
X162324162Y-86610991D01*
X163214327Y-87665990D02*
X164250156Y-87273460D01*
X163321708Y-86412813D02*
G75*
G02*
X162765870Y-86746921I-2866908J4140113D01*
G01*
X163321708Y-86412813D02*
X163649828Y-86195093D01*
X163386371Y-85532728D02*
X163723503Y-85389867D01*
X163387390Y-87136576D02*
X162828976Y-87344261D01*
X163422106Y-84958116D02*
X163074476Y-85133770D01*
X163629869Y-87040355D02*
X163387390Y-87136576D01*
X163649828Y-86195093D02*
X163856247Y-86052362D01*
X163723503Y-85389867D02*
X163961260Y-85282941D01*
X163740849Y-84807771D02*
X163422106Y-84958116D01*
X163771663Y-85773073D02*
X163181884Y-86097680D01*
X163856247Y-86052362D02*
X164041237Y-85924861D01*
X163869624Y-86935579D02*
X163629869Y-87040355D01*
X163932737Y-84725686D02*
X163740849Y-84807771D01*
X163932737Y-84725686D02*
G75*
G02*
X164235248Y-84616118I841563J-1851114D01*
G01*
X163961260Y-85282941D02*
X164137777Y-85195416D01*
X164024078Y-86861572D02*
X163869624Y-86935579D01*
X164041237Y-85924861D02*
X164197223Y-85817756D01*
X164137777Y-85195416D02*
X164276337Y-85115176D01*
X164154373Y-85592541D02*
X163771663Y-85773073D01*
X164154373Y-85592541D02*
G75*
G02*
X164429568Y-85526340I272927J-529459D01*
G01*
X164197223Y-85817756D02*
X164243866Y-85786640D01*
X164224283Y-86753657D02*
G75*
G02*
X164116168Y-86816119I-933483J1490957D01*
G01*
X164235248Y-84616117D02*
G75*
G02*
X164374644Y-84610523I81752J-297583D01*
G01*
X164243866Y-85786640D02*
G75*
G02*
X164292815Y-85771391I51634J-79560D01*
G01*
X164250156Y-87273460D02*
X164811752Y-87039615D01*
X164276337Y-85115176D02*
G75*
G02*
X164297430Y-85112853I13463J-25324D01*
G01*
X164292815Y-85771375D02*
G75*
G02*
X164480102Y-85782672I30985J-1044425D01*
G01*
X164297427Y-85112865D02*
G75*
G02*
X164350038Y-85129628I-158127J-587235D01*
G01*
X164350039Y-85129624D02*
G75*
G02*
X164456497Y-85179728I-239239J-646476D01*
G01*
X164374647Y-84610505D02*
G75*
G02*
X164533202Y-84664931I-109647J-577595D01*
G01*
X164391234Y-85773090D02*
X164480102Y-85782674D01*
X164413590Y-85156844D02*
X164456493Y-85179735D01*
X164429568Y-85526352D02*
G75*
G02*
X164516113Y-85531221I-3168J-827848D01*
G01*
X164456493Y-85179735D02*
X164482108Y-85193374D01*
X164482108Y-85193374D02*
X164559760Y-85235962D01*
X164493928Y-86597900D02*
X164116168Y-86816118D01*
X164520607Y-85787000D02*
X164680661Y-85814808D01*
X164559760Y-85235962D02*
X164650956Y-85281420D01*
X164650956Y-85281420D02*
X164741219Y-85322932D01*
X164670388Y-85549748D02*
X164516113Y-85531221D01*
X164680661Y-85814808D02*
X164850389Y-85846017D01*
X164741219Y-85322932D02*
X164815207Y-85352994D01*
X164811752Y-87039615D02*
X164493928Y-86597900D01*
X164811752Y-87039615D02*
X165318955Y-86801721D01*
X164815207Y-85352994D02*
X165035399Y-85440884D01*
X164815335Y-86436829D02*
X164493928Y-86597900D01*
X164850175Y-85575224D02*
X164670388Y-85549748D01*
X164850389Y-85846017D02*
X165057467Y-85879921D01*
X164891896Y-84855349D02*
X164533207Y-84664922D01*
X165034326Y-85605276D02*
X164850175Y-85575224D01*
X165035399Y-85440884D02*
X165295645Y-85556273D01*
X165049675Y-84937016D02*
X164891896Y-84855349D01*
X165057467Y-85879921D02*
X165267247Y-85911244D01*
X165161144Y-86282897D02*
X164815335Y-86436829D01*
X165210905Y-85635343D02*
X165034326Y-85605276D01*
X165240507Y-85026395D02*
X165049675Y-84937016D01*
X165267247Y-85911244D02*
X165445834Y-85934563D01*
X165295645Y-85556273D02*
X165538622Y-85670046D01*
X165318955Y-86801721D02*
X165871964Y-86522289D01*
X165367765Y-85660796D02*
X165210905Y-85635343D01*
X165432895Y-85109638D02*
X165240507Y-85026395D01*
X165445834Y-85934563D02*
X165597943Y-85954267D01*
X165499952Y-85681298D02*
X165367765Y-85660796D01*
X165505534Y-86148498D02*
X165161144Y-86282897D01*
X165535381Y-85684274D02*
G75*
G02*
X165499951Y-85681302I3019J248674D01*
G01*
X165538622Y-85670046D02*
G75*
G02*
X165535382Y-85684240I-3122J-6754D01*
G01*
X165595398Y-85172213D02*
X165432895Y-85109638D01*
X165597943Y-85954267D02*
X165726137Y-85974405D01*
X165635094Y-86099868D02*
X165505534Y-86148498D01*
X165726137Y-85974405D02*
X165834515Y-85993926D01*
X165744144Y-86055409D02*
X165635094Y-86099868D01*
X165834515Y-85993926D02*
G75*
G02*
X165843004Y-86003822I-1615J-9974D01*
G01*
X165835636Y-86015457D02*
X165835642Y-86015499D01*
X165835642Y-86015499D02*
X165744144Y-86055409D01*
X165843022Y-86003822D02*
G75*
G02*
X165835617Y-86015411I-12022J-478D01*
G01*
X165871964Y-86522289D02*
X166406726Y-86241086D01*
X165877156Y-85278777D02*
X165595398Y-85172213D01*
X166106781Y-85379927D02*
X165877156Y-85278777D01*
X166241541Y-85451539D02*
X166106781Y-85379927D01*
X166241541Y-85451539D02*
G75*
G02*
X166393956Y-85556723I-260341J-540261D01*
G01*
X166393962Y-85556717D02*
G75*
G02*
X166429225Y-85603688I-121562J-127983D01*
G01*
X166406700Y-86241061D02*
X166406726Y-86241086D01*
X166429242Y-85603679D02*
G75*
G02*
X166455091Y-85668935I-314742J-162421D01*
G01*
X166455089Y-85668936D02*
G75*
G02*
X166473035Y-85756392I-572089J-162964D01*
G01*
X166470332Y-86175391D02*
G75*
G02*
X166406698Y-86241057I-131732J63991D01*
G01*
X166480907Y-86133665D02*
G75*
G02*
X166470350Y-86175400I-107007J4865D01*
G01*
X166480907Y-86133665D02*
X166485951Y-86062496D01*
X166483968Y-85872780D02*
X166473035Y-85756392D01*
X166485951Y-86062496D02*
X166487467Y-85970647D01*
X166487467Y-85970647D02*
X166483968Y-85872780D01*
D11*
X153915451Y-71544754D02*
X153844023Y-71509040D01*
X153844023Y-71509040D02*
X153736880Y-71509040D01*
X153736880Y-71509040D02*
X153629737Y-71544754D01*
X153629737Y-71544754D02*
X153558308Y-71616183D01*
X153558308Y-71616183D02*
X153522594Y-71687611D01*
X153522594Y-71687611D02*
X153486880Y-71830468D01*
X153486880Y-71830468D02*
X153486880Y-71937611D01*
X153486880Y-71937611D02*
X153522594Y-72080468D01*
X153522594Y-72080468D02*
X153558308Y-72151897D01*
X153558308Y-72151897D02*
X153629737Y-72223326D01*
X153629737Y-72223326D02*
X153736880Y-72259040D01*
X153736880Y-72259040D02*
X153808308Y-72259040D01*
X153808308Y-72259040D02*
X153915451Y-72223326D01*
X153915451Y-72223326D02*
X153951165Y-72187611D01*
X153951165Y-72187611D02*
X153951165Y-71937611D01*
X153951165Y-71937611D02*
X153808308Y-71937611D01*
X154272594Y-72259040D02*
X154272594Y-71509040D01*
X154272594Y-71509040D02*
X154701165Y-72259040D01*
X154701165Y-72259040D02*
X154701165Y-71509040D01*
X155058308Y-72259040D02*
X155058308Y-71509040D01*
X155058308Y-71509040D02*
X155236879Y-71509040D01*
X155236879Y-71509040D02*
X155344022Y-71544754D01*
X155344022Y-71544754D02*
X155415451Y-71616183D01*
X155415451Y-71616183D02*
X155451165Y-71687611D01*
X155451165Y-71687611D02*
X155486879Y-71830468D01*
X155486879Y-71830468D02*
X155486879Y-71937611D01*
X155486879Y-71937611D02*
X155451165Y-72080468D01*
X155451165Y-72080468D02*
X155415451Y-72151897D01*
X155415451Y-72151897D02*
X155344022Y-72223326D01*
X155344022Y-72223326D02*
X155236879Y-72259040D01*
X155236879Y-72259040D02*
X155058308Y-72259040D01*
X153527255Y-79900414D02*
X153527255Y-79150414D01*
X154027255Y-79150414D02*
X154170112Y-79150414D01*
X154170112Y-79150414D02*
X154241541Y-79186128D01*
X154241541Y-79186128D02*
X154312969Y-79257557D01*
X154312969Y-79257557D02*
X154348684Y-79400414D01*
X154348684Y-79400414D02*
X154348684Y-79650414D01*
X154348684Y-79650414D02*
X154312969Y-79793271D01*
X154312969Y-79793271D02*
X154241541Y-79864700D01*
X154241541Y-79864700D02*
X154170112Y-79900414D01*
X154170112Y-79900414D02*
X154027255Y-79900414D01*
X154027255Y-79900414D02*
X153955827Y-79864700D01*
X153955827Y-79864700D02*
X153884398Y-79793271D01*
X153884398Y-79793271D02*
X153848684Y-79650414D01*
X153848684Y-79650414D02*
X153848684Y-79400414D01*
X153848684Y-79400414D02*
X153884398Y-79257557D01*
X153884398Y-79257557D02*
X153955827Y-79186128D01*
X153955827Y-79186128D02*
X154027255Y-79150414D01*
X154705826Y-79900414D02*
X154848683Y-79900414D01*
X154848683Y-79900414D02*
X154920112Y-79864700D01*
X154920112Y-79864700D02*
X154955826Y-79828985D01*
X154955826Y-79828985D02*
X155027255Y-79721842D01*
X155027255Y-79721842D02*
X155062969Y-79578985D01*
X155062969Y-79578985D02*
X155062969Y-79293271D01*
X155062969Y-79293271D02*
X155027255Y-79221842D01*
X155027255Y-79221842D02*
X154991541Y-79186128D01*
X154991541Y-79186128D02*
X154920112Y-79150414D01*
X154920112Y-79150414D02*
X154777255Y-79150414D01*
X154777255Y-79150414D02*
X154705826Y-79186128D01*
X154705826Y-79186128D02*
X154670112Y-79221842D01*
X154670112Y-79221842D02*
X154634398Y-79293271D01*
X154634398Y-79293271D02*
X154634398Y-79471842D01*
X154634398Y-79471842D02*
X154670112Y-79543271D01*
X154670112Y-79543271D02*
X154705826Y-79578985D01*
X154705826Y-79578985D02*
X154777255Y-79614700D01*
X154777255Y-79614700D02*
X154920112Y-79614700D01*
X154920112Y-79614700D02*
X154991541Y-79578985D01*
X154991541Y-79578985D02*
X155027255Y-79543271D01*
X155027255Y-79543271D02*
X155062969Y-79471842D01*
X153527255Y-82400414D02*
X153527255Y-81650414D01*
X154027255Y-81650414D02*
X154170112Y-81650414D01*
X154170112Y-81650414D02*
X154241541Y-81686128D01*
X154241541Y-81686128D02*
X154312969Y-81757557D01*
X154312969Y-81757557D02*
X154348684Y-81900414D01*
X154348684Y-81900414D02*
X154348684Y-82150414D01*
X154348684Y-82150414D02*
X154312969Y-82293271D01*
X154312969Y-82293271D02*
X154241541Y-82364700D01*
X154241541Y-82364700D02*
X154170112Y-82400414D01*
X154170112Y-82400414D02*
X154027255Y-82400414D01*
X154027255Y-82400414D02*
X153955827Y-82364700D01*
X153955827Y-82364700D02*
X153884398Y-82293271D01*
X153884398Y-82293271D02*
X153848684Y-82150414D01*
X153848684Y-82150414D02*
X153848684Y-81900414D01*
X153848684Y-81900414D02*
X153884398Y-81757557D01*
X153884398Y-81757557D02*
X153955827Y-81686128D01*
X153955827Y-81686128D02*
X154027255Y-81650414D01*
X155062969Y-82400414D02*
X154634398Y-82400414D01*
X154848683Y-82400414D02*
X154848683Y-81650414D01*
X154848683Y-81650414D02*
X154777255Y-81757557D01*
X154777255Y-81757557D02*
X154705826Y-81828985D01*
X154705826Y-81828985D02*
X154634398Y-81864700D01*
X155527255Y-81650414D02*
X155598684Y-81650414D01*
X155598684Y-81650414D02*
X155670112Y-81686128D01*
X155670112Y-81686128D02*
X155705827Y-81721842D01*
X155705827Y-81721842D02*
X155741541Y-81793271D01*
X155741541Y-81793271D02*
X155777255Y-81936128D01*
X155777255Y-81936128D02*
X155777255Y-82114700D01*
X155777255Y-82114700D02*
X155741541Y-82257557D01*
X155741541Y-82257557D02*
X155705827Y-82328985D01*
X155705827Y-82328985D02*
X155670112Y-82364700D01*
X155670112Y-82364700D02*
X155598684Y-82400414D01*
X155598684Y-82400414D02*
X155527255Y-82400414D01*
X155527255Y-82400414D02*
X155455827Y-82364700D01*
X155455827Y-82364700D02*
X155420112Y-82328985D01*
X155420112Y-82328985D02*
X155384398Y-82257557D01*
X155384398Y-82257557D02*
X155348684Y-82114700D01*
X155348684Y-82114700D02*
X155348684Y-81936128D01*
X155348684Y-81936128D02*
X155384398Y-81793271D01*
X155384398Y-81793271D02*
X155420112Y-81721842D01*
X155420112Y-81721842D02*
X155455827Y-81686128D01*
X155455827Y-81686128D02*
X155527255Y-81650414D01*
X153527255Y-84900414D02*
X153527255Y-84150414D01*
X154027255Y-84150414D02*
X154170112Y-84150414D01*
X154170112Y-84150414D02*
X154241541Y-84186128D01*
X154241541Y-84186128D02*
X154312969Y-84257557D01*
X154312969Y-84257557D02*
X154348684Y-84400414D01*
X154348684Y-84400414D02*
X154348684Y-84650414D01*
X154348684Y-84650414D02*
X154312969Y-84793271D01*
X154312969Y-84793271D02*
X154241541Y-84864700D01*
X154241541Y-84864700D02*
X154170112Y-84900414D01*
X154170112Y-84900414D02*
X154027255Y-84900414D01*
X154027255Y-84900414D02*
X153955827Y-84864700D01*
X153955827Y-84864700D02*
X153884398Y-84793271D01*
X153884398Y-84793271D02*
X153848684Y-84650414D01*
X153848684Y-84650414D02*
X153848684Y-84400414D01*
X153848684Y-84400414D02*
X153884398Y-84257557D01*
X153884398Y-84257557D02*
X153955827Y-84186128D01*
X153955827Y-84186128D02*
X154027255Y-84150414D01*
X155062969Y-84900414D02*
X154634398Y-84900414D01*
X154848683Y-84900414D02*
X154848683Y-84150414D01*
X154848683Y-84150414D02*
X154777255Y-84257557D01*
X154777255Y-84257557D02*
X154705826Y-84328985D01*
X154705826Y-84328985D02*
X154634398Y-84364700D01*
X155777255Y-84900414D02*
X155348684Y-84900414D01*
X155562969Y-84900414D02*
X155562969Y-84150414D01*
X155562969Y-84150414D02*
X155491541Y-84257557D01*
X155491541Y-84257557D02*
X155420112Y-84328985D01*
X155420112Y-84328985D02*
X155348684Y-84364700D01*
X153527255Y-87400414D02*
X153527255Y-86650414D01*
X154027255Y-86650414D02*
X154170112Y-86650414D01*
X154170112Y-86650414D02*
X154241541Y-86686128D01*
X154241541Y-86686128D02*
X154312969Y-86757557D01*
X154312969Y-86757557D02*
X154348684Y-86900414D01*
X154348684Y-86900414D02*
X154348684Y-87150414D01*
X154348684Y-87150414D02*
X154312969Y-87293271D01*
X154312969Y-87293271D02*
X154241541Y-87364700D01*
X154241541Y-87364700D02*
X154170112Y-87400414D01*
X154170112Y-87400414D02*
X154027255Y-87400414D01*
X154027255Y-87400414D02*
X153955827Y-87364700D01*
X153955827Y-87364700D02*
X153884398Y-87293271D01*
X153884398Y-87293271D02*
X153848684Y-87150414D01*
X153848684Y-87150414D02*
X153848684Y-86900414D01*
X153848684Y-86900414D02*
X153884398Y-86757557D01*
X153884398Y-86757557D02*
X153955827Y-86686128D01*
X153955827Y-86686128D02*
X154027255Y-86650414D01*
X155062969Y-87400414D02*
X154634398Y-87400414D01*
X154848683Y-87400414D02*
X154848683Y-86650414D01*
X154848683Y-86650414D02*
X154777255Y-86757557D01*
X154777255Y-86757557D02*
X154705826Y-86828985D01*
X154705826Y-86828985D02*
X154634398Y-86864700D01*
X155348684Y-86721842D02*
X155384398Y-86686128D01*
X155384398Y-86686128D02*
X155455827Y-86650414D01*
X155455827Y-86650414D02*
X155634398Y-86650414D01*
X155634398Y-86650414D02*
X155705827Y-86686128D01*
X155705827Y-86686128D02*
X155741541Y-86721842D01*
X155741541Y-86721842D02*
X155777255Y-86793271D01*
X155777255Y-86793271D02*
X155777255Y-86864700D01*
X155777255Y-86864700D02*
X155741541Y-86971842D01*
X155741541Y-86971842D02*
X155312969Y-87400414D01*
X155312969Y-87400414D02*
X155777255Y-87400414D01*
X153527255Y-90150414D02*
X153527255Y-89400414D01*
X154027255Y-89400414D02*
X154170112Y-89400414D01*
X154170112Y-89400414D02*
X154241541Y-89436128D01*
X154241541Y-89436128D02*
X154312969Y-89507557D01*
X154312969Y-89507557D02*
X154348684Y-89650414D01*
X154348684Y-89650414D02*
X154348684Y-89900414D01*
X154348684Y-89900414D02*
X154312969Y-90043271D01*
X154312969Y-90043271D02*
X154241541Y-90114700D01*
X154241541Y-90114700D02*
X154170112Y-90150414D01*
X154170112Y-90150414D02*
X154027255Y-90150414D01*
X154027255Y-90150414D02*
X153955827Y-90114700D01*
X153955827Y-90114700D02*
X153884398Y-90043271D01*
X153884398Y-90043271D02*
X153848684Y-89900414D01*
X153848684Y-89900414D02*
X153848684Y-89650414D01*
X153848684Y-89650414D02*
X153884398Y-89507557D01*
X153884398Y-89507557D02*
X153955827Y-89436128D01*
X153955827Y-89436128D02*
X154027255Y-89400414D01*
X154777255Y-89721842D02*
X154705826Y-89686128D01*
X154705826Y-89686128D02*
X154670112Y-89650414D01*
X154670112Y-89650414D02*
X154634398Y-89578985D01*
X154634398Y-89578985D02*
X154634398Y-89543271D01*
X154634398Y-89543271D02*
X154670112Y-89471842D01*
X154670112Y-89471842D02*
X154705826Y-89436128D01*
X154705826Y-89436128D02*
X154777255Y-89400414D01*
X154777255Y-89400414D02*
X154920112Y-89400414D01*
X154920112Y-89400414D02*
X154991541Y-89436128D01*
X154991541Y-89436128D02*
X155027255Y-89471842D01*
X155027255Y-89471842D02*
X155062969Y-89543271D01*
X155062969Y-89543271D02*
X155062969Y-89578985D01*
X155062969Y-89578985D02*
X155027255Y-89650414D01*
X155027255Y-89650414D02*
X154991541Y-89686128D01*
X154991541Y-89686128D02*
X154920112Y-89721842D01*
X154920112Y-89721842D02*
X154777255Y-89721842D01*
X154777255Y-89721842D02*
X154705826Y-89757557D01*
X154705826Y-89757557D02*
X154670112Y-89793271D01*
X154670112Y-89793271D02*
X154634398Y-89864700D01*
X154634398Y-89864700D02*
X154634398Y-90007557D01*
X154634398Y-90007557D02*
X154670112Y-90078985D01*
X154670112Y-90078985D02*
X154705826Y-90114700D01*
X154705826Y-90114700D02*
X154777255Y-90150414D01*
X154777255Y-90150414D02*
X154920112Y-90150414D01*
X154920112Y-90150414D02*
X154991541Y-90114700D01*
X154991541Y-90114700D02*
X155027255Y-90078985D01*
X155027255Y-90078985D02*
X155062969Y-90007557D01*
X155062969Y-90007557D02*
X155062969Y-89864700D01*
X155062969Y-89864700D02*
X155027255Y-89793271D01*
X155027255Y-89793271D02*
X154991541Y-89757557D01*
X154991541Y-89757557D02*
X154920112Y-89721842D01*
X153527255Y-92650414D02*
X153527255Y-91900414D01*
X154027255Y-91900414D02*
X154170112Y-91900414D01*
X154170112Y-91900414D02*
X154241541Y-91936128D01*
X154241541Y-91936128D02*
X154312969Y-92007557D01*
X154312969Y-92007557D02*
X154348684Y-92150414D01*
X154348684Y-92150414D02*
X154348684Y-92400414D01*
X154348684Y-92400414D02*
X154312969Y-92543271D01*
X154312969Y-92543271D02*
X154241541Y-92614700D01*
X154241541Y-92614700D02*
X154170112Y-92650414D01*
X154170112Y-92650414D02*
X154027255Y-92650414D01*
X154027255Y-92650414D02*
X153955827Y-92614700D01*
X153955827Y-92614700D02*
X153884398Y-92543271D01*
X153884398Y-92543271D02*
X153848684Y-92400414D01*
X153848684Y-92400414D02*
X153848684Y-92150414D01*
X153848684Y-92150414D02*
X153884398Y-92007557D01*
X153884398Y-92007557D02*
X153955827Y-91936128D01*
X153955827Y-91936128D02*
X154027255Y-91900414D01*
X155062969Y-92650414D02*
X154634398Y-92650414D01*
X154848683Y-92650414D02*
X154848683Y-91900414D01*
X154848683Y-91900414D02*
X154777255Y-92007557D01*
X154777255Y-92007557D02*
X154705826Y-92078985D01*
X154705826Y-92078985D02*
X154634398Y-92114700D01*
X155491541Y-92221842D02*
X155420112Y-92186128D01*
X155420112Y-92186128D02*
X155384398Y-92150414D01*
X155384398Y-92150414D02*
X155348684Y-92078985D01*
X155348684Y-92078985D02*
X155348684Y-92043271D01*
X155348684Y-92043271D02*
X155384398Y-91971842D01*
X155384398Y-91971842D02*
X155420112Y-91936128D01*
X155420112Y-91936128D02*
X155491541Y-91900414D01*
X155491541Y-91900414D02*
X155634398Y-91900414D01*
X155634398Y-91900414D02*
X155705827Y-91936128D01*
X155705827Y-91936128D02*
X155741541Y-91971842D01*
X155741541Y-91971842D02*
X155777255Y-92043271D01*
X155777255Y-92043271D02*
X155777255Y-92078985D01*
X155777255Y-92078985D02*
X155741541Y-92150414D01*
X155741541Y-92150414D02*
X155705827Y-92186128D01*
X155705827Y-92186128D02*
X155634398Y-92221842D01*
X155634398Y-92221842D02*
X155491541Y-92221842D01*
X155491541Y-92221842D02*
X155420112Y-92257557D01*
X155420112Y-92257557D02*
X155384398Y-92293271D01*
X155384398Y-92293271D02*
X155348684Y-92364700D01*
X155348684Y-92364700D02*
X155348684Y-92507557D01*
X155348684Y-92507557D02*
X155384398Y-92578985D01*
X155384398Y-92578985D02*
X155420112Y-92614700D01*
X155420112Y-92614700D02*
X155491541Y-92650414D01*
X155491541Y-92650414D02*
X155634398Y-92650414D01*
X155634398Y-92650414D02*
X155705827Y-92614700D01*
X155705827Y-92614700D02*
X155741541Y-92578985D01*
X155741541Y-92578985D02*
X155777255Y-92507557D01*
X155777255Y-92507557D02*
X155777255Y-92364700D01*
X155777255Y-92364700D02*
X155741541Y-92293271D01*
X155741541Y-92293271D02*
X155705827Y-92257557D01*
X155705827Y-92257557D02*
X155634398Y-92221842D01*
X153527255Y-95150414D02*
X153527255Y-94400414D01*
X154027255Y-94400414D02*
X154170112Y-94400414D01*
X154170112Y-94400414D02*
X154241541Y-94436128D01*
X154241541Y-94436128D02*
X154312969Y-94507557D01*
X154312969Y-94507557D02*
X154348684Y-94650414D01*
X154348684Y-94650414D02*
X154348684Y-94900414D01*
X154348684Y-94900414D02*
X154312969Y-95043271D01*
X154312969Y-95043271D02*
X154241541Y-95114700D01*
X154241541Y-95114700D02*
X154170112Y-95150414D01*
X154170112Y-95150414D02*
X154027255Y-95150414D01*
X154027255Y-95150414D02*
X153955827Y-95114700D01*
X153955827Y-95114700D02*
X153884398Y-95043271D01*
X153884398Y-95043271D02*
X153848684Y-94900414D01*
X153848684Y-94900414D02*
X153848684Y-94650414D01*
X153848684Y-94650414D02*
X153884398Y-94507557D01*
X153884398Y-94507557D02*
X153955827Y-94436128D01*
X153955827Y-94436128D02*
X154027255Y-94400414D01*
X155062969Y-95150414D02*
X154634398Y-95150414D01*
X154848683Y-95150414D02*
X154848683Y-94400414D01*
X154848683Y-94400414D02*
X154777255Y-94507557D01*
X154777255Y-94507557D02*
X154705826Y-94578985D01*
X154705826Y-94578985D02*
X154634398Y-94614700D01*
X155312969Y-94400414D02*
X155812969Y-94400414D01*
X155812969Y-94400414D02*
X155491541Y-95150414D01*
X153527255Y-97650414D02*
X153527255Y-96900414D01*
X154027255Y-96900414D02*
X154170112Y-96900414D01*
X154170112Y-96900414D02*
X154241541Y-96936128D01*
X154241541Y-96936128D02*
X154312969Y-97007557D01*
X154312969Y-97007557D02*
X154348684Y-97150414D01*
X154348684Y-97150414D02*
X154348684Y-97400414D01*
X154348684Y-97400414D02*
X154312969Y-97543271D01*
X154312969Y-97543271D02*
X154241541Y-97614700D01*
X154241541Y-97614700D02*
X154170112Y-97650414D01*
X154170112Y-97650414D02*
X154027255Y-97650414D01*
X154027255Y-97650414D02*
X153955827Y-97614700D01*
X153955827Y-97614700D02*
X153884398Y-97543271D01*
X153884398Y-97543271D02*
X153848684Y-97400414D01*
X153848684Y-97400414D02*
X153848684Y-97150414D01*
X153848684Y-97150414D02*
X153884398Y-97007557D01*
X153884398Y-97007557D02*
X153955827Y-96936128D01*
X153955827Y-96936128D02*
X154027255Y-96900414D01*
X155062969Y-97650414D02*
X154634398Y-97650414D01*
X154848683Y-97650414D02*
X154848683Y-96900414D01*
X154848683Y-96900414D02*
X154777255Y-97007557D01*
X154777255Y-97007557D02*
X154705826Y-97078985D01*
X154705826Y-97078985D02*
X154634398Y-97114700D01*
X155705827Y-96900414D02*
X155562969Y-96900414D01*
X155562969Y-96900414D02*
X155491541Y-96936128D01*
X155491541Y-96936128D02*
X155455827Y-96971842D01*
X155455827Y-96971842D02*
X155384398Y-97078985D01*
X155384398Y-97078985D02*
X155348684Y-97221842D01*
X155348684Y-97221842D02*
X155348684Y-97507557D01*
X155348684Y-97507557D02*
X155384398Y-97578985D01*
X155384398Y-97578985D02*
X155420112Y-97614700D01*
X155420112Y-97614700D02*
X155491541Y-97650414D01*
X155491541Y-97650414D02*
X155634398Y-97650414D01*
X155634398Y-97650414D02*
X155705827Y-97614700D01*
X155705827Y-97614700D02*
X155741541Y-97578985D01*
X155741541Y-97578985D02*
X155777255Y-97507557D01*
X155777255Y-97507557D02*
X155777255Y-97328985D01*
X155777255Y-97328985D02*
X155741541Y-97257557D01*
X155741541Y-97257557D02*
X155705827Y-97221842D01*
X155705827Y-97221842D02*
X155634398Y-97186128D01*
X155634398Y-97186128D02*
X155491541Y-97186128D01*
X155491541Y-97186128D02*
X155420112Y-97221842D01*
X155420112Y-97221842D02*
X155384398Y-97257557D01*
X155384398Y-97257557D02*
X155348684Y-97328985D01*
X153527255Y-100150414D02*
X153527255Y-99400414D01*
X154027255Y-99400414D02*
X154170112Y-99400414D01*
X154170112Y-99400414D02*
X154241541Y-99436128D01*
X154241541Y-99436128D02*
X154312969Y-99507557D01*
X154312969Y-99507557D02*
X154348684Y-99650414D01*
X154348684Y-99650414D02*
X154348684Y-99900414D01*
X154348684Y-99900414D02*
X154312969Y-100043271D01*
X154312969Y-100043271D02*
X154241541Y-100114700D01*
X154241541Y-100114700D02*
X154170112Y-100150414D01*
X154170112Y-100150414D02*
X154027255Y-100150414D01*
X154027255Y-100150414D02*
X153955827Y-100114700D01*
X153955827Y-100114700D02*
X153884398Y-100043271D01*
X153884398Y-100043271D02*
X153848684Y-99900414D01*
X153848684Y-99900414D02*
X153848684Y-99650414D01*
X153848684Y-99650414D02*
X153884398Y-99507557D01*
X153884398Y-99507557D02*
X153955827Y-99436128D01*
X153955827Y-99436128D02*
X154027255Y-99400414D01*
X155062969Y-100150414D02*
X154634398Y-100150414D01*
X154848683Y-100150414D02*
X154848683Y-99400414D01*
X154848683Y-99400414D02*
X154777255Y-99507557D01*
X154777255Y-99507557D02*
X154705826Y-99578985D01*
X154705826Y-99578985D02*
X154634398Y-99614700D01*
X155741541Y-99400414D02*
X155384398Y-99400414D01*
X155384398Y-99400414D02*
X155348684Y-99757557D01*
X155348684Y-99757557D02*
X155384398Y-99721842D01*
X155384398Y-99721842D02*
X155455827Y-99686128D01*
X155455827Y-99686128D02*
X155634398Y-99686128D01*
X155634398Y-99686128D02*
X155705827Y-99721842D01*
X155705827Y-99721842D02*
X155741541Y-99757557D01*
X155741541Y-99757557D02*
X155777255Y-99828985D01*
X155777255Y-99828985D02*
X155777255Y-100007557D01*
X155777255Y-100007557D02*
X155741541Y-100078985D01*
X155741541Y-100078985D02*
X155705827Y-100114700D01*
X155705827Y-100114700D02*
X155634398Y-100150414D01*
X155634398Y-100150414D02*
X155455827Y-100150414D01*
X155455827Y-100150414D02*
X155384398Y-100114700D01*
X155384398Y-100114700D02*
X155348684Y-100078985D01*
X153527255Y-102650414D02*
X153527255Y-101900414D01*
X154027255Y-101900414D02*
X154170112Y-101900414D01*
X154170112Y-101900414D02*
X154241541Y-101936128D01*
X154241541Y-101936128D02*
X154312969Y-102007557D01*
X154312969Y-102007557D02*
X154348684Y-102150414D01*
X154348684Y-102150414D02*
X154348684Y-102400414D01*
X154348684Y-102400414D02*
X154312969Y-102543271D01*
X154312969Y-102543271D02*
X154241541Y-102614700D01*
X154241541Y-102614700D02*
X154170112Y-102650414D01*
X154170112Y-102650414D02*
X154027255Y-102650414D01*
X154027255Y-102650414D02*
X153955827Y-102614700D01*
X153955827Y-102614700D02*
X153884398Y-102543271D01*
X153884398Y-102543271D02*
X153848684Y-102400414D01*
X153848684Y-102400414D02*
X153848684Y-102150414D01*
X153848684Y-102150414D02*
X153884398Y-102007557D01*
X153884398Y-102007557D02*
X153955827Y-101936128D01*
X153955827Y-101936128D02*
X154027255Y-101900414D01*
X154598683Y-101900414D02*
X155098683Y-101900414D01*
X155098683Y-101900414D02*
X154777255Y-102650414D01*
X153527255Y-105400414D02*
X153527255Y-104650414D01*
X154027255Y-104650414D02*
X154170112Y-104650414D01*
X154170112Y-104650414D02*
X154241541Y-104686128D01*
X154241541Y-104686128D02*
X154312969Y-104757557D01*
X154312969Y-104757557D02*
X154348684Y-104900414D01*
X154348684Y-104900414D02*
X154348684Y-105150414D01*
X154348684Y-105150414D02*
X154312969Y-105293271D01*
X154312969Y-105293271D02*
X154241541Y-105364700D01*
X154241541Y-105364700D02*
X154170112Y-105400414D01*
X154170112Y-105400414D02*
X154027255Y-105400414D01*
X154027255Y-105400414D02*
X153955827Y-105364700D01*
X153955827Y-105364700D02*
X153884398Y-105293271D01*
X153884398Y-105293271D02*
X153848684Y-105150414D01*
X153848684Y-105150414D02*
X153848684Y-104900414D01*
X153848684Y-104900414D02*
X153884398Y-104757557D01*
X153884398Y-104757557D02*
X153955827Y-104686128D01*
X153955827Y-104686128D02*
X154027255Y-104650414D01*
X154991541Y-104650414D02*
X154848683Y-104650414D01*
X154848683Y-104650414D02*
X154777255Y-104686128D01*
X154777255Y-104686128D02*
X154741541Y-104721842D01*
X154741541Y-104721842D02*
X154670112Y-104828985D01*
X154670112Y-104828985D02*
X154634398Y-104971842D01*
X154634398Y-104971842D02*
X154634398Y-105257557D01*
X154634398Y-105257557D02*
X154670112Y-105328985D01*
X154670112Y-105328985D02*
X154705826Y-105364700D01*
X154705826Y-105364700D02*
X154777255Y-105400414D01*
X154777255Y-105400414D02*
X154920112Y-105400414D01*
X154920112Y-105400414D02*
X154991541Y-105364700D01*
X154991541Y-105364700D02*
X155027255Y-105328985D01*
X155027255Y-105328985D02*
X155062969Y-105257557D01*
X155062969Y-105257557D02*
X155062969Y-105078985D01*
X155062969Y-105078985D02*
X155027255Y-105007557D01*
X155027255Y-105007557D02*
X154991541Y-104971842D01*
X154991541Y-104971842D02*
X154920112Y-104936128D01*
X154920112Y-104936128D02*
X154777255Y-104936128D01*
X154777255Y-104936128D02*
X154705826Y-104971842D01*
X154705826Y-104971842D02*
X154670112Y-105007557D01*
X154670112Y-105007557D02*
X154634398Y-105078985D01*
X153527255Y-107900414D02*
X153527255Y-107150414D01*
X154027255Y-107150414D02*
X154170112Y-107150414D01*
X154170112Y-107150414D02*
X154241541Y-107186128D01*
X154241541Y-107186128D02*
X154312969Y-107257557D01*
X154312969Y-107257557D02*
X154348684Y-107400414D01*
X154348684Y-107400414D02*
X154348684Y-107650414D01*
X154348684Y-107650414D02*
X154312969Y-107793271D01*
X154312969Y-107793271D02*
X154241541Y-107864700D01*
X154241541Y-107864700D02*
X154170112Y-107900414D01*
X154170112Y-107900414D02*
X154027255Y-107900414D01*
X154027255Y-107900414D02*
X153955827Y-107864700D01*
X153955827Y-107864700D02*
X153884398Y-107793271D01*
X153884398Y-107793271D02*
X153848684Y-107650414D01*
X153848684Y-107650414D02*
X153848684Y-107400414D01*
X153848684Y-107400414D02*
X153884398Y-107257557D01*
X153884398Y-107257557D02*
X153955827Y-107186128D01*
X153955827Y-107186128D02*
X154027255Y-107150414D01*
X155027255Y-107150414D02*
X154670112Y-107150414D01*
X154670112Y-107150414D02*
X154634398Y-107507557D01*
X154634398Y-107507557D02*
X154670112Y-107471842D01*
X154670112Y-107471842D02*
X154741541Y-107436128D01*
X154741541Y-107436128D02*
X154920112Y-107436128D01*
X154920112Y-107436128D02*
X154991541Y-107471842D01*
X154991541Y-107471842D02*
X155027255Y-107507557D01*
X155027255Y-107507557D02*
X155062969Y-107578985D01*
X155062969Y-107578985D02*
X155062969Y-107757557D01*
X155062969Y-107757557D02*
X155027255Y-107828985D01*
X155027255Y-107828985D02*
X154991541Y-107864700D01*
X154991541Y-107864700D02*
X154920112Y-107900414D01*
X154920112Y-107900414D02*
X154741541Y-107900414D01*
X154741541Y-107900414D02*
X154670112Y-107864700D01*
X154670112Y-107864700D02*
X154634398Y-107828985D01*
X153455826Y-114650414D02*
X153920112Y-114650414D01*
X153920112Y-114650414D02*
X153670112Y-114936128D01*
X153670112Y-114936128D02*
X153777255Y-114936128D01*
X153777255Y-114936128D02*
X153848684Y-114971842D01*
X153848684Y-114971842D02*
X153884398Y-115007557D01*
X153884398Y-115007557D02*
X153920112Y-115078985D01*
X153920112Y-115078985D02*
X153920112Y-115257557D01*
X153920112Y-115257557D02*
X153884398Y-115328985D01*
X153884398Y-115328985D02*
X153848684Y-115364700D01*
X153848684Y-115364700D02*
X153777255Y-115400414D01*
X153777255Y-115400414D02*
X153562969Y-115400414D01*
X153562969Y-115400414D02*
X153491541Y-115364700D01*
X153491541Y-115364700D02*
X153455826Y-115328985D01*
X154134398Y-114650414D02*
X154384398Y-115400414D01*
X154384398Y-115400414D02*
X154634398Y-114650414D01*
X154812969Y-114650414D02*
X155277255Y-114650414D01*
X155277255Y-114650414D02*
X155027255Y-114936128D01*
X155027255Y-114936128D02*
X155134398Y-114936128D01*
X155134398Y-114936128D02*
X155205827Y-114971842D01*
X155205827Y-114971842D02*
X155241541Y-115007557D01*
X155241541Y-115007557D02*
X155277255Y-115078985D01*
X155277255Y-115078985D02*
X155277255Y-115257557D01*
X155277255Y-115257557D02*
X155241541Y-115328985D01*
X155241541Y-115328985D02*
X155205827Y-115364700D01*
X155205827Y-115364700D02*
X155134398Y-115400414D01*
X155134398Y-115400414D02*
X154920112Y-115400414D01*
X154920112Y-115400414D02*
X154848684Y-115364700D01*
X154848684Y-115364700D02*
X154812969Y-115328985D01*
X153455826Y-117150414D02*
X153920112Y-117150414D01*
X153920112Y-117150414D02*
X153670112Y-117436128D01*
X153670112Y-117436128D02*
X153777255Y-117436128D01*
X153777255Y-117436128D02*
X153848684Y-117471842D01*
X153848684Y-117471842D02*
X153884398Y-117507557D01*
X153884398Y-117507557D02*
X153920112Y-117578985D01*
X153920112Y-117578985D02*
X153920112Y-117757557D01*
X153920112Y-117757557D02*
X153884398Y-117828985D01*
X153884398Y-117828985D02*
X153848684Y-117864700D01*
X153848684Y-117864700D02*
X153777255Y-117900414D01*
X153777255Y-117900414D02*
X153562969Y-117900414D01*
X153562969Y-117900414D02*
X153491541Y-117864700D01*
X153491541Y-117864700D02*
X153455826Y-117828985D01*
X154134398Y-117150414D02*
X154384398Y-117900414D01*
X154384398Y-117900414D02*
X154634398Y-117150414D01*
X154812969Y-117150414D02*
X155277255Y-117150414D01*
X155277255Y-117150414D02*
X155027255Y-117436128D01*
X155027255Y-117436128D02*
X155134398Y-117436128D01*
X155134398Y-117436128D02*
X155205827Y-117471842D01*
X155205827Y-117471842D02*
X155241541Y-117507557D01*
X155241541Y-117507557D02*
X155277255Y-117578985D01*
X155277255Y-117578985D02*
X155277255Y-117757557D01*
X155277255Y-117757557D02*
X155241541Y-117828985D01*
X155241541Y-117828985D02*
X155205827Y-117864700D01*
X155205827Y-117864700D02*
X155134398Y-117900414D01*
X155134398Y-117900414D02*
X154920112Y-117900414D01*
X154920112Y-117900414D02*
X154848684Y-117864700D01*
X154848684Y-117864700D02*
X154812969Y-117828985D01*
X153920112Y-119686128D02*
X153848684Y-119650414D01*
X153848684Y-119650414D02*
X153741541Y-119650414D01*
X153741541Y-119650414D02*
X153634398Y-119686128D01*
X153634398Y-119686128D02*
X153562969Y-119757557D01*
X153562969Y-119757557D02*
X153527255Y-119828985D01*
X153527255Y-119828985D02*
X153491541Y-119971842D01*
X153491541Y-119971842D02*
X153491541Y-120078985D01*
X153491541Y-120078985D02*
X153527255Y-120221842D01*
X153527255Y-120221842D02*
X153562969Y-120293271D01*
X153562969Y-120293271D02*
X153634398Y-120364700D01*
X153634398Y-120364700D02*
X153741541Y-120400414D01*
X153741541Y-120400414D02*
X153812969Y-120400414D01*
X153812969Y-120400414D02*
X153920112Y-120364700D01*
X153920112Y-120364700D02*
X153955826Y-120328985D01*
X153955826Y-120328985D02*
X153955826Y-120078985D01*
X153955826Y-120078985D02*
X153812969Y-120078985D01*
X154277255Y-120400414D02*
X154277255Y-119650414D01*
X154277255Y-119650414D02*
X154705826Y-120400414D01*
X154705826Y-120400414D02*
X154705826Y-119650414D01*
X155062969Y-120400414D02*
X155062969Y-119650414D01*
X155062969Y-119650414D02*
X155241540Y-119650414D01*
X155241540Y-119650414D02*
X155348683Y-119686128D01*
X155348683Y-119686128D02*
X155420112Y-119757557D01*
X155420112Y-119757557D02*
X155455826Y-119828985D01*
X155455826Y-119828985D02*
X155491540Y-119971842D01*
X155491540Y-119971842D02*
X155491540Y-120078985D01*
X155491540Y-120078985D02*
X155455826Y-120221842D01*
X155455826Y-120221842D02*
X155420112Y-120293271D01*
X155420112Y-120293271D02*
X155348683Y-120364700D01*
X155348683Y-120364700D02*
X155241540Y-120400414D01*
X155241540Y-120400414D02*
X155062969Y-120400414D01*
X153541615Y-77325254D02*
X153541615Y-76575254D01*
X154041615Y-76575254D02*
X154184472Y-76575254D01*
X154184472Y-76575254D02*
X154255901Y-76610968D01*
X154255901Y-76610968D02*
X154327329Y-76682397D01*
X154327329Y-76682397D02*
X154363044Y-76825254D01*
X154363044Y-76825254D02*
X154363044Y-77075254D01*
X154363044Y-77075254D02*
X154327329Y-77218111D01*
X154327329Y-77218111D02*
X154255901Y-77289540D01*
X154255901Y-77289540D02*
X154184472Y-77325254D01*
X154184472Y-77325254D02*
X154041615Y-77325254D01*
X154041615Y-77325254D02*
X153970187Y-77289540D01*
X153970187Y-77289540D02*
X153898758Y-77218111D01*
X153898758Y-77218111D02*
X153863044Y-77075254D01*
X153863044Y-77075254D02*
X153863044Y-76825254D01*
X153863044Y-76825254D02*
X153898758Y-76682397D01*
X153898758Y-76682397D02*
X153970187Y-76610968D01*
X153970187Y-76610968D02*
X154041615Y-76575254D01*
X155005901Y-76825254D02*
X155005901Y-77325254D01*
X154827329Y-76539540D02*
X154648758Y-77075254D01*
X154648758Y-77075254D02*
X155113043Y-77075254D01*
X155720187Y-76575254D02*
X155577329Y-76575254D01*
X155577329Y-76575254D02*
X155505901Y-76610968D01*
X155505901Y-76610968D02*
X155470187Y-76646682D01*
X155470187Y-76646682D02*
X155398758Y-76753825D01*
X155398758Y-76753825D02*
X155363044Y-76896682D01*
X155363044Y-76896682D02*
X155363044Y-77182397D01*
X155363044Y-77182397D02*
X155398758Y-77253825D01*
X155398758Y-77253825D02*
X155434472Y-77289540D01*
X155434472Y-77289540D02*
X155505901Y-77325254D01*
X155505901Y-77325254D02*
X155648758Y-77325254D01*
X155648758Y-77325254D02*
X155720187Y-77289540D01*
X155720187Y-77289540D02*
X155755901Y-77253825D01*
X155755901Y-77253825D02*
X155791615Y-77182397D01*
X155791615Y-77182397D02*
X155791615Y-77003825D01*
X155791615Y-77003825D02*
X155755901Y-76932397D01*
X155755901Y-76932397D02*
X155720187Y-76896682D01*
X155720187Y-76896682D02*
X155648758Y-76860968D01*
X155648758Y-76860968D02*
X155505901Y-76860968D01*
X155505901Y-76860968D02*
X155434472Y-76896682D01*
X155434472Y-76896682D02*
X155398758Y-76932397D01*
X155398758Y-76932397D02*
X155363044Y-77003825D01*
X153547392Y-74768630D02*
X153547392Y-74018630D01*
X154047392Y-74018630D02*
X154190249Y-74018630D01*
X154190249Y-74018630D02*
X154261678Y-74054344D01*
X154261678Y-74054344D02*
X154333106Y-74125773D01*
X154333106Y-74125773D02*
X154368821Y-74268630D01*
X154368821Y-74268630D02*
X154368821Y-74518630D01*
X154368821Y-74518630D02*
X154333106Y-74661487D01*
X154333106Y-74661487D02*
X154261678Y-74732916D01*
X154261678Y-74732916D02*
X154190249Y-74768630D01*
X154190249Y-74768630D02*
X154047392Y-74768630D01*
X154047392Y-74768630D02*
X153975964Y-74732916D01*
X153975964Y-74732916D02*
X153904535Y-74661487D01*
X153904535Y-74661487D02*
X153868821Y-74518630D01*
X153868821Y-74518630D02*
X153868821Y-74268630D01*
X153868821Y-74268630D02*
X153904535Y-74125773D01*
X153904535Y-74125773D02*
X153975964Y-74054344D01*
X153975964Y-74054344D02*
X154047392Y-74018630D01*
X154618820Y-74018630D02*
X155083106Y-74018630D01*
X155083106Y-74018630D02*
X154833106Y-74304344D01*
X154833106Y-74304344D02*
X154940249Y-74304344D01*
X154940249Y-74304344D02*
X155011678Y-74340058D01*
X155011678Y-74340058D02*
X155047392Y-74375773D01*
X155047392Y-74375773D02*
X155083106Y-74447201D01*
X155083106Y-74447201D02*
X155083106Y-74625773D01*
X155083106Y-74625773D02*
X155047392Y-74697201D01*
X155047392Y-74697201D02*
X155011678Y-74732916D01*
X155011678Y-74732916D02*
X154940249Y-74768630D01*
X154940249Y-74768630D02*
X154725963Y-74768630D01*
X154725963Y-74768630D02*
X154654535Y-74732916D01*
X154654535Y-74732916D02*
X154618820Y-74697201D01*
X165548003Y-117209164D02*
X165798003Y-117959164D01*
X165798003Y-117959164D02*
X166048003Y-117209164D01*
X166726574Y-117887735D02*
X166690860Y-117923450D01*
X166690860Y-117923450D02*
X166583717Y-117959164D01*
X166583717Y-117959164D02*
X166512289Y-117959164D01*
X166512289Y-117959164D02*
X166405146Y-117923450D01*
X166405146Y-117923450D02*
X166333717Y-117852021D01*
X166333717Y-117852021D02*
X166298003Y-117780592D01*
X166298003Y-117780592D02*
X166262289Y-117637735D01*
X166262289Y-117637735D02*
X166262289Y-117530592D01*
X166262289Y-117530592D02*
X166298003Y-117387735D01*
X166298003Y-117387735D02*
X166333717Y-117316307D01*
X166333717Y-117316307D02*
X166405146Y-117244878D01*
X166405146Y-117244878D02*
X166512289Y-117209164D01*
X166512289Y-117209164D02*
X166583717Y-117209164D01*
X166583717Y-117209164D02*
X166690860Y-117244878D01*
X166690860Y-117244878D02*
X166726574Y-117280592D01*
X167476574Y-117887735D02*
X167440860Y-117923450D01*
X167440860Y-117923450D02*
X167333717Y-117959164D01*
X167333717Y-117959164D02*
X167262289Y-117959164D01*
X167262289Y-117959164D02*
X167155146Y-117923450D01*
X167155146Y-117923450D02*
X167083717Y-117852021D01*
X167083717Y-117852021D02*
X167048003Y-117780592D01*
X167048003Y-117780592D02*
X167012289Y-117637735D01*
X167012289Y-117637735D02*
X167012289Y-117530592D01*
X167012289Y-117530592D02*
X167048003Y-117387735D01*
X167048003Y-117387735D02*
X167083717Y-117316307D01*
X167083717Y-117316307D02*
X167155146Y-117244878D01*
X167155146Y-117244878D02*
X167262289Y-117209164D01*
X167262289Y-117209164D02*
X167333717Y-117209164D01*
X167333717Y-117209164D02*
X167440860Y-117244878D01*
X167440860Y-117244878D02*
X167476574Y-117280592D01*
X165905146Y-119798804D02*
X165833718Y-119763090D01*
X165833718Y-119763090D02*
X165726575Y-119763090D01*
X165726575Y-119763090D02*
X165619432Y-119798804D01*
X165619432Y-119798804D02*
X165548003Y-119870233D01*
X165548003Y-119870233D02*
X165512289Y-119941661D01*
X165512289Y-119941661D02*
X165476575Y-120084518D01*
X165476575Y-120084518D02*
X165476575Y-120191661D01*
X165476575Y-120191661D02*
X165512289Y-120334518D01*
X165512289Y-120334518D02*
X165548003Y-120405947D01*
X165548003Y-120405947D02*
X165619432Y-120477376D01*
X165619432Y-120477376D02*
X165726575Y-120513090D01*
X165726575Y-120513090D02*
X165798003Y-120513090D01*
X165798003Y-120513090D02*
X165905146Y-120477376D01*
X165905146Y-120477376D02*
X165940860Y-120441661D01*
X165940860Y-120441661D02*
X165940860Y-120191661D01*
X165940860Y-120191661D02*
X165798003Y-120191661D01*
X166262289Y-120513090D02*
X166262289Y-119763090D01*
X166262289Y-119763090D02*
X166690860Y-120513090D01*
X166690860Y-120513090D02*
X166690860Y-119763090D01*
X167048003Y-120513090D02*
X167048003Y-119763090D01*
X167048003Y-119763090D02*
X167226574Y-119763090D01*
X167226574Y-119763090D02*
X167333717Y-119798804D01*
X167333717Y-119798804D02*
X167405146Y-119870233D01*
X167405146Y-119870233D02*
X167440860Y-119941661D01*
X167440860Y-119941661D02*
X167476574Y-120084518D01*
X167476574Y-120084518D02*
X167476574Y-120191661D01*
X167476574Y-120191661D02*
X167440860Y-120334518D01*
X167440860Y-120334518D02*
X167405146Y-120405947D01*
X167405146Y-120405947D02*
X167333717Y-120477376D01*
X167333717Y-120477376D02*
X167226574Y-120513090D01*
X167226574Y-120513090D02*
X167048003Y-120513090D01*
X165944003Y-115385522D02*
X165944003Y-114635522D01*
X166444003Y-114635522D02*
X166586860Y-114635522D01*
X166586860Y-114635522D02*
X166658289Y-114671236D01*
X166658289Y-114671236D02*
X166729717Y-114742665D01*
X166729717Y-114742665D02*
X166765432Y-114885522D01*
X166765432Y-114885522D02*
X166765432Y-115135522D01*
X166765432Y-115135522D02*
X166729717Y-115278379D01*
X166729717Y-115278379D02*
X166658289Y-115349808D01*
X166658289Y-115349808D02*
X166586860Y-115385522D01*
X166586860Y-115385522D02*
X166444003Y-115385522D01*
X166444003Y-115385522D02*
X166372575Y-115349808D01*
X166372575Y-115349808D02*
X166301146Y-115278379D01*
X166301146Y-115278379D02*
X166265432Y-115135522D01*
X166265432Y-115135522D02*
X166265432Y-114885522D01*
X166265432Y-114885522D02*
X166301146Y-114742665D01*
X166301146Y-114742665D02*
X166372575Y-114671236D01*
X166372575Y-114671236D02*
X166444003Y-114635522D01*
X167479717Y-115385522D02*
X167051146Y-115385522D01*
X167265431Y-115385522D02*
X167265431Y-114635522D01*
X167265431Y-114635522D02*
X167194003Y-114742665D01*
X167194003Y-114742665D02*
X167122574Y-114814093D01*
X167122574Y-114814093D02*
X167051146Y-114849808D01*
X165246324Y-100205377D02*
X165246324Y-99455377D01*
X165746324Y-99455377D02*
X165889181Y-99455377D01*
X165889181Y-99455377D02*
X165960610Y-99491091D01*
X165960610Y-99491091D02*
X166032038Y-99562520D01*
X166032038Y-99562520D02*
X166067753Y-99705377D01*
X166067753Y-99705377D02*
X166067753Y-99955377D01*
X166067753Y-99955377D02*
X166032038Y-100098234D01*
X166032038Y-100098234D02*
X165960610Y-100169663D01*
X165960610Y-100169663D02*
X165889181Y-100205377D01*
X165889181Y-100205377D02*
X165746324Y-100205377D01*
X165746324Y-100205377D02*
X165674896Y-100169663D01*
X165674896Y-100169663D02*
X165603467Y-100098234D01*
X165603467Y-100098234D02*
X165567753Y-99955377D01*
X165567753Y-99955377D02*
X165567753Y-99705377D01*
X165567753Y-99705377D02*
X165603467Y-99562520D01*
X165603467Y-99562520D02*
X165674896Y-99491091D01*
X165674896Y-99491091D02*
X165746324Y-99455377D01*
X166710610Y-99705377D02*
X166710610Y-100205377D01*
X166532038Y-99419663D02*
X166353467Y-99955377D01*
X166353467Y-99955377D02*
X166817752Y-99955377D01*
X167246324Y-99455377D02*
X167317753Y-99455377D01*
X167317753Y-99455377D02*
X167389181Y-99491091D01*
X167389181Y-99491091D02*
X167424896Y-99526805D01*
X167424896Y-99526805D02*
X167460610Y-99598234D01*
X167460610Y-99598234D02*
X167496324Y-99741091D01*
X167496324Y-99741091D02*
X167496324Y-99919663D01*
X167496324Y-99919663D02*
X167460610Y-100062520D01*
X167460610Y-100062520D02*
X167424896Y-100133948D01*
X167424896Y-100133948D02*
X167389181Y-100169663D01*
X167389181Y-100169663D02*
X167317753Y-100205377D01*
X167317753Y-100205377D02*
X167246324Y-100205377D01*
X167246324Y-100205377D02*
X167174896Y-100169663D01*
X167174896Y-100169663D02*
X167139181Y-100133948D01*
X167139181Y-100133948D02*
X167103467Y-100062520D01*
X167103467Y-100062520D02*
X167067753Y-99919663D01*
X167067753Y-99919663D02*
X167067753Y-99741091D01*
X167067753Y-99741091D02*
X167103467Y-99598234D01*
X167103467Y-99598234D02*
X167139181Y-99526805D01*
X167139181Y-99526805D02*
X167174896Y-99491091D01*
X167174896Y-99491091D02*
X167246324Y-99455377D01*
X165247468Y-102714390D02*
X165247468Y-101964390D01*
X165747468Y-101964390D02*
X165890325Y-101964390D01*
X165890325Y-101964390D02*
X165961754Y-102000104D01*
X165961754Y-102000104D02*
X166033182Y-102071533D01*
X166033182Y-102071533D02*
X166068897Y-102214390D01*
X166068897Y-102214390D02*
X166068897Y-102464390D01*
X166068897Y-102464390D02*
X166033182Y-102607247D01*
X166033182Y-102607247D02*
X165961754Y-102678676D01*
X165961754Y-102678676D02*
X165890325Y-102714390D01*
X165890325Y-102714390D02*
X165747468Y-102714390D01*
X165747468Y-102714390D02*
X165676040Y-102678676D01*
X165676040Y-102678676D02*
X165604611Y-102607247D01*
X165604611Y-102607247D02*
X165568897Y-102464390D01*
X165568897Y-102464390D02*
X165568897Y-102214390D01*
X165568897Y-102214390D02*
X165604611Y-102071533D01*
X165604611Y-102071533D02*
X165676040Y-102000104D01*
X165676040Y-102000104D02*
X165747468Y-101964390D01*
X166711754Y-102214390D02*
X166711754Y-102714390D01*
X166533182Y-101928676D02*
X166354611Y-102464390D01*
X166354611Y-102464390D02*
X166818896Y-102464390D01*
X167497468Y-102714390D02*
X167068897Y-102714390D01*
X167283182Y-102714390D02*
X167283182Y-101964390D01*
X167283182Y-101964390D02*
X167211754Y-102071533D01*
X167211754Y-102071533D02*
X167140325Y-102142961D01*
X167140325Y-102142961D02*
X167068897Y-102178676D01*
X165247468Y-105250237D02*
X165247468Y-104500237D01*
X165747468Y-104500237D02*
X165890325Y-104500237D01*
X165890325Y-104500237D02*
X165961754Y-104535951D01*
X165961754Y-104535951D02*
X166033182Y-104607380D01*
X166033182Y-104607380D02*
X166068897Y-104750237D01*
X166068897Y-104750237D02*
X166068897Y-105000237D01*
X166068897Y-105000237D02*
X166033182Y-105143094D01*
X166033182Y-105143094D02*
X165961754Y-105214523D01*
X165961754Y-105214523D02*
X165890325Y-105250237D01*
X165890325Y-105250237D02*
X165747468Y-105250237D01*
X165747468Y-105250237D02*
X165676040Y-105214523D01*
X165676040Y-105214523D02*
X165604611Y-105143094D01*
X165604611Y-105143094D02*
X165568897Y-105000237D01*
X165568897Y-105000237D02*
X165568897Y-104750237D01*
X165568897Y-104750237D02*
X165604611Y-104607380D01*
X165604611Y-104607380D02*
X165676040Y-104535951D01*
X165676040Y-104535951D02*
X165747468Y-104500237D01*
X166711754Y-104750237D02*
X166711754Y-105250237D01*
X166533182Y-104464523D02*
X166354611Y-105000237D01*
X166354611Y-105000237D02*
X166818896Y-105000237D01*
X167068897Y-104571665D02*
X167104611Y-104535951D01*
X167104611Y-104535951D02*
X167176040Y-104500237D01*
X167176040Y-104500237D02*
X167354611Y-104500237D01*
X167354611Y-104500237D02*
X167426040Y-104535951D01*
X167426040Y-104535951D02*
X167461754Y-104571665D01*
X167461754Y-104571665D02*
X167497468Y-104643094D01*
X167497468Y-104643094D02*
X167497468Y-104714523D01*
X167497468Y-104714523D02*
X167461754Y-104821665D01*
X167461754Y-104821665D02*
X167033182Y-105250237D01*
X167033182Y-105250237D02*
X167497468Y-105250237D01*
X165258458Y-72339164D02*
X165258458Y-71589164D01*
X165758458Y-71589164D02*
X165901315Y-71589164D01*
X165901315Y-71589164D02*
X165972744Y-71624878D01*
X165972744Y-71624878D02*
X166044172Y-71696307D01*
X166044172Y-71696307D02*
X166079887Y-71839164D01*
X166079887Y-71839164D02*
X166079887Y-72089164D01*
X166079887Y-72089164D02*
X166044172Y-72232021D01*
X166044172Y-72232021D02*
X165972744Y-72303450D01*
X165972744Y-72303450D02*
X165901315Y-72339164D01*
X165901315Y-72339164D02*
X165758458Y-72339164D01*
X165758458Y-72339164D02*
X165687030Y-72303450D01*
X165687030Y-72303450D02*
X165615601Y-72232021D01*
X165615601Y-72232021D02*
X165579887Y-72089164D01*
X165579887Y-72089164D02*
X165579887Y-71839164D01*
X165579887Y-71839164D02*
X165615601Y-71696307D01*
X165615601Y-71696307D02*
X165687030Y-71624878D01*
X165687030Y-71624878D02*
X165758458Y-71589164D01*
X166722744Y-71839164D02*
X166722744Y-72339164D01*
X166544172Y-71553450D02*
X166365601Y-72089164D01*
X166365601Y-72089164D02*
X166829886Y-72089164D01*
X167472744Y-71589164D02*
X167115601Y-71589164D01*
X167115601Y-71589164D02*
X167079887Y-71946307D01*
X167079887Y-71946307D02*
X167115601Y-71910592D01*
X167115601Y-71910592D02*
X167187030Y-71874878D01*
X167187030Y-71874878D02*
X167365601Y-71874878D01*
X167365601Y-71874878D02*
X167437030Y-71910592D01*
X167437030Y-71910592D02*
X167472744Y-71946307D01*
X167472744Y-71946307D02*
X167508458Y-72017735D01*
X167508458Y-72017735D02*
X167508458Y-72196307D01*
X167508458Y-72196307D02*
X167472744Y-72267735D01*
X167472744Y-72267735D02*
X167437030Y-72303450D01*
X167437030Y-72303450D02*
X167365601Y-72339164D01*
X167365601Y-72339164D02*
X167187030Y-72339164D01*
X167187030Y-72339164D02*
X167115601Y-72303450D01*
X167115601Y-72303450D02*
X167079887Y-72267735D01*
X165258458Y-74839164D02*
X165258458Y-74089164D01*
X165758458Y-74089164D02*
X165901315Y-74089164D01*
X165901315Y-74089164D02*
X165972744Y-74124878D01*
X165972744Y-74124878D02*
X166044172Y-74196307D01*
X166044172Y-74196307D02*
X166079887Y-74339164D01*
X166079887Y-74339164D02*
X166079887Y-74589164D01*
X166079887Y-74589164D02*
X166044172Y-74732021D01*
X166044172Y-74732021D02*
X165972744Y-74803450D01*
X165972744Y-74803450D02*
X165901315Y-74839164D01*
X165901315Y-74839164D02*
X165758458Y-74839164D01*
X165758458Y-74839164D02*
X165687030Y-74803450D01*
X165687030Y-74803450D02*
X165615601Y-74732021D01*
X165615601Y-74732021D02*
X165579887Y-74589164D01*
X165579887Y-74589164D02*
X165579887Y-74339164D01*
X165579887Y-74339164D02*
X165615601Y-74196307D01*
X165615601Y-74196307D02*
X165687030Y-74124878D01*
X165687030Y-74124878D02*
X165758458Y-74089164D01*
X166722744Y-74339164D02*
X166722744Y-74839164D01*
X166544172Y-74053450D02*
X166365601Y-74589164D01*
X166365601Y-74589164D02*
X166829886Y-74589164D01*
X167222744Y-74410592D02*
X167151315Y-74374878D01*
X167151315Y-74374878D02*
X167115601Y-74339164D01*
X167115601Y-74339164D02*
X167079887Y-74267735D01*
X167079887Y-74267735D02*
X167079887Y-74232021D01*
X167079887Y-74232021D02*
X167115601Y-74160592D01*
X167115601Y-74160592D02*
X167151315Y-74124878D01*
X167151315Y-74124878D02*
X167222744Y-74089164D01*
X167222744Y-74089164D02*
X167365601Y-74089164D01*
X167365601Y-74089164D02*
X167437030Y-74124878D01*
X167437030Y-74124878D02*
X167472744Y-74160592D01*
X167472744Y-74160592D02*
X167508458Y-74232021D01*
X167508458Y-74232021D02*
X167508458Y-74267735D01*
X167508458Y-74267735D02*
X167472744Y-74339164D01*
X167472744Y-74339164D02*
X167437030Y-74374878D01*
X167437030Y-74374878D02*
X167365601Y-74410592D01*
X167365601Y-74410592D02*
X167222744Y-74410592D01*
X167222744Y-74410592D02*
X167151315Y-74446307D01*
X167151315Y-74446307D02*
X167115601Y-74482021D01*
X167115601Y-74482021D02*
X167079887Y-74553450D01*
X167079887Y-74553450D02*
X167079887Y-74696307D01*
X167079887Y-74696307D02*
X167115601Y-74767735D01*
X167115601Y-74767735D02*
X167151315Y-74803450D01*
X167151315Y-74803450D02*
X167222744Y-74839164D01*
X167222744Y-74839164D02*
X167365601Y-74839164D01*
X167365601Y-74839164D02*
X167437030Y-74803450D01*
X167437030Y-74803450D02*
X167472744Y-74767735D01*
X167472744Y-74767735D02*
X167508458Y-74696307D01*
X167508458Y-74696307D02*
X167508458Y-74553450D01*
X167508458Y-74553450D02*
X167472744Y-74482021D01*
X167472744Y-74482021D02*
X167437030Y-74446307D01*
X167437030Y-74446307D02*
X167365601Y-74410592D01*
X165258458Y-77339164D02*
X165258458Y-76589164D01*
X165758458Y-76589164D02*
X165901315Y-76589164D01*
X165901315Y-76589164D02*
X165972744Y-76624878D01*
X165972744Y-76624878D02*
X166044172Y-76696307D01*
X166044172Y-76696307D02*
X166079887Y-76839164D01*
X166079887Y-76839164D02*
X166079887Y-77089164D01*
X166079887Y-77089164D02*
X166044172Y-77232021D01*
X166044172Y-77232021D02*
X165972744Y-77303450D01*
X165972744Y-77303450D02*
X165901315Y-77339164D01*
X165901315Y-77339164D02*
X165758458Y-77339164D01*
X165758458Y-77339164D02*
X165687030Y-77303450D01*
X165687030Y-77303450D02*
X165615601Y-77232021D01*
X165615601Y-77232021D02*
X165579887Y-77089164D01*
X165579887Y-77089164D02*
X165579887Y-76839164D01*
X165579887Y-76839164D02*
X165615601Y-76696307D01*
X165615601Y-76696307D02*
X165687030Y-76624878D01*
X165687030Y-76624878D02*
X165758458Y-76589164D01*
X166722744Y-76839164D02*
X166722744Y-77339164D01*
X166544172Y-76553450D02*
X166365601Y-77089164D01*
X166365601Y-77089164D02*
X166829886Y-77089164D01*
X167044172Y-76589164D02*
X167544172Y-76589164D01*
X167544172Y-76589164D02*
X167222744Y-77339164D01*
X165258458Y-79839164D02*
X165258458Y-79089164D01*
X165758458Y-79089164D02*
X165901315Y-79089164D01*
X165901315Y-79089164D02*
X165972744Y-79124878D01*
X165972744Y-79124878D02*
X166044172Y-79196307D01*
X166044172Y-79196307D02*
X166079887Y-79339164D01*
X166079887Y-79339164D02*
X166079887Y-79589164D01*
X166079887Y-79589164D02*
X166044172Y-79732021D01*
X166044172Y-79732021D02*
X165972744Y-79803450D01*
X165972744Y-79803450D02*
X165901315Y-79839164D01*
X165901315Y-79839164D02*
X165758458Y-79839164D01*
X165758458Y-79839164D02*
X165687030Y-79803450D01*
X165687030Y-79803450D02*
X165615601Y-79732021D01*
X165615601Y-79732021D02*
X165579887Y-79589164D01*
X165579887Y-79589164D02*
X165579887Y-79339164D01*
X165579887Y-79339164D02*
X165615601Y-79196307D01*
X165615601Y-79196307D02*
X165687030Y-79124878D01*
X165687030Y-79124878D02*
X165758458Y-79089164D01*
X166365601Y-79160592D02*
X166401315Y-79124878D01*
X166401315Y-79124878D02*
X166472744Y-79089164D01*
X166472744Y-79089164D02*
X166651315Y-79089164D01*
X166651315Y-79089164D02*
X166722744Y-79124878D01*
X166722744Y-79124878D02*
X166758458Y-79160592D01*
X166758458Y-79160592D02*
X166794172Y-79232021D01*
X166794172Y-79232021D02*
X166794172Y-79303450D01*
X166794172Y-79303450D02*
X166758458Y-79410592D01*
X166758458Y-79410592D02*
X166329886Y-79839164D01*
X166329886Y-79839164D02*
X166794172Y-79839164D01*
X167508458Y-79839164D02*
X167079887Y-79839164D01*
X167294172Y-79839164D02*
X167294172Y-79089164D01*
X167294172Y-79089164D02*
X167222744Y-79196307D01*
X167222744Y-79196307D02*
X167151315Y-79267735D01*
X167151315Y-79267735D02*
X167079887Y-79303450D01*
X165258458Y-82339164D02*
X165258458Y-81589164D01*
X165758458Y-81589164D02*
X165901315Y-81589164D01*
X165901315Y-81589164D02*
X165972744Y-81624878D01*
X165972744Y-81624878D02*
X166044172Y-81696307D01*
X166044172Y-81696307D02*
X166079887Y-81839164D01*
X166079887Y-81839164D02*
X166079887Y-82089164D01*
X166079887Y-82089164D02*
X166044172Y-82232021D01*
X166044172Y-82232021D02*
X165972744Y-82303450D01*
X165972744Y-82303450D02*
X165901315Y-82339164D01*
X165901315Y-82339164D02*
X165758458Y-82339164D01*
X165758458Y-82339164D02*
X165687030Y-82303450D01*
X165687030Y-82303450D02*
X165615601Y-82232021D01*
X165615601Y-82232021D02*
X165579887Y-82089164D01*
X165579887Y-82089164D02*
X165579887Y-81839164D01*
X165579887Y-81839164D02*
X165615601Y-81696307D01*
X165615601Y-81696307D02*
X165687030Y-81624878D01*
X165687030Y-81624878D02*
X165758458Y-81589164D01*
X166794172Y-82339164D02*
X166365601Y-82339164D01*
X166579886Y-82339164D02*
X166579886Y-81589164D01*
X166579886Y-81589164D02*
X166508458Y-81696307D01*
X166508458Y-81696307D02*
X166437029Y-81767735D01*
X166437029Y-81767735D02*
X166365601Y-81803450D01*
X167437030Y-81839164D02*
X167437030Y-82339164D01*
X167258458Y-81553450D02*
X167079887Y-82089164D01*
X167079887Y-82089164D02*
X167544172Y-82089164D01*
X165258458Y-85089164D02*
X165258458Y-84339164D01*
X165758458Y-84339164D02*
X165901315Y-84339164D01*
X165901315Y-84339164D02*
X165972744Y-84374878D01*
X165972744Y-84374878D02*
X166044172Y-84446307D01*
X166044172Y-84446307D02*
X166079887Y-84589164D01*
X166079887Y-84589164D02*
X166079887Y-84839164D01*
X166079887Y-84839164D02*
X166044172Y-84982021D01*
X166044172Y-84982021D02*
X165972744Y-85053450D01*
X165972744Y-85053450D02*
X165901315Y-85089164D01*
X165901315Y-85089164D02*
X165758458Y-85089164D01*
X165758458Y-85089164D02*
X165687030Y-85053450D01*
X165687030Y-85053450D02*
X165615601Y-84982021D01*
X165615601Y-84982021D02*
X165579887Y-84839164D01*
X165579887Y-84839164D02*
X165579887Y-84589164D01*
X165579887Y-84589164D02*
X165615601Y-84446307D01*
X165615601Y-84446307D02*
X165687030Y-84374878D01*
X165687030Y-84374878D02*
X165758458Y-84339164D01*
X166794172Y-85089164D02*
X166365601Y-85089164D01*
X166579886Y-85089164D02*
X166579886Y-84339164D01*
X166579886Y-84339164D02*
X166508458Y-84446307D01*
X166508458Y-84446307D02*
X166437029Y-84517735D01*
X166437029Y-84517735D02*
X166365601Y-84553450D01*
X167044172Y-84339164D02*
X167508458Y-84339164D01*
X167508458Y-84339164D02*
X167258458Y-84624878D01*
X167258458Y-84624878D02*
X167365601Y-84624878D01*
X167365601Y-84624878D02*
X167437030Y-84660592D01*
X167437030Y-84660592D02*
X167472744Y-84696307D01*
X167472744Y-84696307D02*
X167508458Y-84767735D01*
X167508458Y-84767735D02*
X167508458Y-84946307D01*
X167508458Y-84946307D02*
X167472744Y-85017735D01*
X167472744Y-85017735D02*
X167437030Y-85053450D01*
X167437030Y-85053450D02*
X167365601Y-85089164D01*
X167365601Y-85089164D02*
X167151315Y-85089164D01*
X167151315Y-85089164D02*
X167079887Y-85053450D01*
X167079887Y-85053450D02*
X167044172Y-85017735D01*
X165258458Y-87589164D02*
X165258458Y-86839164D01*
X165758458Y-86839164D02*
X165901315Y-86839164D01*
X165901315Y-86839164D02*
X165972744Y-86874878D01*
X165972744Y-86874878D02*
X166044172Y-86946307D01*
X166044172Y-86946307D02*
X166079887Y-87089164D01*
X166079887Y-87089164D02*
X166079887Y-87339164D01*
X166079887Y-87339164D02*
X166044172Y-87482021D01*
X166044172Y-87482021D02*
X165972744Y-87553450D01*
X165972744Y-87553450D02*
X165901315Y-87589164D01*
X165901315Y-87589164D02*
X165758458Y-87589164D01*
X165758458Y-87589164D02*
X165687030Y-87553450D01*
X165687030Y-87553450D02*
X165615601Y-87482021D01*
X165615601Y-87482021D02*
X165579887Y-87339164D01*
X165579887Y-87339164D02*
X165579887Y-87089164D01*
X165579887Y-87089164D02*
X165615601Y-86946307D01*
X165615601Y-86946307D02*
X165687030Y-86874878D01*
X165687030Y-86874878D02*
X165758458Y-86839164D01*
X166329886Y-86839164D02*
X166794172Y-86839164D01*
X166794172Y-86839164D02*
X166544172Y-87124878D01*
X166544172Y-87124878D02*
X166651315Y-87124878D01*
X166651315Y-87124878D02*
X166722744Y-87160592D01*
X166722744Y-87160592D02*
X166758458Y-87196307D01*
X166758458Y-87196307D02*
X166794172Y-87267735D01*
X166794172Y-87267735D02*
X166794172Y-87446307D01*
X166794172Y-87446307D02*
X166758458Y-87517735D01*
X166758458Y-87517735D02*
X166722744Y-87553450D01*
X166722744Y-87553450D02*
X166651315Y-87589164D01*
X166651315Y-87589164D02*
X166437029Y-87589164D01*
X166437029Y-87589164D02*
X166365601Y-87553450D01*
X166365601Y-87553450D02*
X166329886Y-87517735D01*
X167472744Y-86839164D02*
X167115601Y-86839164D01*
X167115601Y-86839164D02*
X167079887Y-87196307D01*
X167079887Y-87196307D02*
X167115601Y-87160592D01*
X167115601Y-87160592D02*
X167187030Y-87124878D01*
X167187030Y-87124878D02*
X167365601Y-87124878D01*
X167365601Y-87124878D02*
X167437030Y-87160592D01*
X167437030Y-87160592D02*
X167472744Y-87196307D01*
X167472744Y-87196307D02*
X167508458Y-87267735D01*
X167508458Y-87267735D02*
X167508458Y-87446307D01*
X167508458Y-87446307D02*
X167472744Y-87517735D01*
X167472744Y-87517735D02*
X167437030Y-87553450D01*
X167437030Y-87553450D02*
X167365601Y-87589164D01*
X167365601Y-87589164D02*
X167187030Y-87589164D01*
X167187030Y-87589164D02*
X167115601Y-87553450D01*
X167115601Y-87553450D02*
X167079887Y-87517735D01*
X165258458Y-90089164D02*
X165258458Y-89339164D01*
X165758458Y-89339164D02*
X165901315Y-89339164D01*
X165901315Y-89339164D02*
X165972744Y-89374878D01*
X165972744Y-89374878D02*
X166044172Y-89446307D01*
X166044172Y-89446307D02*
X166079887Y-89589164D01*
X166079887Y-89589164D02*
X166079887Y-89839164D01*
X166079887Y-89839164D02*
X166044172Y-89982021D01*
X166044172Y-89982021D02*
X165972744Y-90053450D01*
X165972744Y-90053450D02*
X165901315Y-90089164D01*
X165901315Y-90089164D02*
X165758458Y-90089164D01*
X165758458Y-90089164D02*
X165687030Y-90053450D01*
X165687030Y-90053450D02*
X165615601Y-89982021D01*
X165615601Y-89982021D02*
X165579887Y-89839164D01*
X165579887Y-89839164D02*
X165579887Y-89589164D01*
X165579887Y-89589164D02*
X165615601Y-89446307D01*
X165615601Y-89446307D02*
X165687030Y-89374878D01*
X165687030Y-89374878D02*
X165758458Y-89339164D01*
X166329886Y-89339164D02*
X166794172Y-89339164D01*
X166794172Y-89339164D02*
X166544172Y-89624878D01*
X166544172Y-89624878D02*
X166651315Y-89624878D01*
X166651315Y-89624878D02*
X166722744Y-89660592D01*
X166722744Y-89660592D02*
X166758458Y-89696307D01*
X166758458Y-89696307D02*
X166794172Y-89767735D01*
X166794172Y-89767735D02*
X166794172Y-89946307D01*
X166794172Y-89946307D02*
X166758458Y-90017735D01*
X166758458Y-90017735D02*
X166722744Y-90053450D01*
X166722744Y-90053450D02*
X166651315Y-90089164D01*
X166651315Y-90089164D02*
X166437029Y-90089164D01*
X166437029Y-90089164D02*
X166365601Y-90053450D01*
X166365601Y-90053450D02*
X166329886Y-90017735D01*
X167437030Y-89339164D02*
X167294172Y-89339164D01*
X167294172Y-89339164D02*
X167222744Y-89374878D01*
X167222744Y-89374878D02*
X167187030Y-89410592D01*
X167187030Y-89410592D02*
X167115601Y-89517735D01*
X167115601Y-89517735D02*
X167079887Y-89660592D01*
X167079887Y-89660592D02*
X167079887Y-89946307D01*
X167079887Y-89946307D02*
X167115601Y-90017735D01*
X167115601Y-90017735D02*
X167151315Y-90053450D01*
X167151315Y-90053450D02*
X167222744Y-90089164D01*
X167222744Y-90089164D02*
X167365601Y-90089164D01*
X167365601Y-90089164D02*
X167437030Y-90053450D01*
X167437030Y-90053450D02*
X167472744Y-90017735D01*
X167472744Y-90017735D02*
X167508458Y-89946307D01*
X167508458Y-89946307D02*
X167508458Y-89767735D01*
X167508458Y-89767735D02*
X167472744Y-89696307D01*
X167472744Y-89696307D02*
X167437030Y-89660592D01*
X167437030Y-89660592D02*
X167365601Y-89624878D01*
X167365601Y-89624878D02*
X167222744Y-89624878D01*
X167222744Y-89624878D02*
X167151315Y-89660592D01*
X167151315Y-89660592D02*
X167115601Y-89696307D01*
X167115601Y-89696307D02*
X167079887Y-89767735D01*
X165258458Y-92589164D02*
X165258458Y-91839164D01*
X165758458Y-91839164D02*
X165901315Y-91839164D01*
X165901315Y-91839164D02*
X165972744Y-91874878D01*
X165972744Y-91874878D02*
X166044172Y-91946307D01*
X166044172Y-91946307D02*
X166079887Y-92089164D01*
X166079887Y-92089164D02*
X166079887Y-92339164D01*
X166079887Y-92339164D02*
X166044172Y-92482021D01*
X166044172Y-92482021D02*
X165972744Y-92553450D01*
X165972744Y-92553450D02*
X165901315Y-92589164D01*
X165901315Y-92589164D02*
X165758458Y-92589164D01*
X165758458Y-92589164D02*
X165687030Y-92553450D01*
X165687030Y-92553450D02*
X165615601Y-92482021D01*
X165615601Y-92482021D02*
X165579887Y-92339164D01*
X165579887Y-92339164D02*
X165579887Y-92089164D01*
X165579887Y-92089164D02*
X165615601Y-91946307D01*
X165615601Y-91946307D02*
X165687030Y-91874878D01*
X165687030Y-91874878D02*
X165758458Y-91839164D01*
X166329886Y-91839164D02*
X166794172Y-91839164D01*
X166794172Y-91839164D02*
X166544172Y-92124878D01*
X166544172Y-92124878D02*
X166651315Y-92124878D01*
X166651315Y-92124878D02*
X166722744Y-92160592D01*
X166722744Y-92160592D02*
X166758458Y-92196307D01*
X166758458Y-92196307D02*
X166794172Y-92267735D01*
X166794172Y-92267735D02*
X166794172Y-92446307D01*
X166794172Y-92446307D02*
X166758458Y-92517735D01*
X166758458Y-92517735D02*
X166722744Y-92553450D01*
X166722744Y-92553450D02*
X166651315Y-92589164D01*
X166651315Y-92589164D02*
X166437029Y-92589164D01*
X166437029Y-92589164D02*
X166365601Y-92553450D01*
X166365601Y-92553450D02*
X166329886Y-92517735D01*
X167044172Y-91839164D02*
X167544172Y-91839164D01*
X167544172Y-91839164D02*
X167222744Y-92589164D01*
X165258458Y-95089164D02*
X165258458Y-94339164D01*
X165758458Y-94339164D02*
X165901315Y-94339164D01*
X165901315Y-94339164D02*
X165972744Y-94374878D01*
X165972744Y-94374878D02*
X166044172Y-94446307D01*
X166044172Y-94446307D02*
X166079887Y-94589164D01*
X166079887Y-94589164D02*
X166079887Y-94839164D01*
X166079887Y-94839164D02*
X166044172Y-94982021D01*
X166044172Y-94982021D02*
X165972744Y-95053450D01*
X165972744Y-95053450D02*
X165901315Y-95089164D01*
X165901315Y-95089164D02*
X165758458Y-95089164D01*
X165758458Y-95089164D02*
X165687030Y-95053450D01*
X165687030Y-95053450D02*
X165615601Y-94982021D01*
X165615601Y-94982021D02*
X165579887Y-94839164D01*
X165579887Y-94839164D02*
X165579887Y-94589164D01*
X165579887Y-94589164D02*
X165615601Y-94446307D01*
X165615601Y-94446307D02*
X165687030Y-94374878D01*
X165687030Y-94374878D02*
X165758458Y-94339164D01*
X166329886Y-94339164D02*
X166794172Y-94339164D01*
X166794172Y-94339164D02*
X166544172Y-94624878D01*
X166544172Y-94624878D02*
X166651315Y-94624878D01*
X166651315Y-94624878D02*
X166722744Y-94660592D01*
X166722744Y-94660592D02*
X166758458Y-94696307D01*
X166758458Y-94696307D02*
X166794172Y-94767735D01*
X166794172Y-94767735D02*
X166794172Y-94946307D01*
X166794172Y-94946307D02*
X166758458Y-95017735D01*
X166758458Y-95017735D02*
X166722744Y-95053450D01*
X166722744Y-95053450D02*
X166651315Y-95089164D01*
X166651315Y-95089164D02*
X166437029Y-95089164D01*
X166437029Y-95089164D02*
X166365601Y-95053450D01*
X166365601Y-95053450D02*
X166329886Y-95017735D01*
X167222744Y-94660592D02*
X167151315Y-94624878D01*
X167151315Y-94624878D02*
X167115601Y-94589164D01*
X167115601Y-94589164D02*
X167079887Y-94517735D01*
X167079887Y-94517735D02*
X167079887Y-94482021D01*
X167079887Y-94482021D02*
X167115601Y-94410592D01*
X167115601Y-94410592D02*
X167151315Y-94374878D01*
X167151315Y-94374878D02*
X167222744Y-94339164D01*
X167222744Y-94339164D02*
X167365601Y-94339164D01*
X167365601Y-94339164D02*
X167437030Y-94374878D01*
X167437030Y-94374878D02*
X167472744Y-94410592D01*
X167472744Y-94410592D02*
X167508458Y-94482021D01*
X167508458Y-94482021D02*
X167508458Y-94517735D01*
X167508458Y-94517735D02*
X167472744Y-94589164D01*
X167472744Y-94589164D02*
X167437030Y-94624878D01*
X167437030Y-94624878D02*
X167365601Y-94660592D01*
X167365601Y-94660592D02*
X167222744Y-94660592D01*
X167222744Y-94660592D02*
X167151315Y-94696307D01*
X167151315Y-94696307D02*
X167115601Y-94732021D01*
X167115601Y-94732021D02*
X167079887Y-94803450D01*
X167079887Y-94803450D02*
X167079887Y-94946307D01*
X167079887Y-94946307D02*
X167115601Y-95017735D01*
X167115601Y-95017735D02*
X167151315Y-95053450D01*
X167151315Y-95053450D02*
X167222744Y-95089164D01*
X167222744Y-95089164D02*
X167365601Y-95089164D01*
X167365601Y-95089164D02*
X167437030Y-95053450D01*
X167437030Y-95053450D02*
X167472744Y-95017735D01*
X167472744Y-95017735D02*
X167508458Y-94946307D01*
X167508458Y-94946307D02*
X167508458Y-94803450D01*
X167508458Y-94803450D02*
X167472744Y-94732021D01*
X167472744Y-94732021D02*
X167437030Y-94696307D01*
X167437030Y-94696307D02*
X167365601Y-94660592D01*
X165258458Y-97589164D02*
X165258458Y-96839164D01*
X165758458Y-96839164D02*
X165901315Y-96839164D01*
X165901315Y-96839164D02*
X165972744Y-96874878D01*
X165972744Y-96874878D02*
X166044172Y-96946307D01*
X166044172Y-96946307D02*
X166079887Y-97089164D01*
X166079887Y-97089164D02*
X166079887Y-97339164D01*
X166079887Y-97339164D02*
X166044172Y-97482021D01*
X166044172Y-97482021D02*
X165972744Y-97553450D01*
X165972744Y-97553450D02*
X165901315Y-97589164D01*
X165901315Y-97589164D02*
X165758458Y-97589164D01*
X165758458Y-97589164D02*
X165687030Y-97553450D01*
X165687030Y-97553450D02*
X165615601Y-97482021D01*
X165615601Y-97482021D02*
X165579887Y-97339164D01*
X165579887Y-97339164D02*
X165579887Y-97089164D01*
X165579887Y-97089164D02*
X165615601Y-96946307D01*
X165615601Y-96946307D02*
X165687030Y-96874878D01*
X165687030Y-96874878D02*
X165758458Y-96839164D01*
X166329886Y-96839164D02*
X166794172Y-96839164D01*
X166794172Y-96839164D02*
X166544172Y-97124878D01*
X166544172Y-97124878D02*
X166651315Y-97124878D01*
X166651315Y-97124878D02*
X166722744Y-97160592D01*
X166722744Y-97160592D02*
X166758458Y-97196307D01*
X166758458Y-97196307D02*
X166794172Y-97267735D01*
X166794172Y-97267735D02*
X166794172Y-97446307D01*
X166794172Y-97446307D02*
X166758458Y-97517735D01*
X166758458Y-97517735D02*
X166722744Y-97553450D01*
X166722744Y-97553450D02*
X166651315Y-97589164D01*
X166651315Y-97589164D02*
X166437029Y-97589164D01*
X166437029Y-97589164D02*
X166365601Y-97553450D01*
X166365601Y-97553450D02*
X166329886Y-97517735D01*
X167151315Y-97589164D02*
X167294172Y-97589164D01*
X167294172Y-97589164D02*
X167365601Y-97553450D01*
X167365601Y-97553450D02*
X167401315Y-97517735D01*
X167401315Y-97517735D02*
X167472744Y-97410592D01*
X167472744Y-97410592D02*
X167508458Y-97267735D01*
X167508458Y-97267735D02*
X167508458Y-96982021D01*
X167508458Y-96982021D02*
X167472744Y-96910592D01*
X167472744Y-96910592D02*
X167437030Y-96874878D01*
X167437030Y-96874878D02*
X167365601Y-96839164D01*
X167365601Y-96839164D02*
X167222744Y-96839164D01*
X167222744Y-96839164D02*
X167151315Y-96874878D01*
X167151315Y-96874878D02*
X167115601Y-96910592D01*
X167115601Y-96910592D02*
X167079887Y-96982021D01*
X167079887Y-96982021D02*
X167079887Y-97160592D01*
X167079887Y-97160592D02*
X167115601Y-97232021D01*
X167115601Y-97232021D02*
X167151315Y-97267735D01*
X167151315Y-97267735D02*
X167222744Y-97303450D01*
X167222744Y-97303450D02*
X167365601Y-97303450D01*
X167365601Y-97303450D02*
X167437030Y-97267735D01*
X167437030Y-97267735D02*
X167472744Y-97232021D01*
X167472744Y-97232021D02*
X167508458Y-97160592D01*
X166794172Y-107839164D02*
X166544172Y-107482021D01*
X166365601Y-107839164D02*
X166365601Y-107089164D01*
X166365601Y-107089164D02*
X166651315Y-107089164D01*
X166651315Y-107089164D02*
X166722744Y-107124878D01*
X166722744Y-107124878D02*
X166758458Y-107160592D01*
X166758458Y-107160592D02*
X166794172Y-107232021D01*
X166794172Y-107232021D02*
X166794172Y-107339164D01*
X166794172Y-107339164D02*
X166758458Y-107410592D01*
X166758458Y-107410592D02*
X166722744Y-107446307D01*
X166722744Y-107446307D02*
X166651315Y-107482021D01*
X166651315Y-107482021D02*
X166365601Y-107482021D01*
X167044172Y-107089164D02*
X167544172Y-107839164D01*
X167544172Y-107089164D02*
X167044172Y-107839164D01*
X153685874Y-110043776D02*
X153155544Y-109513446D01*
X153509097Y-109159892D02*
X153610113Y-109058877D01*
X153610113Y-109058877D02*
X153685874Y-109033623D01*
X153685874Y-109033623D02*
X153786889Y-109033623D01*
X153786889Y-109033623D02*
X153913158Y-109109384D01*
X153913158Y-109109384D02*
X154089935Y-109286161D01*
X154089935Y-109286161D02*
X154165697Y-109412430D01*
X154165697Y-109412430D02*
X154165697Y-109513445D01*
X154165697Y-109513445D02*
X154140443Y-109589207D01*
X154140443Y-109589207D02*
X154039428Y-109690222D01*
X154039428Y-109690222D02*
X153963666Y-109715476D01*
X153963666Y-109715476D02*
X153862651Y-109715476D01*
X153862651Y-109715476D02*
X153736382Y-109639715D01*
X153736382Y-109639715D02*
X153559605Y-109462938D01*
X153559605Y-109462938D02*
X153483844Y-109336669D01*
X153483844Y-109336669D02*
X153483844Y-109235654D01*
X153483844Y-109235654D02*
X153509097Y-109159892D01*
X154367727Y-108654816D02*
X154721280Y-109008369D01*
X154039427Y-108579055D02*
X154291965Y-109084131D01*
X154291965Y-109084131D02*
X154620265Y-108755831D01*
X153900414Y-113544173D02*
X153543271Y-113794173D01*
X153900414Y-113972744D02*
X153150414Y-113972744D01*
X153150414Y-113972744D02*
X153150414Y-113687030D01*
X153150414Y-113687030D02*
X153186128Y-113615601D01*
X153186128Y-113615601D02*
X153221842Y-113579887D01*
X153221842Y-113579887D02*
X153293271Y-113544173D01*
X153293271Y-113544173D02*
X153400414Y-113544173D01*
X153400414Y-113544173D02*
X153471842Y-113579887D01*
X153471842Y-113579887D02*
X153507557Y-113615601D01*
X153507557Y-113615601D02*
X153543271Y-113687030D01*
X153543271Y-113687030D02*
X153543271Y-113972744D01*
X153507557Y-113222744D02*
X153507557Y-112972744D01*
X153900414Y-112865601D02*
X153900414Y-113222744D01*
X153900414Y-113222744D02*
X153150414Y-113222744D01*
X153150414Y-113222744D02*
X153150414Y-112865601D01*
X153864700Y-112579887D02*
X153900414Y-112472745D01*
X153900414Y-112472745D02*
X153900414Y-112294173D01*
X153900414Y-112294173D02*
X153864700Y-112222745D01*
X153864700Y-112222745D02*
X153828985Y-112187030D01*
X153828985Y-112187030D02*
X153757557Y-112151316D01*
X153757557Y-112151316D02*
X153686128Y-112151316D01*
X153686128Y-112151316D02*
X153614700Y-112187030D01*
X153614700Y-112187030D02*
X153578985Y-112222745D01*
X153578985Y-112222745D02*
X153543271Y-112294173D01*
X153543271Y-112294173D02*
X153507557Y-112437030D01*
X153507557Y-112437030D02*
X153471842Y-112508459D01*
X153471842Y-112508459D02*
X153436128Y-112544173D01*
X153436128Y-112544173D02*
X153364700Y-112579887D01*
X153364700Y-112579887D02*
X153293271Y-112579887D01*
X153293271Y-112579887D02*
X153221842Y-112544173D01*
X153221842Y-112544173D02*
X153186128Y-112508459D01*
X153186128Y-112508459D02*
X153150414Y-112437030D01*
X153150414Y-112437030D02*
X153150414Y-112258459D01*
X153150414Y-112258459D02*
X153186128Y-112151316D01*
X153507557Y-111829887D02*
X153507557Y-111579887D01*
X153900414Y-111472744D02*
X153900414Y-111829887D01*
X153900414Y-111829887D02*
X153150414Y-111829887D01*
X153150414Y-111829887D02*
X153150414Y-111472744D01*
X153150414Y-111258459D02*
X153150414Y-110829888D01*
X153900414Y-111044173D02*
X153150414Y-111044173D01*
X166229824Y-111539050D02*
X166760154Y-111008720D01*
X167113707Y-111362274D02*
X167214722Y-111463289D01*
X167214722Y-111463289D02*
X167239976Y-111539051D01*
X167239976Y-111539051D02*
X167239976Y-111640066D01*
X167239976Y-111640066D02*
X167164215Y-111766335D01*
X167164215Y-111766335D02*
X166987438Y-111943112D01*
X166987438Y-111943112D02*
X166861169Y-112018873D01*
X166861169Y-112018873D02*
X166760154Y-112018873D01*
X166760154Y-112018873D02*
X166684392Y-111993619D01*
X166684392Y-111993619D02*
X166583377Y-111892604D01*
X166583377Y-111892604D02*
X166558123Y-111816842D01*
X166558123Y-111816842D02*
X166558123Y-111715827D01*
X166558123Y-111715827D02*
X166633885Y-111589558D01*
X166633885Y-111589558D02*
X166810661Y-111412781D01*
X166810661Y-111412781D02*
X166936931Y-111337020D01*
X166936931Y-111337020D02*
X167037946Y-111337020D01*
X167037946Y-111337020D02*
X167113707Y-111362274D01*
X167492514Y-111842096D02*
X167543022Y-111842096D01*
X167543022Y-111842096D02*
X167618783Y-111867350D01*
X167618783Y-111867350D02*
X167745052Y-111993619D01*
X167745052Y-111993619D02*
X167770306Y-112069380D01*
X167770306Y-112069380D02*
X167770306Y-112119888D01*
X167770306Y-112119888D02*
X167745052Y-112195649D01*
X167745052Y-112195649D02*
X167694545Y-112246157D01*
X167694545Y-112246157D02*
X167593530Y-112296665D01*
X167593530Y-112296665D02*
X166987438Y-112296665D01*
X166987438Y-112296665D02*
X167315738Y-112624964D01*
X167112094Y-108781084D02*
X167415140Y-109084130D01*
X166733287Y-109462937D02*
X167263617Y-108932607D01*
X167541409Y-109210400D02*
X167364632Y-110094283D01*
X167894962Y-109563953D02*
X167011079Y-109740730D01*
D12*
X157301926Y-61005607D02*
X157551926Y-61005607D01*
X157659069Y-61398464D02*
X157301926Y-61398464D01*
X157301926Y-61398464D02*
X157301926Y-60648464D01*
X157301926Y-60648464D02*
X157659069Y-60648464D01*
X157944783Y-61362750D02*
X158051926Y-61398464D01*
X158051926Y-61398464D02*
X158230497Y-61398464D01*
X158230497Y-61398464D02*
X158301926Y-61362750D01*
X158301926Y-61362750D02*
X158337640Y-61327035D01*
X158337640Y-61327035D02*
X158373354Y-61255607D01*
X158373354Y-61255607D02*
X158373354Y-61184178D01*
X158373354Y-61184178D02*
X158337640Y-61112750D01*
X158337640Y-61112750D02*
X158301926Y-61077035D01*
X158301926Y-61077035D02*
X158230497Y-61041321D01*
X158230497Y-61041321D02*
X158087640Y-61005607D01*
X158087640Y-61005607D02*
X158016211Y-60969892D01*
X158016211Y-60969892D02*
X157980497Y-60934178D01*
X157980497Y-60934178D02*
X157944783Y-60862750D01*
X157944783Y-60862750D02*
X157944783Y-60791321D01*
X157944783Y-60791321D02*
X157980497Y-60719892D01*
X157980497Y-60719892D02*
X158016211Y-60684178D01*
X158016211Y-60684178D02*
X158087640Y-60648464D01*
X158087640Y-60648464D02*
X158266211Y-60648464D01*
X158266211Y-60648464D02*
X158373354Y-60684178D01*
X158694783Y-61398464D02*
X158694783Y-60648464D01*
X158694783Y-60648464D02*
X158980497Y-60648464D01*
X158980497Y-60648464D02*
X159051926Y-60684178D01*
X159051926Y-60684178D02*
X159087640Y-60719892D01*
X159087640Y-60719892D02*
X159123354Y-60791321D01*
X159123354Y-60791321D02*
X159123354Y-60898464D01*
X159123354Y-60898464D02*
X159087640Y-60969892D01*
X159087640Y-60969892D02*
X159051926Y-61005607D01*
X159051926Y-61005607D02*
X158980497Y-61041321D01*
X158980497Y-61041321D02*
X158694783Y-61041321D01*
X159373354Y-60648464D02*
X159837640Y-60648464D01*
X159837640Y-60648464D02*
X159587640Y-60934178D01*
X159587640Y-60934178D02*
X159694783Y-60934178D01*
X159694783Y-60934178D02*
X159766212Y-60969892D01*
X159766212Y-60969892D02*
X159801926Y-61005607D01*
X159801926Y-61005607D02*
X159837640Y-61077035D01*
X159837640Y-61077035D02*
X159837640Y-61255607D01*
X159837640Y-61255607D02*
X159801926Y-61327035D01*
X159801926Y-61327035D02*
X159766212Y-61362750D01*
X159766212Y-61362750D02*
X159694783Y-61398464D01*
X159694783Y-61398464D02*
X159480497Y-61398464D01*
X159480497Y-61398464D02*
X159409069Y-61362750D01*
X159409069Y-61362750D02*
X159373354Y-61327035D01*
X160123355Y-60719892D02*
X160159069Y-60684178D01*
X160159069Y-60684178D02*
X160230498Y-60648464D01*
X160230498Y-60648464D02*
X160409069Y-60648464D01*
X160409069Y-60648464D02*
X160480498Y-60684178D01*
X160480498Y-60684178D02*
X160516212Y-60719892D01*
X160516212Y-60719892D02*
X160551926Y-60791321D01*
X160551926Y-60791321D02*
X160551926Y-60862750D01*
X160551926Y-60862750D02*
X160516212Y-60969892D01*
X160516212Y-60969892D02*
X160087640Y-61398464D01*
X160087640Y-61398464D02*
X160551926Y-61398464D01*
X161444784Y-61398464D02*
X161444784Y-60648464D01*
X161444784Y-61005607D02*
X161873355Y-61005607D01*
X161873355Y-61398464D02*
X161873355Y-60648464D01*
X162230498Y-61005607D02*
X162480498Y-61005607D01*
X162587641Y-61398464D02*
X162230498Y-61398464D01*
X162230498Y-61398464D02*
X162230498Y-60648464D01*
X162230498Y-60648464D02*
X162587641Y-60648464D01*
X163337640Y-61398464D02*
X163087640Y-61041321D01*
X162909069Y-61398464D02*
X162909069Y-60648464D01*
X162909069Y-60648464D02*
X163194783Y-60648464D01*
X163194783Y-60648464D02*
X163266212Y-60684178D01*
X163266212Y-60684178D02*
X163301926Y-60719892D01*
X163301926Y-60719892D02*
X163337640Y-60791321D01*
X163337640Y-60791321D02*
X163337640Y-60898464D01*
X163337640Y-60898464D02*
X163301926Y-60969892D01*
X163301926Y-60969892D02*
X163266212Y-61005607D01*
X163266212Y-61005607D02*
X163194783Y-61041321D01*
X163194783Y-61041321D02*
X162909069Y-61041321D01*
X163659069Y-61005607D02*
X163909069Y-61005607D01*
X164016212Y-61398464D02*
X163659069Y-61398464D01*
X163659069Y-61398464D02*
X163659069Y-60648464D01*
X163659069Y-60648464D02*
X164016212Y-60648464D01*
G36*
X157829408Y-84447243D02*
G01*
X157383909Y-84447243D01*
X157383909Y-84223807D01*
X157677001Y-84223807D01*
X157677001Y-84154152D01*
X157383909Y-84154152D01*
X157383909Y-83930715D01*
X157829408Y-83930715D01*
X157829408Y-84004675D01*
X157975954Y-84004675D01*
X157975954Y-84077261D01*
X158122500Y-84077261D01*
X158122500Y-84300697D01*
X157975954Y-84300697D01*
X157975954Y-84373970D01*
X157829408Y-84373970D01*
X157829408Y-84447243D01*
G37*
G36*
X158122500Y-83828087D02*
G01*
X157383909Y-83828087D01*
X157383909Y-83604651D01*
X157533981Y-83604651D01*
X157972428Y-83604651D01*
X157972428Y-83534996D01*
X157533981Y-83534996D01*
X157533981Y-83604651D01*
X157383909Y-83604651D01*
X157383909Y-83311560D01*
X158122500Y-83311560D01*
X158122500Y-83828087D01*
G37*
G36*
X158122500Y-83208932D02*
G01*
X157383909Y-83208932D01*
X157383909Y-82985495D01*
X158122500Y-82985495D01*
X158122500Y-83208932D01*
G37*
G36*
X158049227Y-82440574D02*
G01*
X158122500Y-82440574D01*
X158122500Y-82883600D01*
X157383909Y-82883600D01*
X157383909Y-82660164D01*
X157533981Y-82660164D01*
X157972428Y-82660164D01*
X157972428Y-82590509D01*
X157533981Y-82590509D01*
X157533981Y-82660164D01*
X157383909Y-82660164D01*
X157383909Y-82440574D01*
X157457182Y-82440574D01*
X157457182Y-82367073D01*
X158049227Y-82367073D01*
X158049227Y-82440574D01*
G37*
G36*
X158122500Y-82264445D02*
G01*
X157383909Y-82264445D01*
X157383909Y-82041008D01*
X157972428Y-82041008D01*
X157972428Y-81820411D01*
X158122500Y-81820411D01*
X158122500Y-82264445D01*
G37*
G36*
X157829408Y-81495126D02*
G01*
X157972428Y-81495126D01*
X157972428Y-81201256D01*
X158122500Y-81201256D01*
X158122500Y-81718562D01*
X157383909Y-81718562D01*
X157383909Y-81201256D01*
X157533981Y-81201256D01*
X157533981Y-81495126D01*
X157679336Y-81495126D01*
X157679336Y-81274528D01*
X157829408Y-81274528D01*
X157829408Y-81495126D01*
G37*
G36*
X157829408Y-81099406D02*
G01*
X157383909Y-81099406D01*
X157383909Y-80582879D01*
X157533981Y-80582879D01*
X157533981Y-80875970D01*
X157679336Y-80875970D01*
X157679336Y-80582879D01*
X158122500Y-80582879D01*
X158122500Y-81099406D01*
X157972428Y-81099406D01*
X157972428Y-80806315D01*
X157829408Y-80806315D01*
X157829408Y-81099406D01*
G37*
G36*
X157829408Y-80480251D02*
G01*
X157383909Y-80480251D01*
X157383909Y-79963723D01*
X157533981Y-79963723D01*
X157533981Y-80256814D01*
X157679336Y-80256814D01*
X157679336Y-79963723D01*
X158122500Y-79963723D01*
X158122500Y-80480251D01*
X157972428Y-80480251D01*
X157972428Y-80187159D01*
X157829408Y-80187159D01*
X157829408Y-80480251D01*
G37*
G36*
X158269045Y-79861095D02*
G01*
X158118973Y-79861095D01*
X158118973Y-79122505D01*
X158269045Y-79122505D01*
X158269045Y-79861095D01*
G37*
G36*
X157829408Y-78797952D02*
G01*
X158122500Y-78797952D01*
X158122500Y-79021388D01*
X157383909Y-79021388D01*
X157383909Y-78797952D01*
X157533981Y-78797952D01*
X157679336Y-78797952D01*
X157679336Y-78728297D01*
X157533981Y-78728297D01*
X157533981Y-78797952D01*
X157383909Y-78797952D01*
X157383909Y-78504860D01*
X157829408Y-78504860D01*
X157829408Y-78797952D01*
G37*
G36*
X157829408Y-78402233D02*
G01*
X157383909Y-78402233D01*
X157383909Y-77885705D01*
X157533981Y-77885705D01*
X157533981Y-78178796D01*
X157679336Y-78178796D01*
X157679336Y-77885705D01*
X158122500Y-77885705D01*
X158122500Y-78402233D01*
X157972428Y-78402233D01*
X157972428Y-78109141D01*
X157829408Y-78109141D01*
X157829408Y-78402233D01*
G37*
G36*
X157756135Y-77783077D02*
G01*
X157383909Y-77783077D01*
X157383909Y-77559641D01*
X157603728Y-77559641D01*
X157603728Y-77489986D01*
X157383909Y-77489986D01*
X157383909Y-77266549D01*
X157756135Y-77266549D01*
X157756135Y-77413095D01*
X158122500Y-77413095D01*
X158122500Y-77636531D01*
X157756135Y-77636531D01*
X157756135Y-77783077D01*
G37*
G36*
X157972428Y-76719888D02*
G01*
X158122500Y-76719888D01*
X158122500Y-77163921D01*
X157383909Y-77163921D01*
X157383909Y-76719888D01*
X157533981Y-76719888D01*
X157533981Y-76940485D01*
X157972428Y-76940485D01*
X157972428Y-76719888D01*
G37*
G36*
X158122500Y-76618039D02*
G01*
X157383909Y-76618039D01*
X157383909Y-76394602D01*
X157679336Y-76394602D01*
X157679336Y-76324947D01*
X157383909Y-76324947D01*
X157383909Y-76101511D01*
X158122500Y-76101511D01*
X158122500Y-76324947D01*
X157829408Y-76324947D01*
X157829408Y-76394602D01*
X158122500Y-76394602D01*
X158122500Y-76618039D01*
G37*
G36*
X158122500Y-75998883D02*
G01*
X157383909Y-75998883D01*
X157383909Y-75775447D01*
X157533981Y-75775447D01*
X157972428Y-75775447D01*
X157972428Y-75705792D01*
X157533981Y-75705792D01*
X157533981Y-75775447D01*
X157383909Y-75775447D01*
X157383909Y-75482355D01*
X158122500Y-75482355D01*
X158122500Y-75998883D01*
G37*
D11*
X159988095Y-94954819D02*
X159988095Y-95764342D01*
X159988095Y-95764342D02*
X160035714Y-95859580D01*
X160035714Y-95859580D02*
X160083333Y-95907200D01*
X160083333Y-95907200D02*
X160178571Y-95954819D01*
X160178571Y-95954819D02*
X160369047Y-95954819D01*
X160369047Y-95954819D02*
X160464285Y-95907200D01*
X160464285Y-95907200D02*
X160511904Y-95859580D01*
X160511904Y-95859580D02*
X160559523Y-95764342D01*
X160559523Y-95764342D02*
X160559523Y-94954819D01*
X161464285Y-95288152D02*
X161464285Y-95954819D01*
X161226190Y-94907200D02*
X160988095Y-95621485D01*
X160988095Y-95621485D02*
X161607142Y-95621485D01*
X159738095Y-46329819D02*
X159738095Y-47139342D01*
X159738095Y-47139342D02*
X159785714Y-47234580D01*
X159785714Y-47234580D02*
X159833333Y-47282200D01*
X159833333Y-47282200D02*
X159928571Y-47329819D01*
X159928571Y-47329819D02*
X160119047Y-47329819D01*
X160119047Y-47329819D02*
X160214285Y-47282200D01*
X160214285Y-47282200D02*
X160261904Y-47234580D01*
X160261904Y-47234580D02*
X160309523Y-47139342D01*
X160309523Y-47139342D02*
X160309523Y-46329819D01*
X161309523Y-47329819D02*
X160738095Y-47329819D01*
X161023809Y-47329819D02*
X161023809Y-46329819D01*
X161023809Y-46329819D02*
X160928571Y-46472676D01*
X160928571Y-46472676D02*
X160833333Y-46567914D01*
X160833333Y-46567914D02*
X160738095Y-46615533D01*
%TO.C,U4*%
D13*
X158900000Y-96590000D02*
X162660000Y-96590000D01*
X158900000Y-103410000D02*
X162660000Y-103410000D01*
X162660000Y-96590000D02*
X162660000Y-97850000D01*
X162660000Y-103410000D02*
X162660000Y-102150000D01*
X157620000Y-96690000D02*
X157380000Y-96360000D01*
X157860000Y-96360000D01*
X157620000Y-96690000D01*
G36*
X157620000Y-96690000D02*
G01*
X157380000Y-96360000D01*
X157860000Y-96360000D01*
X157620000Y-96690000D01*
G37*
%TO.C,C15*%
X158640000Y-108372164D02*
X158640000Y-108587836D01*
X159360000Y-108372164D02*
X159360000Y-108587836D01*
%TO.C,D1*%
D11*
X162570000Y-104120000D02*
X162570000Y-106880000D01*
X162570000Y-106880000D02*
X162820000Y-106880000D01*
X164430000Y-104120000D02*
X164430000Y-106880000D01*
X164430000Y-104530000D02*
X162570000Y-104530000D01*
X164430000Y-106880000D02*
X164180000Y-106880000D01*
D14*
X162730000Y-103650000D02*
G75*
G02*
X162670000Y-103650000I-30000J0D01*
G01*
X162670000Y-103650000D02*
G75*
G02*
X162730000Y-103650000I30000J0D01*
G01*
D15*
G36*
X162867591Y-104200003D02*
G01*
X162497589Y-104200003D01*
X162497589Y-103895203D01*
X162867591Y-103895203D01*
X162867591Y-104200003D01*
G37*
G36*
X164502411Y-104200003D02*
G01*
X164132409Y-104200003D01*
X164132409Y-103895203D01*
X164502411Y-103895203D01*
X164502411Y-104200003D01*
G37*
%TO.C,SW1*%
D11*
X163960000Y-109790000D02*
X163960000Y-113850000D01*
X163960000Y-109790000D02*
X164390000Y-109790000D01*
X163960000Y-113850000D02*
X164390000Y-113850000D01*
X166610000Y-109790000D02*
X167040000Y-109790000D01*
X167040000Y-109790000D02*
X167040000Y-113850000D01*
X167040000Y-113850000D02*
X166610000Y-113850000D01*
D14*
X164060000Y-109320000D02*
G75*
G02*
X164000000Y-109320000I-30000J0D01*
G01*
X164000000Y-109320000D02*
G75*
G02*
X164060000Y-109320000I30000J0D01*
G01*
D16*
X166400000Y-111820000D02*
G75*
G02*
X164600000Y-111820000I-900000J0D01*
G01*
X164600000Y-111820000D02*
G75*
G02*
X166400000Y-111820000I900000J0D01*
G01*
%TO.C,C7*%
D13*
X156490000Y-105365580D02*
X156490000Y-105084420D01*
X157510000Y-105365580D02*
X157510000Y-105084420D01*
%TO.C,U1*%
D16*
X151500000Y-43380000D02*
X169500000Y-43380000D01*
X151500000Y-48560000D02*
X169500000Y-48560000D01*
X151500000Y-48830000D02*
X151500000Y-43380000D01*
X151500000Y-50190000D02*
X151500000Y-48780000D01*
X151500000Y-68880000D02*
X151500000Y-68070000D01*
X152830000Y-68880000D02*
X151500000Y-68880000D01*
X169500000Y-43380000D02*
X169500000Y-50190000D01*
X169500000Y-68070000D02*
X169500000Y-68880000D01*
X169500000Y-68880000D02*
X168170000Y-68880000D01*
D14*
X151530000Y-43380000D02*
G75*
G02*
X151470000Y-43380000I-30000J0D01*
G01*
X151470000Y-43380000D02*
G75*
G02*
X151530000Y-43380000I30000J0D01*
G01*
%TO.C,C13*%
D13*
X157235000Y-110864420D02*
X157235000Y-111145580D01*
X158255000Y-110864420D02*
X158255000Y-111145580D01*
%TO.C,R2*%
X162633653Y-113536793D02*
X162633653Y-113229511D01*
X163393653Y-113536793D02*
X163393653Y-113229511D01*
%TO.C,C10*%
X163473645Y-95054725D02*
X163473645Y-94773565D01*
X164493645Y-95054725D02*
X164493645Y-94773565D01*
%TO.C,R1*%
X158120000Y-113653641D02*
X158120000Y-113346359D01*
X158880000Y-113653641D02*
X158880000Y-113346359D01*
%TO.C,D5*%
X163248960Y-88568912D02*
X163248960Y-90853912D01*
X164718960Y-88568912D02*
X163248960Y-88568912D01*
X164718960Y-90853912D02*
X164718960Y-88568912D01*
%TO.C,R3*%
X163870000Y-92653641D02*
X163870000Y-92346359D01*
X164630000Y-92653641D02*
X164630000Y-92346359D01*
%TO.C,USBC1*%
D16*
X156030000Y-119357544D02*
X156030000Y-117487544D01*
X156030000Y-123067544D02*
X156030000Y-121587544D01*
X164970000Y-119357544D02*
X164970000Y-117487544D01*
X164970000Y-123067544D02*
X156030000Y-123067544D01*
X164970000Y-123067544D02*
X164970000Y-121587544D01*
D14*
X165010000Y-115217544D02*
G75*
G02*
X164950000Y-115217544I-30000J0D01*
G01*
X164950000Y-115217544D02*
G75*
G02*
X165010000Y-115217544I30000J0D01*
G01*
%TO.C,C9*%
D13*
X164836941Y-95600163D02*
X164836941Y-95384491D01*
X165556941Y-95600163D02*
X165556941Y-95384491D01*
%TO.C,R5*%
X164620000Y-108143641D02*
X164620000Y-107836359D01*
X165380000Y-108143641D02*
X165380000Y-107836359D01*
%TO.C,SW2*%
D11*
X153960000Y-109970000D02*
X153960000Y-114030000D01*
X153960000Y-109970000D02*
X154390000Y-109970000D01*
X153960000Y-114030000D02*
X154390000Y-114030000D01*
X156610000Y-109970000D02*
X157040000Y-109970000D01*
X157040000Y-109970000D02*
X157040000Y-114030000D01*
X157040000Y-114030000D02*
X156610000Y-114030000D01*
D14*
X154060000Y-109500000D02*
G75*
G02*
X154000000Y-109500000I-30000J0D01*
G01*
X154000000Y-109500000D02*
G75*
G02*
X154060000Y-109500000I30000J0D01*
G01*
D16*
X156400000Y-112000000D02*
G75*
G02*
X154600000Y-112000000I-900000J0D01*
G01*
X154600000Y-112000000D02*
G75*
G02*
X156400000Y-112000000I900000J0D01*
G01*
%TO.C,U2*%
D13*
X159440000Y-110452500D02*
X159489999Y-110452500D01*
X159440000Y-112272500D02*
X159440000Y-110452500D01*
X159490001Y-112272500D02*
X159440000Y-112272500D01*
X162509999Y-110452500D02*
X162560000Y-110452500D01*
X162560000Y-110452500D02*
X162560000Y-112272500D01*
X162560000Y-112272500D02*
X162510001Y-112272500D01*
X159490000Y-112812500D02*
X159160000Y-113052500D01*
X159160000Y-112572500D01*
X159490000Y-112812500D01*
G36*
X159490000Y-112812500D02*
G01*
X159160000Y-113052500D01*
X159160000Y-112572500D01*
X159490000Y-112812500D01*
G37*
%TO.C,C14*%
X156140000Y-107892164D02*
X156140000Y-108107836D01*
X156860000Y-107892164D02*
X156860000Y-108107836D01*
%TO.C,C8*%
X157879435Y-104751758D02*
X157879435Y-104536086D01*
X158599435Y-104751758D02*
X158599435Y-104536086D01*
%TO.C,R6*%
X157346359Y-72620000D02*
X157653641Y-72620000D01*
X157346359Y-73380000D02*
X157653641Y-73380000D01*
%TD*%
%LPC*%
D17*
%TO.C,U4*%
X157600000Y-97700000D03*
X157600000Y-100000000D03*
D18*
X163900000Y-100000000D03*
D17*
X157600000Y-102300000D03*
%TD*%
D19*
%TO.C,C15*%
X159000000Y-108000000D03*
X159000000Y-108960000D03*
%TD*%
D20*
%TO.C,D1*%
X163500000Y-103860000D03*
X163500000Y-107140000D03*
%TD*%
D21*
%TO.C,SW1*%
X165500000Y-114000000D03*
X165500000Y-109640000D03*
%TD*%
D22*
%TO.C,J2*%
X152000000Y-71860000D03*
D23*
X152000000Y-74400000D03*
X152000000Y-76940000D03*
X152000000Y-79480000D03*
X152000000Y-82020000D03*
X152000000Y-84560000D03*
X152000000Y-87100000D03*
X152000000Y-89640000D03*
X152000000Y-92180000D03*
X152000000Y-94720000D03*
X152000000Y-97260000D03*
X152000000Y-99800000D03*
X152000000Y-102340000D03*
X152000000Y-104880000D03*
X152000000Y-107420000D03*
X152000000Y-109960000D03*
X152000000Y-112500000D03*
X152000000Y-115040000D03*
X152000000Y-117580000D03*
X152000000Y-120120000D03*
%TD*%
D24*
%TO.C,C7*%
X157000000Y-106000000D03*
X157000000Y-104450000D03*
%TD*%
D25*
%TO.C,U1*%
X151600000Y-50880000D03*
X151600000Y-52150000D03*
X151600000Y-53420000D03*
X151600000Y-54690000D03*
X151600000Y-55960000D03*
X151600000Y-57230000D03*
X151600000Y-58500000D03*
X151600000Y-59770000D03*
X151600000Y-61040000D03*
X151600000Y-62310000D03*
X151600000Y-63580000D03*
X151600000Y-64850000D03*
X151600000Y-66120000D03*
X151600000Y-67390000D03*
D26*
X153520000Y-68780000D03*
X154790000Y-68780000D03*
X156060000Y-68780000D03*
X157330000Y-68780000D03*
X158600000Y-68780000D03*
X159870000Y-68780000D03*
X161140000Y-68780000D03*
X162410000Y-68780000D03*
X163680000Y-68780000D03*
X164950000Y-68780000D03*
X166220000Y-68780000D03*
X167490000Y-68780000D03*
D25*
X169400000Y-67390000D03*
X169400000Y-66120000D03*
X169400000Y-64850000D03*
X169400000Y-63580000D03*
X169400000Y-62310000D03*
X169400000Y-61040000D03*
X169400000Y-59770000D03*
X169400000Y-58500000D03*
X169400000Y-57230000D03*
X169400000Y-55960000D03*
X169400000Y-54690000D03*
X169400000Y-53420000D03*
X169400000Y-52150000D03*
X169400000Y-50880000D03*
D27*
X157600000Y-57190000D03*
D28*
X157600000Y-57890000D03*
D27*
X157600000Y-58590000D03*
D28*
X157600000Y-59290000D03*
D27*
X157600000Y-59990000D03*
D28*
X158300000Y-57190000D03*
X158300000Y-58590000D03*
X158300000Y-59990000D03*
D27*
X159000000Y-57190000D03*
D28*
X159000000Y-57890000D03*
D27*
X159000000Y-58590000D03*
D28*
X159000000Y-59290000D03*
D27*
X159000000Y-59990000D03*
D28*
X159700000Y-57190000D03*
X159700000Y-58590000D03*
X159700000Y-59990000D03*
D27*
X160400000Y-57190000D03*
D28*
X160400000Y-57890000D03*
D27*
X160400000Y-58590000D03*
D28*
X160400000Y-59290000D03*
D27*
X160400000Y-59990000D03*
%TD*%
D29*
%TO.C,C13*%
X157745000Y-110230000D03*
X157745000Y-111780000D03*
%TD*%
D30*
%TO.C,R2*%
X163013653Y-113893152D03*
X163013653Y-112873152D03*
%TD*%
D24*
%TO.C,C10*%
X163983645Y-95689145D03*
X163983645Y-94139145D03*
%TD*%
D22*
%TO.C,J3*%
X169000000Y-71900000D03*
D23*
X169000000Y-74440000D03*
X169000000Y-76980000D03*
X169000000Y-79520000D03*
X169000000Y-82060000D03*
X169000000Y-84600000D03*
X169000000Y-87140000D03*
X169000000Y-89680000D03*
X169000000Y-92220000D03*
X169000000Y-94760000D03*
X169000000Y-97300000D03*
X169000000Y-99840000D03*
X169000000Y-102380000D03*
X169000000Y-104920000D03*
X169000000Y-107460000D03*
X169000000Y-110000000D03*
X169000000Y-112540000D03*
X169000000Y-115080000D03*
X169000000Y-117620000D03*
X169000000Y-120160000D03*
%TD*%
D30*
%TO.C,R1*%
X158500000Y-114010000D03*
X158500000Y-112990000D03*
%TD*%
D31*
%TO.C,D5*%
X163983960Y-89266412D03*
X163983960Y-90841412D03*
%TD*%
D30*
%TO.C,R3*%
X164250000Y-93010000D03*
X164250000Y-91990000D03*
%TD*%
D32*
%TO.C,USBC1*%
X157600000Y-116767544D03*
X163400000Y-116767544D03*
D33*
X157300000Y-115507544D03*
D34*
X158100000Y-115507544D03*
D35*
X159250000Y-115507544D03*
X160250000Y-115507544D03*
X160750000Y-115507544D03*
X161750000Y-115507544D03*
D36*
X163700000Y-115507544D03*
X162900000Y-115507544D03*
D35*
X162250000Y-115507544D03*
X161250000Y-115507544D03*
X159750000Y-115507544D03*
X158750000Y-115507544D03*
D37*
X156170000Y-116267544D03*
D38*
X156170000Y-120447544D03*
D37*
X164830000Y-116267544D03*
D38*
X164830000Y-120447544D03*
%TD*%
D39*
%TO.C,C9*%
X165196941Y-95972327D03*
X165196941Y-95012327D03*
%TD*%
D30*
%TO.C,R5*%
X165000000Y-108500000D03*
X165000000Y-107480000D03*
%TD*%
D21*
%TO.C,SW2*%
X155500000Y-114180000D03*
X155500000Y-109820000D03*
%TD*%
D40*
%TO.C,U2*%
X160050001Y-112499999D03*
X161000001Y-112499999D03*
X161950001Y-112500001D03*
X161949999Y-110225001D03*
X160999999Y-110225001D03*
X160049999Y-110224999D03*
%TD*%
D41*
%TO.C,F1*%
X161985000Y-107000000D03*
X161015000Y-107000000D03*
%TD*%
D19*
%TO.C,C14*%
X156500000Y-107520000D03*
X156500000Y-108480000D03*
%TD*%
D39*
%TO.C,C8*%
X158239435Y-105123922D03*
X158239435Y-104163922D03*
%TD*%
D42*
%TO.C,R6*%
X156990000Y-73000000D03*
X158010000Y-73000000D03*
%TD*%
%LPD*%
M02*
