%TF.GenerationSoftware,KiCad,Pcbnew,10.0.4*%
%TF.CreationDate,2026-06-30T23:48:36-07:00*%
%TF.ProjectId,esp32-breadboard-board,65737033-322d-4627-9265-6164626f6172,rev?*%
%TF.SameCoordinates,Original*%
%TF.FileFunction,Copper,L2,Bot*%
%TF.FilePolarity,Positive*%
%FSLAX46Y46*%
G04 Gerber Fmt 4.6, Leading zero omitted, Abs format (unit mm)*
G04 Created by KiCad (PCBNEW 10.0.4) date 2026-06-30 23:48:36*
%MOMM*%
%LPD*%
G01*
G04 APERTURE LIST*
G04 Aperture macros list*
%AMRoundRect*
0 Rectangle with rounded corners*
0 $1 Rounding radius*
0 $2 $3 $4 $5 $6 $7 $8 $9 X,Y pos of 4 corners*
0 Add a 4 corners polygon primitive as box body*
4,1,4,$2,$3,$4,$5,$6,$7,$8,$9,$2,$3,0*
0 Add four circle primitives for the rounded corners*
1,1,$1+$1,$2,$3*
1,1,$1+$1,$4,$5*
1,1,$1+$1,$6,$7*
1,1,$1+$1,$8,$9*
0 Add four rect primitives between the rounded corners*
20,1,$1+$1,$2,$3,$4,$5,0*
20,1,$1+$1,$4,$5,$6,$7,0*
20,1,$1+$1,$6,$7,$8,$9,0*
20,1,$1+$1,$8,$9,$2,$3,0*%
G04 Aperture macros list end*
%TA.AperFunction,ComponentPad*%
%ADD10R,1.700000X1.700000*%
%TD*%
%TA.AperFunction,ComponentPad*%
%ADD11C,1.700000*%
%TD*%
%TA.AperFunction,ComponentPad*%
%ADD12C,0.400000*%
%TD*%
%TA.AperFunction,ComponentPad*%
%ADD13C,0.750000*%
%TD*%
%TA.AperFunction,ComponentPad*%
%ADD14O,1.200000X2.000000*%
%TD*%
%TA.AperFunction,ComponentPad*%
%ADD15O,1.200000X1.800000*%
%TD*%
%TA.AperFunction,SMDPad,CuDef*%
%ADD16RoundRect,0.140000X-0.140000X-0.170000X0.140000X-0.170000X0.140000X0.170000X-0.140000X0.170000X0*%
%TD*%
%TA.AperFunction,SMDPad,CuDef*%
%ADD17RoundRect,0.225000X-0.225000X-0.250000X0.225000X-0.250000X0.225000X0.250000X-0.225000X0.250000X0*%
%TD*%
%TA.AperFunction,ViaPad*%
%ADD18C,0.600000*%
%TD*%
%TA.AperFunction,Conductor*%
%ADD19C,0.200000*%
%TD*%
G04 APERTURE END LIST*
D10*
%TO.P,J2,1,Pin_1_1*%
%TO.N,GND*%
X152000000Y-71860000D03*
D11*
%TO.P,J2,2,Pin_2_2*%
%TO.N,GPIO3*%
X152000000Y-74400000D03*
%TO.P,J2,3,Pin_3_3*%
%TO.N,GPIO46*%
X152000000Y-76940000D03*
%TO.P,J2,4,Pin_4_4*%
%TO.N,GPIO9*%
X152000000Y-79480000D03*
%TO.P,J2,5,Pin_5_5*%
%TO.N,GPIO10*%
X152000000Y-82020000D03*
%TO.P,J2,6,Pin_6_6*%
%TO.N,GPIO11*%
X152000000Y-84560000D03*
%TO.P,J2,7,Pin_7_7*%
%TO.N,GPIO12*%
X152000000Y-87100000D03*
%TO.P,J2,8,Pin_8_8*%
%TO.N,GPIO8*%
X152000000Y-89640000D03*
%TO.P,J2,9,Pin_9_9*%
%TO.N,GPIO18*%
X152000000Y-92180000D03*
%TO.P,J2,10,Pin_10_10*%
%TO.N,GPIO17*%
X152000000Y-94720000D03*
%TO.P,J2,11,Pin_11_11*%
%TO.N,GPIO16*%
X152000000Y-97260000D03*
%TO.P,J2,12,Pin_12_12*%
%TO.N,GPIO15*%
X152000000Y-99800000D03*
%TO.P,J2,13,Pin_13_13*%
%TO.N,GPIO7*%
X152000000Y-102340000D03*
%TO.P,J2,14,Pin_14_14*%
%TO.N,GPIO6*%
X152000000Y-104880000D03*
%TO.P,J2,15,Pin_15_15*%
%TO.N,GPIO5*%
X152000000Y-107420000D03*
%TO.P,J2,16,Pin_16_16*%
%TO.N,GPIO4*%
X152000000Y-109960000D03*
%TO.P,J2,17,Pin_17_17*%
%TO.N,/CHIP_PU*%
X152000000Y-112500000D03*
%TO.P,J2,18,Pin_18_18*%
%TO.N,ESP_3V3*%
X152000000Y-115040000D03*
%TO.P,J2,19,Pin_19_19*%
X152000000Y-117580000D03*
%TO.P,J2,20,Pin_20_20*%
%TO.N,GND*%
X152000000Y-120120000D03*
%TD*%
D12*
%TO.P,U1,41,GND_41*%
%TO.N,GND*%
X157600000Y-57890000D03*
X157600000Y-59290000D03*
X158300000Y-57190000D03*
X158300000Y-58590000D03*
X158300000Y-59990000D03*
X159000000Y-57890000D03*
X159000000Y-59290000D03*
X159700000Y-57190000D03*
X159700000Y-58590000D03*
X159700000Y-59990000D03*
X160400000Y-57890000D03*
X160400000Y-59290000D03*
%TD*%
D10*
%TO.P,J3,1,Pin_1_1*%
%TO.N,GPIO45*%
X169000000Y-71900000D03*
D11*
%TO.P,J3,2,Pin_2_2*%
%TO.N,GPIO48*%
X169000000Y-74440000D03*
%TO.P,J3,3,Pin_3_3*%
%TO.N,GPIO47*%
X169000000Y-76980000D03*
%TO.P,J3,4,Pin_4_4*%
%TO.N,GPIO21*%
X169000000Y-79520000D03*
%TO.P,J3,5,Pin_5_5*%
%TO.N,GPIO14*%
X169000000Y-82060000D03*
%TO.P,J3,6,Pin_6_6*%
%TO.N,GPIO13*%
X169000000Y-84600000D03*
%TO.P,J3,7,Pin_7_7*%
%TO.N,GPIO35*%
X169000000Y-87140000D03*
%TO.P,J3,8,Pin_8_8*%
%TO.N,GPIO36*%
X169000000Y-89680000D03*
%TO.P,J3,9,Pin_9_9*%
%TO.N,GPIO37*%
X169000000Y-92220000D03*
%TO.P,J3,10,Pin_10_10*%
%TO.N,GPIO38*%
X169000000Y-94760000D03*
%TO.P,J3,11,Pin_11_11*%
%TO.N,GPIO39*%
X169000000Y-97300000D03*
%TO.P,J3,12,Pin_12_12*%
%TO.N,GPIO40*%
X169000000Y-99840000D03*
%TO.P,J3,13,Pin_13_13*%
%TO.N,GPIO41*%
X169000000Y-102380000D03*
%TO.P,J3,14,Pin_14_14*%
%TO.N,GPIO42*%
X169000000Y-104920000D03*
%TO.P,J3,15,Pin_15_15*%
%TO.N,U0RXD*%
X169000000Y-107460000D03*
%TO.P,J3,16,Pin_16_16*%
%TO.N,U0TXD*%
X169000000Y-110000000D03*
%TO.P,J3,17,Pin_17_17*%
%TO.N,GPIO2*%
X169000000Y-112540000D03*
%TO.P,J3,18,Pin_18_18*%
%TO.N,GPIO1*%
X169000000Y-115080000D03*
%TO.P,J3,19,Pin_19_19*%
%TO.N,VCC_5V*%
X169000000Y-117620000D03*
%TO.P,J3,20,Pin_20_20*%
%TO.N,GND*%
X169000000Y-120160000D03*
%TD*%
D13*
%TO.P,USBC1,*%
%TO.N,*%
X157600000Y-116767544D03*
X163400000Y-116767544D03*
D14*
%TO.P,USBC1,GND*%
%TO.N,N/C*%
X156170000Y-116267544D03*
D15*
X156170000Y-120447544D03*
D14*
X164830000Y-116267544D03*
D15*
X164830000Y-120447544D03*
%TD*%
D16*
%TO.P,C12,1*%
%TO.N,ESP_3V3*%
X154040000Y-53500000D03*
%TO.P,C12,2*%
%TO.N,GND*%
X155000000Y-53500000D03*
%TD*%
D17*
%TO.P,C11,1*%
%TO.N,ESP_3V3*%
X154324695Y-52253318D03*
%TO.P,C11,2*%
%TO.N,GND*%
X155874695Y-52253318D03*
%TD*%
D18*
%TO.N,GND*%
X158364452Y-67530000D03*
X159500000Y-77500000D03*
X165000000Y-52000000D03*
X159500000Y-52000000D03*
X159500000Y-82500000D03*
X155000000Y-51000000D03*
X162500000Y-96000000D03*
X158500000Y-94500000D03*
X168000000Y-51000000D03*
X154500000Y-118500000D03*
X163000000Y-57000000D03*
X158500000Y-107000000D03*
X163000000Y-111500000D03*
X155000000Y-115000000D03*
X161000000Y-66334126D03*
X166500000Y-119500000D03*
X159500000Y-72000000D03*
%TO.N,GPIO0*%
X165937157Y-108000000D03*
X162500000Y-67000000D03*
%TO.N,GPIO8*%
X152821894Y-65287924D03*
%TO.N,GPIO18*%
X152525562Y-63931834D03*
%TO.N,GPIO17*%
X152727846Y-62802534D03*
%TO.N,GPIO16*%
X153000000Y-62000000D03*
%TO.N,GPIO15*%
X152750000Y-60250000D03*
%TO.N,GPIO7*%
X152562218Y-58867269D03*
%TO.N,GPIO6*%
X153000000Y-58000000D03*
%TO.N,GPIO5*%
X153565687Y-57434313D03*
%TO.N,GPIO4*%
X153000000Y-55500000D03*
%TO.N,/CHIP_PU*%
X153000000Y-111500000D03*
X157000000Y-72000000D03*
X152950735Y-54549265D03*
X154600000Y-111000000D03*
X157500000Y-91000000D03*
%TO.N,ESP_3V3*%
X153000000Y-52500000D03*
X158000000Y-71500000D03*
%TO.N,D-*%
X159570044Y-66915553D03*
X160000000Y-109000000D03*
%TO.N,D+*%
X158402981Y-66720000D03*
X162000000Y-109000000D03*
%TO.N,GPIO35*%
X168000000Y-66500000D03*
%TO.N,GPIO36*%
X168000000Y-65500000D03*
%TO.N,GPIO37*%
X168000000Y-64500000D03*
%TO.N,GPIO38*%
X168000000Y-63000000D03*
%TO.N,GPIO39*%
X168000000Y-62000000D03*
%TO.N,GPIO40*%
X168000000Y-60500000D03*
%TO.N,GPIO41*%
X168000000Y-59500000D03*
%TO.N,GPIO42*%
X168000000Y-58000000D03*
%TO.N,U0RXD*%
X168000000Y-57000000D03*
%TO.N,U0TXD*%
X168000000Y-55500000D03*
%TO.N,GPIO2*%
X168000000Y-54000000D03*
%TO.N,GPIO1*%
X168000000Y-53000000D03*
%TD*%
%TO.N,GND*%
D19*
X155000000Y-51378623D02*
X155874695Y-52253318D01*
X155000000Y-51000000D02*
X155000000Y-51378623D01*
X159212576Y-70169749D02*
X159212576Y-68378124D01*
X159212576Y-68378124D02*
X158364452Y-67530000D01*
%TO.N,GPIO0*%
X164981473Y-102321272D02*
X164981471Y-100346957D01*
X163000000Y-67500000D02*
X162500000Y-67000000D01*
X164981471Y-100346957D02*
X164440103Y-99805589D01*
X165215788Y-102555588D02*
X164981473Y-102321272D01*
X164190102Y-98415685D02*
X164190100Y-95606959D01*
X164440102Y-98665686D02*
X164190102Y-98415685D01*
X165937157Y-108000000D02*
X166000000Y-107937157D01*
X166000000Y-107937157D02*
X166000000Y-107288429D01*
X165450101Y-106738530D02*
X165450101Y-104778529D01*
X165450101Y-104778529D02*
X165215788Y-104544215D01*
X163400000Y-94816859D02*
X163400000Y-90944112D01*
X164190100Y-95606959D02*
X163400000Y-94816859D01*
X163000000Y-90544111D02*
X163000000Y-67500000D01*
X163400000Y-90944112D02*
X163000000Y-90544111D01*
X166000000Y-107288429D02*
X165450101Y-106738530D01*
X165215788Y-104544215D02*
X165215788Y-102555588D01*
X164440103Y-99805589D02*
X164440102Y-98665686D01*
%TO.N,GPIO8*%
X153150000Y-66150000D02*
X153150000Y-88490000D01*
X153150000Y-88490000D02*
X152000000Y-89640000D01*
X153000000Y-66000000D02*
X153150000Y-66150000D01*
X152821894Y-65287924D02*
X153000000Y-65466030D01*
X153000000Y-65466030D02*
X153000000Y-66000000D01*
%TO.N,GPIO18*%
X153400000Y-65558347D02*
X153421894Y-65536453D01*
X153000000Y-64687924D02*
X153000000Y-64151471D01*
X152780363Y-63931834D02*
X152525562Y-63931834D01*
X153070423Y-64687924D02*
X153000000Y-64687924D01*
X153400000Y-65834314D02*
X153400000Y-65558347D01*
X153421894Y-65536453D02*
X153421894Y-65039395D01*
X153096016Y-89109670D02*
X153550000Y-88655686D01*
X152500000Y-91680000D02*
X152500000Y-90766346D01*
X153150000Y-89163654D02*
X153096016Y-89109670D01*
X153000000Y-64151471D02*
X152780363Y-63931834D01*
X153550000Y-65984314D02*
X153400000Y-65834314D01*
X153421894Y-65039395D02*
X153070423Y-64687924D01*
X152500000Y-90766346D02*
X153150000Y-90116346D01*
X153550000Y-88655686D02*
X153550000Y-65984314D01*
X153150000Y-90116346D02*
X153150000Y-89163654D01*
%TO.N,GPIO17*%
X152000000Y-94720000D02*
X153220000Y-93500000D01*
X153220000Y-91525686D02*
X154000000Y-90745686D01*
X153220000Y-93500000D02*
X153220000Y-91525686D01*
X153500000Y-64500000D02*
X153500000Y-63574688D01*
X154000000Y-90745686D02*
X154000000Y-65678106D01*
X153821894Y-65500000D02*
X153821894Y-64821894D01*
X154000000Y-65678106D02*
X153821894Y-65500000D01*
X153821894Y-64821894D02*
X153500000Y-64500000D01*
X153500000Y-63574688D02*
X152727846Y-62802534D01*
%TO.N,GPIO16*%
X153620000Y-91691371D02*
X153620000Y-93880000D01*
X153000000Y-62000000D02*
X154000000Y-63000000D01*
X154000000Y-63000000D02*
X154000000Y-64000000D01*
X153620000Y-93880000D02*
X153500000Y-94000000D01*
X154000000Y-64000000D02*
X154221894Y-64221894D01*
X154221894Y-65000000D02*
X154400000Y-65178106D01*
X154400000Y-65178106D02*
X154400000Y-90911371D01*
X153500000Y-95760000D02*
X152000000Y-97260000D01*
X153500000Y-94000000D02*
X153500000Y-95760000D01*
X154221894Y-64221894D02*
X154221894Y-65000000D01*
X154400000Y-90911371D02*
X153620000Y-91691371D01*
%TO.N,GPIO15*%
X154020000Y-92000000D02*
X154020000Y-94380000D01*
X154400000Y-63500000D02*
X154643790Y-63743790D01*
X153600000Y-61751471D02*
X153600000Y-62034314D01*
X153500000Y-98300000D02*
X152000000Y-99800000D01*
X154020000Y-94380000D02*
X153900000Y-94500000D01*
X154800000Y-65012421D02*
X154800000Y-91220000D01*
X153900000Y-96100000D02*
X153500000Y-96500000D01*
X154800000Y-91220000D02*
X154020000Y-92000000D01*
X154400000Y-62834315D02*
X154400000Y-63500000D01*
X153600000Y-62034314D02*
X154400000Y-62834315D01*
X153900000Y-94500000D02*
X153900000Y-96100000D01*
X152750000Y-60250000D02*
X152750000Y-60901471D01*
X153500000Y-96500000D02*
X153500000Y-98300000D01*
X154643790Y-63743790D02*
X154643790Y-64856210D01*
X154643790Y-64856210D02*
X154800000Y-65012421D01*
X152750000Y-60901471D02*
X153600000Y-61751471D01*
%TO.N,GPIO7*%
X154565686Y-62434314D02*
X154800000Y-62668630D01*
X153500000Y-59805051D02*
X153500000Y-61000000D01*
X153900000Y-98465686D02*
X153500000Y-98865685D01*
X154000000Y-61868628D02*
X154565686Y-62434314D01*
X154420000Y-94545686D02*
X154300000Y-94665685D01*
X154420000Y-92165686D02*
X154420000Y-94545686D01*
X155200000Y-91385686D02*
X154420000Y-92165686D01*
X153500000Y-98865685D02*
X153500000Y-100840000D01*
X155043790Y-62912420D02*
X155043790Y-64500000D01*
X153900000Y-96665685D02*
X153900000Y-98465686D01*
X153500000Y-61000000D02*
X154000000Y-61500000D01*
X155199999Y-70000000D02*
X155200000Y-91385686D01*
X154800000Y-62668630D02*
X155043790Y-62912420D01*
X155043790Y-64500000D02*
X155200000Y-64656210D01*
X152562218Y-58867269D02*
X153500000Y-59805051D01*
X155200000Y-64656210D02*
X155199999Y-70000000D01*
X154000000Y-61500000D02*
X154000000Y-61868628D01*
X154300000Y-94665685D02*
X154300000Y-96265686D01*
X153500000Y-100840000D02*
X152000000Y-102340000D01*
X154300000Y-96265686D02*
X153900000Y-96665685D01*
%TO.N,GPIO6*%
X155500000Y-64390524D02*
X155600000Y-64490525D01*
X154819999Y-94880001D02*
X154700000Y-95000000D01*
X155600000Y-91720000D02*
X154820000Y-92500000D01*
X154032843Y-59032843D02*
X154032843Y-60967157D01*
X153000000Y-58000000D02*
X154032843Y-59032843D01*
X154300000Y-97000000D02*
X154299999Y-98631372D01*
X154032843Y-60967157D02*
X155500000Y-62434314D01*
X154065685Y-98865686D02*
X154065685Y-100934315D01*
X155500000Y-62434314D02*
X155500000Y-64390524D01*
X155600000Y-64490525D02*
X155600000Y-91720000D01*
X154065685Y-100934315D02*
X153500000Y-101500000D01*
X154820000Y-92500000D02*
X154819999Y-94880001D01*
X154699999Y-96600001D02*
X154300000Y-97000000D01*
X154700000Y-95000000D02*
X154699999Y-96600001D01*
X154299999Y-98631372D02*
X154065685Y-98865686D01*
X153500000Y-101500000D02*
X153500000Y-103380000D01*
X153500000Y-103380000D02*
X152000000Y-104880000D01*
%TO.N,GPIO5*%
X154465684Y-99031372D02*
X154465685Y-101100001D01*
X154700000Y-97500000D02*
X154699999Y-98797058D01*
X153900000Y-101665686D02*
X153900000Y-103600000D01*
X153900000Y-103600000D02*
X153500000Y-104000000D01*
X155220000Y-96980000D02*
X154700000Y-97500000D01*
X153565687Y-57434313D02*
X154500000Y-58368626D01*
X156000000Y-62000000D02*
X156000000Y-91885686D01*
X153500000Y-104000000D02*
X153500000Y-105920000D01*
X154500000Y-60500000D02*
X156000000Y-62000000D01*
X155220000Y-92665686D02*
X155220000Y-96980000D01*
X154699999Y-98797058D02*
X154465684Y-99031372D01*
X154500000Y-58368626D02*
X154500000Y-60500000D01*
X156000000Y-91885686D02*
X155220000Y-92665686D01*
X153900000Y-101665686D02*
X154465685Y-101100001D01*
X153500000Y-105920000D02*
X152000000Y-107420000D01*
%TO.N,GPIO4*%
X156400000Y-92051372D02*
X155620000Y-92831372D01*
X154397055Y-101734315D02*
X154397055Y-103668631D01*
X153900000Y-104165685D02*
X153900000Y-108060000D01*
X154900000Y-57400000D02*
X154900000Y-60334314D01*
X154865684Y-101265687D02*
X154397055Y-101734315D01*
X155620000Y-92831372D02*
X155620000Y-97145686D01*
X155100000Y-97665686D02*
X155099998Y-98962744D01*
X155620000Y-97145686D02*
X155100000Y-97665686D01*
X154865684Y-99197058D02*
X154865684Y-101265687D01*
X156400000Y-61834315D02*
X156400000Y-92051372D01*
X154397055Y-103668631D02*
X153900000Y-104165685D01*
X153900000Y-108060000D02*
X152000000Y-109960000D01*
X155099998Y-98962744D02*
X154865684Y-99197058D01*
X153000000Y-55500000D02*
X154900000Y-57400000D01*
X154900000Y-60334314D02*
X156400000Y-61834315D01*
%TO.N,/CHIP_PU*%
X153000000Y-111500000D02*
X153500000Y-111000000D01*
X153500000Y-111000000D02*
X154600000Y-111000000D01*
X152967157Y-54532843D02*
X152950735Y-54549265D01*
X156020000Y-109580000D02*
X154600000Y-111000000D01*
X157000000Y-72000000D02*
X157000000Y-61868629D01*
X155300000Y-60168628D02*
X155300000Y-56865686D01*
X156020000Y-93000000D02*
X156020000Y-109580000D01*
X157500000Y-91520000D02*
X156020000Y-93000000D01*
X157000000Y-61868629D02*
X155300000Y-60168628D01*
X155300000Y-56865686D02*
X152967157Y-54532843D01*
X157500000Y-91000000D02*
X157500000Y-91520000D01*
%TO.N,ESP_3V3*%
X158000000Y-70500000D02*
X157500000Y-70000000D01*
X153000000Y-52500000D02*
X154078013Y-52500000D01*
X154000000Y-53500000D02*
X153000000Y-52500000D01*
X153000000Y-53750000D02*
X153000000Y-52500000D01*
X156000000Y-60000000D02*
X156000000Y-56750000D01*
X158000000Y-71500000D02*
X158000000Y-70500000D01*
X157500000Y-61500000D02*
X156000000Y-60000000D01*
X157500000Y-70000000D02*
X157500000Y-61500000D01*
X156000000Y-56750000D02*
X153000000Y-53750000D01*
%TO.N,D-*%
X161500000Y-89000000D02*
X161500000Y-73000000D01*
X160500000Y-90000000D02*
X161500000Y-89000000D01*
X160775000Y-108225000D02*
X160775000Y-90775000D01*
X160775000Y-90775000D02*
X160500000Y-90500000D01*
X161500000Y-69000000D02*
X161500000Y-71000000D01*
X162500000Y-72000000D02*
X161500000Y-73000000D01*
X160000000Y-109000000D02*
X160775000Y-108225000D01*
X159570044Y-67070044D02*
X161500000Y-69000000D01*
X160500000Y-90500000D02*
X160500000Y-90000000D01*
X159570044Y-66915553D02*
X159570044Y-67070044D01*
X161500000Y-71000000D02*
X162500000Y-72000000D01*
%TO.N,D+*%
X161225000Y-108225000D02*
X162000000Y-109000000D01*
X158402981Y-66720000D02*
X159182981Y-67500000D01*
X161500000Y-90500000D02*
X161225000Y-90775000D01*
X159434314Y-67500000D02*
X160500000Y-68565686D01*
X160500000Y-68565686D02*
X160500000Y-88500000D01*
X161500000Y-90000000D02*
X161500000Y-90500000D01*
X159182981Y-67500000D02*
X159434314Y-67500000D01*
X161225000Y-90775000D02*
X161225000Y-108225000D01*
%TO.N,GPIO35*%
X167850000Y-86500000D02*
X167850000Y-66650000D01*
X167850000Y-66650000D02*
X168000000Y-66500000D01*
X168490000Y-87140000D02*
X167850000Y-86500000D01*
%TO.N,GPIO36*%
X167400000Y-66251471D02*
X167751471Y-65900000D01*
X167751471Y-65900000D02*
X168000000Y-65900000D01*
X167400000Y-66748529D02*
X167400000Y-66251471D01*
X167450000Y-88130000D02*
X167450000Y-66798529D01*
X169000000Y-89680000D02*
X167450000Y-88130000D01*
X168000000Y-65900000D02*
X168000000Y-65500000D01*
X167450000Y-66798529D02*
X167400000Y-66748529D01*
%TO.N,GPIO37*%
X167000000Y-66914215D02*
X167050000Y-66964215D01*
X167050000Y-88861372D02*
X167450000Y-89261372D01*
X167400000Y-65685786D02*
X167000000Y-66085786D01*
X167050000Y-66964215D02*
X167050000Y-88861372D01*
X167000000Y-66085786D02*
X167000000Y-66914215D01*
X169000000Y-92220000D02*
X167450000Y-90670000D01*
X167500000Y-65000000D02*
X167500000Y-65151471D01*
X168000000Y-64500000D02*
X167500000Y-65000000D01*
X167400000Y-65251471D02*
X167400000Y-65685786D01*
X167450000Y-90670000D02*
X167450000Y-89261372D01*
X167500000Y-65151471D02*
X167400000Y-65251471D01*
%TO.N,GPIO38*%
X167000000Y-64934314D02*
X167000000Y-65417157D01*
X166650000Y-67129901D02*
X166650000Y-89027058D01*
X168000000Y-63651471D02*
X167400000Y-64251471D01*
X167000000Y-65417157D02*
X166600000Y-65817157D01*
X167050000Y-89427057D02*
X167050000Y-92810000D01*
X166650000Y-89027058D02*
X167050000Y-89427057D01*
X167400000Y-64534314D02*
X167000000Y-64934314D01*
X168000000Y-63000000D02*
X168000000Y-63651471D01*
X166600000Y-65817157D02*
X166600000Y-67079901D01*
X169000000Y-94760000D02*
X167050000Y-92810000D01*
X167400000Y-64251471D02*
X167400000Y-64534314D01*
X166600000Y-67079901D02*
X166650000Y-67129901D01*
%TO.N,GPIO39*%
X166200000Y-89142743D02*
X166650000Y-89592743D01*
X166600000Y-65251471D02*
X166200000Y-65651472D01*
X167400000Y-62600000D02*
X167400000Y-63685785D01*
X167437157Y-94328528D02*
X167437157Y-96302843D01*
X166650000Y-93541372D02*
X167437157Y-94328528D01*
X166600000Y-64768629D02*
X166600000Y-65251471D01*
X167400000Y-63685785D02*
X166934314Y-64151472D01*
X168000000Y-62000000D02*
X167400000Y-62600000D01*
X166200000Y-65651472D02*
X166200000Y-89142743D01*
X166934314Y-64151472D02*
X166934314Y-64434314D01*
X166934314Y-64434314D02*
X166600000Y-64768629D01*
X166650000Y-89592743D02*
X166650000Y-93541372D01*
X167437157Y-96302843D02*
X168434314Y-97300000D01*
%TO.N,GPIO40*%
X167271472Y-98677158D02*
X168434314Y-99840000D01*
X166200000Y-64300000D02*
X166200001Y-65085785D01*
X167037157Y-94494214D02*
X167037158Y-96468529D01*
X168000000Y-60500000D02*
X167400000Y-61100000D01*
X167271472Y-96702843D02*
X167271472Y-98677158D01*
X166200001Y-65085785D02*
X165800000Y-65485787D01*
X167000000Y-62400000D02*
X167000000Y-63500000D01*
X167000000Y-63500000D02*
X166200000Y-64300000D01*
X167400000Y-61100000D02*
X167400000Y-62000000D01*
X167037158Y-96468529D02*
X167271472Y-96702843D01*
X166250000Y-89758429D02*
X166250000Y-93707058D01*
X165800000Y-65485787D02*
X165800000Y-89308429D01*
X166250000Y-93707058D02*
X167037157Y-94494214D01*
X167400000Y-62000000D02*
X167000000Y-62400000D01*
X165800000Y-89308429D02*
X166250000Y-89758429D01*
%TO.N,GPIO41*%
X166600000Y-62234315D02*
X166600000Y-63334314D01*
X165800001Y-64920100D02*
X165400000Y-65320102D01*
X168000000Y-59500000D02*
X167400000Y-60100000D01*
X168434314Y-102380000D02*
X167397157Y-101342843D01*
X166871472Y-97000000D02*
X166871472Y-98842844D01*
X166600000Y-63334314D02*
X165800000Y-64134315D01*
X166871472Y-98842844D02*
X167397157Y-99368529D01*
X165400000Y-65320102D02*
X165400000Y-89550000D01*
X166637157Y-94659900D02*
X166637158Y-96765686D01*
X166917157Y-60982843D02*
X166917157Y-61917157D01*
X165400000Y-89550000D02*
X165850000Y-90000000D01*
X166637158Y-96765686D02*
X166871472Y-97000000D01*
X167397157Y-99368529D02*
X167397157Y-101342843D01*
X167400000Y-60500000D02*
X166917157Y-60982843D01*
X165850000Y-90000000D02*
X165850000Y-93872744D01*
X165850000Y-93872744D02*
X166637157Y-94659900D01*
X167400000Y-60100000D02*
X167400000Y-60500000D01*
X166917157Y-61917157D02*
X166600000Y-62234315D01*
X165800000Y-64134315D02*
X165800001Y-64920100D01*
%TO.N,GPIO42*%
X165000000Y-89715686D02*
X165450000Y-90165686D01*
X166500000Y-61768629D02*
X166200000Y-62068630D01*
X166917157Y-60417157D02*
X166500000Y-60834315D01*
X165450000Y-94038430D02*
X166205786Y-94794215D01*
X166200000Y-62068630D02*
X166200000Y-63168628D01*
X166200000Y-63168628D02*
X165400000Y-63968630D01*
X167231472Y-101742843D02*
X167231472Y-103731472D01*
X166471472Y-99008530D02*
X166981471Y-99518529D01*
X165000000Y-65154417D02*
X165000000Y-89715686D01*
X167400000Y-59500000D02*
X166917157Y-59982843D01*
X166981471Y-101492843D02*
X167231472Y-101742843D01*
X166205786Y-96900000D02*
X166471473Y-97165686D01*
X166500000Y-60834315D02*
X166500000Y-61768629D01*
X168000000Y-58000000D02*
X167400000Y-58600000D01*
X167231472Y-103731472D02*
X168420000Y-104920000D01*
X166917157Y-59982843D02*
X166917157Y-60417157D01*
X165400001Y-64754416D02*
X165000000Y-65154417D01*
X166205786Y-94794215D02*
X166205786Y-96900000D01*
X166471473Y-97165686D02*
X166471472Y-99008530D01*
X165400000Y-63968630D02*
X165400001Y-64754416D01*
X165450000Y-90165686D02*
X165450000Y-94038430D01*
X167400000Y-58600000D02*
X167400000Y-59500000D01*
X166981471Y-99518529D02*
X166981471Y-101492843D01*
%TO.N,U0RXD*%
X166100001Y-61500000D02*
X165800000Y-61800001D01*
X164600000Y-89881371D02*
X165000000Y-90281372D01*
X166581472Y-101658529D02*
X166815786Y-101892843D01*
X165805787Y-97734314D02*
X166071473Y-98000000D01*
X165800000Y-61800001D02*
X165800000Y-63002943D01*
X166917157Y-58082843D02*
X166917157Y-59417157D01*
X166071473Y-98000000D02*
X166071472Y-99174216D01*
X166917157Y-59417157D02*
X166384315Y-59950000D01*
X166815786Y-101892843D02*
X166815786Y-103881472D01*
X165805786Y-94959901D02*
X165805787Y-97734314D01*
X165000000Y-94154116D02*
X165805786Y-94959901D01*
X166071472Y-99174216D02*
X166581471Y-99684215D01*
X167100000Y-104165685D02*
X167100000Y-106125686D01*
X166100000Y-60668630D02*
X166100001Y-61500000D01*
X166384315Y-60384315D02*
X166100000Y-60668630D01*
X165800000Y-63002943D02*
X165000000Y-63802945D01*
X165000001Y-64500001D02*
X164600000Y-64900002D01*
X166581471Y-99684215D02*
X166581472Y-101658529D01*
X166815786Y-103881472D02*
X167100000Y-104165685D01*
X166384315Y-59950000D02*
X166384315Y-60384315D01*
X168000000Y-57000000D02*
X166917157Y-58082843D01*
X165000000Y-63802945D02*
X165000001Y-64500001D01*
X167100000Y-106125686D02*
X168434314Y-107460000D01*
X164600000Y-64900002D02*
X164600000Y-89881371D01*
X165000000Y-90281372D02*
X165000000Y-94154116D01*
%TO.N,U0TXD*%
X166650101Y-106241473D02*
X167337157Y-106928528D01*
X168000000Y-56151471D02*
X167400000Y-56751471D01*
X167400000Y-56751471D02*
X167400000Y-57034314D01*
X166181471Y-99849900D02*
X166181472Y-101824215D01*
X166181472Y-101824215D02*
X166415786Y-102058529D01*
X165390100Y-95109901D02*
X165390100Y-97884313D01*
X164600000Y-63637260D02*
X164600001Y-64334315D01*
X164600000Y-94319802D02*
X165390100Y-95109901D01*
X166415786Y-102058529D02*
X166415787Y-104047158D01*
X167337157Y-106928528D02*
X167337157Y-108902843D01*
X165390100Y-97884313D02*
X165640102Y-98134314D01*
X166517157Y-59251472D02*
X165984315Y-59784315D01*
X165400000Y-62837258D02*
X164600000Y-63637260D01*
X164200000Y-64734317D02*
X164200000Y-90047056D01*
X165700000Y-60284315D02*
X165700001Y-61334314D01*
X165984315Y-60000000D02*
X165700000Y-60284315D01*
X166650101Y-104281472D02*
X166650101Y-106241473D01*
X167400000Y-57034314D02*
X166517157Y-57917158D01*
X166517157Y-57917158D02*
X166517157Y-59251472D01*
X165640102Y-98134314D02*
X165640102Y-99308532D01*
X165400000Y-61634316D02*
X165400000Y-62837258D01*
X168000000Y-55500000D02*
X168000000Y-56151471D01*
X164600001Y-64334315D02*
X164200000Y-64734317D01*
X164200000Y-90047056D02*
X164600000Y-90447057D01*
X165984315Y-59784315D02*
X165984315Y-60000000D01*
X165700001Y-61334314D02*
X165400000Y-61634316D01*
X165640102Y-99308532D02*
X166181471Y-99849900D01*
X167337157Y-108902843D02*
X168434315Y-110000000D01*
X166415787Y-104047158D02*
X166650101Y-104281472D01*
X164600000Y-90447057D02*
X164600000Y-94319802D01*
%TO.N,GPIO2*%
X164990101Y-98049999D02*
X165240102Y-98299999D01*
X166015787Y-104212844D02*
X166250102Y-104447158D01*
X166015786Y-102224214D02*
X166015787Y-104212844D01*
X167292893Y-55207107D02*
X167292893Y-56292893D01*
X165459315Y-59743629D02*
X165459315Y-59959315D01*
X164200000Y-90612742D02*
X164200000Y-94485488D01*
X165000000Y-61468631D02*
X165000000Y-62671573D01*
X165300000Y-61168630D02*
X165000000Y-61468631D01*
X163800000Y-64568632D02*
X163800000Y-90212741D01*
X163800000Y-90212741D02*
X164200000Y-90612742D01*
X165459315Y-59959315D02*
X165300000Y-60118630D01*
X166117157Y-59085787D02*
X165459315Y-59743629D01*
X166937157Y-107094214D02*
X166937157Y-109120000D01*
X165240102Y-98299999D02*
X165240103Y-99474218D01*
X168000000Y-54500000D02*
X167292893Y-55207107D01*
X164184316Y-63487259D02*
X164184316Y-64184316D01*
X166117157Y-57751473D02*
X166117157Y-59085787D01*
X167317157Y-109500000D02*
X167317157Y-111422843D01*
X165781472Y-101989901D02*
X166015786Y-102224214D01*
X167317157Y-111422843D02*
X168434315Y-112540000D01*
X167292893Y-56292893D02*
X167000000Y-56585786D01*
X166937157Y-109120000D02*
X167317157Y-109500000D01*
X165300000Y-60118630D02*
X165300000Y-61168630D01*
X164990100Y-95275587D02*
X164990101Y-98049999D01*
X166250101Y-106407159D02*
X166937157Y-107094214D01*
X168000000Y-54000000D02*
X168000000Y-54500000D01*
X167000000Y-56868628D02*
X166117157Y-57751473D01*
X165781471Y-100015586D02*
X165781472Y-101989901D01*
X164184316Y-64184316D02*
X163800000Y-64568632D01*
X165240103Y-99474218D02*
X165781471Y-100015586D01*
X165000000Y-62671573D02*
X164184316Y-63487259D01*
X166250102Y-104447158D02*
X166250101Y-106407159D01*
X164200000Y-94485488D02*
X164990100Y-95275587D01*
X167000000Y-56585786D02*
X167000000Y-56868628D01*
%TO.N,GPIO1*%
X166917158Y-111620000D02*
X167297158Y-112000000D01*
X163800000Y-94651174D02*
X164590100Y-95441273D01*
X168000000Y-53000000D02*
X167400000Y-53600000D01*
X165850101Y-106572845D02*
X166537157Y-107259900D01*
X165381473Y-102155587D02*
X165615787Y-102389901D01*
X164840103Y-99639904D02*
X165381471Y-100181271D01*
X167297158Y-113942844D02*
X168434314Y-115080000D01*
X166892893Y-56127207D02*
X166600000Y-56420101D01*
X166600000Y-56420101D02*
X166600000Y-56702943D01*
X164590102Y-98250000D02*
X164840102Y-98500000D01*
X164600000Y-61300000D02*
X164600000Y-62500000D01*
X164900000Y-59737258D02*
X164900000Y-61000000D01*
X166600000Y-56702943D02*
X165717157Y-57585788D01*
X163400000Y-63700000D02*
X163400000Y-90378426D01*
X165717157Y-58920101D02*
X164900000Y-59737258D01*
X164840102Y-98500000D02*
X164840103Y-99639904D01*
X165717157Y-57585788D02*
X165717157Y-58920101D01*
X166917157Y-109665686D02*
X166917158Y-111620000D01*
X167400000Y-53600000D02*
X167400000Y-54534315D01*
X164600000Y-62500000D02*
X163400000Y-63700000D01*
X163800000Y-90778426D02*
X163800000Y-94651174D01*
X167297158Y-112000000D02*
X167297158Y-113942844D01*
X165615787Y-102389901D02*
X165615788Y-104378530D01*
X165615788Y-104378530D02*
X165850102Y-104612844D01*
X166537157Y-107259900D02*
X166537157Y-109285686D01*
X165381471Y-100181271D02*
X165381473Y-102155587D01*
X164900000Y-61000000D02*
X164600000Y-61300000D01*
X167400000Y-54534315D02*
X166892893Y-55041422D01*
X166892893Y-55041422D02*
X166892893Y-56127207D01*
X163400000Y-90378426D02*
X163800000Y-90778426D01*
X164590100Y-95441273D02*
X164590102Y-98250000D01*
X165850102Y-104612844D02*
X165850101Y-106572845D01*
X166537157Y-109285686D02*
X166917157Y-109665686D01*
%TD*%
%TA.AperFunction,Conductor*%
%TO.N,GND*%
G36*
X150705703Y-118024513D02*
G01*
X150742430Y-118079906D01*
X150747072Y-118094193D01*
X150748444Y-118098414D01*
X150844951Y-118287820D01*
X150969890Y-118459786D01*
X151120213Y-118610109D01*
X151292179Y-118735048D01*
X151292181Y-118735049D01*
X151292184Y-118735051D01*
X151481588Y-118831557D01*
X151510753Y-118841033D01*
X151568426Y-118880468D01*
X151595625Y-118944826D01*
X151583712Y-119013673D01*
X151536469Y-119065149D01*
X151528730Y-119069447D01*
X151397269Y-119136431D01*
X151381466Y-119147912D01*
X151381466Y-119147913D01*
X151870591Y-119637037D01*
X151807007Y-119654075D01*
X151692993Y-119719901D01*
X151599901Y-119812993D01*
X151534075Y-119927007D01*
X151517037Y-119990590D01*
X151027913Y-119501466D01*
X151027912Y-119501466D01*
X151016432Y-119517269D01*
X150934254Y-119678547D01*
X150934251Y-119678555D01*
X150878317Y-119850706D01*
X150850000Y-120029493D01*
X150850000Y-120210506D01*
X150878317Y-120389293D01*
X150934251Y-120561444D01*
X150934252Y-120561447D01*
X151016431Y-120722730D01*
X151027913Y-120738532D01*
X151027913Y-120738533D01*
X151517037Y-120249408D01*
X151534075Y-120312993D01*
X151599901Y-120427007D01*
X151692993Y-120520099D01*
X151807007Y-120585925D01*
X151870590Y-120602962D01*
X151381466Y-121092085D01*
X151381466Y-121092086D01*
X151397267Y-121103566D01*
X151397275Y-121103571D01*
X151558552Y-121185747D01*
X151558555Y-121185748D01*
X151730706Y-121241682D01*
X151802330Y-121253027D01*
X151865465Y-121282956D01*
X151902396Y-121342268D01*
X151901398Y-121412130D01*
X151862788Y-121470363D01*
X151798825Y-121498477D01*
X151782932Y-121499500D01*
X150624500Y-121499500D01*
X150557461Y-121479815D01*
X150511706Y-121427011D01*
X150500500Y-121375500D01*
X150500500Y-118118226D01*
X150520185Y-118051187D01*
X150572989Y-118005432D01*
X150642147Y-117995488D01*
X150705703Y-118024513D01*
G37*
%TD.AperFunction*%
%TA.AperFunction,Conductor*%
G36*
X158248665Y-67505487D02*
G01*
X158312032Y-67518091D01*
X158324832Y-67520638D01*
X158386742Y-67553024D01*
X158388315Y-67554569D01*
X158814265Y-67980520D01*
X158814267Y-67980521D01*
X158814271Y-67980524D01*
X158951190Y-68059573D01*
X158951197Y-68059577D01*
X159103924Y-68100501D01*
X159134218Y-68100501D01*
X159201257Y-68120186D01*
X159221899Y-68136820D01*
X159863181Y-68778102D01*
X159896666Y-68839425D01*
X159899500Y-68865783D01*
X159899500Y-88579057D01*
X159907764Y-88609896D01*
X159940423Y-88731783D01*
X159940426Y-88731790D01*
X160019475Y-88868709D01*
X160019479Y-88868714D01*
X160019480Y-88868716D01*
X160131284Y-88980520D01*
X160131286Y-88980521D01*
X160131290Y-88980524D01*
X160268209Y-89059573D01*
X160268216Y-89059577D01*
X160315480Y-89072241D01*
X160375139Y-89108604D01*
X160405669Y-89171451D01*
X160397375Y-89240826D01*
X160371067Y-89279696D01*
X160131286Y-89519478D01*
X160019481Y-89631282D01*
X160019477Y-89631287D01*
X159978468Y-89702319D01*
X159978468Y-89702320D01*
X159940423Y-89768214D01*
X159926781Y-89819124D01*
X159899499Y-89920943D01*
X159899499Y-89920945D01*
X159899499Y-90089046D01*
X159899500Y-90089059D01*
X159899500Y-90413330D01*
X159899499Y-90413348D01*
X159899499Y-90579054D01*
X159899498Y-90579054D01*
X159934615Y-90710109D01*
X159940423Y-90731785D01*
X159960285Y-90766186D01*
X159979528Y-90799516D01*
X160019479Y-90868715D01*
X160138181Y-90987417D01*
X160171666Y-91048740D01*
X160174500Y-91075098D01*
X160174500Y-107924902D01*
X160165855Y-107954342D01*
X160159332Y-107984329D01*
X160155577Y-107989344D01*
X160154815Y-107991941D01*
X160138185Y-108012578D01*
X160062215Y-108088548D01*
X159985338Y-108165426D01*
X159924015Y-108198910D01*
X159921849Y-108199361D01*
X159766508Y-108230261D01*
X159766498Y-108230264D01*
X159620827Y-108290602D01*
X159620814Y-108290609D01*
X159489711Y-108378210D01*
X159489707Y-108378213D01*
X159378213Y-108489707D01*
X159378210Y-108489711D01*
X159290609Y-108620814D01*
X159290602Y-108620827D01*
X159230264Y-108766498D01*
X159230261Y-108766510D01*
X159199500Y-108921153D01*
X159199500Y-109078846D01*
X159230261Y-109233489D01*
X159230264Y-109233501D01*
X159290602Y-109379172D01*
X159290609Y-109379185D01*
X159378210Y-109510288D01*
X159378213Y-109510292D01*
X159489707Y-109621786D01*
X159489711Y-109621789D01*
X159620814Y-109709390D01*
X159620827Y-109709397D01*
X159757978Y-109766206D01*
X159766503Y-109769737D01*
X159921153Y-109800499D01*
X159921156Y-109800500D01*
X159921158Y-109800500D01*
X160078844Y-109800500D01*
X160078845Y-109800499D01*
X160233497Y-109769737D01*
X160379179Y-109709394D01*
X160510289Y-109621789D01*
X160621789Y-109510289D01*
X160709394Y-109379179D01*
X160769737Y-109233497D01*
X160792272Y-109120208D01*
X160800638Y-109078150D01*
X160809402Y-109061394D01*
X160813423Y-109042913D01*
X160832168Y-109017871D01*
X160833023Y-109016239D01*
X160834467Y-109014767D01*
X160912321Y-108936913D01*
X160973643Y-108903431D01*
X161043334Y-108908416D01*
X161087681Y-108936916D01*
X161165425Y-109014660D01*
X161198910Y-109075983D01*
X161199361Y-109078149D01*
X161230261Y-109233491D01*
X161230264Y-109233501D01*
X161290602Y-109379172D01*
X161290609Y-109379185D01*
X161378210Y-109510288D01*
X161378213Y-109510292D01*
X161489707Y-109621786D01*
X161489711Y-109621789D01*
X161620814Y-109709390D01*
X161620827Y-109709397D01*
X161757978Y-109766206D01*
X161766503Y-109769737D01*
X161921153Y-109800499D01*
X161921156Y-109800500D01*
X161921158Y-109800500D01*
X162078844Y-109800500D01*
X162078845Y-109800499D01*
X162233497Y-109769737D01*
X162379179Y-109709394D01*
X162510289Y-109621789D01*
X162621789Y-109510289D01*
X162709394Y-109379179D01*
X162769737Y-109233497D01*
X162800500Y-109078842D01*
X162800500Y-108921158D01*
X162800500Y-108921155D01*
X162800499Y-108921153D01*
X162794169Y-108889330D01*
X162769737Y-108766503D01*
X162754617Y-108730000D01*
X162709397Y-108620827D01*
X162709390Y-108620814D01*
X162621789Y-108489711D01*
X162621786Y-108489707D01*
X162510292Y-108378213D01*
X162510288Y-108378210D01*
X162379185Y-108290609D01*
X162379172Y-108290602D01*
X162233501Y-108230264D01*
X162233491Y-108230261D01*
X162078151Y-108199362D01*
X162061394Y-108190596D01*
X162042916Y-108186577D01*
X162017877Y-108167832D01*
X162016241Y-108166977D01*
X162014662Y-108165426D01*
X161861819Y-108012583D01*
X161828334Y-107951260D01*
X161825500Y-107924902D01*
X161825500Y-91075098D01*
X161845185Y-91008059D01*
X161861819Y-90987417D01*
X161920793Y-90928443D01*
X161980520Y-90868716D01*
X162059577Y-90731784D01*
X162100501Y-90579057D01*
X162100501Y-90420942D01*
X162100501Y-90413338D01*
X162100500Y-90413329D01*
X162100500Y-89920945D01*
X162100500Y-89920943D01*
X162059577Y-89768216D01*
X162059573Y-89768209D01*
X161980524Y-89631290D01*
X161980518Y-89631282D01*
X161936916Y-89587679D01*
X161903432Y-89526356D01*
X161908417Y-89456664D01*
X161936916Y-89412318D01*
X161980520Y-89368716D01*
X162059577Y-89231784D01*
X162100501Y-89079057D01*
X162100501Y-88920942D01*
X162100501Y-88913347D01*
X162100500Y-88913329D01*
X162100500Y-73300097D01*
X162120185Y-73233058D01*
X162136819Y-73212416D01*
X162187819Y-73161416D01*
X162249142Y-73127931D01*
X162318834Y-73132915D01*
X162374767Y-73174787D01*
X162399184Y-73240251D01*
X162399500Y-73249097D01*
X162399500Y-90465053D01*
X162399499Y-90623168D01*
X162412076Y-90670104D01*
X162433232Y-90749058D01*
X162433232Y-90749059D01*
X162440421Y-90775892D01*
X162440423Y-90775897D01*
X162519475Y-90912820D01*
X162519481Y-90912828D01*
X162763181Y-91156528D01*
X162796666Y-91217851D01*
X162799500Y-91244209D01*
X162799500Y-94730189D01*
X162799499Y-94730207D01*
X162799499Y-94895913D01*
X162799498Y-94895913D01*
X162840424Y-95048648D01*
X162840425Y-95048649D01*
X162857981Y-95079056D01*
X162857982Y-95079057D01*
X162919477Y-95185571D01*
X162919481Y-95185576D01*
X163038349Y-95304444D01*
X163038355Y-95304449D01*
X163553281Y-95819375D01*
X163586766Y-95880698D01*
X163589600Y-95907056D01*
X163589602Y-98336626D01*
X163589602Y-98336627D01*
X163589601Y-98494739D01*
X163589601Y-98494740D01*
X163620618Y-98610498D01*
X163630524Y-98647466D01*
X163630528Y-98647475D01*
X163709577Y-98784394D01*
X163709580Y-98784398D01*
X163709582Y-98784401D01*
X163801296Y-98876115D01*
X163801297Y-98876116D01*
X163801296Y-98876116D01*
X163803261Y-98878080D01*
X163836762Y-98939394D01*
X163839602Y-98965783D01*
X163839602Y-99884643D01*
X163839601Y-99884643D01*
X163839602Y-99884646D01*
X163880526Y-100037374D01*
X163902087Y-100074718D01*
X163949155Y-100156243D01*
X163959582Y-100174303D01*
X163959584Y-100174306D01*
X164078452Y-100293174D01*
X164078458Y-100293179D01*
X164344652Y-100559373D01*
X164378137Y-100620696D01*
X164380971Y-100647054D01*
X164380973Y-102242213D01*
X164380973Y-102242214D01*
X164380972Y-102400327D01*
X164393287Y-102446287D01*
X164421896Y-102553058D01*
X164421897Y-102553059D01*
X164481470Y-102656243D01*
X164500954Y-102689989D01*
X164578969Y-102768004D01*
X164612454Y-102829327D01*
X164615288Y-102855685D01*
X164615288Y-104465156D01*
X164615287Y-104623271D01*
X164627324Y-104668194D01*
X164635700Y-104699452D01*
X164635706Y-104699473D01*
X164656211Y-104776000D01*
X164656214Y-104776005D01*
X164735263Y-104912924D01*
X164735269Y-104912932D01*
X164813282Y-104990945D01*
X164846767Y-105052268D01*
X164849601Y-105078626D01*
X164849601Y-106651860D01*
X164849600Y-106651878D01*
X164849600Y-106817584D01*
X164849599Y-106817584D01*
X164890525Y-106970319D01*
X164890526Y-106970320D01*
X164912041Y-107007584D01*
X164912042Y-107007586D01*
X164969576Y-107107239D01*
X164969580Y-107107244D01*
X164969581Y-107107246D01*
X165081385Y-107219050D01*
X165081386Y-107219051D01*
X165176048Y-107313713D01*
X165258101Y-107395765D01*
X165291586Y-107457088D01*
X165286602Y-107526779D01*
X165273522Y-107552337D01*
X165227766Y-107620814D01*
X165227759Y-107620827D01*
X165167421Y-107766498D01*
X165167418Y-107766510D01*
X165136657Y-107921153D01*
X165136657Y-108078846D01*
X165167418Y-108233489D01*
X165167421Y-108233501D01*
X165227759Y-108379172D01*
X165227766Y-108379185D01*
X165315367Y-108510288D01*
X165315370Y-108510292D01*
X165426864Y-108621786D01*
X165426868Y-108621789D01*
X165557971Y-108709390D01*
X165557984Y-108709397D01*
X165652251Y-108748443D01*
X165703660Y-108769737D01*
X165814144Y-108791713D01*
X165836848Y-108796230D01*
X165898759Y-108828615D01*
X165933333Y-108889330D01*
X165936657Y-108917847D01*
X165936657Y-109199016D01*
X165936656Y-109199034D01*
X165936656Y-109364740D01*
X165936655Y-109364740D01*
X165975656Y-109510289D01*
X165977580Y-109517471D01*
X165982554Y-109526086D01*
X166056634Y-109654398D01*
X166056638Y-109654403D01*
X166175506Y-109773271D01*
X166175512Y-109773276D01*
X166280338Y-109878102D01*
X166313823Y-109939425D01*
X166316657Y-109965783D01*
X166316657Y-111699054D01*
X166316656Y-111699054D01*
X166325883Y-111733489D01*
X166341609Y-111792179D01*
X166357582Y-111851787D01*
X166373396Y-111879177D01*
X166373397Y-111879179D01*
X166436635Y-111988712D01*
X166436639Y-111988717D01*
X166555507Y-112107585D01*
X166555513Y-112107590D01*
X166660339Y-112212416D01*
X166693824Y-112273739D01*
X166696658Y-112300097D01*
X166696658Y-113856174D01*
X166696657Y-113856192D01*
X166696657Y-114021898D01*
X166696656Y-114021898D01*
X166696657Y-114021901D01*
X166733718Y-114160213D01*
X166737582Y-114174631D01*
X166748399Y-114193366D01*
X166748400Y-114193368D01*
X166816635Y-114311556D01*
X166816639Y-114311561D01*
X166935507Y-114430429D01*
X166935513Y-114430434D01*
X167613576Y-115108497D01*
X167647061Y-115169820D01*
X167649352Y-115185356D01*
X167682753Y-115396239D01*
X167682754Y-115396243D01*
X167734075Y-115554193D01*
X167748444Y-115598414D01*
X167844951Y-115787820D01*
X167969890Y-115959786D01*
X168120213Y-116110109D01*
X168292182Y-116235050D01*
X168300946Y-116239516D01*
X168351742Y-116287491D01*
X168368536Y-116355312D01*
X168345998Y-116421447D01*
X168300946Y-116460484D01*
X168292182Y-116464949D01*
X168120213Y-116589890D01*
X167969890Y-116740213D01*
X167844951Y-116912179D01*
X167748444Y-117101585D01*
X167682753Y-117303760D01*
X167649500Y-117513713D01*
X167649500Y-117726286D01*
X167676418Y-117896243D01*
X167682754Y-117936243D01*
X167734075Y-118094193D01*
X167748444Y-118138414D01*
X167844951Y-118327820D01*
X167969890Y-118499786D01*
X168120213Y-118650109D01*
X168292179Y-118775048D01*
X168292181Y-118775049D01*
X168292184Y-118775051D01*
X168481588Y-118871557D01*
X168510753Y-118881033D01*
X168568426Y-118920468D01*
X168595625Y-118984826D01*
X168583712Y-119053673D01*
X168536469Y-119105149D01*
X168528730Y-119109447D01*
X168397269Y-119176431D01*
X168381466Y-119187912D01*
X168381466Y-119187913D01*
X168870591Y-119677037D01*
X168807007Y-119694075D01*
X168692993Y-119759901D01*
X168599901Y-119852993D01*
X168534075Y-119967007D01*
X168517037Y-120030590D01*
X168027912Y-119541466D01*
X168016432Y-119557269D01*
X167934254Y-119718547D01*
X167934251Y-119718555D01*
X167878317Y-119890706D01*
X167850000Y-120069493D01*
X167850000Y-120250506D01*
X167878317Y-120429293D01*
X167934251Y-120601444D01*
X167934252Y-120601447D01*
X168016431Y-120762730D01*
X168027913Y-120778532D01*
X168027913Y-120778533D01*
X168517037Y-120289408D01*
X168534075Y-120352993D01*
X168599901Y-120467007D01*
X168692993Y-120560099D01*
X168807007Y-120625925D01*
X168870590Y-120642962D01*
X168381466Y-121132085D01*
X168381466Y-121132086D01*
X168397267Y-121143566D01*
X168397275Y-121143571D01*
X168558552Y-121225747D01*
X168558555Y-121225748D01*
X168656491Y-121257569D01*
X168714166Y-121297006D01*
X168741365Y-121361365D01*
X168729451Y-121430211D01*
X168682207Y-121481687D01*
X168618173Y-121499500D01*
X165884329Y-121499500D01*
X165817290Y-121479815D01*
X165771535Y-121427011D01*
X165761591Y-121357853D01*
X165773844Y-121319205D01*
X165786535Y-121294297D01*
X165849873Y-121169989D01*
X165903402Y-121005245D01*
X165930500Y-120834155D01*
X165930500Y-120060933D01*
X165903402Y-119889843D01*
X165849873Y-119725099D01*
X165771232Y-119570756D01*
X165669414Y-119430616D01*
X165546928Y-119308130D01*
X165406788Y-119206312D01*
X165252445Y-119127671D01*
X165087701Y-119074142D01*
X165087699Y-119074141D01*
X165087698Y-119074141D01*
X164956271Y-119053325D01*
X164916611Y-119047044D01*
X164743389Y-119047044D01*
X164703728Y-119053325D01*
X164572302Y-119074141D01*
X164407552Y-119127672D01*
X164253211Y-119206312D01*
X164173256Y-119264403D01*
X164113072Y-119308130D01*
X164113070Y-119308132D01*
X164113069Y-119308132D01*
X163990588Y-119430613D01*
X163990588Y-119430614D01*
X163990586Y-119430616D01*
X163946859Y-119490800D01*
X163888768Y-119570755D01*
X163810128Y-119725096D01*
X163756597Y-119889846D01*
X163729500Y-120060933D01*
X163729500Y-120834155D01*
X163756598Y-121005245D01*
X163801543Y-121143571D01*
X163810128Y-121169991D01*
X163886156Y-121319205D01*
X163899052Y-121387875D01*
X163872776Y-121452615D01*
X163815669Y-121492872D01*
X163775671Y-121499500D01*
X157224329Y-121499500D01*
X157157290Y-121479815D01*
X157111535Y-121427011D01*
X157101591Y-121357853D01*
X157113844Y-121319205D01*
X157126535Y-121294297D01*
X157189873Y-121169989D01*
X157243402Y-121005245D01*
X157270500Y-120834155D01*
X157270500Y-120060933D01*
X157243402Y-119889843D01*
X157189873Y-119725099D01*
X157111232Y-119570756D01*
X157009414Y-119430616D01*
X156886928Y-119308130D01*
X156746788Y-119206312D01*
X156592445Y-119127671D01*
X156427701Y-119074142D01*
X156427699Y-119074141D01*
X156427698Y-119074141D01*
X156296271Y-119053325D01*
X156256611Y-119047044D01*
X156083389Y-119047044D01*
X156043728Y-119053325D01*
X155912302Y-119074141D01*
X155747552Y-119127672D01*
X155593211Y-119206312D01*
X155513256Y-119264403D01*
X155453072Y-119308130D01*
X155453070Y-119308132D01*
X155453069Y-119308132D01*
X155330588Y-119430613D01*
X155330588Y-119430614D01*
X155330586Y-119430616D01*
X155286859Y-119490800D01*
X155228768Y-119570755D01*
X155150128Y-119725096D01*
X155096597Y-119889846D01*
X155069500Y-120060933D01*
X155069500Y-120834155D01*
X155096598Y-121005245D01*
X155141543Y-121143571D01*
X155150128Y-121169991D01*
X155226156Y-121319205D01*
X155239052Y-121387875D01*
X155212776Y-121452615D01*
X155155669Y-121492872D01*
X155115671Y-121499500D01*
X152217068Y-121499500D01*
X152150029Y-121479815D01*
X152104274Y-121427011D01*
X152094330Y-121357853D01*
X152123355Y-121294297D01*
X152182133Y-121256523D01*
X152197670Y-121253027D01*
X152269293Y-121241682D01*
X152441444Y-121185748D01*
X152441452Y-121185745D01*
X152602730Y-121103568D01*
X152618532Y-121092085D01*
X152618533Y-121092085D01*
X152129410Y-120602962D01*
X152192993Y-120585925D01*
X152307007Y-120520099D01*
X152400099Y-120427007D01*
X152465925Y-120312993D01*
X152482962Y-120249409D01*
X152972085Y-120738532D01*
X152983568Y-120722730D01*
X153065745Y-120561452D01*
X153065748Y-120561444D01*
X153121682Y-120389293D01*
X153150000Y-120210506D01*
X153150000Y-120029493D01*
X153121682Y-119850706D01*
X153065748Y-119678555D01*
X153065747Y-119678552D01*
X152983571Y-119517275D01*
X152983566Y-119517267D01*
X152972085Y-119501466D01*
X152482962Y-119990589D01*
X152465925Y-119927007D01*
X152400099Y-119812993D01*
X152307007Y-119719901D01*
X152192993Y-119654075D01*
X152129409Y-119637037D01*
X152618533Y-119147913D01*
X152602727Y-119136429D01*
X152471269Y-119069447D01*
X152420474Y-119021473D01*
X152403679Y-118953651D01*
X152426217Y-118887517D01*
X152480932Y-118844066D01*
X152489216Y-118841043D01*
X152518412Y-118831557D01*
X152707816Y-118735051D01*
X152729789Y-118719086D01*
X152879786Y-118610109D01*
X152879788Y-118610106D01*
X152879792Y-118610104D01*
X153030104Y-118459792D01*
X153030106Y-118459788D01*
X153030109Y-118459786D01*
X153155048Y-118287820D01*
X153155047Y-118287820D01*
X153155051Y-118287816D01*
X153251557Y-118098412D01*
X153317246Y-117896243D01*
X153350500Y-117686287D01*
X153350500Y-117473713D01*
X153317246Y-117263757D01*
X153251557Y-117061588D01*
X153155051Y-116872184D01*
X153155049Y-116872181D01*
X153155048Y-116872179D01*
X153030109Y-116700213D01*
X152879786Y-116549890D01*
X152707820Y-116424951D01*
X152707115Y-116424591D01*
X152699054Y-116420485D01*
X152648259Y-116372512D01*
X152631463Y-116304692D01*
X152653999Y-116238556D01*
X152699054Y-116199515D01*
X152707816Y-116195051D01*
X152729789Y-116179086D01*
X152879786Y-116070109D01*
X152879788Y-116070106D01*
X152879792Y-116070104D01*
X153030104Y-115919792D01*
X153030106Y-115919788D01*
X153030109Y-115919786D01*
X153130990Y-115780933D01*
X155069500Y-115780933D01*
X155069500Y-116754154D01*
X155094528Y-116912179D01*
X155096598Y-116925245D01*
X155150127Y-117089989D01*
X155228768Y-117244332D01*
X155330586Y-117384472D01*
X155453072Y-117506958D01*
X155593212Y-117608776D01*
X155747555Y-117687417D01*
X155912299Y-117740946D01*
X156083389Y-117768044D01*
X156083390Y-117768044D01*
X156256610Y-117768044D01*
X156256611Y-117768044D01*
X156427701Y-117740946D01*
X156592445Y-117687417D01*
X156746788Y-117608776D01*
X156886928Y-117506958D01*
X156912634Y-117481251D01*
X156973953Y-117447768D01*
X157043645Y-117452751D01*
X157069201Y-117465830D01*
X157185295Y-117543402D01*
X157185297Y-117543403D01*
X157185301Y-117543405D01*
X157343122Y-117608776D01*
X157344626Y-117609399D01*
X157513766Y-117643043D01*
X157513769Y-117643044D01*
X157513771Y-117643044D01*
X157686231Y-117643044D01*
X157686232Y-117643043D01*
X157855374Y-117609399D01*
X158014705Y-117543402D01*
X158158099Y-117447589D01*
X158280045Y-117325643D01*
X158375858Y-117182249D01*
X158441855Y-117022918D01*
X158475500Y-116853773D01*
X158475500Y-116681315D01*
X158475500Y-116681312D01*
X158475499Y-116681310D01*
X162524500Y-116681310D01*
X162524500Y-116853777D01*
X162558143Y-117022910D01*
X162558146Y-117022922D01*
X162624138Y-117182242D01*
X162624145Y-117182255D01*
X162719954Y-117325642D01*
X162719957Y-117325646D01*
X162841897Y-117447586D01*
X162841901Y-117447589D01*
X162985288Y-117543398D01*
X162985301Y-117543405D01*
X163143122Y-117608776D01*
X163144626Y-117609399D01*
X163313766Y-117643043D01*
X163313769Y-117643044D01*
X163313771Y-117643044D01*
X163486231Y-117643044D01*
X163486232Y-117643043D01*
X163655374Y-117609399D01*
X163814705Y-117543402D01*
X163930798Y-117465830D01*
X163997471Y-117444954D01*
X164064852Y-117463438D01*
X164087367Y-117481253D01*
X164113072Y-117506958D01*
X164253212Y-117608776D01*
X164407555Y-117687417D01*
X164572299Y-117740946D01*
X164743389Y-117768044D01*
X164743390Y-117768044D01*
X164916610Y-117768044D01*
X164916611Y-117768044D01*
X165087701Y-117740946D01*
X165252445Y-117687417D01*
X165406788Y-117608776D01*
X165546928Y-117506958D01*
X165669414Y-117384472D01*
X165771232Y-117244332D01*
X165849873Y-117089989D01*
X165903402Y-116925245D01*
X165930500Y-116754155D01*
X165930500Y-115780933D01*
X165903402Y-115609843D01*
X165849873Y-115445099D01*
X165771232Y-115290756D01*
X165669414Y-115150616D01*
X165546928Y-115028130D01*
X165406788Y-114926312D01*
X165252445Y-114847671D01*
X165087701Y-114794142D01*
X165087699Y-114794141D01*
X165087698Y-114794141D01*
X164956271Y-114773325D01*
X164916611Y-114767044D01*
X164743389Y-114767044D01*
X164703728Y-114773325D01*
X164572302Y-114794141D01*
X164407552Y-114847672D01*
X164253211Y-114926312D01*
X164243025Y-114933713D01*
X164113072Y-115028130D01*
X164113070Y-115028132D01*
X164113069Y-115028132D01*
X163990588Y-115150613D01*
X163990588Y-115150614D01*
X163990586Y-115150616D01*
X163946859Y-115210800D01*
X163888768Y-115290755D01*
X163810128Y-115445096D01*
X163756597Y-115609846D01*
X163729500Y-115780933D01*
X163729500Y-115789338D01*
X163709815Y-115856377D01*
X163657011Y-115902132D01*
X163587853Y-115912076D01*
X163581310Y-115910956D01*
X163486229Y-115892044D01*
X163313771Y-115892044D01*
X163313768Y-115892044D01*
X163144633Y-115925687D01*
X163144621Y-115925690D01*
X162985301Y-115991682D01*
X162985288Y-115991689D01*
X162841901Y-116087498D01*
X162841897Y-116087501D01*
X162719957Y-116209441D01*
X162719954Y-116209445D01*
X162624145Y-116352832D01*
X162624138Y-116352845D01*
X162558146Y-116512165D01*
X162558143Y-116512177D01*
X162524500Y-116681310D01*
X158475499Y-116681310D01*
X158441855Y-116512170D01*
X158422296Y-116464951D01*
X158375861Y-116352845D01*
X158375854Y-116352832D01*
X158280045Y-116209445D01*
X158280042Y-116209441D01*
X158158102Y-116087501D01*
X158158098Y-116087498D01*
X158014711Y-115991689D01*
X158014698Y-115991682D01*
X157855378Y-115925690D01*
X157855366Y-115925687D01*
X157686232Y-115892044D01*
X157686229Y-115892044D01*
X157513771Y-115892044D01*
X157418690Y-115910956D01*
X157349099Y-115904727D01*
X157293922Y-115861864D01*
X157270678Y-115795974D01*
X157270500Y-115789338D01*
X157270500Y-115780933D01*
X157260812Y-115719766D01*
X157243402Y-115609843D01*
X157189873Y-115445099D01*
X157111232Y-115290756D01*
X157009414Y-115150616D01*
X156886928Y-115028130D01*
X156746788Y-114926312D01*
X156592445Y-114847671D01*
X156427701Y-114794142D01*
X156427699Y-114794141D01*
X156427698Y-114794141D01*
X156296271Y-114773325D01*
X156256611Y-114767044D01*
X156083389Y-114767044D01*
X156043728Y-114773325D01*
X155912302Y-114794141D01*
X155747552Y-114847672D01*
X155593211Y-114926312D01*
X155583025Y-114933713D01*
X155453072Y-115028130D01*
X155453070Y-115028132D01*
X155453069Y-115028132D01*
X155330588Y-115150613D01*
X155330588Y-115150614D01*
X155330586Y-115150616D01*
X155286859Y-115210800D01*
X155228768Y-115290755D01*
X155150128Y-115445096D01*
X155096597Y-115609846D01*
X155069500Y-115780933D01*
X153130990Y-115780933D01*
X153155048Y-115747820D01*
X153155047Y-115747820D01*
X153155051Y-115747816D01*
X153251557Y-115558412D01*
X153317246Y-115356243D01*
X153350500Y-115146287D01*
X153350500Y-114933713D01*
X153317246Y-114723757D01*
X153251557Y-114521588D01*
X153155051Y-114332184D01*
X153155049Y-114332181D01*
X153155048Y-114332179D01*
X153030109Y-114160213D01*
X152879786Y-114009890D01*
X152707820Y-113884951D01*
X152707115Y-113884591D01*
X152699054Y-113880485D01*
X152648259Y-113832512D01*
X152631463Y-113764692D01*
X152653999Y-113698556D01*
X152699054Y-113659515D01*
X152707816Y-113655051D01*
X152729789Y-113639086D01*
X152879786Y-113530109D01*
X152879788Y-113530106D01*
X152879792Y-113530104D01*
X153030104Y-113379792D01*
X153030106Y-113379788D01*
X153030109Y-113379786D01*
X153155048Y-113207820D01*
X153155047Y-113207820D01*
X153155051Y-113207816D01*
X153251557Y-113018412D01*
X153317246Y-112816243D01*
X153350500Y-112606287D01*
X153350500Y-112393713D01*
X153339262Y-112322762D01*
X153348216Y-112253470D01*
X153392845Y-112200263D01*
X153506215Y-112124511D01*
X153510289Y-112121789D01*
X153621789Y-112010289D01*
X153709394Y-111879179D01*
X153769737Y-111733497D01*
X153774531Y-111709397D01*
X153776339Y-111700309D01*
X153791049Y-111672185D01*
X153804243Y-111643297D01*
X153807132Y-111641439D01*
X153808724Y-111638398D01*
X153836306Y-111622691D01*
X153863021Y-111605523D01*
X153867615Y-111604862D01*
X153869439Y-111603824D01*
X153897956Y-111600500D01*
X154020234Y-111600500D01*
X154087273Y-111620185D01*
X154089125Y-111621398D01*
X154220814Y-111709390D01*
X154220827Y-111709397D01*
X154366498Y-111769735D01*
X154366503Y-111769737D01*
X154479326Y-111792179D01*
X154521153Y-111800499D01*
X154521156Y-111800500D01*
X154521158Y-111800500D01*
X154678844Y-111800500D01*
X154678845Y-111800499D01*
X154833497Y-111769737D01*
X154979179Y-111709394D01*
X155110289Y-111621789D01*
X155221789Y-111510289D01*
X155309394Y-111379179D01*
X155369737Y-111233497D01*
X155400500Y-111078842D01*
X155400638Y-111078150D01*
X155433023Y-111016239D01*
X155434520Y-111014714D01*
X156378506Y-110070727D01*
X156378511Y-110070724D01*
X156388714Y-110060520D01*
X156388716Y-110060520D01*
X156500520Y-109948716D01*
X156560248Y-109845263D01*
X156579577Y-109811785D01*
X156620500Y-109659058D01*
X156620500Y-109500943D01*
X156620500Y-93300096D01*
X156640185Y-93233057D01*
X156656814Y-93212420D01*
X157858506Y-92010727D01*
X157858511Y-92010724D01*
X157868714Y-92000520D01*
X157868716Y-92000520D01*
X157980520Y-91888716D01*
X158058066Y-91754402D01*
X158059577Y-91751785D01*
X158100500Y-91599057D01*
X158100500Y-91564527D01*
X158104189Y-91549744D01*
X158114462Y-91532215D01*
X158120185Y-91512726D01*
X158121398Y-91510874D01*
X158209390Y-91379185D01*
X158209390Y-91379184D01*
X158209394Y-91379179D01*
X158269737Y-91233497D01*
X158300500Y-91078842D01*
X158300500Y-90921158D01*
X158300500Y-90921155D01*
X158300499Y-90921153D01*
X158298841Y-90912820D01*
X158269737Y-90766503D01*
X158255359Y-90731790D01*
X158209397Y-90620827D01*
X158209390Y-90620814D01*
X158121789Y-90489711D01*
X158121786Y-90489707D01*
X158010292Y-90378213D01*
X158010288Y-90378210D01*
X157879185Y-90290609D01*
X157879172Y-90290602D01*
X157733501Y-90230264D01*
X157733489Y-90230261D01*
X157578845Y-90199500D01*
X157578842Y-90199500D01*
X157421158Y-90199500D01*
X157421155Y-90199500D01*
X157266510Y-90230261D01*
X157266507Y-90230261D01*
X157171952Y-90269427D01*
X157102482Y-90276895D01*
X157040003Y-90245619D01*
X157004351Y-90185530D01*
X157000500Y-90154865D01*
X157000500Y-72917847D01*
X157020185Y-72850808D01*
X157072989Y-72805053D01*
X157100309Y-72796230D01*
X157116291Y-72793050D01*
X157233497Y-72769737D01*
X157379179Y-72709394D01*
X157510289Y-72621789D01*
X157621789Y-72510289D01*
X157709394Y-72379179D01*
X157716677Y-72361593D01*
X157760514Y-72307190D01*
X157826807Y-72285122D01*
X157855431Y-72287426D01*
X157921155Y-72300500D01*
X157921158Y-72300500D01*
X158078844Y-72300500D01*
X158078845Y-72300499D01*
X158233497Y-72269737D01*
X158379179Y-72209394D01*
X158510289Y-72121789D01*
X158621789Y-72010289D01*
X158709394Y-71879179D01*
X158769737Y-71733497D01*
X158800500Y-71578842D01*
X158800500Y-71421158D01*
X158800500Y-71421155D01*
X158800499Y-71421153D01*
X158769738Y-71266510D01*
X158769737Y-71266503D01*
X158769735Y-71266498D01*
X158709397Y-71120827D01*
X158709390Y-71120814D01*
X158621398Y-70989125D01*
X158600520Y-70922447D01*
X158600500Y-70920234D01*
X158600500Y-70589060D01*
X158600501Y-70589047D01*
X158600501Y-70420944D01*
X158559576Y-70268214D01*
X158559573Y-70268209D01*
X158480524Y-70131290D01*
X158480518Y-70131282D01*
X158136819Y-69787583D01*
X158103334Y-69726260D01*
X158100500Y-69699902D01*
X158100500Y-67627109D01*
X158120185Y-67560070D01*
X158172989Y-67514315D01*
X158242147Y-67504371D01*
X158248665Y-67505487D01*
G37*
%TD.AperFunction*%
%TA.AperFunction,Conductor*%
G36*
X170430211Y-118046949D02*
G01*
X170481687Y-118094193D01*
X170499500Y-118158226D01*
X170499500Y-121375500D01*
X170479815Y-121442539D01*
X170427011Y-121488294D01*
X170375500Y-121499500D01*
X169381827Y-121499500D01*
X169314788Y-121479815D01*
X169269033Y-121427011D01*
X169259089Y-121357853D01*
X169288114Y-121294297D01*
X169343509Y-121257569D01*
X169441444Y-121225748D01*
X169441452Y-121225745D01*
X169602730Y-121143568D01*
X169618532Y-121132085D01*
X169618533Y-121132085D01*
X169129410Y-120642962D01*
X169192993Y-120625925D01*
X169307007Y-120560099D01*
X169400099Y-120467007D01*
X169465925Y-120352993D01*
X169482962Y-120289409D01*
X169972085Y-120778532D01*
X169983568Y-120762730D01*
X170065745Y-120601452D01*
X170065748Y-120601444D01*
X170121682Y-120429293D01*
X170150000Y-120250506D01*
X170150000Y-120069493D01*
X170121682Y-119890706D01*
X170065748Y-119718555D01*
X170065747Y-119718552D01*
X169983571Y-119557275D01*
X169983566Y-119557267D01*
X169972085Y-119541466D01*
X169482962Y-120030589D01*
X169465925Y-119967007D01*
X169400099Y-119852993D01*
X169307007Y-119759901D01*
X169192993Y-119694075D01*
X169129409Y-119677037D01*
X169618533Y-119187913D01*
X169602727Y-119176429D01*
X169471269Y-119109447D01*
X169420474Y-119061473D01*
X169403679Y-118993651D01*
X169426217Y-118927517D01*
X169480932Y-118884066D01*
X169489216Y-118881043D01*
X169518412Y-118871557D01*
X169707816Y-118775051D01*
X169762876Y-118735048D01*
X169879786Y-118650109D01*
X169879788Y-118650106D01*
X169879792Y-118650104D01*
X170030104Y-118499792D01*
X170030106Y-118499788D01*
X170030109Y-118499786D01*
X170155048Y-118327820D01*
X170155047Y-118327820D01*
X170155051Y-118327816D01*
X170251557Y-118138412D01*
X170257569Y-118119907D01*
X170297006Y-118062232D01*
X170361365Y-118035034D01*
X170430211Y-118046949D01*
G37*
%TD.AperFunction*%
%TA.AperFunction,Conductor*%
G36*
X170442539Y-50019685D02*
G01*
X170488294Y-50072489D01*
X170499500Y-50124000D01*
X170499500Y-70709897D01*
X170479815Y-70776936D01*
X170427011Y-70822691D01*
X170357853Y-70832635D01*
X170294297Y-70803610D01*
X170276234Y-70784208D01*
X170207547Y-70692455D01*
X170207544Y-70692452D01*
X170092335Y-70606206D01*
X170092328Y-70606202D01*
X169957482Y-70555908D01*
X169957483Y-70555908D01*
X169897883Y-70549501D01*
X169897881Y-70549500D01*
X169897873Y-70549500D01*
X169897865Y-70549500D01*
X168574500Y-70549500D01*
X168507461Y-70529815D01*
X168461706Y-70477011D01*
X168450500Y-70425500D01*
X168450500Y-67228017D01*
X168470185Y-67160978D01*
X168505612Y-67124913D01*
X168510289Y-67121789D01*
X168621789Y-67010289D01*
X168709394Y-66879179D01*
X168769737Y-66733497D01*
X168800500Y-66578842D01*
X168800500Y-66421158D01*
X168800500Y-66421155D01*
X168800499Y-66421153D01*
X168791957Y-66378210D01*
X168769737Y-66266503D01*
X168758117Y-66238450D01*
X168709396Y-66120825D01*
X168709394Y-66120822D01*
X168709394Y-66120821D01*
X168674694Y-66068889D01*
X168653816Y-66002215D01*
X168672300Y-65934835D01*
X168674676Y-65931136D01*
X168709394Y-65879179D01*
X168769737Y-65733497D01*
X168800500Y-65578842D01*
X168800500Y-65421158D01*
X168800500Y-65421155D01*
X168800499Y-65421153D01*
X168769738Y-65266510D01*
X168769737Y-65266503D01*
X168709394Y-65120821D01*
X168674694Y-65068889D01*
X168653816Y-65002215D01*
X168672300Y-64934835D01*
X168674676Y-64931136D01*
X168709394Y-64879179D01*
X168769737Y-64733497D01*
X168800500Y-64578842D01*
X168800500Y-64421158D01*
X168800500Y-64421155D01*
X168800499Y-64421153D01*
X168778592Y-64311019D01*
X168769737Y-64266503D01*
X168769735Y-64266498D01*
X168709397Y-64120827D01*
X168709390Y-64120814D01*
X168621789Y-63989711D01*
X168621786Y-63989707D01*
X168600850Y-63968771D01*
X168567365Y-63907448D01*
X168568755Y-63848999D01*
X168600500Y-63730528D01*
X168600500Y-63579765D01*
X168620185Y-63512726D01*
X168621398Y-63510874D01*
X168709390Y-63379185D01*
X168709390Y-63379184D01*
X168709394Y-63379179D01*
X168769737Y-63233497D01*
X168800500Y-63078842D01*
X168800500Y-62921158D01*
X168800500Y-62921155D01*
X168800499Y-62921153D01*
X168769738Y-62766510D01*
X168769737Y-62766503D01*
X168709394Y-62620821D01*
X168674694Y-62568889D01*
X168653816Y-62502215D01*
X168672300Y-62434835D01*
X168674676Y-62431136D01*
X168709394Y-62379179D01*
X168769737Y-62233497D01*
X168800500Y-62078842D01*
X168800500Y-61921158D01*
X168800500Y-61921155D01*
X168800499Y-61921153D01*
X168769738Y-61766510D01*
X168769737Y-61766503D01*
X168769735Y-61766498D01*
X168709397Y-61620827D01*
X168709390Y-61620814D01*
X168621789Y-61489711D01*
X168621786Y-61489707D01*
X168510292Y-61378213D01*
X168510284Y-61378207D01*
X168472712Y-61353102D01*
X168427906Y-61299490D01*
X168419199Y-61230165D01*
X168449353Y-61167138D01*
X168472712Y-61146898D01*
X168499279Y-61129145D01*
X168510289Y-61121789D01*
X168621789Y-61010289D01*
X168709394Y-60879179D01*
X168769737Y-60733497D01*
X168800500Y-60578842D01*
X168800500Y-60421158D01*
X168800500Y-60421155D01*
X168800499Y-60421153D01*
X168769738Y-60266510D01*
X168769737Y-60266503D01*
X168709394Y-60120821D01*
X168674694Y-60068889D01*
X168653816Y-60002215D01*
X168672300Y-59934835D01*
X168674676Y-59931136D01*
X168709394Y-59879179D01*
X168769737Y-59733497D01*
X168800500Y-59578842D01*
X168800500Y-59421158D01*
X168800500Y-59421155D01*
X168800499Y-59421153D01*
X168790034Y-59368542D01*
X168769737Y-59266503D01*
X168765692Y-59256738D01*
X168709397Y-59120827D01*
X168709390Y-59120814D01*
X168621789Y-58989711D01*
X168621786Y-58989707D01*
X168510292Y-58878213D01*
X168510284Y-58878207D01*
X168472712Y-58853102D01*
X168427906Y-58799490D01*
X168419199Y-58730165D01*
X168449353Y-58667138D01*
X168472712Y-58646898D01*
X168499279Y-58629145D01*
X168510289Y-58621789D01*
X168621789Y-58510289D01*
X168709394Y-58379179D01*
X168769737Y-58233497D01*
X168800500Y-58078842D01*
X168800500Y-57921158D01*
X168800500Y-57921155D01*
X168800499Y-57921153D01*
X168781209Y-57824175D01*
X168769737Y-57766503D01*
X168769735Y-57766498D01*
X168709396Y-57620825D01*
X168709394Y-57620822D01*
X168709394Y-57620821D01*
X168674694Y-57568889D01*
X168653816Y-57502215D01*
X168672300Y-57434835D01*
X168674676Y-57431136D01*
X168709394Y-57379179D01*
X168769737Y-57233497D01*
X168800500Y-57078842D01*
X168800500Y-56921158D01*
X168800500Y-56921155D01*
X168800499Y-56921153D01*
X168784169Y-56839058D01*
X168769737Y-56766503D01*
X168754308Y-56729253D01*
X168709397Y-56620827D01*
X168709390Y-56620814D01*
X168621789Y-56489711D01*
X168621786Y-56489707D01*
X168600850Y-56468771D01*
X168567365Y-56407448D01*
X168568755Y-56348999D01*
X168600500Y-56230528D01*
X168600500Y-56079765D01*
X168620185Y-56012726D01*
X168621398Y-56010874D01*
X168709390Y-55879185D01*
X168709390Y-55879184D01*
X168709394Y-55879179D01*
X168769737Y-55733497D01*
X168800500Y-55578842D01*
X168800500Y-55421158D01*
X168800500Y-55421155D01*
X168800499Y-55421153D01*
X168769738Y-55266510D01*
X168769737Y-55266503D01*
X168769735Y-55266498D01*
X168709397Y-55120827D01*
X168709390Y-55120814D01*
X168621789Y-54989711D01*
X168621786Y-54989707D01*
X168555220Y-54923141D01*
X168541871Y-54898694D01*
X168525717Y-54876004D01*
X168525358Y-54868453D01*
X168521735Y-54861818D01*
X168523721Y-54834036D01*
X168522399Y-54806213D01*
X168526431Y-54796143D01*
X168526719Y-54792126D01*
X168535511Y-54773466D01*
X168537665Y-54769737D01*
X168559577Y-54731785D01*
X168600500Y-54579058D01*
X168600500Y-54579049D01*
X168601561Y-54570998D01*
X168603017Y-54571189D01*
X168620185Y-54512726D01*
X168621398Y-54510874D01*
X168709390Y-54379185D01*
X168709390Y-54379184D01*
X168709394Y-54379179D01*
X168769737Y-54233497D01*
X168800500Y-54078842D01*
X168800500Y-53921158D01*
X168800500Y-53921155D01*
X168800499Y-53921153D01*
X168770630Y-53770993D01*
X168769737Y-53766503D01*
X168756560Y-53734690D01*
X168709396Y-53620825D01*
X168709394Y-53620822D01*
X168709394Y-53620821D01*
X168674694Y-53568889D01*
X168653816Y-53502215D01*
X168672300Y-53434835D01*
X168674676Y-53431136D01*
X168709394Y-53379179D01*
X168769737Y-53233497D01*
X168800500Y-53078842D01*
X168800500Y-52921158D01*
X168800500Y-52921155D01*
X168800499Y-52921153D01*
X168769738Y-52766510D01*
X168769738Y-52766508D01*
X168769737Y-52766503D01*
X168769735Y-52766498D01*
X168709397Y-52620827D01*
X168709390Y-52620814D01*
X168621789Y-52489711D01*
X168621786Y-52489707D01*
X168510292Y-52378213D01*
X168510288Y-52378210D01*
X168379185Y-52290609D01*
X168379172Y-52290602D01*
X168233501Y-52230264D01*
X168233489Y-52230261D01*
X168078845Y-52199500D01*
X168078842Y-52199500D01*
X167921158Y-52199500D01*
X167921155Y-52199500D01*
X167766510Y-52230261D01*
X167766498Y-52230264D01*
X167620827Y-52290602D01*
X167620814Y-52290609D01*
X167489711Y-52378210D01*
X167489707Y-52378213D01*
X167378213Y-52489707D01*
X167378210Y-52489711D01*
X167290609Y-52620814D01*
X167290602Y-52620827D01*
X167230264Y-52766498D01*
X167230261Y-52766508D01*
X167199362Y-52921848D01*
X167190596Y-52938605D01*
X167186577Y-52957082D01*
X167167832Y-52982123D01*
X167166977Y-52983759D01*
X167165427Y-52985337D01*
X167105915Y-53044849D01*
X167031286Y-53119478D01*
X167031285Y-53119478D01*
X167031284Y-53119479D01*
X166919481Y-53231282D01*
X166919480Y-53231284D01*
X166875115Y-53308127D01*
X166840423Y-53368215D01*
X166799499Y-53520943D01*
X166799499Y-53520945D01*
X166799499Y-53689046D01*
X166799500Y-53689059D01*
X166799500Y-54234216D01*
X166779815Y-54301255D01*
X166763181Y-54321897D01*
X166517107Y-54567970D01*
X166517108Y-54567971D01*
X166412371Y-54672708D01*
X166362254Y-54759516D01*
X166362252Y-54759518D01*
X166333318Y-54809631D01*
X166333317Y-54809632D01*
X166333316Y-54809637D01*
X166292392Y-54962365D01*
X166292392Y-54962367D01*
X166292392Y-55130468D01*
X166292393Y-55130481D01*
X166292393Y-55827110D01*
X166272708Y-55894149D01*
X166256074Y-55914791D01*
X166119481Y-56051383D01*
X166119479Y-56051386D01*
X166061986Y-56150969D01*
X166061985Y-56150971D01*
X166040423Y-56188316D01*
X166029113Y-56230526D01*
X165999499Y-56341045D01*
X165999499Y-56341046D01*
X165999499Y-56341047D01*
X165999499Y-56402846D01*
X165979814Y-56469885D01*
X165963180Y-56490527D01*
X165341374Y-57112334D01*
X165341371Y-57112336D01*
X165341372Y-57112337D01*
X165236635Y-57217074D01*
X165179143Y-57316656D01*
X165179142Y-57316658D01*
X165157580Y-57354003D01*
X165148713Y-57387096D01*
X165116656Y-57506731D01*
X165116656Y-57506732D01*
X165116656Y-57506733D01*
X165116657Y-57593891D01*
X165116657Y-58620003D01*
X165096972Y-58687042D01*
X165080338Y-58707684D01*
X164419481Y-59368540D01*
X164419479Y-59368543D01*
X164399910Y-59402438D01*
X164380340Y-59436335D01*
X164340423Y-59505473D01*
X164299499Y-59658201D01*
X164299499Y-59658203D01*
X164299499Y-59826304D01*
X164299500Y-59826317D01*
X164299500Y-60699901D01*
X164290855Y-60729340D01*
X164284333Y-60759326D01*
X164280577Y-60764342D01*
X164279815Y-60766940D01*
X164263183Y-60787581D01*
X164231286Y-60819478D01*
X164231284Y-60819479D01*
X164231283Y-60819480D01*
X164231284Y-60819480D01*
X164119481Y-60931282D01*
X164119480Y-60931284D01*
X164076761Y-61005276D01*
X164040423Y-61068215D01*
X163999499Y-61220943D01*
X163999499Y-61220945D01*
X163999499Y-61389046D01*
X163999500Y-61389059D01*
X163999500Y-62199902D01*
X163979815Y-62266941D01*
X163963181Y-62287583D01*
X162919481Y-63331282D01*
X162919480Y-63331284D01*
X162871338Y-63414669D01*
X162840423Y-63468215D01*
X162799499Y-63620943D01*
X162799499Y-63620945D01*
X162799499Y-63789046D01*
X162799500Y-63789059D01*
X162799500Y-66092297D01*
X162779815Y-66159336D01*
X162727011Y-66205091D01*
X162657853Y-66215035D01*
X162651309Y-66213914D01*
X162578845Y-66199500D01*
X162578842Y-66199500D01*
X162421158Y-66199500D01*
X162421155Y-66199500D01*
X162266510Y-66230261D01*
X162266498Y-66230264D01*
X162120827Y-66290602D01*
X162120814Y-66290609D01*
X161989711Y-66378210D01*
X161989707Y-66378213D01*
X161878213Y-66489707D01*
X161878210Y-66489711D01*
X161790609Y-66620814D01*
X161790602Y-66620827D01*
X161730264Y-66766498D01*
X161730261Y-66766510D01*
X161699500Y-66921153D01*
X161699500Y-67078846D01*
X161730261Y-67233489D01*
X161730264Y-67233501D01*
X161790602Y-67379172D01*
X161790609Y-67379185D01*
X161878210Y-67510288D01*
X161878213Y-67510292D01*
X161989707Y-67621786D01*
X161989711Y-67621789D01*
X162120814Y-67709390D01*
X162120827Y-67709397D01*
X162208230Y-67745599D01*
X162266503Y-67769737D01*
X162299691Y-67776338D01*
X162361600Y-67808721D01*
X162396176Y-67869436D01*
X162399500Y-67897955D01*
X162399500Y-70750902D01*
X162393261Y-70772147D01*
X162391682Y-70794236D01*
X162383609Y-70805019D01*
X162379815Y-70817941D01*
X162363081Y-70832440D01*
X162349810Y-70850169D01*
X162337189Y-70854876D01*
X162327011Y-70863696D01*
X162305093Y-70866847D01*
X162284346Y-70874586D01*
X162271185Y-70871723D01*
X162257853Y-70873640D01*
X162237709Y-70864440D01*
X162216073Y-70859734D01*
X162198347Y-70846465D01*
X162194297Y-70844615D01*
X162187819Y-70838583D01*
X162136819Y-70787583D01*
X162103334Y-70726260D01*
X162100500Y-70699902D01*
X162100500Y-69089059D01*
X162100501Y-69089046D01*
X162100501Y-68920945D01*
X162100501Y-68920943D01*
X162059577Y-68768215D01*
X162030639Y-68718095D01*
X161980520Y-68631284D01*
X161868716Y-68519480D01*
X161868715Y-68519479D01*
X161864385Y-68515149D01*
X161864374Y-68515139D01*
X160406863Y-67057628D01*
X160373378Y-66996305D01*
X160370544Y-66969947D01*
X160370544Y-66836708D01*
X160370543Y-66836706D01*
X160356580Y-66766510D01*
X160339781Y-66682056D01*
X160339779Y-66682051D01*
X160279441Y-66536380D01*
X160279434Y-66536367D01*
X160191833Y-66405264D01*
X160191830Y-66405260D01*
X160080336Y-66293766D01*
X160080332Y-66293763D01*
X159949229Y-66206162D01*
X159949216Y-66206155D01*
X159803545Y-66145817D01*
X159803533Y-66145814D01*
X159648889Y-66115053D01*
X159648886Y-66115053D01*
X159491202Y-66115053D01*
X159491199Y-66115053D01*
X159336554Y-66145814D01*
X159336542Y-66145817D01*
X159190872Y-66206155D01*
X159190858Y-66206163D01*
X159173780Y-66217574D01*
X159107102Y-66238450D01*
X159039722Y-66219964D01*
X159017211Y-66202151D01*
X158913273Y-66098213D01*
X158913269Y-66098210D01*
X158782166Y-66010609D01*
X158782153Y-66010602D01*
X158636482Y-65950264D01*
X158636470Y-65950261D01*
X158481826Y-65919500D01*
X158481823Y-65919500D01*
X158324139Y-65919500D01*
X158324136Y-65919500D01*
X158248691Y-65934507D01*
X158179100Y-65928280D01*
X158123922Y-65885417D01*
X158100678Y-65819527D01*
X158100500Y-65812890D01*
X158100500Y-61420943D01*
X158098472Y-61413377D01*
X158098469Y-61413365D01*
X158089050Y-61378213D01*
X158082508Y-61353795D01*
X158059577Y-61268216D01*
X158049060Y-61250000D01*
X157980524Y-61131290D01*
X157980521Y-61131286D01*
X157980520Y-61131284D01*
X157868716Y-61019480D01*
X157868715Y-61019479D01*
X157864385Y-61015149D01*
X157864374Y-61015139D01*
X157307253Y-60458018D01*
X158114822Y-60458018D01*
X158234176Y-60490000D01*
X158365824Y-60490000D01*
X158485175Y-60458018D01*
X159514822Y-60458018D01*
X159634176Y-60490000D01*
X159765824Y-60490000D01*
X159885175Y-60458018D01*
X159700000Y-60272842D01*
X159514822Y-60458018D01*
X158485175Y-60458018D01*
X158300000Y-60272842D01*
X158114822Y-60458018D01*
X157307253Y-60458018D01*
X156636819Y-59787584D01*
X156620675Y-59758018D01*
X157414822Y-59758018D01*
X157534176Y-59790000D01*
X157673954Y-59790000D01*
X157673954Y-59792913D01*
X157729121Y-59801497D01*
X157781393Y-59847859D01*
X157800302Y-59915122D01*
X157800000Y-59919358D01*
X157800000Y-60055823D01*
X157831980Y-60175174D01*
X158017156Y-59989999D01*
X157992293Y-59965136D01*
X158175000Y-59965136D01*
X158175000Y-60014864D01*
X158194030Y-60060807D01*
X158229193Y-60095970D01*
X158275136Y-60115000D01*
X158324864Y-60115000D01*
X158370807Y-60095970D01*
X158405970Y-60060807D01*
X158425000Y-60014864D01*
X158425000Y-59989999D01*
X158582842Y-59989999D01*
X158768018Y-60175175D01*
X158800000Y-60055824D01*
X158800000Y-59916046D01*
X158802913Y-59916046D01*
X158803388Y-59912991D01*
X158800951Y-59896042D01*
X158808649Y-59879183D01*
X158811500Y-59860871D01*
X158822863Y-59848060D01*
X158829976Y-59832486D01*
X158845566Y-59822466D01*
X158857865Y-59808602D01*
X158874640Y-59803781D01*
X158888754Y-59794712D01*
X158912636Y-59792864D01*
X158923689Y-59789689D01*
X159076310Y-59789689D01*
X159102323Y-59797327D01*
X159129121Y-59801497D01*
X159135355Y-59807026D01*
X159143349Y-59809374D01*
X159161102Y-59829862D01*
X159181393Y-59847859D01*
X159183648Y-59855881D01*
X159189104Y-59862178D01*
X159192962Y-59889015D01*
X159200302Y-59915122D01*
X159200000Y-59919358D01*
X159200000Y-60055823D01*
X159231980Y-60175174D01*
X159417156Y-59989999D01*
X159392293Y-59965136D01*
X159575000Y-59965136D01*
X159575000Y-60014864D01*
X159594030Y-60060807D01*
X159629193Y-60095970D01*
X159675136Y-60115000D01*
X159724864Y-60115000D01*
X159770807Y-60095970D01*
X159805970Y-60060807D01*
X159825000Y-60014864D01*
X159825000Y-59989999D01*
X159982842Y-59989999D01*
X160168018Y-60175175D01*
X160200000Y-60055824D01*
X160200000Y-59916046D01*
X160202913Y-59916046D01*
X160211500Y-59860871D01*
X160257865Y-59808602D01*
X160325129Y-59789697D01*
X160329362Y-59790000D01*
X160465824Y-59790000D01*
X160585175Y-59758018D01*
X160400000Y-59572842D01*
X160250579Y-59722262D01*
X159982842Y-59989999D01*
X159825000Y-59989999D01*
X159825000Y-59965136D01*
X159805970Y-59919193D01*
X159770807Y-59884030D01*
X159724864Y-59865000D01*
X159675136Y-59865000D01*
X159629193Y-59884030D01*
X159594030Y-59919193D01*
X159575000Y-59965136D01*
X159392293Y-59965136D01*
X159235799Y-59808642D01*
X159130542Y-59703386D01*
X159130541Y-59703384D01*
X159000000Y-59572842D01*
X158850579Y-59722262D01*
X158582842Y-59989999D01*
X158425000Y-59989999D01*
X158425000Y-59965136D01*
X158405970Y-59919193D01*
X158370807Y-59884030D01*
X158324864Y-59865000D01*
X158275136Y-59865000D01*
X158229193Y-59884030D01*
X158194030Y-59919193D01*
X158175000Y-59965136D01*
X157992293Y-59965136D01*
X157835799Y-59808642D01*
X157730542Y-59703386D01*
X157730539Y-59703381D01*
X157600000Y-59572842D01*
X157414822Y-59758018D01*
X156620675Y-59758018D01*
X156603334Y-59726261D01*
X156600500Y-59699903D01*
X156600500Y-59224174D01*
X157100000Y-59224174D01*
X157100000Y-59355823D01*
X157131980Y-59475174D01*
X157317156Y-59289999D01*
X157292293Y-59265136D01*
X157475000Y-59265136D01*
X157475000Y-59314864D01*
X157494030Y-59360807D01*
X157529193Y-59395970D01*
X157575136Y-59415000D01*
X157624864Y-59415000D01*
X157670807Y-59395970D01*
X157705970Y-59360807D01*
X157725000Y-59314864D01*
X157725000Y-59289999D01*
X157882842Y-59289999D01*
X157995930Y-59403087D01*
X157995945Y-59403101D01*
X158118641Y-59525798D01*
X158299999Y-59707156D01*
X158481357Y-59525798D01*
X158604056Y-59403101D01*
X158717156Y-59289999D01*
X158692293Y-59265136D01*
X158875000Y-59265136D01*
X158875000Y-59314864D01*
X158894030Y-59360807D01*
X158929193Y-59395970D01*
X158975136Y-59415000D01*
X159024864Y-59415000D01*
X159070807Y-59395970D01*
X159105970Y-59360807D01*
X159125000Y-59314864D01*
X159125000Y-59289999D01*
X159282842Y-59289999D01*
X159395930Y-59403087D01*
X159395945Y-59403101D01*
X159518641Y-59525798D01*
X159699999Y-59707156D01*
X159881357Y-59525798D01*
X160004056Y-59403101D01*
X160117156Y-59289999D01*
X160092293Y-59265136D01*
X160275000Y-59265136D01*
X160275000Y-59314864D01*
X160294030Y-59360807D01*
X160329193Y-59395970D01*
X160375136Y-59415000D01*
X160424864Y-59415000D01*
X160470807Y-59395970D01*
X160505970Y-59360807D01*
X160525000Y-59314864D01*
X160525000Y-59289999D01*
X160682842Y-59289999D01*
X160868018Y-59475175D01*
X160900000Y-59355824D01*
X160900000Y-59224175D01*
X160868018Y-59104822D01*
X160682842Y-59289999D01*
X160525000Y-59289999D01*
X160525000Y-59265136D01*
X160505970Y-59219193D01*
X160470807Y-59184030D01*
X160424864Y-59165000D01*
X160375136Y-59165000D01*
X160329193Y-59184030D01*
X160294030Y-59219193D01*
X160275000Y-59265136D01*
X160092293Y-59265136D01*
X159935799Y-59108642D01*
X159830542Y-59003386D01*
X159830541Y-59003384D01*
X159700000Y-58872842D01*
X159550579Y-59022262D01*
X159282842Y-59289999D01*
X159125000Y-59289999D01*
X159125000Y-59265136D01*
X159105970Y-59219193D01*
X159070807Y-59184030D01*
X159024864Y-59165000D01*
X158975136Y-59165000D01*
X158929193Y-59184030D01*
X158894030Y-59219193D01*
X158875000Y-59265136D01*
X158692293Y-59265136D01*
X158535799Y-59108642D01*
X158430542Y-59003386D01*
X158430541Y-59003384D01*
X158300000Y-58872842D01*
X158150579Y-59022262D01*
X157882842Y-59289999D01*
X157725000Y-59289999D01*
X157725000Y-59265136D01*
X157705970Y-59219193D01*
X157670807Y-59184030D01*
X157624864Y-59165000D01*
X157575136Y-59165000D01*
X157529193Y-59184030D01*
X157494030Y-59219193D01*
X157475000Y-59265136D01*
X157292293Y-59265136D01*
X157131979Y-59104822D01*
X157100000Y-59224174D01*
X156600500Y-59224174D01*
X156600500Y-58358018D01*
X157414822Y-58358018D01*
X157534176Y-58390000D01*
X157673954Y-58390000D01*
X157673954Y-58392913D01*
X157677006Y-58393388D01*
X157693957Y-58390951D01*
X157710811Y-58398648D01*
X157729121Y-58401497D01*
X157741933Y-58412861D01*
X157757513Y-58419976D01*
X157767530Y-58435564D01*
X157781393Y-58447859D01*
X157786214Y-58464636D01*
X157795287Y-58478754D01*
X157797142Y-58502666D01*
X157800310Y-58513689D01*
X157800310Y-58666310D01*
X157792662Y-58692352D01*
X157788477Y-58719174D01*
X157782963Y-58725384D01*
X157780625Y-58733349D01*
X157760113Y-58751121D01*
X157742090Y-58771424D01*
X157734095Y-58773667D01*
X157727821Y-58779104D01*
X157700954Y-58782967D01*
X157674819Y-58790301D01*
X157670611Y-58790000D01*
X157534174Y-58790000D01*
X157414822Y-58821979D01*
X157599999Y-59007156D01*
X157781357Y-58825798D01*
X157904056Y-58703101D01*
X158017156Y-58589999D01*
X157992293Y-58565136D01*
X158175000Y-58565136D01*
X158175000Y-58614864D01*
X158194030Y-58660807D01*
X158229193Y-58695970D01*
X158275136Y-58715000D01*
X158324864Y-58715000D01*
X158370807Y-58695970D01*
X158405970Y-58660807D01*
X158425000Y-58614864D01*
X158425000Y-58589999D01*
X158582842Y-58589999D01*
X158695930Y-58703087D01*
X158695945Y-58703101D01*
X158818641Y-58825798D01*
X158999999Y-59007156D01*
X159181357Y-58825798D01*
X159304056Y-58703101D01*
X159417156Y-58589999D01*
X159392293Y-58565136D01*
X159575000Y-58565136D01*
X159575000Y-58614864D01*
X159594030Y-58660807D01*
X159629193Y-58695970D01*
X159675136Y-58715000D01*
X159724864Y-58715000D01*
X159770807Y-58695970D01*
X159805970Y-58660807D01*
X159825000Y-58614864D01*
X159825000Y-58589999D01*
X159982842Y-58589999D01*
X160095930Y-58703087D01*
X160095945Y-58703101D01*
X160218641Y-58825798D01*
X160399999Y-59007156D01*
X160585174Y-58821980D01*
X160465823Y-58790000D01*
X160326047Y-58790000D01*
X160326047Y-58787096D01*
X160322962Y-58786615D01*
X160306042Y-58789048D01*
X160289157Y-58781337D01*
X160270819Y-58778474D01*
X160258036Y-58767124D01*
X160242486Y-58760023D01*
X160232450Y-58744407D01*
X160218571Y-58732084D01*
X160213759Y-58715323D01*
X160204712Y-58701245D01*
X160202866Y-58677376D01*
X160199689Y-58666310D01*
X160199689Y-58513689D01*
X160207329Y-58487669D01*
X160211500Y-58460871D01*
X160217028Y-58454638D01*
X160219374Y-58446650D01*
X160239863Y-58428895D01*
X160257865Y-58408602D01*
X160265884Y-58406347D01*
X160272178Y-58400895D01*
X160299017Y-58397035D01*
X160325129Y-58389697D01*
X160329362Y-58390000D01*
X160465824Y-58390000D01*
X160585175Y-58358018D01*
X160400000Y-58172842D01*
X160250579Y-58322262D01*
X159982842Y-58589999D01*
X159825000Y-58589999D01*
X159825000Y-58565136D01*
X159805970Y-58519193D01*
X159770807Y-58484030D01*
X159724864Y-58465000D01*
X159675136Y-58465000D01*
X159629193Y-58484030D01*
X159594030Y-58519193D01*
X159575000Y-58565136D01*
X159392293Y-58565136D01*
X159235799Y-58408642D01*
X159130542Y-58303386D01*
X159130541Y-58303384D01*
X159000000Y-58172842D01*
X158850579Y-58322262D01*
X158582842Y-58589999D01*
X158425000Y-58589999D01*
X158425000Y-58565136D01*
X158405970Y-58519193D01*
X158370807Y-58484030D01*
X158324864Y-58465000D01*
X158275136Y-58465000D01*
X158229193Y-58484030D01*
X158194030Y-58519193D01*
X158175000Y-58565136D01*
X157992293Y-58565136D01*
X157835799Y-58408642D01*
X157730542Y-58303386D01*
X157730539Y-58303381D01*
X157600000Y-58172842D01*
X157414822Y-58358018D01*
X156600500Y-58358018D01*
X156600500Y-57824174D01*
X157100000Y-57824174D01*
X157100000Y-57955823D01*
X157131980Y-58075174D01*
X157317156Y-57889999D01*
X157292293Y-57865136D01*
X157475000Y-57865136D01*
X157475000Y-57914864D01*
X157494030Y-57960807D01*
X157529193Y-57995970D01*
X157575136Y-58015000D01*
X157624864Y-58015000D01*
X157670807Y-57995970D01*
X157705970Y-57960807D01*
X157725000Y-57914864D01*
X157725000Y-57889999D01*
X157882842Y-57889999D01*
X157995930Y-58003087D01*
X157995945Y-58003101D01*
X158118641Y-58125798D01*
X158299999Y-58307156D01*
X158481357Y-58125798D01*
X158604056Y-58003101D01*
X158717156Y-57889999D01*
X158692293Y-57865136D01*
X158875000Y-57865136D01*
X158875000Y-57914864D01*
X158894030Y-57960807D01*
X158929193Y-57995970D01*
X158975136Y-58015000D01*
X159024864Y-58015000D01*
X159070807Y-57995970D01*
X159105970Y-57960807D01*
X159125000Y-57914864D01*
X159125000Y-57889999D01*
X159282842Y-57889999D01*
X159395930Y-58003087D01*
X159395945Y-58003101D01*
X159518641Y-58125798D01*
X159699999Y-58307156D01*
X159881357Y-58125798D01*
X160004056Y-58003101D01*
X160117156Y-57889999D01*
X160092293Y-57865136D01*
X160275000Y-57865136D01*
X160275000Y-57914864D01*
X160294030Y-57960807D01*
X160329193Y-57995970D01*
X160375136Y-58015000D01*
X160424864Y-58015000D01*
X160470807Y-57995970D01*
X160505970Y-57960807D01*
X160525000Y-57914864D01*
X160525000Y-57889999D01*
X160682842Y-57889999D01*
X160868018Y-58075175D01*
X160900000Y-57955824D01*
X160900000Y-57824175D01*
X160868018Y-57704822D01*
X160682842Y-57889999D01*
X160525000Y-57889999D01*
X160525000Y-57865136D01*
X160505970Y-57819193D01*
X160470807Y-57784030D01*
X160424864Y-57765000D01*
X160375136Y-57765000D01*
X160329193Y-57784030D01*
X160294030Y-57819193D01*
X160275000Y-57865136D01*
X160092293Y-57865136D01*
X159935799Y-57708642D01*
X159830542Y-57603386D01*
X159830541Y-57603384D01*
X159700000Y-57472842D01*
X159550579Y-57622262D01*
X159282842Y-57889999D01*
X159125000Y-57889999D01*
X159125000Y-57865136D01*
X159105970Y-57819193D01*
X159070807Y-57784030D01*
X159024864Y-57765000D01*
X158975136Y-57765000D01*
X158929193Y-57784030D01*
X158894030Y-57819193D01*
X158875000Y-57865136D01*
X158692293Y-57865136D01*
X158535799Y-57708642D01*
X158430542Y-57603386D01*
X158430541Y-57603384D01*
X158300000Y-57472842D01*
X158150579Y-57622262D01*
X157882842Y-57889999D01*
X157725000Y-57889999D01*
X157725000Y-57865136D01*
X157705970Y-57819193D01*
X157670807Y-57784030D01*
X157624864Y-57765000D01*
X157575136Y-57765000D01*
X157529193Y-57784030D01*
X157494030Y-57819193D01*
X157475000Y-57865136D01*
X157292293Y-57865136D01*
X157131979Y-57704822D01*
X157100000Y-57824174D01*
X156600500Y-57824174D01*
X156600500Y-57421979D01*
X157414822Y-57421979D01*
X157599999Y-57607156D01*
X157781357Y-57425798D01*
X157904056Y-57303101D01*
X158017156Y-57189999D01*
X157992293Y-57165136D01*
X158175000Y-57165136D01*
X158175000Y-57214864D01*
X158194030Y-57260807D01*
X158229193Y-57295970D01*
X158275136Y-57315000D01*
X158324864Y-57315000D01*
X158370807Y-57295970D01*
X158405970Y-57260807D01*
X158425000Y-57214864D01*
X158425000Y-57189999D01*
X158582842Y-57189999D01*
X158695930Y-57303087D01*
X158695945Y-57303101D01*
X158818641Y-57425798D01*
X158999999Y-57607156D01*
X159181357Y-57425798D01*
X159304056Y-57303101D01*
X159417156Y-57189999D01*
X159392293Y-57165136D01*
X159575000Y-57165136D01*
X159575000Y-57214864D01*
X159594030Y-57260807D01*
X159629193Y-57295970D01*
X159675136Y-57315000D01*
X159724864Y-57315000D01*
X159770807Y-57295970D01*
X159805970Y-57260807D01*
X159825000Y-57214864D01*
X159825000Y-57189999D01*
X159982842Y-57189999D01*
X160095930Y-57303087D01*
X160095945Y-57303101D01*
X160218641Y-57425798D01*
X160399999Y-57607156D01*
X160585174Y-57421980D01*
X160465823Y-57390000D01*
X160326047Y-57390000D01*
X160326047Y-57387096D01*
X160270819Y-57378474D01*
X160218571Y-57332084D01*
X160199698Y-57264812D01*
X160200000Y-57260603D01*
X160200000Y-57124175D01*
X160168018Y-57004822D01*
X159982842Y-57189999D01*
X159825000Y-57189999D01*
X159825000Y-57165136D01*
X159805970Y-57119193D01*
X159770807Y-57084030D01*
X159724864Y-57065000D01*
X159675136Y-57065000D01*
X159629193Y-57084030D01*
X159594030Y-57119193D01*
X159575000Y-57165136D01*
X159392293Y-57165136D01*
X159231979Y-57004822D01*
X159200000Y-57124174D01*
X159200000Y-57263953D01*
X159197095Y-57263953D01*
X159196614Y-57267032D01*
X159199048Y-57283957D01*
X159191338Y-57300838D01*
X159188477Y-57319174D01*
X159177125Y-57331959D01*
X159170023Y-57347513D01*
X159154410Y-57357546D01*
X159142090Y-57371424D01*
X159125327Y-57376236D01*
X159111245Y-57385287D01*
X159087349Y-57387140D01*
X159076310Y-57390310D01*
X158923689Y-57390310D01*
X158897643Y-57382661D01*
X158870819Y-57378474D01*
X158864611Y-57372962D01*
X158856650Y-57370625D01*
X158838874Y-57350111D01*
X158818571Y-57332084D01*
X158816328Y-57324092D01*
X158810895Y-57317821D01*
X158807031Y-57290952D01*
X158799698Y-57264812D01*
X158800000Y-57260603D01*
X158800000Y-57124175D01*
X158768018Y-57004822D01*
X158582842Y-57189999D01*
X158425000Y-57189999D01*
X158425000Y-57165136D01*
X158405970Y-57119193D01*
X158370807Y-57084030D01*
X158324864Y-57065000D01*
X158275136Y-57065000D01*
X158229193Y-57084030D01*
X158194030Y-57119193D01*
X158175000Y-57165136D01*
X157992293Y-57165136D01*
X157831979Y-57004822D01*
X157800000Y-57124174D01*
X157800000Y-57263953D01*
X157797095Y-57263953D01*
X157788477Y-57319174D01*
X157742090Y-57371424D01*
X157674819Y-57390301D01*
X157670611Y-57390000D01*
X157534174Y-57390000D01*
X157414822Y-57421979D01*
X156600500Y-57421979D01*
X156600500Y-56839058D01*
X156600500Y-56829060D01*
X156600501Y-56829058D01*
X156600501Y-56721979D01*
X158114822Y-56721979D01*
X158299999Y-56907156D01*
X158485174Y-56721980D01*
X158485170Y-56721979D01*
X159514822Y-56721979D01*
X159699999Y-56907156D01*
X159885174Y-56721980D01*
X159765823Y-56690000D01*
X159634174Y-56690000D01*
X159514822Y-56721979D01*
X158485170Y-56721979D01*
X158365823Y-56690000D01*
X158234174Y-56690000D01*
X158114822Y-56721979D01*
X156600501Y-56721979D01*
X156600501Y-56670943D01*
X156559577Y-56518216D01*
X156543120Y-56489711D01*
X156480524Y-56381290D01*
X156480518Y-56381282D01*
X154502514Y-54403279D01*
X154494835Y-54389217D01*
X154483173Y-54378227D01*
X154478433Y-54359179D01*
X154469029Y-54341956D01*
X154470171Y-54325973D01*
X154466303Y-54310424D01*
X154472613Y-54291840D01*
X154474013Y-54272264D01*
X154483873Y-54258676D01*
X154488767Y-54244265D01*
X154505663Y-54228651D01*
X154512973Y-54218579D01*
X154519685Y-54213236D01*
X154575687Y-54180117D01*
X154631823Y-54123980D01*
X154637312Y-54119612D01*
X154663426Y-54108978D01*
X154688175Y-54095465D01*
X154695512Y-54095914D01*
X154702023Y-54093264D01*
X154726347Y-54097804D01*
X154747943Y-54099127D01*
X154750000Y-54097668D01*
X154750000Y-54097667D01*
X155250000Y-54097667D01*
X155347922Y-54063403D01*
X155454641Y-53984641D01*
X155533405Y-53877919D01*
X155577212Y-53752727D01*
X155577213Y-53752725D01*
X155577469Y-53750000D01*
X155250000Y-53750000D01*
X155250000Y-54097667D01*
X154750000Y-54097667D01*
X154750000Y-53998352D01*
X154767267Y-53935233D01*
X154772494Y-53926395D01*
X154774017Y-53921155D01*
X154817642Y-53770997D01*
X154817643Y-53770991D01*
X154817997Y-53766498D01*
X154820500Y-53734690D01*
X154820500Y-53624000D01*
X154840185Y-53556961D01*
X154892989Y-53511206D01*
X154944500Y-53500000D01*
X155000000Y-53500000D01*
X155000000Y-53374000D01*
X155019685Y-53306961D01*
X155072489Y-53261206D01*
X155124000Y-53250000D01*
X155577467Y-53250000D01*
X155577212Y-53247272D01*
X155558317Y-53193274D01*
X155554754Y-53123495D01*
X155588435Y-53064696D01*
X155588376Y-53064637D01*
X155588593Y-53064419D01*
X155589483Y-53062867D01*
X155590863Y-53062149D01*
X155624695Y-53028318D01*
X156124695Y-53028318D01*
X156140797Y-53028318D01*
X156225162Y-53018186D01*
X156225163Y-53018186D01*
X156359424Y-52965240D01*
X156474416Y-52878039D01*
X156561617Y-52763047D01*
X156614563Y-52628786D01*
X156614563Y-52628785D01*
X156624695Y-52544420D01*
X156624695Y-52503318D01*
X156124695Y-52503318D01*
X156124695Y-53028318D01*
X155624695Y-53028318D01*
X155624695Y-52003318D01*
X156124695Y-52003318D01*
X156624695Y-52003318D01*
X156624695Y-51962215D01*
X156614563Y-51877850D01*
X156614563Y-51877849D01*
X156561617Y-51743588D01*
X156474416Y-51628596D01*
X156359424Y-51541395D01*
X156225162Y-51488449D01*
X156140797Y-51478318D01*
X156124695Y-51478318D01*
X156124695Y-52003318D01*
X155624695Y-52003318D01*
X155624695Y-51478318D01*
X155608593Y-51478318D01*
X155524227Y-51488449D01*
X155524226Y-51488449D01*
X155389965Y-51541395D01*
X155312904Y-51599833D01*
X155247593Y-51624656D01*
X155179229Y-51610228D01*
X155132440Y-51566125D01*
X155122663Y-51550274D01*
X155002739Y-51430350D01*
X155002735Y-51430347D01*
X154858400Y-51341319D01*
X154858394Y-51341316D01*
X154858392Y-51341315D01*
X154858389Y-51341314D01*
X154697404Y-51287969D01*
X154598041Y-51277818D01*
X154051357Y-51277818D01*
X154051339Y-51277819D01*
X153951987Y-51287968D01*
X153951984Y-51287969D01*
X153791000Y-51341314D01*
X153790989Y-51341319D01*
X153646654Y-51430347D01*
X153646650Y-51430350D01*
X153526726Y-51550274D01*
X153434061Y-51700505D01*
X153382112Y-51747229D01*
X153313150Y-51758450D01*
X153281073Y-51749969D01*
X153233497Y-51730263D01*
X153233494Y-51730262D01*
X153233491Y-51730261D01*
X153078845Y-51699500D01*
X153078842Y-51699500D01*
X152921158Y-51699500D01*
X152921155Y-51699500D01*
X152766510Y-51730261D01*
X152766498Y-51730264D01*
X152620827Y-51790602D01*
X152620814Y-51790609D01*
X152489711Y-51878210D01*
X152489707Y-51878213D01*
X152378213Y-51989707D01*
X152378210Y-51989711D01*
X152290609Y-52120814D01*
X152290602Y-52120827D01*
X152230264Y-52266498D01*
X152230261Y-52266510D01*
X152199500Y-52421153D01*
X152199500Y-52578846D01*
X152230261Y-52733489D01*
X152230264Y-52733501D01*
X152290602Y-52879172D01*
X152290609Y-52879185D01*
X152378602Y-53010874D01*
X152399480Y-53077551D01*
X152399500Y-53079765D01*
X152399500Y-53670939D01*
X152399499Y-53670943D01*
X152399499Y-53829057D01*
X152413615Y-53881739D01*
X152414397Y-53894056D01*
X152409307Y-53916581D01*
X152408758Y-53939670D01*
X152401342Y-53951836D01*
X152398999Y-53962208D01*
X152389056Y-53971992D01*
X152378329Y-53989592D01*
X152328943Y-54038979D01*
X152241344Y-54170079D01*
X152241337Y-54170092D01*
X152180999Y-54315763D01*
X152180996Y-54315775D01*
X152150235Y-54470418D01*
X152150235Y-54628111D01*
X152180996Y-54782754D01*
X152180999Y-54782766D01*
X152241337Y-54928437D01*
X152241344Y-54928450D01*
X152284547Y-54993107D01*
X152305425Y-55059784D01*
X152292151Y-55114867D01*
X152292937Y-55115193D01*
X152290872Y-55120176D01*
X152290809Y-55120441D01*
X152290605Y-55120821D01*
X152230264Y-55266498D01*
X152230261Y-55266510D01*
X152199500Y-55421153D01*
X152199500Y-55578846D01*
X152230261Y-55733489D01*
X152230264Y-55733501D01*
X152290602Y-55879172D01*
X152290609Y-55879185D01*
X152378210Y-56010288D01*
X152378213Y-56010292D01*
X152489707Y-56121786D01*
X152489711Y-56121789D01*
X152620814Y-56209390D01*
X152620827Y-56209397D01*
X152671843Y-56230528D01*
X152766503Y-56269737D01*
X152831147Y-56282595D01*
X152921849Y-56300638D01*
X152983760Y-56333023D01*
X152985333Y-56334568D01*
X153193070Y-56542306D01*
X153226555Y-56603628D01*
X153221571Y-56673320D01*
X153179699Y-56729253D01*
X153174280Y-56733088D01*
X153055398Y-56812523D01*
X153055394Y-56812526D01*
X152943900Y-56924020D01*
X152943897Y-56924024D01*
X152856296Y-57055127D01*
X152856291Y-57055137D01*
X152806980Y-57174185D01*
X152763139Y-57228588D01*
X152739872Y-57241293D01*
X152620824Y-57290604D01*
X152620814Y-57290609D01*
X152489711Y-57378210D01*
X152489707Y-57378213D01*
X152378213Y-57489707D01*
X152378210Y-57489711D01*
X152290609Y-57620814D01*
X152290602Y-57620827D01*
X152230264Y-57766498D01*
X152230261Y-57766510D01*
X152199500Y-57921153D01*
X152199500Y-58080596D01*
X152179815Y-58147635D01*
X152144391Y-58183698D01*
X152051929Y-58245479D01*
X152051925Y-58245482D01*
X151940431Y-58356976D01*
X151940428Y-58356980D01*
X151852827Y-58488083D01*
X151852820Y-58488096D01*
X151792482Y-58633767D01*
X151792479Y-58633779D01*
X151761718Y-58788422D01*
X151761718Y-58946115D01*
X151792479Y-59100758D01*
X151792482Y-59100770D01*
X151852820Y-59246441D01*
X151852827Y-59246454D01*
X151940428Y-59377557D01*
X151940431Y-59377561D01*
X152051925Y-59489055D01*
X152051929Y-59489058D01*
X152122281Y-59536066D01*
X152167086Y-59589678D01*
X152175793Y-59659003D01*
X152145639Y-59722030D01*
X152141074Y-59726847D01*
X152128210Y-59739711D01*
X152040609Y-59870814D01*
X152040602Y-59870827D01*
X151980264Y-60016498D01*
X151980261Y-60016510D01*
X151949500Y-60171153D01*
X151949500Y-60328846D01*
X151980261Y-60483489D01*
X151980264Y-60483501D01*
X152040602Y-60629172D01*
X152040609Y-60629185D01*
X152128601Y-60760873D01*
X152149479Y-60827550D01*
X152149499Y-60829764D01*
X152149499Y-60980525D01*
X152149498Y-60980525D01*
X152157474Y-61010292D01*
X152190423Y-61133256D01*
X152194146Y-61139704D01*
X152199597Y-61149147D01*
X152199599Y-61149149D01*
X152269477Y-61270183D01*
X152269481Y-61270188D01*
X152350630Y-61351337D01*
X152384115Y-61412660D01*
X152379131Y-61482352D01*
X152366051Y-61507909D01*
X152290609Y-61620814D01*
X152290602Y-61620827D01*
X152230264Y-61766498D01*
X152230261Y-61766510D01*
X152199500Y-61921153D01*
X152199500Y-61921158D01*
X152199500Y-62078842D01*
X152199501Y-62078846D01*
X152206472Y-62113894D01*
X152200243Y-62183485D01*
X152172536Y-62225765D01*
X152106056Y-62292245D01*
X152018455Y-62423348D01*
X152018448Y-62423361D01*
X151958110Y-62569032D01*
X151958107Y-62569044D01*
X151927346Y-62723687D01*
X151927346Y-62881380D01*
X151958107Y-63036023D01*
X151958110Y-63036035D01*
X152018454Y-63181719D01*
X152018697Y-63182174D01*
X152018752Y-63182439D01*
X152020783Y-63187342D01*
X152019852Y-63187727D01*
X152032934Y-63250577D01*
X152007930Y-63315819D01*
X151997017Y-63328300D01*
X151903772Y-63421545D01*
X151816171Y-63552648D01*
X151816164Y-63552661D01*
X151755826Y-63698332D01*
X151755823Y-63698344D01*
X151725062Y-63852987D01*
X151725062Y-64010680D01*
X151755823Y-64165323D01*
X151755826Y-64165335D01*
X151816164Y-64311006D01*
X151816171Y-64311019D01*
X151903772Y-64442122D01*
X151903775Y-64442126D01*
X152015269Y-64553620D01*
X152015273Y-64553623D01*
X152143432Y-64639257D01*
X152188237Y-64692869D01*
X152196944Y-64762194D01*
X152177643Y-64811249D01*
X152112506Y-64908733D01*
X152112496Y-64908751D01*
X152052158Y-65054422D01*
X152052155Y-65054434D01*
X152021394Y-65209077D01*
X152021394Y-65366770D01*
X152052155Y-65521413D01*
X152052158Y-65521425D01*
X152112496Y-65667096D01*
X152112503Y-65667109D01*
X152200104Y-65798212D01*
X152200107Y-65798216D01*
X152311599Y-65909708D01*
X152311604Y-65909712D01*
X152311605Y-65909713D01*
X152344389Y-65931618D01*
X152389194Y-65985228D01*
X152399499Y-66034720D01*
X152399499Y-66079054D01*
X152399498Y-66079054D01*
X152440014Y-66230261D01*
X152440423Y-66231785D01*
X152462335Y-66269737D01*
X152519480Y-66368716D01*
X152524324Y-66373560D01*
X152531973Y-66386374D01*
X152538969Y-66413485D01*
X152549069Y-66439606D01*
X152549500Y-66449930D01*
X152549500Y-70586000D01*
X152529815Y-70653039D01*
X152477011Y-70698794D01*
X152425500Y-70710000D01*
X152250000Y-70710000D01*
X152250000Y-71426988D01*
X152192993Y-71394075D01*
X152065826Y-71360000D01*
X151934174Y-71360000D01*
X151807007Y-71394075D01*
X151750000Y-71426988D01*
X151750000Y-70710000D01*
X151105214Y-70710000D01*
X151105191Y-70710002D01*
X151080130Y-70712908D01*
X151080126Y-70712909D01*
X150977525Y-70758211D01*
X150977520Y-70758214D01*
X150898214Y-70837520D01*
X150898211Y-70837525D01*
X150852910Y-70940122D01*
X150852910Y-70940124D01*
X150850000Y-70965205D01*
X150850000Y-71610000D01*
X151566988Y-71610000D01*
X151534075Y-71667007D01*
X151500000Y-71794174D01*
X151500000Y-71925826D01*
X151534075Y-72052993D01*
X151566988Y-72110000D01*
X150850001Y-72110000D01*
X150850001Y-72754785D01*
X150850002Y-72754808D01*
X150852908Y-72779869D01*
X150852909Y-72779873D01*
X150898211Y-72882474D01*
X150898214Y-72882479D01*
X150977520Y-72961785D01*
X150977525Y-72961788D01*
X151080123Y-73007089D01*
X151105206Y-73009999D01*
X151236799Y-73009999D01*
X151303839Y-73029683D01*
X151349594Y-73082487D01*
X151359538Y-73151645D01*
X151330514Y-73215201D01*
X151296148Y-73242098D01*
X151296336Y-73242404D01*
X151293674Y-73244034D01*
X151293111Y-73244476D01*
X151292182Y-73244949D01*
X151120213Y-73369890D01*
X150969890Y-73520213D01*
X150844951Y-73692179D01*
X150748445Y-73881582D01*
X150748443Y-73881587D01*
X150748443Y-73881588D01*
X150742429Y-73900094D01*
X150702992Y-73957768D01*
X150638633Y-73984965D01*
X150569787Y-73973050D01*
X150518312Y-73925805D01*
X150500500Y-73861773D01*
X150500500Y-50124000D01*
X150520185Y-50056961D01*
X150572989Y-50011206D01*
X150624500Y-50000000D01*
X170375500Y-50000000D01*
X170442539Y-50019685D01*
G37*
%TD.AperFunction*%
%TD*%
M02*
