%TF.GenerationSoftware,KiCad,Pcbnew,10.0.4*%
%TF.CreationDate,2026-06-30T21:35:09-07:00*%
%TF.ProjectId,esp32-breadboard-board,65737033-322d-4627-9265-6164626f6172,rev?*%
%TF.SameCoordinates,Original*%
%TF.FileFunction,Paste,Top*%
%TF.FilePolarity,Positive*%
%FSLAX46Y46*%
G04 Gerber Fmt 4.6, Leading zero omitted, Abs format (unit mm)*
G04 Created by KiCad (PCBNEW 10.0.4) date 2026-06-30 21:35:09*
%MOMM*%
%LPD*%
G01*
G04 APERTURE LIST*
G04 Aperture macros list*
%AMRoundRect*
0 Rectangle with rounded corners*
0 $1 Rounding radius*
0 $2 $3 $4 $5 $6 $7 $8 $9 X,Y pos of 4 corners*
0 Add a 4 corners polygon primitive as box body*
4,1,4,$2,$3,$4,$5,$6,$7,$8,$9,$2,$3,0*
0 Add four circle primitives for the rounded corners*
1,1,$1+$1,$2,$3*
1,1,$1+$1,$4,$5*
1,1,$1+$1,$6,$7*
1,1,$1+$1,$8,$9*
0 Add four rect primitives between the rounded corners*
20,1,$1+$1,$2,$3,$4,$5,0*
20,1,$1+$1,$4,$5,$6,$7,0*
20,1,$1+$1,$6,$7,$8,$9,0*
20,1,$1+$1,$8,$9,$2,$3,0*%
%AMFreePoly0*
4,1,17,0.335278,0.685443,0.349923,0.650088,0.349923,-0.649935,0.335278,-0.685290,0.299923,-0.699935,0.000318,-0.699935,-0.000051,-0.700088,-0.300050,-0.700088,-0.335405,-0.685443,-0.350050,-0.650088,-0.350050,0.649935,-0.335405,0.685290,-0.300050,0.699935,-0.000445,0.699935,-0.000076,0.700088,0.299923,0.700088,0.335278,0.685443,0.335278,0.685443,$1*%
%AMFreePoly1*
4,1,17,0.335431,0.685290,0.350076,0.649935,0.350076,-0.650037,0.335431,-0.685392,0.300076,-0.700037,0.000187,-0.700037,0.000127,-0.700062,-0.299898,-0.700062,-0.335253,-0.685417,-0.349898,-0.650062,-0.349898,0.649910,-0.335253,0.685265,-0.299898,0.699910,-0.000009,0.699910,0.000051,0.699935,0.300076,0.699935,0.335431,0.685290,0.335431,0.685290,$1*%
%AMFreePoly2*
4,1,13,0.335227,0.685443,0.349872,0.650088,0.349872,-0.649884,0.335227,-0.685239,0.299872,-0.699884,-0.300152,-0.699884,-0.335507,-0.685239,-0.350152,-0.649884,-0.350152,0.650088,-0.335507,0.685443,-0.300152,0.700088,0.299872,0.700088,0.335227,0.685443,0.335227,0.685443,$1*%
G04 Aperture macros list end*
%ADD10RoundRect,0.140000X-0.170000X0.140000X-0.170000X-0.140000X0.170000X-0.140000X0.170000X0.140000X0*%
%ADD11R,1.220000X0.910000*%
%ADD12R,1.860000X1.230000*%
%ADD13RoundRect,0.225000X0.250000X-0.225000X0.250000X0.225000X-0.250000X0.225000X-0.250000X-0.225000X0*%
%ADD14R,1.500000X0.900000*%
%ADD15R,0.900000X1.500000*%
%ADD16R,0.900000X0.900000*%
%ADD17C,0.400000*%
%ADD18RoundRect,0.225000X-0.250000X0.225000X-0.250000X-0.225000X0.250000X-0.225000X0.250000X0.225000X0*%
%ADD19RoundRect,0.135000X0.185000X-0.135000X0.185000X0.135000X-0.185000X0.135000X-0.185000X-0.135000X0*%
%ADD20RoundRect,0.218750X-0.256250X0.218750X-0.256250X-0.218750X0.256250X-0.218750X0.256250X0.218750X0*%
%ADD21FreePoly0,0.000000*%
%ADD22FreePoly1,0.000000*%
%ADD23R,0.300000X1.300000*%
%ADD24FreePoly2,0.000000*%
%ADD25RoundRect,0.140000X0.170000X-0.140000X0.170000X0.140000X-0.170000X0.140000X-0.170000X-0.140000X0*%
%ADD26RoundRect,0.150000X0.150000X-0.512500X0.150000X0.512500X-0.150000X0.512500X-0.150000X-0.512500X0*%
%ADD27R,2.500000X1.100000*%
%ADD28R,2.340000X3.600000*%
%ADD29RoundRect,0.147500X0.147500X0.172500X-0.147500X0.172500X-0.147500X-0.172500X0.147500X-0.172500X0*%
%ADD30RoundRect,0.135000X-0.135000X-0.185000X0.135000X-0.185000X0.135000X0.185000X-0.135000X0.185000X0*%
G04 APERTURE END LIST*
D10*
%TO.C,C15*%
X159000000Y-108000000D03*
X159000000Y-108960000D03*
%TD*%
D11*
%TO.C,D1*%
X163500000Y-103860000D03*
X163500000Y-107140000D03*
%TD*%
D12*
%TO.C,SW1*%
X165500000Y-114000000D03*
X165500000Y-109640000D03*
%TD*%
D13*
%TO.C,C7*%
X157000000Y-105275000D03*
X157000000Y-103725000D03*
%TD*%
D14*
%TO.C,U1*%
X151600000Y-50880000D03*
X151600000Y-52150000D03*
X151600000Y-53420000D03*
X151600000Y-54690000D03*
X151600000Y-55960000D03*
X151600000Y-57230000D03*
X151600000Y-58500000D03*
X151600000Y-59770000D03*
X151600000Y-61040000D03*
X151600000Y-62310000D03*
X151600000Y-63580000D03*
X151600000Y-64850000D03*
X151600000Y-66120000D03*
X151600000Y-67390000D03*
D15*
X153520000Y-68780000D03*
X154790000Y-68780000D03*
X156060000Y-68780000D03*
X157330000Y-68780000D03*
X158600000Y-68780000D03*
X159870000Y-68780000D03*
X161140000Y-68780000D03*
X162410000Y-68780000D03*
X163680000Y-68780000D03*
X164950000Y-68780000D03*
X166220000Y-68780000D03*
X167490000Y-68780000D03*
D14*
X169400000Y-67390000D03*
X169400000Y-66120000D03*
X169400000Y-64850000D03*
X169400000Y-63580000D03*
X169400000Y-62310000D03*
X169400000Y-61040000D03*
X169400000Y-59770000D03*
X169400000Y-58500000D03*
X169400000Y-57230000D03*
X169400000Y-55960000D03*
X169400000Y-54690000D03*
X169400000Y-53420000D03*
X169400000Y-52150000D03*
X169400000Y-50880000D03*
D16*
X157600000Y-57190000D03*
D17*
X157600000Y-57890000D03*
D16*
X157600000Y-58590000D03*
D17*
X157600000Y-59290000D03*
D16*
X157600000Y-59990000D03*
D17*
X158300000Y-57190000D03*
X158300000Y-58590000D03*
X158300000Y-59990000D03*
D16*
X159000000Y-57190000D03*
D17*
X159000000Y-57890000D03*
D16*
X159000000Y-58590000D03*
D17*
X159000000Y-59290000D03*
D16*
X159000000Y-59990000D03*
D17*
X159700000Y-57190000D03*
X159700000Y-58590000D03*
X159700000Y-59990000D03*
D16*
X160400000Y-57190000D03*
D17*
X160400000Y-57890000D03*
D16*
X160400000Y-58590000D03*
D17*
X160400000Y-59290000D03*
D16*
X160400000Y-59990000D03*
%TD*%
D18*
%TO.C,C13*%
X157745000Y-110230000D03*
X157745000Y-111780000D03*
%TD*%
D19*
%TO.C,R2*%
X163013653Y-113893152D03*
X163013653Y-112873152D03*
%TD*%
D13*
%TO.C,C10*%
X164000000Y-97275000D03*
X164000000Y-95725000D03*
%TD*%
D19*
%TO.C,R1*%
X158500000Y-113890727D03*
X158500000Y-112870727D03*
%TD*%
D20*
%TO.C,D5*%
X164000315Y-90852267D03*
X164000315Y-92427267D03*
%TD*%
D19*
%TO.C,R3*%
X164266355Y-94595855D03*
X164266355Y-93575855D03*
%TD*%
D21*
%TO.C,USBC1*%
X157300000Y-115507544D03*
D22*
X158100000Y-115507544D03*
D23*
X159250000Y-115507544D03*
X160250000Y-115507544D03*
X160750000Y-115507544D03*
X161750000Y-115507544D03*
D24*
X163700000Y-115507544D03*
X162900000Y-115507544D03*
D23*
X162250000Y-115507544D03*
X161250000Y-115507544D03*
X159750000Y-115507544D03*
X158750000Y-115507544D03*
%TD*%
D25*
%TO.C,C9*%
X165213296Y-97558182D03*
X165213296Y-96598182D03*
%TD*%
D19*
%TO.C,R5*%
X165000000Y-108500000D03*
X165000000Y-107480000D03*
%TD*%
D12*
%TO.C,SW2*%
X155500000Y-114180000D03*
X155500000Y-109820000D03*
%TD*%
D26*
%TO.C,U2*%
X160050001Y-112499999D03*
X161000001Y-112499999D03*
X161950001Y-112500001D03*
X161949999Y-110225001D03*
X160999999Y-110225001D03*
X160049999Y-110224999D03*
%TD*%
D27*
%TO.C,U3*%
X158030000Y-97700000D03*
X158030000Y-100000000D03*
X158030000Y-102300000D03*
D28*
X163970000Y-100000000D03*
%TD*%
D29*
%TO.C,F1*%
X161985000Y-107000000D03*
X161015000Y-107000000D03*
%TD*%
D10*
%TO.C,C14*%
X156500000Y-107520000D03*
X156500000Y-108480000D03*
%TD*%
D25*
%TO.C,C8*%
X158211044Y-104412653D03*
X158211044Y-103452653D03*
%TD*%
D30*
%TO.C,R6*%
X156990000Y-73000000D03*
X158010000Y-73000000D03*
%TD*%
M02*
