%TF.GenerationSoftware,KiCad,Pcbnew,10.0.4*%
%TF.CreationDate,2026-06-30T21:35:09-07:00*%
%TF.ProjectId,esp32-breadboard-board,65737033-322d-4627-9265-6164626f6172,rev?*%
%TF.SameCoordinates,Original*%
%TF.FileFunction,Copper,L1,Top*%
%TF.FilePolarity,Positive*%
%FSLAX46Y46*%
G04 Gerber Fmt 4.6, Leading zero omitted, Abs format (unit mm)*
G04 Created by KiCad (PCBNEW 10.0.4) date 2026-06-30 21:35:09*
%MOMM*%
%LPD*%
G01*
G04 APERTURE LIST*
G04 Aperture macros list*
%AMRoundRect*
0 Rectangle with rounded corners*
0 $1 Rounding radius*
0 $2 $3 $4 $5 $6 $7 $8 $9 X,Y pos of 4 corners*
0 Add a 4 corners polygon primitive as box body*
4,1,4,$2,$3,$4,$5,$6,$7,$8,$9,$2,$3,0*
0 Add four circle primitives for the rounded corners*
1,1,$1+$1,$2,$3*
1,1,$1+$1,$4,$5*
1,1,$1+$1,$6,$7*
1,1,$1+$1,$8,$9*
0 Add four rect primitives between the rounded corners*
20,1,$1+$1,$2,$3,$4,$5,0*
20,1,$1+$1,$4,$5,$6,$7,0*
20,1,$1+$1,$6,$7,$8,$9,0*
20,1,$1+$1,$8,$9,$2,$3,0*%
%AMFreePoly0*
4,1,17,0.335278,0.685443,0.349923,0.650088,0.349923,-0.649935,0.335278,-0.685290,0.299923,-0.699935,0.000318,-0.699935,-0.000051,-0.700088,-0.300050,-0.700088,-0.335405,-0.685443,-0.350050,-0.650088,-0.350050,0.649935,-0.335405,0.685290,-0.300050,0.699935,-0.000445,0.699935,-0.000076,0.700088,0.299923,0.700088,0.335278,0.685443,0.335278,0.685443,$1*%
%AMFreePoly1*
4,1,17,0.335431,0.685290,0.350076,0.649935,0.350076,-0.650037,0.335431,-0.685392,0.300076,-0.700037,0.000187,-0.700037,0.000127,-0.700062,-0.299898,-0.700062,-0.335253,-0.685417,-0.349898,-0.650062,-0.349898,0.649910,-0.335253,0.685265,-0.299898,0.699910,-0.000009,0.699910,0.000051,0.699935,0.300076,0.699935,0.335431,0.685290,0.335431,0.685290,$1*%
%AMFreePoly2*
4,1,13,0.335227,0.685443,0.349872,0.650088,0.349872,-0.649884,0.335227,-0.685239,0.299872,-0.699884,-0.300152,-0.699884,-0.335507,-0.685239,-0.350152,-0.649884,-0.350152,0.650088,-0.335507,0.685443,-0.300152,0.700088,0.299872,0.700088,0.335227,0.685443,0.335227,0.685443,$1*%
G04 Aperture macros list end*
%TA.AperFunction,SMDPad,CuDef*%
%ADD10RoundRect,0.140000X-0.170000X0.140000X-0.170000X-0.140000X0.170000X-0.140000X0.170000X0.140000X0*%
%TD*%
%TA.AperFunction,SMDPad,CuDef*%
%ADD11R,1.220000X0.910000*%
%TD*%
%TA.AperFunction,SMDPad,CuDef*%
%ADD12R,1.860000X1.230000*%
%TD*%
%TA.AperFunction,ComponentPad*%
%ADD13R,1.700000X1.700000*%
%TD*%
%TA.AperFunction,ComponentPad*%
%ADD14C,1.700000*%
%TD*%
%TA.AperFunction,SMDPad,CuDef*%
%ADD15RoundRect,0.225000X0.250000X-0.225000X0.250000X0.225000X-0.250000X0.225000X-0.250000X-0.225000X0*%
%TD*%
%TA.AperFunction,SMDPad,CuDef*%
%ADD16R,1.500000X0.900000*%
%TD*%
%TA.AperFunction,SMDPad,CuDef*%
%ADD17R,0.900000X1.500000*%
%TD*%
%TA.AperFunction,SMDPad,CuDef*%
%ADD18R,0.900000X0.900000*%
%TD*%
%TA.AperFunction,ComponentPad*%
%ADD19C,0.400000*%
%TD*%
%TA.AperFunction,SMDPad,CuDef*%
%ADD20RoundRect,0.225000X-0.250000X0.225000X-0.250000X-0.225000X0.250000X-0.225000X0.250000X0.225000X0*%
%TD*%
%TA.AperFunction,SMDPad,CuDef*%
%ADD21RoundRect,0.135000X0.185000X-0.135000X0.185000X0.135000X-0.185000X0.135000X-0.185000X-0.135000X0*%
%TD*%
%TA.AperFunction,SMDPad,CuDef*%
%ADD22RoundRect,0.218750X-0.256250X0.218750X-0.256250X-0.218750X0.256250X-0.218750X0.256250X0.218750X0*%
%TD*%
%TA.AperFunction,ComponentPad*%
%ADD23C,0.750000*%
%TD*%
%TA.AperFunction,SMDPad,CuDef*%
%ADD24FreePoly0,0.000000*%
%TD*%
%TA.AperFunction,SMDPad,CuDef*%
%ADD25FreePoly1,0.000000*%
%TD*%
%TA.AperFunction,SMDPad,CuDef*%
%ADD26R,0.300000X1.300000*%
%TD*%
%TA.AperFunction,SMDPad,CuDef*%
%ADD27FreePoly2,0.000000*%
%TD*%
%TA.AperFunction,ComponentPad*%
%ADD28O,1.200000X2.000000*%
%TD*%
%TA.AperFunction,ComponentPad*%
%ADD29O,1.200000X1.800000*%
%TD*%
%TA.AperFunction,SMDPad,CuDef*%
%ADD30RoundRect,0.140000X0.170000X-0.140000X0.170000X0.140000X-0.170000X0.140000X-0.170000X-0.140000X0*%
%TD*%
%TA.AperFunction,SMDPad,CuDef*%
%ADD31RoundRect,0.150000X0.150000X-0.512500X0.150000X0.512500X-0.150000X0.512500X-0.150000X-0.512500X0*%
%TD*%
%TA.AperFunction,SMDPad,CuDef*%
%ADD32R,2.500000X1.100000*%
%TD*%
%TA.AperFunction,SMDPad,CuDef*%
%ADD33R,2.340000X3.600000*%
%TD*%
%TA.AperFunction,SMDPad,CuDef*%
%ADD34RoundRect,0.147500X0.147500X0.172500X-0.147500X0.172500X-0.147500X-0.172500X0.147500X-0.172500X0*%
%TD*%
%TA.AperFunction,SMDPad,CuDef*%
%ADD35RoundRect,0.135000X-0.135000X-0.185000X0.135000X-0.185000X0.135000X0.185000X-0.135000X0.185000X0*%
%TD*%
%TA.AperFunction,ViaPad*%
%ADD36C,0.600000*%
%TD*%
%TA.AperFunction,Conductor*%
%ADD37C,0.200000*%
%TD*%
G04 APERTURE END LIST*
D10*
%TO.P,C15,1*%
%TO.N,GND*%
X159000000Y-108000000D03*
%TO.P,C15,2*%
%TO.N,VBUS*%
X159000000Y-108960000D03*
%TD*%
D11*
%TO.P,D1,1,K_1*%
%TO.N,VCC_5V*%
X163500000Y-103860000D03*
%TO.P,D1,2,A_2*%
%TO.N,Net-(D1-A)*%
X163500000Y-107140000D03*
%TD*%
D12*
%TO.P,SW1,1,1_1*%
%TO.N,GND*%
X165500000Y-114000000D03*
%TO.P,SW1,2,2_2*%
%TO.N,GPIO0*%
X165500000Y-109640000D03*
%TD*%
D13*
%TO.P,J2,1,Pin_1_1*%
%TO.N,GND*%
X152000000Y-71860000D03*
D14*
%TO.P,J2,2,Pin_2_2*%
%TO.N,GPIO3*%
X152000000Y-74400000D03*
%TO.P,J2,3,Pin_3_3*%
%TO.N,GPIO46*%
X152000000Y-76940000D03*
%TO.P,J2,4,Pin_4_4*%
%TO.N,GPIO9*%
X152000000Y-79480000D03*
%TO.P,J2,5,Pin_5_5*%
%TO.N,GPIO10*%
X152000000Y-82020000D03*
%TO.P,J2,6,Pin_6_6*%
%TO.N,GPIO11*%
X152000000Y-84560000D03*
%TO.P,J2,7,Pin_7_7*%
%TO.N,GPIO12*%
X152000000Y-87100000D03*
%TO.P,J2,8,Pin_8_8*%
%TO.N,GPIO8*%
X152000000Y-89640000D03*
%TO.P,J2,9,Pin_9_9*%
%TO.N,GPIO18*%
X152000000Y-92180000D03*
%TO.P,J2,10,Pin_10_10*%
%TO.N,GPIO17*%
X152000000Y-94720000D03*
%TO.P,J2,11,Pin_11_11*%
%TO.N,GPIO16*%
X152000000Y-97260000D03*
%TO.P,J2,12,Pin_12_12*%
%TO.N,GPIO15*%
X152000000Y-99800000D03*
%TO.P,J2,13,Pin_13_13*%
%TO.N,GPIO7*%
X152000000Y-102340000D03*
%TO.P,J2,14,Pin_14_14*%
%TO.N,GPIO6*%
X152000000Y-104880000D03*
%TO.P,J2,15,Pin_15_15*%
%TO.N,GPIO5*%
X152000000Y-107420000D03*
%TO.P,J2,16,Pin_16_16*%
%TO.N,GPIO4*%
X152000000Y-109960000D03*
%TO.P,J2,17,Pin_17_17*%
%TO.N,/CHIP_PU*%
X152000000Y-112500000D03*
%TO.P,J2,18,Pin_18_18*%
%TO.N,ESP_3V3*%
X152000000Y-115040000D03*
%TO.P,J2,19,Pin_19_19*%
X152000000Y-117580000D03*
%TO.P,J2,20,Pin_20_20*%
%TO.N,GND*%
X152000000Y-120120000D03*
%TD*%
D15*
%TO.P,C7,1*%
%TO.N,GND*%
X157000000Y-105275000D03*
%TO.P,C7,2*%
%TO.N,VCC_5V*%
X157000000Y-103725000D03*
%TD*%
D16*
%TO.P,U1,1,GND_1*%
%TO.N,GND*%
X151600000Y-50880000D03*
%TO.P,U1,2,3V3_2*%
%TO.N,ESP_3V3*%
X151600000Y-52150000D03*
%TO.P,U1,3,EN_3*%
%TO.N,/CHIP_PU*%
X151600000Y-53420000D03*
%TO.P,U1,4,IO4_4*%
%TO.N,GPIO4*%
X151600000Y-54690000D03*
%TO.P,U1,5,IO5_5*%
%TO.N,GPIO5*%
X151600000Y-55960000D03*
%TO.P,U1,6,IO6_6*%
%TO.N,GPIO6*%
X151600000Y-57230000D03*
%TO.P,U1,7,IO7_7*%
%TO.N,GPIO7*%
X151600000Y-58500000D03*
%TO.P,U1,8,IO15_8*%
%TO.N,GPIO15*%
X151600000Y-59770000D03*
%TO.P,U1,9,IO16_9*%
%TO.N,GPIO16*%
X151600000Y-61040000D03*
%TO.P,U1,10,IO17_10*%
%TO.N,GPIO17*%
X151600000Y-62310000D03*
%TO.P,U1,11,IO18_11*%
%TO.N,GPIO18*%
X151600000Y-63580000D03*
%TO.P,U1,12,IO8_12*%
%TO.N,GPIO8*%
X151600000Y-64850000D03*
%TO.P,U1,13,USB_D-_13*%
%TO.N,D-*%
X151600000Y-66120000D03*
%TO.P,U1,14,USB_D+_14*%
%TO.N,D+*%
X151600000Y-67390000D03*
D17*
%TO.P,U1,15,IO3_15*%
%TO.N,GPIO3*%
X153520000Y-68780000D03*
%TO.P,U1,16,IO46_16*%
%TO.N,GPIO46*%
X154790000Y-68780000D03*
%TO.P,U1,17,IO9_17*%
%TO.N,GPIO9*%
X156060000Y-68780000D03*
%TO.P,U1,18,IO10_18*%
%TO.N,GPIO10*%
X157330000Y-68780000D03*
%TO.P,U1,19,IO11_19*%
%TO.N,GPIO11*%
X158600000Y-68780000D03*
%TO.P,U1,20,IO12_20*%
%TO.N,GPIO12*%
X159870000Y-68780000D03*
%TO.P,U1,21,IO13_21*%
%TO.N,GPIO13*%
X161140000Y-68780000D03*
%TO.P,U1,22,IO14_22*%
%TO.N,GPIO14*%
X162410000Y-68780000D03*
%TO.P,U1,23,IO21_23*%
%TO.N,GPIO21*%
X163680000Y-68780000D03*
%TO.P,U1,24,IO47_24*%
%TO.N,GPIO47*%
X164950000Y-68780000D03*
%TO.P,U1,25,IO48_25*%
%TO.N,GPIO48*%
X166220000Y-68780000D03*
%TO.P,U1,26,IO45_26*%
%TO.N,GPIO45*%
X167490000Y-68780000D03*
D16*
%TO.P,U1,27,IO0_27*%
%TO.N,GPIO0*%
X169400000Y-67390000D03*
%TO.P,U1,28,IO35_28*%
%TO.N,GPIO35*%
X169400000Y-66120000D03*
%TO.P,U1,29,IO36_29*%
%TO.N,GPIO36*%
X169400000Y-64850000D03*
%TO.P,U1,30,IO37_30*%
%TO.N,GPIO37*%
X169400000Y-63580000D03*
%TO.P,U1,31,IO38_31*%
%TO.N,GPIO38*%
X169400000Y-62310000D03*
%TO.P,U1,32,IO39_32*%
%TO.N,GPIO39*%
X169400000Y-61040000D03*
%TO.P,U1,33,IO40_33*%
%TO.N,GPIO40*%
X169400000Y-59770000D03*
%TO.P,U1,34,IO41_34*%
%TO.N,GPIO41*%
X169400000Y-58500000D03*
%TO.P,U1,35,IO42_35*%
%TO.N,GPIO42*%
X169400000Y-57230000D03*
%TO.P,U1,36,RXD0_36*%
%TO.N,U0RXD*%
X169400000Y-55960000D03*
%TO.P,U1,37,TXD0_37*%
%TO.N,U0TXD*%
X169400000Y-54690000D03*
%TO.P,U1,38,IO2_38*%
%TO.N,GPIO2*%
X169400000Y-53420000D03*
%TO.P,U1,39,IO1_39*%
%TO.N,GPIO1*%
X169400000Y-52150000D03*
%TO.P,U1,40,GND_40*%
%TO.N,GND*%
X169400000Y-50880000D03*
D18*
%TO.P,U1,41,GND_41*%
X157600000Y-57190000D03*
D19*
X157600000Y-57890000D03*
D18*
X157600000Y-58590000D03*
D19*
X157600000Y-59290000D03*
D18*
X157600000Y-59990000D03*
D19*
X158300000Y-57190000D03*
X158300000Y-58590000D03*
X158300000Y-59990000D03*
D18*
X159000000Y-57190000D03*
D19*
X159000000Y-57890000D03*
D18*
X159000000Y-58590000D03*
D19*
X159000000Y-59290000D03*
D18*
X159000000Y-59990000D03*
D19*
X159700000Y-57190000D03*
X159700000Y-58590000D03*
X159700000Y-59990000D03*
D18*
X160400000Y-57190000D03*
D19*
X160400000Y-57890000D03*
D18*
X160400000Y-58590000D03*
D19*
X160400000Y-59290000D03*
D18*
X160400000Y-59990000D03*
%TD*%
D20*
%TO.P,C13,1*%
%TO.N,GND*%
X157745000Y-110230000D03*
%TO.P,C13,2*%
%TO.N,VBUS*%
X157745000Y-111780000D03*
%TD*%
D21*
%TO.P,R2,1*%
%TO.N,CC2*%
X163013653Y-113893152D03*
%TO.P,R2,2*%
%TO.N,GND*%
X163013653Y-112873152D03*
%TD*%
D15*
%TO.P,C10,1*%
%TO.N,ESP_3V3*%
X164000000Y-97275000D03*
%TO.P,C10,2*%
%TO.N,GND*%
X164000000Y-95725000D03*
%TD*%
D13*
%TO.P,J3,1,Pin_1_1*%
%TO.N,GPIO45*%
X169000000Y-71900000D03*
D14*
%TO.P,J3,2,Pin_2_2*%
%TO.N,GPIO48*%
X169000000Y-74440000D03*
%TO.P,J3,3,Pin_3_3*%
%TO.N,GPIO47*%
X169000000Y-76980000D03*
%TO.P,J3,4,Pin_4_4*%
%TO.N,GPIO21*%
X169000000Y-79520000D03*
%TO.P,J3,5,Pin_5_5*%
%TO.N,GPIO14*%
X169000000Y-82060000D03*
%TO.P,J3,6,Pin_6_6*%
%TO.N,GPIO13*%
X169000000Y-84600000D03*
%TO.P,J3,7,Pin_7_7*%
%TO.N,GPIO35*%
X169000000Y-87140000D03*
%TO.P,J3,8,Pin_8_8*%
%TO.N,GPIO36*%
X169000000Y-89680000D03*
%TO.P,J3,9,Pin_9_9*%
%TO.N,GPIO37*%
X169000000Y-92220000D03*
%TO.P,J3,10,Pin_10_10*%
%TO.N,GPIO38*%
X169000000Y-94760000D03*
%TO.P,J3,11,Pin_11_11*%
%TO.N,GPIO39*%
X169000000Y-97300000D03*
%TO.P,J3,12,Pin_12_12*%
%TO.N,GPIO40*%
X169000000Y-99840000D03*
%TO.P,J3,13,Pin_13_13*%
%TO.N,GPIO41*%
X169000000Y-102380000D03*
%TO.P,J3,14,Pin_14_14*%
%TO.N,GPIO42*%
X169000000Y-104920000D03*
%TO.P,J3,15,Pin_15_15*%
%TO.N,U0RXD*%
X169000000Y-107460000D03*
%TO.P,J3,16,Pin_16_16*%
%TO.N,U0TXD*%
X169000000Y-110000000D03*
%TO.P,J3,17,Pin_17_17*%
%TO.N,GPIO2*%
X169000000Y-112540000D03*
%TO.P,J3,18,Pin_18_18*%
%TO.N,GPIO1*%
X169000000Y-115080000D03*
%TO.P,J3,19,Pin_19_19*%
%TO.N,VCC_5V*%
X169000000Y-117620000D03*
%TO.P,J3,20,Pin_20_20*%
%TO.N,GND*%
X169000000Y-120160000D03*
%TD*%
D21*
%TO.P,R1,1*%
%TO.N,CC1*%
X158500000Y-113890727D03*
%TO.P,R1,2*%
%TO.N,GND*%
X158500000Y-112870727D03*
%TD*%
D22*
%TO.P,D5,1,K_1*%
%TO.N,GND*%
X164000315Y-90852267D03*
%TO.P,D5,2,A_2*%
%TO.N,Net-(D5-A)*%
X164000315Y-92427267D03*
%TD*%
D21*
%TO.P,R3,1*%
%TO.N,ESP_3V3*%
X164266355Y-94595855D03*
%TO.P,R3,2*%
%TO.N,Net-(D5-A)*%
X164266355Y-93575855D03*
%TD*%
D23*
%TO.P,USBC1,*%
%TO.N,*%
X157600000Y-116767544D03*
X163400000Y-116767544D03*
D24*
%TO.P,USBC1,A1B12,GND_A1B12*%
%TO.N,GND*%
X157300000Y-115507544D03*
D25*
%TO.P,USBC1,A4B9,VBUS_A4B9*%
%TO.N,VBUS*%
X158100000Y-115507544D03*
D26*
%TO.P,USBC1,A5,CC1_A5*%
%TO.N,CC1*%
X159250000Y-115507544D03*
%TO.P,USBC1,A6,DP1_A6*%
%TO.N,USB_D+*%
X160250000Y-115507544D03*
%TO.P,USBC1,A7,DN1_A7*%
%TO.N,USB_D-*%
X160750000Y-115507544D03*
%TO.P,USBC1,A8,SBU1_A8*%
%TO.N,unconnected-(USBC1-SBU1-PadA8)*%
X161750000Y-115507544D03*
D27*
%TO.P,USBC1,B1A12,GND_B1A12*%
%TO.N,GND*%
X163700000Y-115507544D03*
%TO.P,USBC1,B4A9,VBUS_B4A9*%
%TO.N,VBUS*%
X162900000Y-115507544D03*
D26*
%TO.P,USBC1,B5,CC2_B5*%
%TO.N,CC2*%
X162250000Y-115507544D03*
%TO.P,USBC1,B6,DP2_B6*%
%TO.N,USB_D+*%
X161250000Y-115507544D03*
%TO.P,USBC1,B7,DN2_B7*%
%TO.N,USB_D-*%
X159750000Y-115507544D03*
%TO.P,USBC1,B8,SBU2_B8*%
%TO.N,unconnected-(USBC1-SBU2-PadB8)*%
X158750000Y-115507544D03*
D28*
%TO.P,USBC1,GND*%
%TO.N,N/C*%
X156170000Y-116267544D03*
D29*
X156170000Y-120447544D03*
D28*
X164830000Y-116267544D03*
D29*
X164830000Y-120447544D03*
%TD*%
D30*
%TO.P,C9,1*%
%TO.N,ESP_3V3*%
X165213296Y-97558182D03*
%TO.P,C9,2*%
%TO.N,GND*%
X165213296Y-96598182D03*
%TD*%
D21*
%TO.P,R5,1*%
%TO.N,GPIO0*%
X165000000Y-108500000D03*
%TO.P,R5,2*%
%TO.N,ESP_3V3*%
X165000000Y-107480000D03*
%TD*%
D12*
%TO.P,SW2,1,1_1*%
%TO.N,GND*%
X155500000Y-114180000D03*
%TO.P,SW2,2,2_2*%
%TO.N,/CHIP_PU*%
X155500000Y-109820000D03*
%TD*%
D31*
%TO.P,U2,1,I/O1_1*%
%TO.N,USB_D-*%
X160050001Y-112499999D03*
%TO.P,U2,2,GND_2*%
%TO.N,GND*%
X161000001Y-112499999D03*
%TO.P,U2,3,I/O2_3*%
%TO.N,USB_D+*%
X161950001Y-112500001D03*
%TO.P,U2,4,I/O2_4*%
%TO.N,D+*%
X161949999Y-110225001D03*
%TO.P,U2,5,VBUS_5*%
%TO.N,VBUS*%
X160999999Y-110225001D03*
%TO.P,U2,6,I/O1_6*%
%TO.N,D-*%
X160049999Y-110224999D03*
%TD*%
D32*
%TO.P,U3,1,GND_1*%
%TO.N,GND*%
X158030000Y-97700000D03*
%TO.P,U3,2,VOUT_2*%
%TO.N,ESP_3V3*%
X158030000Y-100000000D03*
%TO.P,U3,3,VIN_3*%
%TO.N,VCC_5V*%
X158030000Y-102300000D03*
D33*
%TO.P,U3,4,VOUT_4*%
%TO.N,ESP_3V3*%
X163970000Y-100000000D03*
%TD*%
D34*
%TO.P,F1,1*%
%TO.N,VBUS*%
X161985000Y-107000000D03*
%TO.P,F1,2*%
%TO.N,Net-(D1-A)*%
X161015000Y-107000000D03*
%TD*%
D10*
%TO.P,C14,1*%
%TO.N,GND*%
X156500000Y-107520000D03*
%TO.P,C14,2*%
%TO.N,/CHIP_PU*%
X156500000Y-108480000D03*
%TD*%
D30*
%TO.P,C8,1*%
%TO.N,GND*%
X158211044Y-104412653D03*
%TO.P,C8,2*%
%TO.N,VCC_5V*%
X158211044Y-103452653D03*
%TD*%
D35*
%TO.P,R6,1*%
%TO.N,/CHIP_PU*%
X156990000Y-73000000D03*
%TO.P,R6,2*%
%TO.N,ESP_3V3*%
X158010000Y-73000000D03*
%TD*%
D36*
%TO.N,GND*%
X158364452Y-67530000D03*
X159500000Y-77500000D03*
X165000000Y-52000000D03*
X159500000Y-52000000D03*
X159212576Y-70169749D03*
X159500000Y-82500000D03*
X155000000Y-51000000D03*
X162500000Y-96000000D03*
X158500000Y-94500000D03*
X168000000Y-51000000D03*
X154500000Y-118500000D03*
X163000000Y-57000000D03*
X158500000Y-107000000D03*
X163000000Y-111500000D03*
X155000000Y-115000000D03*
X161000000Y-66334126D03*
X166500000Y-119500000D03*
X159500000Y-72000000D03*
%TO.N,GPIO0*%
X165937157Y-108000000D03*
X162500000Y-67000000D03*
%TO.N,GPIO8*%
X152821894Y-65287924D03*
%TO.N,GPIO18*%
X152525562Y-63931834D03*
%TO.N,GPIO17*%
X152727846Y-62802534D03*
%TO.N,GPIO16*%
X153000000Y-62000000D03*
%TO.N,GPIO15*%
X152750000Y-60250000D03*
%TO.N,GPIO7*%
X152562218Y-58867269D03*
%TO.N,GPIO6*%
X153000000Y-58000000D03*
%TO.N,GPIO5*%
X153565687Y-57434313D03*
%TO.N,GPIO4*%
X153000000Y-55500000D03*
%TO.N,/CHIP_PU*%
X153000000Y-111500000D03*
X157000000Y-72000000D03*
X152950735Y-54549265D03*
X154600000Y-111000000D03*
X157500000Y-91000000D03*
%TO.N,ESP_3V3*%
X153000000Y-52500000D03*
X158000000Y-71500000D03*
%TO.N,D-*%
X159570044Y-66915553D03*
X160000000Y-109000000D03*
%TO.N,D+*%
X158402981Y-66720000D03*
X160500000Y-88500000D03*
X162000000Y-109000000D03*
X161500000Y-90000000D03*
%TO.N,GPIO35*%
X168000000Y-66500000D03*
%TO.N,GPIO36*%
X168000000Y-65500000D03*
%TO.N,GPIO37*%
X168000000Y-64500000D03*
%TO.N,GPIO38*%
X168000000Y-63000000D03*
%TO.N,GPIO39*%
X168000000Y-62000000D03*
%TO.N,GPIO40*%
X168000000Y-60500000D03*
%TO.N,GPIO41*%
X168000000Y-59500000D03*
%TO.N,GPIO42*%
X168000000Y-58000000D03*
%TO.N,U0RXD*%
X168000000Y-57000000D03*
%TO.N,U0TXD*%
X168000000Y-55500000D03*
%TO.N,GPIO2*%
X168000000Y-54000000D03*
%TO.N,GPIO1*%
X168000000Y-53000000D03*
%TD*%
%TO.N,GND*%
D37*
X163013653Y-112873152D02*
X163013653Y-112260601D01*
X159801636Y-67532490D02*
X153148198Y-67532490D01*
X159709449Y-111537499D02*
X160700000Y-111537499D01*
X152890687Y-67790000D02*
X153090344Y-67590344D01*
X151600000Y-50880000D02*
X154880000Y-50880000D01*
X158500000Y-112746948D02*
X159709449Y-111537499D01*
X163013653Y-112260601D02*
X162253052Y-111500000D01*
X161000000Y-66334126D02*
X159801636Y-67532490D01*
X168120000Y-50880000D02*
X168000000Y-51000000D01*
X169400000Y-50880000D02*
X168120000Y-50880000D01*
X153148198Y-67532490D02*
X153090344Y-67590344D01*
X152890686Y-67790000D02*
X152850000Y-67790000D01*
X157300000Y-115507544D02*
X155972456Y-114180000D01*
X160700000Y-111537499D02*
X161000001Y-111837500D01*
X154880000Y-50880000D02*
X155000000Y-51000000D01*
X161000001Y-111999999D02*
X161500000Y-111500000D01*
X161000001Y-111837500D02*
X161000001Y-112499999D01*
X153090344Y-67590344D02*
X152890686Y-67790000D01*
X152000000Y-68640000D02*
X152000000Y-71860000D01*
X162253052Y-111500000D02*
X161500000Y-111500000D01*
X163700000Y-115507544D02*
X165207544Y-114000000D01*
X158500000Y-112870727D02*
X158500000Y-112746948D01*
X152850000Y-67790000D02*
X152000000Y-68640000D01*
%TO.N,VBUS*%
X158100000Y-115507544D02*
X158100000Y-116242239D01*
X158100000Y-114848953D02*
X158100000Y-115507544D01*
X163251268Y-114497456D02*
X163502544Y-114497456D01*
X157745000Y-114493953D02*
X158100000Y-114848953D01*
X161985000Y-107000000D02*
X161985000Y-107485000D01*
X164000000Y-114000000D02*
X164000000Y-109500000D01*
X163502544Y-114497456D02*
X164000000Y-114000000D01*
X159000000Y-108960000D02*
X159560000Y-108400000D01*
X162900000Y-116242239D02*
X162284695Y-116857544D01*
X164000000Y-109500000D02*
X162400000Y-107900000D01*
X157745000Y-111780000D02*
X157745000Y-114493953D01*
X158715305Y-116857544D02*
X162284695Y-116857544D01*
X158100000Y-116242239D02*
X158715305Y-116857544D01*
X161000000Y-107900000D02*
X161000000Y-108500000D01*
X159560000Y-108400000D02*
X160900000Y-108400000D01*
X163039848Y-114960152D02*
X163039848Y-114708876D01*
X163039848Y-114708876D02*
X163251268Y-114497456D01*
X160900000Y-108400000D02*
X161000000Y-108500000D01*
X161000000Y-108500000D02*
X160999999Y-110225001D01*
X162900000Y-115507544D02*
X162900000Y-116242239D01*
X162400000Y-107900000D02*
X161000000Y-107900000D01*
X161985000Y-107485000D02*
X162400000Y-107900000D01*
%TO.N,VCC_5V*%
X169000000Y-117620000D02*
X155849664Y-117620000D01*
X157000000Y-103330000D02*
X157165000Y-103165000D01*
X159590000Y-103860000D02*
X158030000Y-102300000D01*
X158211044Y-103452653D02*
X157452653Y-103452653D01*
X157452653Y-103452653D02*
X157165000Y-103165000D01*
X163500000Y-103860000D02*
X159590000Y-103860000D01*
X154000000Y-106330000D02*
X158030000Y-102300000D01*
X157165000Y-103165000D02*
X158030000Y-102300000D01*
X157000000Y-103725000D02*
X157000000Y-103330000D01*
X154000000Y-115770336D02*
X154000000Y-106330000D01*
X155849664Y-117620000D02*
X154000000Y-115770336D01*
%TO.N,Net-(D1-A)*%
X161015000Y-107000000D02*
X161635000Y-106380000D01*
X161635000Y-106380000D02*
X162740000Y-106380000D01*
X162740000Y-106380000D02*
X163500000Y-107140000D01*
%TO.N,GPIO0*%
X162500000Y-67000000D02*
X162890000Y-67390000D01*
X165500000Y-109000000D02*
X165000000Y-108500000D01*
X162890000Y-67390000D02*
X169400000Y-67390000D01*
X165500000Y-109640000D02*
X165500000Y-109000000D01*
X165437157Y-108500000D02*
X165937157Y-108000000D01*
X165000000Y-108500000D02*
X165437157Y-108500000D01*
%TO.N,GPIO3*%
X153520000Y-72880000D02*
X152000000Y-74400000D01*
X153520000Y-68780000D02*
X153520000Y-72880000D01*
%TO.N,GPIO46*%
X153232843Y-73732843D02*
X153232843Y-75707157D01*
X153920000Y-73045686D02*
X153232843Y-73732843D01*
X154790000Y-68780000D02*
X154790000Y-69630000D01*
X154790000Y-69630000D02*
X153920000Y-70500000D01*
X153920000Y-70500000D02*
X153920000Y-73045686D01*
X153232843Y-75707157D02*
X152000000Y-76940000D01*
%TO.N,GPIO9*%
X156060000Y-69730000D02*
X155790000Y-70000000D01*
X153398528Y-78081472D02*
X152000000Y-79480000D01*
X154320000Y-70680000D02*
X154320000Y-73211372D01*
X153632843Y-73898529D02*
X153632843Y-75872843D01*
X155790000Y-70000000D02*
X155000000Y-70000000D01*
X154320000Y-73211372D02*
X153632843Y-73898529D01*
X155000000Y-70000000D02*
X154320000Y-70680000D01*
X153632843Y-75872843D02*
X153398528Y-76107157D01*
X156060000Y-68780000D02*
X156060000Y-69730000D01*
X153398528Y-76107157D02*
X153398528Y-78081472D01*
%TO.N,GPIO10*%
X154032843Y-74064215D02*
X154032842Y-76265686D01*
X153564213Y-80455787D02*
X152000000Y-82020000D01*
X156000000Y-70500000D02*
X155065686Y-70500000D01*
X153798528Y-76500000D02*
X153798528Y-78247158D01*
X155065686Y-70500000D02*
X154720000Y-70845686D01*
X153798528Y-78247158D02*
X153564213Y-78481472D01*
X153564213Y-78481472D02*
X153564213Y-80455787D01*
X154032842Y-76265686D02*
X153798528Y-76500000D01*
X157330000Y-69170000D02*
X156000000Y-70500000D01*
X154720000Y-73377057D02*
X154032843Y-74064215D01*
X154720000Y-70845686D02*
X154720000Y-73377057D01*
%TO.N,GPIO11*%
X158600000Y-69730000D02*
X158297157Y-70032843D01*
X154198527Y-78765686D02*
X153964213Y-79000000D01*
X154885685Y-73777057D02*
X154432843Y-74229901D01*
X155120000Y-73542743D02*
X154885685Y-73777057D01*
X154198528Y-76665686D02*
X154198527Y-78765686D01*
X156065685Y-71000000D02*
X155500000Y-71000000D01*
X157032843Y-70032843D02*
X156065685Y-71000000D01*
X153729898Y-82830102D02*
X152000000Y-84560000D01*
X158600000Y-68780000D02*
X158600000Y-69730000D01*
X153964213Y-80621473D02*
X153729898Y-80855787D01*
X153729898Y-80855787D02*
X153729898Y-82830102D01*
X154432842Y-76431372D02*
X154198528Y-76665686D01*
X158297157Y-70032843D02*
X157032843Y-70032843D01*
X155500000Y-71000000D02*
X155120000Y-71380000D01*
X153964213Y-79000000D02*
X153964213Y-80621473D01*
X155120000Y-71380000D02*
X155120000Y-73542743D01*
X154432843Y-74229901D02*
X154432842Y-76431372D01*
%TO.N,GPIO12*%
X154364212Y-81265686D02*
X154129898Y-81500000D01*
X155519999Y-73812844D02*
X154832843Y-74500000D01*
X154129898Y-81500000D02*
X154129898Y-83370102D01*
X159865181Y-70466388D02*
X159509215Y-70822354D01*
X156809017Y-70822354D02*
X155520000Y-72111371D01*
X153500000Y-85600000D02*
X152000000Y-87100000D01*
X159509215Y-70822354D02*
X156809017Y-70822354D01*
X153500000Y-84000000D02*
X153500000Y-85600000D01*
X154832843Y-74500000D02*
X154832842Y-76765686D01*
X154364212Y-79165686D02*
X154364212Y-81265686D01*
X154598527Y-78931372D02*
X154364212Y-79165686D01*
X159870000Y-68780000D02*
X159870000Y-69730000D01*
X154832842Y-76765686D02*
X154598528Y-77000000D01*
X154598528Y-77000000D02*
X154598527Y-78931372D01*
X154129898Y-83370102D02*
X153500000Y-84000000D01*
X159865181Y-69734819D02*
X159865181Y-70466388D01*
X155520000Y-72111371D02*
X155519999Y-73812844D01*
X159870000Y-69730000D02*
X159865181Y-69734819D01*
%TO.N,GPIO8*%
X152383970Y-64850000D02*
X152821894Y-65287924D01*
X151600000Y-64850000D02*
X152383970Y-64850000D01*
%TO.N,GPIO18*%
X152173728Y-63580000D02*
X152525562Y-63931834D01*
%TO.N,GPIO17*%
X152235312Y-62310000D02*
X152727846Y-62802534D01*
%TO.N,GPIO16*%
X152040000Y-61040000D02*
X153000000Y-62000000D01*
%TO.N,GPIO15*%
X152750000Y-60250000D02*
X152270000Y-59770000D01*
X152270000Y-59770000D02*
X151600000Y-59770000D01*
%TO.N,GPIO7*%
X152194949Y-58500000D02*
X152562218Y-58867269D01*
%TO.N,GPIO6*%
X152230000Y-57230000D02*
X153000000Y-58000000D01*
%TO.N,GPIO5*%
X151960000Y-55960000D02*
X153500000Y-57500000D01*
X153500000Y-57500000D02*
X153565687Y-57434313D01*
%TO.N,GPIO4*%
X152190000Y-54690000D02*
X153000000Y-55500000D01*
%TO.N,/CHIP_PU*%
X152950735Y-54240735D02*
X152130000Y-53420000D01*
X157000000Y-90500000D02*
X157500000Y-91000000D01*
X155500000Y-109480000D02*
X156500000Y-108480000D01*
X156990000Y-73000000D02*
X156990000Y-72010000D01*
X156990000Y-73000000D02*
X156990000Y-73990000D01*
X155500000Y-110100000D02*
X154600000Y-111000000D01*
X156990000Y-72010000D02*
X157000000Y-72000000D01*
X156990000Y-73990000D02*
X157000000Y-74000000D01*
X152000000Y-112500000D02*
X153000000Y-111500000D01*
X152950735Y-54549265D02*
X152950735Y-54240735D01*
X157000000Y-74000000D02*
X157000000Y-90500000D01*
%TO.N,ESP_3V3*%
X165213296Y-97558182D02*
X164200000Y-96544886D01*
X163225000Y-96173696D02*
X163225000Y-98000000D01*
X164200000Y-96475000D02*
X163526304Y-96475000D01*
X158030000Y-100000000D02*
X153600000Y-104430000D01*
X152650000Y-52150000D02*
X153000000Y-52500000D01*
X153600000Y-113440000D02*
X152000000Y-115040000D01*
X158100000Y-90751471D02*
X157748529Y-90400000D01*
X151600000Y-52150000D02*
X152650000Y-52150000D01*
X158100000Y-91100000D02*
X158100000Y-90751471D01*
X161595855Y-94595855D02*
X158100000Y-91100000D01*
X158030000Y-100000000D02*
X163970000Y-100000000D01*
X153600000Y-115980000D02*
X153600000Y-113440000D01*
X153600000Y-104430000D02*
X153600000Y-113440000D01*
X163526304Y-96475000D02*
X163225000Y-96173696D01*
X163225000Y-95276304D02*
X163225000Y-97000000D01*
X152000000Y-117580000D02*
X153600000Y-115980000D01*
X163905449Y-94595855D02*
X163225000Y-95276304D01*
X165000000Y-107480000D02*
X165000000Y-101030000D01*
X163225000Y-98000000D02*
X163225000Y-99255000D01*
X163500000Y-97275000D02*
X163225000Y-97000000D01*
X158010000Y-73000000D02*
X158010000Y-71510000D01*
X158010000Y-71510000D02*
X158000000Y-71500000D01*
X164200000Y-96544886D02*
X164200000Y-96475000D01*
X164000000Y-97275000D02*
X163500000Y-97275000D01*
X163225000Y-97000000D02*
X163225000Y-98000000D01*
X157748529Y-90400000D02*
X158010000Y-90138529D01*
X164266355Y-94595855D02*
X161595855Y-94595855D01*
X158010000Y-90138529D02*
X158010000Y-73000000D01*
X164266355Y-94595855D02*
X163905449Y-94595855D01*
%TO.N,D-*%
X159570044Y-66915553D02*
X158774491Y-66120000D01*
X158774491Y-66120000D02*
X151600000Y-66120000D01*
X160049999Y-110224999D02*
X160049999Y-109049999D01*
X160049999Y-109049999D02*
X160000000Y-109000000D01*
%TO.N,D+*%
X152725001Y-67390000D02*
X151600000Y-67390000D01*
X161949999Y-109050001D02*
X162000000Y-109000000D01*
X161500000Y-90000000D02*
X160500000Y-89000000D01*
X160500000Y-89000000D02*
X160500000Y-88500000D01*
X157220000Y-66720000D02*
X157020000Y-66520000D01*
X161949999Y-110225001D02*
X161949999Y-109050001D01*
X158402981Y-66720000D02*
X157220000Y-66720000D01*
X157020000Y-66520000D02*
X153595001Y-66520000D01*
X153595001Y-66520000D02*
X152725001Y-67390000D01*
%TO.N,GPIO13*%
X169000000Y-84600000D02*
X166900000Y-82500000D01*
X161842843Y-70432843D02*
X163801471Y-70432843D01*
X166131472Y-77000000D02*
X166131473Y-78474316D01*
X161140000Y-68780000D02*
X161140000Y-69730000D01*
X161140000Y-69730000D02*
X161842843Y-70432843D01*
X166131473Y-78474316D02*
X166657157Y-79000000D01*
X166891472Y-81082843D02*
X166891472Y-82500000D01*
X163801471Y-70432843D02*
X165400001Y-72031373D01*
X165897158Y-76765686D02*
X166131472Y-77000000D01*
X165400001Y-73900001D02*
X165897157Y-74397157D01*
X166657157Y-80848529D02*
X166891472Y-81082843D01*
X165400001Y-72031373D02*
X165400001Y-73900001D01*
X166900000Y-82500000D02*
X166891472Y-82500000D01*
X165897157Y-74397157D02*
X165897158Y-76765686D01*
X166657157Y-79000000D02*
X166657157Y-80848529D01*
%TO.N,GPIO14*%
X164934315Y-71000000D02*
X165500000Y-71000000D01*
X162410000Y-69730000D02*
X162712843Y-70032843D01*
X166531472Y-76500000D02*
X166531472Y-78182844D01*
X166297157Y-73999900D02*
X166297158Y-76265686D01*
X165500000Y-71000000D02*
X165800000Y-71300000D01*
X169000000Y-82060000D02*
X167057157Y-80117157D01*
X162712843Y-70032843D02*
X163967157Y-70032843D01*
X162410000Y-68780000D02*
X162410000Y-69730000D01*
X165800000Y-71300000D02*
X165800001Y-73502744D01*
X165800001Y-73502744D02*
X166297157Y-73999900D01*
X167057157Y-78708528D02*
X167057157Y-80117157D01*
X166531472Y-78182844D02*
X167057157Y-78708528D01*
X163967157Y-70032843D02*
X164934315Y-71000000D01*
X166297158Y-76265686D02*
X166531472Y-76500000D01*
%TO.N,GPIO21*%
X166200000Y-70765686D02*
X166200001Y-73337058D01*
X166980000Y-77500000D02*
X166931472Y-77500000D01*
X166200001Y-73337058D02*
X166697157Y-73834214D01*
X165934314Y-70500000D02*
X166200000Y-70765686D01*
X165000000Y-70500000D02*
X165934314Y-70500000D01*
X166697157Y-73834214D02*
X166697157Y-75808529D01*
X166697157Y-75808529D02*
X166931472Y-76042843D01*
X169000000Y-79520000D02*
X166980000Y-77500000D01*
X166931472Y-76042843D02*
X166931472Y-77500000D01*
X163680000Y-69180000D02*
X165000000Y-70500000D01*
%TO.N,GPIO47*%
X166600000Y-70600000D02*
X166600000Y-73171372D01*
X167097157Y-73668528D02*
X167097157Y-75077157D01*
X164950000Y-68780000D02*
X164950000Y-69730000D01*
X166600000Y-73171372D02*
X167097157Y-73668528D01*
X165220000Y-70000000D02*
X166000000Y-70000000D01*
X169000000Y-76980000D02*
X167097157Y-75077157D01*
X164950000Y-69730000D02*
X165220000Y-70000000D01*
X166000000Y-70000000D02*
X166600000Y-70600000D01*
%TO.N,GPIO48*%
X166220000Y-69220000D02*
X167000000Y-70000000D01*
X169000000Y-74440000D02*
X167060000Y-72500000D01*
X167000000Y-70000000D02*
X167000000Y-72500000D01*
X167060000Y-72500000D02*
X167000000Y-72500000D01*
%TO.N,GPIO45*%
X167490000Y-68780000D02*
X167490000Y-70390000D01*
X169000000Y-71900000D02*
X167490000Y-70390000D01*
%TO.N,GPIO35*%
X169400000Y-66120000D02*
X168380000Y-66120000D01*
X168380000Y-66120000D02*
X168000000Y-66500000D01*
%TO.N,GPIO36*%
X168650000Y-64850000D02*
X168000000Y-65500000D01*
X169400000Y-64850000D02*
X168650000Y-64850000D01*
%TO.N,GPIO37*%
X168920000Y-63580000D02*
X168000000Y-64500000D01*
%TO.N,GPIO38*%
X168690000Y-62310000D02*
X168000000Y-63000000D01*
X169400000Y-62310000D02*
X168690000Y-62310000D01*
%TO.N,GPIO39*%
X168960000Y-61040000D02*
X168000000Y-62000000D01*
%TO.N,GPIO40*%
X169400000Y-59770000D02*
X168730000Y-59770000D01*
X168730000Y-59770000D02*
X168000000Y-60500000D01*
%TO.N,GPIO41*%
X169000000Y-58500000D02*
X168000000Y-59500000D01*
%TO.N,GPIO42*%
X168770000Y-57230000D02*
X168000000Y-58000000D01*
%TO.N,U0RXD*%
X169040000Y-55960000D02*
X168000000Y-57000000D01*
%TO.N,U0TXD*%
X168810000Y-54690000D02*
X168000000Y-55500000D01*
%TO.N,GPIO2*%
X168580000Y-53420000D02*
X168000000Y-54000000D01*
X169400000Y-53420000D02*
X168580000Y-53420000D01*
%TO.N,GPIO1*%
X168850000Y-52150000D02*
X168000000Y-53000000D01*
%TO.N,CC2*%
X162239848Y-114666957D02*
X162239848Y-115507544D01*
X163013653Y-113893152D02*
X162239848Y-114666957D01*
%TO.N,CC1*%
X159250000Y-114640727D02*
X158500000Y-113890727D01*
X159250000Y-115507544D02*
X159250000Y-114640727D01*
%TO.N,Net-(D5-A)*%
X164266355Y-93575855D02*
X164266355Y-92693307D01*
%TO.N,USB_D+*%
X161225003Y-113687496D02*
X161225003Y-113462499D01*
X161200000Y-116457544D02*
X160300000Y-116457544D01*
X161250000Y-115507544D02*
X161250000Y-114532543D01*
X161600001Y-112850001D02*
X161950001Y-112500001D01*
X160250000Y-116407544D02*
X160250000Y-115507544D01*
X161250000Y-114532543D02*
X161225000Y-114507543D01*
X161225000Y-113687499D02*
X161225003Y-113687496D01*
X161600001Y-113203051D02*
X161600001Y-112850001D01*
X161250000Y-116407544D02*
X161200000Y-116457544D01*
X160300000Y-116457544D02*
X160250000Y-116407544D01*
X161250000Y-115507544D02*
X161250000Y-116407544D01*
X161225000Y-114507543D02*
X161225000Y-113687499D01*
X161225003Y-113462499D02*
X161340553Y-113462499D01*
X161340553Y-113462499D02*
X161600001Y-113203051D01*
%TO.N,USB_D-*%
X160700000Y-114557544D02*
X159800000Y-114557544D01*
X160750000Y-115507544D02*
X160750000Y-114607544D01*
X159800000Y-114557544D02*
X159750000Y-114607544D01*
X160750000Y-115507544D02*
X160750000Y-114532543D01*
X159750000Y-114607544D02*
X159750000Y-115507544D01*
X160659449Y-113462499D02*
X160400001Y-113203051D01*
X160400001Y-112849999D02*
X160050001Y-112499999D01*
X160775000Y-113462499D02*
X160659449Y-113462499D01*
X160775000Y-114507543D02*
X160775000Y-113462499D01*
X160400001Y-113203051D02*
X160400001Y-112849999D01*
X160750000Y-114607544D02*
X160700000Y-114557544D01*
X160750000Y-114532543D02*
X160775000Y-114507543D01*
%TD*%
%TA.AperFunction,Conductor*%
%TO.N,GND*%
G36*
X150705703Y-118024513D02*
G01*
X150742430Y-118079906D01*
X150747072Y-118094193D01*
X150748444Y-118098414D01*
X150844951Y-118287820D01*
X150969890Y-118459786D01*
X151120213Y-118610109D01*
X151292179Y-118735048D01*
X151292181Y-118735049D01*
X151292184Y-118735051D01*
X151481588Y-118831557D01*
X151510753Y-118841033D01*
X151568426Y-118880468D01*
X151595625Y-118944826D01*
X151583712Y-119013673D01*
X151536469Y-119065149D01*
X151528730Y-119069447D01*
X151397269Y-119136431D01*
X151381466Y-119147912D01*
X151381466Y-119147913D01*
X151870591Y-119637037D01*
X151807007Y-119654075D01*
X151692993Y-119719901D01*
X151599901Y-119812993D01*
X151534075Y-119927007D01*
X151517037Y-119990590D01*
X151027913Y-119501466D01*
X151027912Y-119501466D01*
X151016432Y-119517269D01*
X150934254Y-119678547D01*
X150934251Y-119678555D01*
X150878317Y-119850706D01*
X150850000Y-120029493D01*
X150850000Y-120210506D01*
X150878317Y-120389293D01*
X150934251Y-120561444D01*
X150934252Y-120561447D01*
X151016431Y-120722730D01*
X151027913Y-120738532D01*
X151027913Y-120738533D01*
X151517037Y-120249408D01*
X151534075Y-120312993D01*
X151599901Y-120427007D01*
X151692993Y-120520099D01*
X151807007Y-120585925D01*
X151870590Y-120602962D01*
X151381466Y-121092085D01*
X151381466Y-121092086D01*
X151397267Y-121103566D01*
X151397275Y-121103571D01*
X151558552Y-121185747D01*
X151558555Y-121185748D01*
X151730706Y-121241682D01*
X151802330Y-121253027D01*
X151865465Y-121282956D01*
X151902396Y-121342268D01*
X151901398Y-121412130D01*
X151862788Y-121470363D01*
X151798825Y-121498477D01*
X151782932Y-121499500D01*
X150624500Y-121499500D01*
X150557461Y-121479815D01*
X150511706Y-121427011D01*
X150500500Y-121375500D01*
X150500500Y-118118226D01*
X150520185Y-118051187D01*
X150572989Y-118005432D01*
X150642147Y-117995488D01*
X150705703Y-118024513D01*
G37*
%TD.AperFunction*%
%TA.AperFunction,Conductor*%
G36*
X153948165Y-116583582D02*
G01*
X153992512Y-116612083D01*
X155364803Y-117984374D01*
X155364813Y-117984385D01*
X155369143Y-117988715D01*
X155369144Y-117988716D01*
X155480948Y-118100520D01*
X155546581Y-118138412D01*
X155567759Y-118150639D01*
X155567761Y-118150641D01*
X155605815Y-118172611D01*
X155617879Y-118179577D01*
X155770607Y-118220501D01*
X155770610Y-118220501D01*
X155936317Y-118220501D01*
X155936333Y-118220500D01*
X167714281Y-118220500D01*
X167781320Y-118240185D01*
X167824765Y-118288205D01*
X167844947Y-118327814D01*
X167844948Y-118327815D01*
X167969890Y-118499786D01*
X168120213Y-118650109D01*
X168292179Y-118775048D01*
X168292181Y-118775049D01*
X168292184Y-118775051D01*
X168481588Y-118871557D01*
X168510753Y-118881033D01*
X168568426Y-118920468D01*
X168595625Y-118984826D01*
X168583712Y-119053673D01*
X168536469Y-119105149D01*
X168528730Y-119109447D01*
X168397269Y-119176431D01*
X168381466Y-119187912D01*
X168381466Y-119187913D01*
X168870591Y-119677037D01*
X168807007Y-119694075D01*
X168692993Y-119759901D01*
X168599901Y-119852993D01*
X168534075Y-119967007D01*
X168517037Y-120030590D01*
X168027912Y-119541466D01*
X168016432Y-119557269D01*
X167934254Y-119718547D01*
X167934251Y-119718555D01*
X167878317Y-119890706D01*
X167850000Y-120069493D01*
X167850000Y-120250506D01*
X167878317Y-120429293D01*
X167934251Y-120601444D01*
X167934252Y-120601447D01*
X168016431Y-120762730D01*
X168027913Y-120778532D01*
X168027913Y-120778533D01*
X168517037Y-120289408D01*
X168534075Y-120352993D01*
X168599901Y-120467007D01*
X168692993Y-120560099D01*
X168807007Y-120625925D01*
X168870590Y-120642962D01*
X168381466Y-121132085D01*
X168381466Y-121132086D01*
X168397267Y-121143566D01*
X168397275Y-121143571D01*
X168558552Y-121225747D01*
X168558555Y-121225748D01*
X168656491Y-121257569D01*
X168714166Y-121297006D01*
X168741365Y-121361365D01*
X168729451Y-121430211D01*
X168682207Y-121481687D01*
X168618173Y-121499500D01*
X165884329Y-121499500D01*
X165817290Y-121479815D01*
X165771535Y-121427011D01*
X165761591Y-121357853D01*
X165773844Y-121319205D01*
X165786535Y-121294297D01*
X165849873Y-121169989D01*
X165903402Y-121005245D01*
X165930500Y-120834155D01*
X165930500Y-120060933D01*
X165903402Y-119889843D01*
X165849873Y-119725099D01*
X165771232Y-119570756D01*
X165669414Y-119430616D01*
X165546928Y-119308130D01*
X165406788Y-119206312D01*
X165252445Y-119127671D01*
X165087701Y-119074142D01*
X165087699Y-119074141D01*
X165087698Y-119074141D01*
X164956271Y-119053325D01*
X164916611Y-119047044D01*
X164743389Y-119047044D01*
X164703728Y-119053325D01*
X164572302Y-119074141D01*
X164407552Y-119127672D01*
X164253211Y-119206312D01*
X164173256Y-119264403D01*
X164113072Y-119308130D01*
X164113070Y-119308132D01*
X164113069Y-119308132D01*
X163990588Y-119430613D01*
X163990588Y-119430614D01*
X163990586Y-119430616D01*
X163946859Y-119490800D01*
X163888768Y-119570755D01*
X163810128Y-119725096D01*
X163756597Y-119889846D01*
X163729500Y-120060933D01*
X163729500Y-120834155D01*
X163756598Y-121005245D01*
X163801543Y-121143571D01*
X163810128Y-121169991D01*
X163886156Y-121319205D01*
X163899052Y-121387875D01*
X163872776Y-121452615D01*
X163815669Y-121492872D01*
X163775671Y-121499500D01*
X157224329Y-121499500D01*
X157157290Y-121479815D01*
X157111535Y-121427011D01*
X157101591Y-121357853D01*
X157113844Y-121319205D01*
X157126535Y-121294297D01*
X157189873Y-121169989D01*
X157243402Y-121005245D01*
X157270500Y-120834155D01*
X157270500Y-120060933D01*
X157243402Y-119889843D01*
X157189873Y-119725099D01*
X157111232Y-119570756D01*
X157009414Y-119430616D01*
X156886928Y-119308130D01*
X156746788Y-119206312D01*
X156592445Y-119127671D01*
X156427701Y-119074142D01*
X156427699Y-119074141D01*
X156427698Y-119074141D01*
X156296271Y-119053325D01*
X156256611Y-119047044D01*
X156083389Y-119047044D01*
X156043728Y-119053325D01*
X155912302Y-119074141D01*
X155747552Y-119127672D01*
X155593211Y-119206312D01*
X155513256Y-119264403D01*
X155453072Y-119308130D01*
X155453070Y-119308132D01*
X155453069Y-119308132D01*
X155330588Y-119430613D01*
X155330588Y-119430614D01*
X155330586Y-119430616D01*
X155286859Y-119490800D01*
X155228768Y-119570755D01*
X155150128Y-119725096D01*
X155096597Y-119889846D01*
X155069500Y-120060933D01*
X155069500Y-120834155D01*
X155096598Y-121005245D01*
X155141543Y-121143571D01*
X155150128Y-121169991D01*
X155226156Y-121319205D01*
X155239052Y-121387875D01*
X155212776Y-121452615D01*
X155155669Y-121492872D01*
X155115671Y-121499500D01*
X152217068Y-121499500D01*
X152150029Y-121479815D01*
X152104274Y-121427011D01*
X152094330Y-121357853D01*
X152123355Y-121294297D01*
X152182133Y-121256523D01*
X152197670Y-121253027D01*
X152269293Y-121241682D01*
X152441444Y-121185748D01*
X152441452Y-121185745D01*
X152602730Y-121103568D01*
X152618532Y-121092085D01*
X152618533Y-121092085D01*
X152129410Y-120602962D01*
X152192993Y-120585925D01*
X152307007Y-120520099D01*
X152400099Y-120427007D01*
X152465925Y-120312993D01*
X152482962Y-120249409D01*
X152972085Y-120738532D01*
X152983568Y-120722730D01*
X153065745Y-120561452D01*
X153065748Y-120561444D01*
X153121682Y-120389293D01*
X153150000Y-120210506D01*
X153150000Y-120029493D01*
X153121682Y-119850706D01*
X153065748Y-119678555D01*
X153065747Y-119678552D01*
X152983571Y-119517275D01*
X152983566Y-119517267D01*
X152972085Y-119501466D01*
X152482962Y-119990589D01*
X152465925Y-119927007D01*
X152400099Y-119812993D01*
X152307007Y-119719901D01*
X152192993Y-119654075D01*
X152129409Y-119637037D01*
X152618533Y-119147913D01*
X152602727Y-119136429D01*
X152471269Y-119069447D01*
X152420474Y-119021473D01*
X152403679Y-118953651D01*
X152426217Y-118887517D01*
X152480932Y-118844066D01*
X152489216Y-118841043D01*
X152518412Y-118831557D01*
X152707816Y-118735051D01*
X152729789Y-118719086D01*
X152879786Y-118610109D01*
X152879788Y-118610106D01*
X152879792Y-118610104D01*
X153030104Y-118459792D01*
X153030106Y-118459788D01*
X153030109Y-118459786D01*
X153155048Y-118287820D01*
X153155047Y-118287820D01*
X153155051Y-118287816D01*
X153251557Y-118098412D01*
X153317246Y-117896243D01*
X153350500Y-117686287D01*
X153350500Y-117473713D01*
X153317246Y-117263757D01*
X153303506Y-117221473D01*
X153301512Y-117151635D01*
X153333755Y-117095478D01*
X153817154Y-116612080D01*
X153878473Y-116578598D01*
X153948165Y-116583582D01*
G37*
%TD.AperFunction*%
%TA.AperFunction,Conductor*%
G36*
X170430211Y-118046949D02*
G01*
X170481687Y-118094193D01*
X170499500Y-118158226D01*
X170499500Y-121375500D01*
X170479815Y-121442539D01*
X170427011Y-121488294D01*
X170375500Y-121499500D01*
X169381827Y-121499500D01*
X169314788Y-121479815D01*
X169269033Y-121427011D01*
X169259089Y-121357853D01*
X169288114Y-121294297D01*
X169343509Y-121257569D01*
X169441444Y-121225748D01*
X169441452Y-121225745D01*
X169602730Y-121143568D01*
X169618532Y-121132085D01*
X169618533Y-121132085D01*
X169129410Y-120642962D01*
X169192993Y-120625925D01*
X169307007Y-120560099D01*
X169400099Y-120467007D01*
X169465925Y-120352993D01*
X169482962Y-120289409D01*
X169972085Y-120778532D01*
X169983568Y-120762730D01*
X170065745Y-120601452D01*
X170065748Y-120601444D01*
X170121682Y-120429293D01*
X170150000Y-120250506D01*
X170150000Y-120069493D01*
X170121682Y-119890706D01*
X170065748Y-119718555D01*
X170065747Y-119718552D01*
X169983571Y-119557275D01*
X169983566Y-119557267D01*
X169972085Y-119541466D01*
X169482962Y-120030589D01*
X169465925Y-119967007D01*
X169400099Y-119852993D01*
X169307007Y-119759901D01*
X169192993Y-119694075D01*
X169129409Y-119677037D01*
X169618533Y-119187913D01*
X169602727Y-119176429D01*
X169471269Y-119109447D01*
X169420474Y-119061473D01*
X169403679Y-118993651D01*
X169426217Y-118927517D01*
X169480932Y-118884066D01*
X169489216Y-118881043D01*
X169518412Y-118871557D01*
X169707816Y-118775051D01*
X169762876Y-118735048D01*
X169879786Y-118650109D01*
X169879788Y-118650106D01*
X169879792Y-118650104D01*
X170030104Y-118499792D01*
X170030106Y-118499788D01*
X170030109Y-118499786D01*
X170155048Y-118327820D01*
X170155047Y-118327820D01*
X170155051Y-118327816D01*
X170251557Y-118138412D01*
X170257569Y-118119907D01*
X170297006Y-118062232D01*
X170361365Y-118035034D01*
X170430211Y-118046949D01*
G37*
%TD.AperFunction*%
%TA.AperFunction,Conductor*%
G36*
X160670884Y-70110566D02*
G01*
X160677362Y-70116598D01*
X160778349Y-70217585D01*
X160778355Y-70217590D01*
X161357982Y-70797217D01*
X161357992Y-70797228D01*
X161362322Y-70801558D01*
X161362323Y-70801559D01*
X161474127Y-70913363D01*
X161560938Y-70963482D01*
X161560940Y-70963484D01*
X161598994Y-70985454D01*
X161611058Y-70992420D01*
X161763786Y-71033343D01*
X161921900Y-71033343D01*
X163501374Y-71033343D01*
X163568413Y-71053028D01*
X163589055Y-71069662D01*
X164763182Y-72243789D01*
X164796667Y-72305112D01*
X164799501Y-72331470D01*
X164799501Y-73813331D01*
X164799500Y-73813349D01*
X164799500Y-73979055D01*
X164799499Y-73979055D01*
X164840424Y-74131787D01*
X164851426Y-74150841D01*
X164851427Y-74150846D01*
X164851428Y-74150846D01*
X164919476Y-74268710D01*
X164919480Y-74268715D01*
X164919481Y-74268717D01*
X165031285Y-74380521D01*
X165031286Y-74380522D01*
X165157051Y-74506287D01*
X165260338Y-74609573D01*
X165293823Y-74670896D01*
X165296657Y-74697254D01*
X165296657Y-76844740D01*
X165296656Y-76844740D01*
X165337582Y-76997475D01*
X165337583Y-76997476D01*
X165361292Y-77038540D01*
X165361293Y-77038542D01*
X165416633Y-77134395D01*
X165416639Y-77134403D01*
X165494653Y-77212417D01*
X165528138Y-77273740D01*
X165530972Y-77300098D01*
X165530972Y-78553370D01*
X165530971Y-78553370D01*
X165571896Y-78706101D01*
X165584354Y-78727678D01*
X165584355Y-78727681D01*
X165650948Y-78843025D01*
X165650954Y-78843033D01*
X165769822Y-78961901D01*
X165769828Y-78961906D01*
X166020338Y-79212416D01*
X166053823Y-79273739D01*
X166056657Y-79300097D01*
X166056657Y-80761861D01*
X166056656Y-80761879D01*
X166056656Y-80927586D01*
X166056657Y-80927588D01*
X166073341Y-80989854D01*
X166073353Y-80989896D01*
X166097580Y-81080314D01*
X166097583Y-81080319D01*
X166176632Y-81217238D01*
X166176638Y-81217246D01*
X166254653Y-81295261D01*
X166288138Y-81356584D01*
X166290972Y-81382942D01*
X166290972Y-82420943D01*
X166290972Y-82579057D01*
X166296109Y-82598226D01*
X166331895Y-82731783D01*
X166331898Y-82731790D01*
X166410947Y-82868709D01*
X166410951Y-82868714D01*
X166410952Y-82868716D01*
X166522756Y-82980520D01*
X166522757Y-82980521D01*
X166522759Y-82980522D01*
X166528797Y-82984008D01*
X166554480Y-83003715D01*
X167666241Y-84115476D01*
X167699726Y-84176799D01*
X167696492Y-84241473D01*
X167682753Y-84283757D01*
X167649500Y-84493713D01*
X167649500Y-84706286D01*
X167676418Y-84876243D01*
X167682754Y-84916243D01*
X167734075Y-85074193D01*
X167748444Y-85118414D01*
X167844951Y-85307820D01*
X167969890Y-85479786D01*
X168120213Y-85630109D01*
X168292182Y-85755050D01*
X168300946Y-85759516D01*
X168351742Y-85807491D01*
X168368536Y-85875312D01*
X168345998Y-85941447D01*
X168300946Y-85980484D01*
X168292182Y-85984949D01*
X168120213Y-86109890D01*
X167969890Y-86260213D01*
X167844951Y-86432179D01*
X167748444Y-86621585D01*
X167682753Y-86823760D01*
X167649500Y-87033713D01*
X167649500Y-87246286D01*
X167676418Y-87416243D01*
X167682754Y-87456243D01*
X167734075Y-87614193D01*
X167748444Y-87658414D01*
X167844951Y-87847820D01*
X167969890Y-88019786D01*
X168120213Y-88170109D01*
X168292182Y-88295050D01*
X168300946Y-88299516D01*
X168351742Y-88347491D01*
X168368536Y-88415312D01*
X168345998Y-88481447D01*
X168300946Y-88520484D01*
X168292182Y-88524949D01*
X168120213Y-88649890D01*
X167969890Y-88800213D01*
X167844951Y-88972179D01*
X167748444Y-89161585D01*
X167682753Y-89363760D01*
X167649500Y-89573713D01*
X167649500Y-89786286D01*
X167676418Y-89956243D01*
X167682754Y-89996243D01*
X167734075Y-90154193D01*
X167748444Y-90198414D01*
X167844951Y-90387820D01*
X167969890Y-90559786D01*
X168120213Y-90710109D01*
X168292182Y-90835050D01*
X168300946Y-90839516D01*
X168351742Y-90887491D01*
X168368536Y-90955312D01*
X168345998Y-91021447D01*
X168300946Y-91060484D01*
X168292182Y-91064949D01*
X168120213Y-91189890D01*
X167969890Y-91340213D01*
X167844951Y-91512179D01*
X167748444Y-91701585D01*
X167682753Y-91903760D01*
X167649500Y-92113713D01*
X167649500Y-92326286D01*
X167676418Y-92496243D01*
X167682754Y-92536243D01*
X167734075Y-92694193D01*
X167748444Y-92738414D01*
X167844951Y-92927820D01*
X167969890Y-93099786D01*
X168120213Y-93250109D01*
X168292182Y-93375050D01*
X168300946Y-93379516D01*
X168351742Y-93427491D01*
X168368536Y-93495312D01*
X168345998Y-93561447D01*
X168300946Y-93600484D01*
X168292182Y-93604949D01*
X168120213Y-93729890D01*
X167969890Y-93880213D01*
X167844951Y-94052179D01*
X167748444Y-94241585D01*
X167682753Y-94443760D01*
X167649500Y-94653713D01*
X167649500Y-94866286D01*
X167676418Y-95036243D01*
X167682754Y-95076243D01*
X167745334Y-95268844D01*
X167748444Y-95278414D01*
X167844951Y-95467820D01*
X167969890Y-95639786D01*
X168120213Y-95790109D01*
X168292182Y-95915050D01*
X168300946Y-95919516D01*
X168351742Y-95967491D01*
X168368536Y-96035312D01*
X168345998Y-96101447D01*
X168300946Y-96140484D01*
X168292182Y-96144949D01*
X168120213Y-96269890D01*
X167969890Y-96420213D01*
X167844951Y-96592179D01*
X167748444Y-96781585D01*
X167682753Y-96983760D01*
X167649500Y-97193713D01*
X167649500Y-97406286D01*
X167676418Y-97576243D01*
X167682754Y-97616243D01*
X167742192Y-97799175D01*
X167748444Y-97818414D01*
X167844951Y-98007820D01*
X167969890Y-98179786D01*
X168120213Y-98330109D01*
X168292182Y-98455050D01*
X168300946Y-98459516D01*
X168351742Y-98507491D01*
X168368536Y-98575312D01*
X168345998Y-98641447D01*
X168300946Y-98680484D01*
X168292182Y-98684949D01*
X168120213Y-98809890D01*
X167969890Y-98960213D01*
X167844951Y-99132179D01*
X167748444Y-99321585D01*
X167682753Y-99523760D01*
X167649500Y-99733713D01*
X167649500Y-99946286D01*
X167676418Y-100116243D01*
X167682754Y-100156243D01*
X167734075Y-100314193D01*
X167748444Y-100358414D01*
X167844951Y-100547820D01*
X167969890Y-100719786D01*
X168120213Y-100870109D01*
X168292182Y-100995050D01*
X168300946Y-100999516D01*
X168351742Y-101047491D01*
X168368536Y-101115312D01*
X168345998Y-101181447D01*
X168300946Y-101220484D01*
X168292182Y-101224949D01*
X168120213Y-101349890D01*
X167969890Y-101500213D01*
X167844951Y-101672179D01*
X167748444Y-101861585D01*
X167682753Y-102063760D01*
X167649500Y-102273713D01*
X167649500Y-102486286D01*
X167676418Y-102656243D01*
X167682754Y-102696243D01*
X167738315Y-102867242D01*
X167748444Y-102898414D01*
X167844951Y-103087820D01*
X167969890Y-103259786D01*
X168120213Y-103410109D01*
X168292182Y-103535050D01*
X168300946Y-103539516D01*
X168351742Y-103587491D01*
X168368536Y-103655312D01*
X168345998Y-103721447D01*
X168300946Y-103760484D01*
X168292182Y-103764949D01*
X168120213Y-103889890D01*
X167969890Y-104040213D01*
X167844951Y-104212179D01*
X167748444Y-104401585D01*
X167682753Y-104603760D01*
X167649500Y-104813713D01*
X167649500Y-105026286D01*
X167676418Y-105196243D01*
X167682754Y-105236243D01*
X167734075Y-105394193D01*
X167748444Y-105438414D01*
X167844951Y-105627820D01*
X167969890Y-105799786D01*
X168120213Y-105950109D01*
X168292182Y-106075050D01*
X168300946Y-106079516D01*
X168351742Y-106127491D01*
X168368536Y-106195312D01*
X168345998Y-106261447D01*
X168300946Y-106300484D01*
X168292182Y-106304949D01*
X168120213Y-106429890D01*
X167969890Y-106580213D01*
X167844951Y-106752179D01*
X167748444Y-106941585D01*
X167682753Y-107143760D01*
X167649500Y-107353713D01*
X167649500Y-107566286D01*
X167682106Y-107772157D01*
X167682754Y-107776243D01*
X167737364Y-107944315D01*
X167748444Y-107978414D01*
X167844951Y-108167820D01*
X167969890Y-108339786D01*
X168120213Y-108490109D01*
X168292182Y-108615050D01*
X168300946Y-108619516D01*
X168351742Y-108667491D01*
X168368536Y-108735312D01*
X168345998Y-108801447D01*
X168300946Y-108840484D01*
X168292182Y-108844949D01*
X168120213Y-108969890D01*
X167969890Y-109120213D01*
X167844951Y-109292179D01*
X167748444Y-109481585D01*
X167682753Y-109683760D01*
X167649500Y-109893713D01*
X167649500Y-110106286D01*
X167676418Y-110276243D01*
X167682754Y-110316243D01*
X167741593Y-110497331D01*
X167748444Y-110518414D01*
X167844951Y-110707820D01*
X167969890Y-110879786D01*
X168120213Y-111030109D01*
X168292182Y-111155050D01*
X168300946Y-111159516D01*
X168351742Y-111207491D01*
X168368536Y-111275312D01*
X168345998Y-111341447D01*
X168300946Y-111380484D01*
X168292182Y-111384949D01*
X168120213Y-111509890D01*
X167969890Y-111660213D01*
X167844951Y-111832179D01*
X167748444Y-112021585D01*
X167682753Y-112223760D01*
X167649500Y-112433713D01*
X167649500Y-112646286D01*
X167676418Y-112816243D01*
X167682754Y-112856243D01*
X167734075Y-113014193D01*
X167748444Y-113058414D01*
X167844951Y-113247820D01*
X167969890Y-113419786D01*
X168120213Y-113570109D01*
X168292182Y-113695050D01*
X168300946Y-113699516D01*
X168351742Y-113747491D01*
X168368536Y-113815312D01*
X168345998Y-113881447D01*
X168300946Y-113920484D01*
X168292182Y-113924949D01*
X168120213Y-114049890D01*
X167969890Y-114200213D01*
X167844951Y-114372179D01*
X167748444Y-114561585D01*
X167682753Y-114763760D01*
X167649500Y-114973713D01*
X167649500Y-115186286D01*
X167676418Y-115356243D01*
X167682754Y-115396243D01*
X167735286Y-115557920D01*
X167748444Y-115598414D01*
X167844951Y-115787820D01*
X167969890Y-115959786D01*
X168120213Y-116110109D01*
X168292182Y-116235050D01*
X168300946Y-116239516D01*
X168351742Y-116287491D01*
X168368536Y-116355312D01*
X168345998Y-116421447D01*
X168300946Y-116460484D01*
X168292182Y-116464949D01*
X168120213Y-116589890D01*
X167969890Y-116740213D01*
X167844948Y-116912184D01*
X167844947Y-116912185D01*
X167824765Y-116951795D01*
X167776791Y-117002591D01*
X167714281Y-117019500D01*
X166033659Y-117019500D01*
X165966620Y-116999815D01*
X165920865Y-116947011D01*
X165910921Y-116877853D01*
X165911186Y-116876103D01*
X165930500Y-116754155D01*
X165930500Y-115780933D01*
X165921097Y-115721567D01*
X165903402Y-115609843D01*
X165849873Y-115445099D01*
X165771232Y-115290756D01*
X165669414Y-115150616D01*
X165645478Y-115126680D01*
X165611993Y-115065357D01*
X165616977Y-114995665D01*
X165658849Y-114939732D01*
X165724313Y-114915315D01*
X165733159Y-114914999D01*
X166474786Y-114914999D01*
X166474808Y-114914997D01*
X166499869Y-114912091D01*
X166499873Y-114912090D01*
X166602474Y-114866788D01*
X166602479Y-114866785D01*
X166681785Y-114787479D01*
X166681788Y-114787474D01*
X166727089Y-114684877D01*
X166727089Y-114684875D01*
X166729999Y-114659794D01*
X166730000Y-114659791D01*
X166730000Y-114250000D01*
X165624000Y-114250000D01*
X165556961Y-114230315D01*
X165511206Y-114177511D01*
X165500000Y-114126000D01*
X165500000Y-114000000D01*
X165374000Y-114000000D01*
X165306961Y-113980315D01*
X165261206Y-113927511D01*
X165250000Y-113876000D01*
X165250000Y-113750000D01*
X165750000Y-113750000D01*
X166729999Y-113750000D01*
X166729999Y-113340214D01*
X166729997Y-113340191D01*
X166727091Y-113315130D01*
X166727090Y-113315126D01*
X166681788Y-113212525D01*
X166681785Y-113212520D01*
X166602479Y-113133214D01*
X166602474Y-113133211D01*
X166499876Y-113087910D01*
X166474794Y-113085000D01*
X165750000Y-113085000D01*
X165750000Y-113750000D01*
X165250000Y-113750000D01*
X165250000Y-113085000D01*
X164724500Y-113085000D01*
X164657461Y-113065315D01*
X164611706Y-113012511D01*
X164600500Y-112961000D01*
X164600500Y-110879499D01*
X164620185Y-110812460D01*
X164672989Y-110766705D01*
X164724500Y-110755499D01*
X166477871Y-110755499D01*
X166477872Y-110755499D01*
X166537483Y-110749091D01*
X166672331Y-110698796D01*
X166787546Y-110612546D01*
X166873796Y-110497331D01*
X166924091Y-110362483D01*
X166930500Y-110302873D01*
X166930499Y-108977128D01*
X166924091Y-108917517D01*
X166895360Y-108840486D01*
X166873797Y-108782671D01*
X166873793Y-108782664D01*
X166787547Y-108667455D01*
X166787544Y-108667452D01*
X166665231Y-108575888D01*
X166666230Y-108574553D01*
X166624136Y-108532454D01*
X166609288Y-108464181D01*
X166629871Y-108404141D01*
X166646551Y-108379179D01*
X166706894Y-108233497D01*
X166737657Y-108078842D01*
X166737657Y-107921158D01*
X166737657Y-107921155D01*
X166737656Y-107921153D01*
X166730852Y-107886949D01*
X166706894Y-107766503D01*
X166666183Y-107668216D01*
X166646554Y-107620827D01*
X166646547Y-107620814D01*
X166558946Y-107489711D01*
X166558943Y-107489707D01*
X166447449Y-107378213D01*
X166447445Y-107378210D01*
X166316342Y-107290609D01*
X166316329Y-107290602D01*
X166170658Y-107230264D01*
X166170646Y-107230261D01*
X166016002Y-107199500D01*
X166015999Y-107199500D01*
X165897607Y-107199500D01*
X165830568Y-107179815D01*
X165784813Y-107127011D01*
X165778530Y-107110093D01*
X165772869Y-107090608D01*
X165772869Y-107090607D01*
X165691135Y-106952402D01*
X165691133Y-106952400D01*
X165691130Y-106952396D01*
X165636819Y-106898085D01*
X165603334Y-106836762D01*
X165600500Y-106810404D01*
X165600500Y-102019917D01*
X165608318Y-101976584D01*
X165616530Y-101954567D01*
X165634091Y-101907483D01*
X165640500Y-101847873D01*
X165640499Y-98360925D01*
X165660184Y-98293887D01*
X165701379Y-98254194D01*
X165778976Y-98208303D01*
X165778975Y-98208303D01*
X165778983Y-98208299D01*
X165893413Y-98093869D01*
X165975790Y-97954577D01*
X166009032Y-97840157D01*
X166020938Y-97799179D01*
X166020939Y-97799173D01*
X166021014Y-97798226D01*
X166023796Y-97762872D01*
X166023796Y-97353492D01*
X166020939Y-97317189D01*
X165975790Y-97161787D01*
X165893413Y-97022495D01*
X165893411Y-97022493D01*
X165893408Y-97022489D01*
X165842246Y-96971327D01*
X165808761Y-96910004D01*
X165812423Y-96850238D01*
X165810964Y-96848182D01*
X165711648Y-96848182D01*
X165648529Y-96830914D01*
X165639691Y-96825688D01*
X165639689Y-96825687D01*
X165639685Y-96825685D01*
X165484293Y-96780539D01*
X165484287Y-96780538D01*
X165447993Y-96777682D01*
X165447986Y-96777682D01*
X165337296Y-96777682D01*
X165270257Y-96757997D01*
X165224502Y-96705193D01*
X165213296Y-96653682D01*
X165213296Y-96598182D01*
X165153893Y-96598182D01*
X165124452Y-96589537D01*
X165094466Y-96583014D01*
X165089450Y-96579259D01*
X165086854Y-96578497D01*
X165066212Y-96561863D01*
X164999615Y-96495266D01*
X164966130Y-96433943D01*
X164963296Y-96407585D01*
X164963296Y-96348182D01*
X165463296Y-96348182D01*
X165810964Y-96348182D01*
X165776699Y-96250259D01*
X165697937Y-96143540D01*
X165591215Y-96064776D01*
X165466023Y-96020969D01*
X165466021Y-96020968D01*
X165463296Y-96020712D01*
X165463296Y-96348182D01*
X164963296Y-96348182D01*
X164963296Y-96020713D01*
X164963295Y-96020712D01*
X164960570Y-96020968D01*
X164960568Y-96020969D01*
X164835374Y-96064776D01*
X164808251Y-96084794D01*
X164742621Y-96108764D01*
X164674451Y-96093446D01*
X164646939Y-96072703D01*
X164568717Y-95994481D01*
X164568709Y-95994475D01*
X164431790Y-95915426D01*
X164431786Y-95915424D01*
X164431784Y-95915423D01*
X164279057Y-95874500D01*
X164279056Y-95874500D01*
X163949500Y-95874500D01*
X163940814Y-95871949D01*
X163931853Y-95873238D01*
X163907812Y-95862259D01*
X163882461Y-95854815D01*
X163876533Y-95847974D01*
X163868297Y-95844213D01*
X163854007Y-95821978D01*
X163836706Y-95802011D01*
X163834418Y-95791496D01*
X163830523Y-95785435D01*
X163825500Y-95750500D01*
X163825500Y-95576401D01*
X163845185Y-95509362D01*
X163861814Y-95488723D01*
X163947866Y-95402671D01*
X164009187Y-95369188D01*
X164035537Y-95366354D01*
X164515535Y-95366354D01*
X164551559Y-95363520D01*
X164705748Y-95318724D01*
X164843953Y-95236990D01*
X164957490Y-95123453D01*
X165039224Y-94985248D01*
X165084020Y-94831059D01*
X165086855Y-94795036D01*
X165086854Y-94396675D01*
X165084020Y-94360651D01*
X165039224Y-94206462D01*
X165005224Y-94148972D01*
X164988043Y-94081253D01*
X165005224Y-94022737D01*
X165039224Y-93965248D01*
X165063931Y-93880208D01*
X165084019Y-93811063D01*
X165084020Y-93811057D01*
X165086854Y-93775043D01*
X165086855Y-93775036D01*
X165086854Y-93376675D01*
X165084020Y-93340651D01*
X165039224Y-93186462D01*
X164957490Y-93048257D01*
X164957489Y-93048256D01*
X164957487Y-93048253D01*
X164954114Y-93044881D01*
X164920625Y-92983560D01*
X164924083Y-92918195D01*
X164965751Y-92792452D01*
X164975815Y-92693941D01*
X164975815Y-92160593D01*
X164965751Y-92062082D01*
X164912864Y-91902480D01*
X164912860Y-91902474D01*
X164912859Y-91902471D01*
X164824598Y-91759379D01*
X164824595Y-91759375D01*
X164705705Y-91640485D01*
X164665242Y-91615527D01*
X164618518Y-91563579D01*
X164607297Y-91494616D01*
X164631537Y-91435063D01*
X164712989Y-91327653D01*
X164765304Y-91194991D01*
X164775315Y-91111622D01*
X164775315Y-91102267D01*
X163225315Y-91102267D01*
X163225315Y-91111622D01*
X163235325Y-91194991D01*
X163287640Y-91327653D01*
X163369093Y-91435064D01*
X163393916Y-91500375D01*
X163379488Y-91568739D01*
X163335388Y-91615526D01*
X163294927Y-91640483D01*
X163294923Y-91640486D01*
X163176034Y-91759375D01*
X163176031Y-91759379D01*
X163087770Y-91902471D01*
X163087766Y-91902480D01*
X163034879Y-92062082D01*
X163034879Y-92062083D01*
X163034878Y-92062083D01*
X163024815Y-92160585D01*
X163024815Y-92693948D01*
X163034878Y-92792450D01*
X163087765Y-92952051D01*
X163087770Y-92952062D01*
X163176031Y-93095154D01*
X163176034Y-93095158D01*
X163294924Y-93214048D01*
X163386953Y-93270812D01*
X163433676Y-93322759D01*
X163445855Y-93376350D01*
X163445855Y-93775024D01*
X163445856Y-93775046D01*
X163448690Y-93811058D01*
X163456157Y-93836759D01*
X163455958Y-93906628D01*
X163418017Y-93965299D01*
X163354379Y-93994143D01*
X163337081Y-93995355D01*
X161895953Y-93995355D01*
X161828914Y-93975670D01*
X161808272Y-93959036D01*
X158736819Y-90887583D01*
X158703334Y-90826260D01*
X158700500Y-90799902D01*
X158700500Y-90672416D01*
X158700500Y-90672414D01*
X158670323Y-90559792D01*
X158659577Y-90519686D01*
X158604064Y-90423535D01*
X158596446Y-90410341D01*
X158579978Y-90342441D01*
X158584060Y-90316261D01*
X158610501Y-90217586D01*
X158610501Y-90059472D01*
X158610501Y-90051877D01*
X158610500Y-90051859D01*
X158610500Y-88421153D01*
X159699500Y-88421153D01*
X159699500Y-88578846D01*
X159730261Y-88733489D01*
X159730264Y-88733501D01*
X159790602Y-88879172D01*
X159790609Y-88879185D01*
X159878601Y-89010873D01*
X159897467Y-89071124D01*
X159898438Y-89070997D01*
X159899171Y-89076568D01*
X159899479Y-89077550D01*
X159899492Y-89079002D01*
X159899498Y-89079054D01*
X159940014Y-89230261D01*
X159940423Y-89231785D01*
X159962335Y-89269737D01*
X159993523Y-89323757D01*
X160019479Y-89368714D01*
X160019481Y-89368717D01*
X160138349Y-89487585D01*
X160138355Y-89487590D01*
X160665425Y-90014660D01*
X160698910Y-90075983D01*
X160699361Y-90078149D01*
X160730261Y-90233491D01*
X160730264Y-90233501D01*
X160790602Y-90379172D01*
X160790609Y-90379185D01*
X160878210Y-90510288D01*
X160878213Y-90510292D01*
X160989707Y-90621786D01*
X160989711Y-90621789D01*
X161120814Y-90709390D01*
X161120827Y-90709397D01*
X161266498Y-90769735D01*
X161266503Y-90769737D01*
X161416201Y-90799514D01*
X161421153Y-90800499D01*
X161421156Y-90800500D01*
X161421158Y-90800500D01*
X161578844Y-90800500D01*
X161578845Y-90800499D01*
X161733497Y-90769737D01*
X161879179Y-90709394D01*
X162010289Y-90621789D01*
X162039167Y-90592911D01*
X163225315Y-90592911D01*
X163225315Y-90602267D01*
X163750315Y-90602267D01*
X164250315Y-90602267D01*
X164775315Y-90602267D01*
X164775315Y-90592911D01*
X164765304Y-90509542D01*
X164712989Y-90376880D01*
X164626825Y-90263256D01*
X164513201Y-90177092D01*
X164380539Y-90124777D01*
X164297171Y-90114767D01*
X164250315Y-90114767D01*
X164250315Y-90602267D01*
X163750315Y-90602267D01*
X163750315Y-90114767D01*
X163703459Y-90114767D01*
X163620090Y-90124777D01*
X163487428Y-90177092D01*
X163373804Y-90263256D01*
X163287640Y-90376880D01*
X163235325Y-90509542D01*
X163225315Y-90592911D01*
X162039167Y-90592911D01*
X162121789Y-90510289D01*
X162209394Y-90379179D01*
X162269737Y-90233497D01*
X162300500Y-90078842D01*
X162300500Y-89921158D01*
X162300500Y-89921155D01*
X162300499Y-89921153D01*
X162269738Y-89766510D01*
X162269737Y-89766503D01*
X162261363Y-89746286D01*
X162209397Y-89620827D01*
X162209390Y-89620814D01*
X162121789Y-89489711D01*
X162121786Y-89489707D01*
X162010292Y-89378213D01*
X162010288Y-89378210D01*
X161879185Y-89290609D01*
X161879172Y-89290602D01*
X161733501Y-89230264D01*
X161733489Y-89230261D01*
X161578151Y-89199362D01*
X161516240Y-89166977D01*
X161514711Y-89165475D01*
X161388965Y-89039730D01*
X161273551Y-88924315D01*
X161240066Y-88862992D01*
X161245050Y-88793300D01*
X161246651Y-88789230D01*
X161269737Y-88733497D01*
X161300500Y-88578842D01*
X161300500Y-88421158D01*
X161300500Y-88421155D01*
X161300499Y-88421153D01*
X161299337Y-88415312D01*
X161269737Y-88266503D01*
X161266842Y-88259514D01*
X161209397Y-88120827D01*
X161209390Y-88120814D01*
X161121789Y-87989711D01*
X161121786Y-87989707D01*
X161010292Y-87878213D01*
X161010288Y-87878210D01*
X160879185Y-87790609D01*
X160879172Y-87790602D01*
X160733501Y-87730264D01*
X160733489Y-87730261D01*
X160578845Y-87699500D01*
X160578842Y-87699500D01*
X160421158Y-87699500D01*
X160421155Y-87699500D01*
X160266510Y-87730261D01*
X160266498Y-87730264D01*
X160120827Y-87790602D01*
X160120814Y-87790609D01*
X159989711Y-87878210D01*
X159989707Y-87878213D01*
X159878213Y-87989707D01*
X159878210Y-87989711D01*
X159790609Y-88120814D01*
X159790602Y-88120827D01*
X159730264Y-88266498D01*
X159730261Y-88266510D01*
X159699500Y-88421153D01*
X158610500Y-88421153D01*
X158610500Y-73669595D01*
X158630185Y-73602556D01*
X158646818Y-73581914D01*
X158651135Y-73577598D01*
X158732869Y-73439393D01*
X158777665Y-73285204D01*
X158780500Y-73249181D01*
X158780499Y-72750820D01*
X158777665Y-72714796D01*
X158732869Y-72560607D01*
X158651135Y-72422402D01*
X158651133Y-72422400D01*
X158651130Y-72422396D01*
X158646819Y-72418085D01*
X158613334Y-72356762D01*
X158610500Y-72330404D01*
X158610500Y-72064799D01*
X158630185Y-71997760D01*
X158631398Y-71995908D01*
X158709390Y-71879185D01*
X158709390Y-71879184D01*
X158709394Y-71879179D01*
X158769737Y-71733497D01*
X158800500Y-71578842D01*
X158800500Y-71546854D01*
X158820185Y-71479815D01*
X158872989Y-71434060D01*
X158924500Y-71422854D01*
X159422546Y-71422854D01*
X159422562Y-71422855D01*
X159430158Y-71422855D01*
X159588269Y-71422855D01*
X159588272Y-71422855D01*
X159741000Y-71381931D01*
X159797172Y-71349500D01*
X159797173Y-71349500D01*
X159877924Y-71302878D01*
X159877923Y-71302878D01*
X159877931Y-71302874D01*
X159989735Y-71191070D01*
X159989735Y-71191068D01*
X159999939Y-71180865D01*
X159999943Y-71180860D01*
X160223687Y-70957116D01*
X160223692Y-70957112D01*
X160233895Y-70946908D01*
X160233897Y-70946908D01*
X160345701Y-70835104D01*
X160352868Y-70822691D01*
X160405343Y-70731801D01*
X160405346Y-70731792D01*
X160405352Y-70731784D01*
X160424758Y-70698173D01*
X160465682Y-70545445D01*
X160465682Y-70387331D01*
X160465682Y-70379736D01*
X160465681Y-70379718D01*
X160465681Y-70204279D01*
X160485366Y-70137240D01*
X160538170Y-70091485D01*
X160607328Y-70081541D01*
X160670884Y-70110566D01*
G37*
%TD.AperFunction*%
%TA.AperFunction,Conductor*%
G36*
X155139713Y-115098547D02*
G01*
X155152262Y-115097470D01*
X155172604Y-115108205D01*
X155194669Y-115114684D01*
X155202914Y-115124200D01*
X155214055Y-115130079D01*
X155225364Y-115150108D01*
X155240424Y-115167488D01*
X155242216Y-115179952D01*
X155248409Y-115190920D01*
X155247094Y-115213880D01*
X155250368Y-115236646D01*
X155245040Y-115249771D01*
X155244416Y-115260676D01*
X155230876Y-115286332D01*
X155231314Y-115286600D01*
X155228772Y-115290747D01*
X155150128Y-115445096D01*
X155096597Y-115609845D01*
X155078902Y-115721567D01*
X155048972Y-115784701D01*
X154989661Y-115821632D01*
X154919798Y-115820634D01*
X154868748Y-115789849D01*
X154636819Y-115557920D01*
X154603334Y-115496597D01*
X154600500Y-115470239D01*
X154600500Y-115218999D01*
X154620185Y-115151960D01*
X154672989Y-115106205D01*
X154724500Y-115094999D01*
X155127630Y-115094999D01*
X155139713Y-115098547D01*
G37*
%TD.AperFunction*%
%TA.AperFunction,Conductor*%
G36*
X156956416Y-110676018D02*
G01*
X156965831Y-110675345D01*
X156988696Y-110687830D01*
X157013165Y-110696784D01*
X157023144Y-110706639D01*
X157027155Y-110708830D01*
X157038276Y-110721585D01*
X157091514Y-110791789D01*
X157116338Y-110857101D01*
X157101910Y-110925464D01*
X157057811Y-110972252D01*
X157041955Y-110982032D01*
X156922032Y-111101955D01*
X156922029Y-111101959D01*
X156833001Y-111246294D01*
X156832996Y-111246305D01*
X156779651Y-111407290D01*
X156769500Y-111506647D01*
X156769500Y-112053337D01*
X156769501Y-112053355D01*
X156779650Y-112152707D01*
X156779651Y-112152710D01*
X156832996Y-112313694D01*
X156833001Y-112313705D01*
X156922029Y-112458040D01*
X156922032Y-112458044D01*
X157041956Y-112577968D01*
X157085597Y-112604886D01*
X157132321Y-112656832D01*
X157144500Y-112710424D01*
X157144500Y-114373609D01*
X157124815Y-114440648D01*
X157072011Y-114486403D01*
X157040100Y-114496050D01*
X156873599Y-114522703D01*
X156841843Y-114518652D01*
X156809934Y-114516168D01*
X156807421Y-114514262D01*
X156804291Y-114513863D01*
X156779765Y-114493286D01*
X156754265Y-114473945D01*
X156753181Y-114470982D01*
X156750765Y-114468955D01*
X156742554Y-114442555D01*
X156729999Y-114430000D01*
X155624000Y-114430000D01*
X155556961Y-114410315D01*
X155511206Y-114357511D01*
X155500000Y-114306000D01*
X155500000Y-114180000D01*
X155374000Y-114180000D01*
X155306961Y-114160315D01*
X155261206Y-114107511D01*
X155250000Y-114056000D01*
X155250000Y-113930000D01*
X155750000Y-113930000D01*
X156729999Y-113930000D01*
X156729999Y-113520214D01*
X156729997Y-113520191D01*
X156727091Y-113495130D01*
X156727090Y-113495126D01*
X156681788Y-113392525D01*
X156681785Y-113392520D01*
X156602479Y-113313214D01*
X156602474Y-113313211D01*
X156499876Y-113267910D01*
X156474794Y-113265000D01*
X155750000Y-113265000D01*
X155750000Y-113930000D01*
X155250000Y-113930000D01*
X155250000Y-113265000D01*
X154724500Y-113265000D01*
X154657461Y-113245315D01*
X154611706Y-113192511D01*
X154600500Y-113141000D01*
X154600500Y-111917847D01*
X154620185Y-111850808D01*
X154672989Y-111805053D01*
X154700309Y-111796230D01*
X154720674Y-111792179D01*
X154833497Y-111769737D01*
X154979179Y-111709394D01*
X155110289Y-111621789D01*
X155221789Y-111510289D01*
X155309394Y-111379179D01*
X155369737Y-111233497D01*
X155400500Y-111078842D01*
X155400500Y-111078839D01*
X155400637Y-111078151D01*
X155409401Y-111061394D01*
X155413422Y-111042914D01*
X155432162Y-111017881D01*
X155433021Y-111016240D01*
X155434533Y-111014700D01*
X155456303Y-110992930D01*
X155477418Y-110971817D01*
X155538741Y-110938332D01*
X155565098Y-110935499D01*
X156477871Y-110935499D01*
X156477872Y-110935499D01*
X156537483Y-110929091D01*
X156672331Y-110878796D01*
X156787546Y-110792546D01*
X156840208Y-110722198D01*
X156861064Y-110706585D01*
X156879371Y-110688050D01*
X156888583Y-110685985D01*
X156896140Y-110680329D01*
X156922124Y-110678470D01*
X156947550Y-110672774D01*
X156956416Y-110676018D01*
G37*
%TD.AperFunction*%
%TA.AperFunction,Conductor*%
G36*
X162910095Y-109264779D02*
G01*
X162934504Y-109283740D01*
X163363181Y-109712416D01*
X163396666Y-109773739D01*
X163399500Y-109800097D01*
X163399500Y-112180900D01*
X163379815Y-112247939D01*
X163327011Y-112293694D01*
X163263925Y-112304359D01*
X163263653Y-112304333D01*
X163263653Y-112749152D01*
X163243968Y-112816191D01*
X163191164Y-112861946D01*
X163139653Y-112873152D01*
X162887653Y-112873152D01*
X162820614Y-112853467D01*
X162774859Y-112800663D01*
X162763653Y-112749152D01*
X162763653Y-112284275D01*
X162754698Y-112269555D01*
X162750501Y-112237566D01*
X162750501Y-111921814D01*
X162750500Y-111921805D01*
X162747599Y-111884932D01*
X162747598Y-111884930D01*
X162747598Y-111884927D01*
X162701746Y-111727107D01*
X162701745Y-111727103D01*
X162618082Y-111585636D01*
X162618080Y-111585634D01*
X162618077Y-111585630D01*
X162501871Y-111469424D01*
X162501860Y-111469415D01*
X162501546Y-111469230D01*
X162501350Y-111469020D01*
X162495703Y-111464640D01*
X162496409Y-111463728D01*
X162453864Y-111418159D01*
X162441362Y-111349417D01*
X162468010Y-111284829D01*
X162495920Y-111260645D01*
X162495701Y-111260362D01*
X162500923Y-111256311D01*
X162501552Y-111255766D01*
X162501864Y-111255582D01*
X162618080Y-111139366D01*
X162701743Y-110997899D01*
X162747597Y-110840070D01*
X162750499Y-110803195D01*
X162750499Y-109646807D01*
X162747597Y-109609932D01*
X162740249Y-109584640D01*
X162704594Y-109461914D01*
X162704662Y-109437799D01*
X162700380Y-109414065D01*
X162704779Y-109396827D01*
X162704793Y-109392045D01*
X162709108Y-109379867D01*
X162709391Y-109379183D01*
X162709394Y-109379179D01*
X162732264Y-109323965D01*
X162776102Y-109269566D01*
X162842396Y-109247500D01*
X162910095Y-109264779D01*
G37*
%TD.AperFunction*%
%TA.AperFunction,Conductor*%
G36*
X158949284Y-104097001D02*
G01*
X158953495Y-104096870D01*
X158980099Y-104112820D01*
X159007696Y-104126987D01*
X159009961Y-104129196D01*
X159105139Y-104224374D01*
X159105149Y-104224385D01*
X159109479Y-104228715D01*
X159109480Y-104228716D01*
X159221284Y-104340520D01*
X159292738Y-104381773D01*
X159308095Y-104390639D01*
X159308097Y-104390641D01*
X159327053Y-104401585D01*
X159358215Y-104419577D01*
X159510943Y-104460500D01*
X162323994Y-104460500D01*
X162391033Y-104480185D01*
X162436788Y-104532989D01*
X162440176Y-104541168D01*
X162446205Y-104557333D01*
X162446205Y-104557334D01*
X162532452Y-104672544D01*
X162532455Y-104672547D01*
X162647664Y-104758793D01*
X162647671Y-104758797D01*
X162782517Y-104809091D01*
X162782516Y-104809091D01*
X162789444Y-104809835D01*
X162842127Y-104815500D01*
X164157872Y-104815499D01*
X164217483Y-104809091D01*
X164232165Y-104803615D01*
X164301857Y-104798629D01*
X164363180Y-104832114D01*
X164396666Y-104893436D01*
X164399500Y-104919796D01*
X164399500Y-106080203D01*
X164379815Y-106147242D01*
X164327011Y-106192997D01*
X164257853Y-106202941D01*
X164232170Y-106196386D01*
X164217484Y-106190909D01*
X164217483Y-106190908D01*
X164157883Y-106184501D01*
X164157881Y-106184500D01*
X164157873Y-106184500D01*
X164157865Y-106184500D01*
X163445097Y-106184500D01*
X163415656Y-106175855D01*
X163385670Y-106169332D01*
X163380654Y-106165577D01*
X163378058Y-106164815D01*
X163357416Y-106148181D01*
X163227590Y-106018355D01*
X163227588Y-106018352D01*
X163108717Y-105899481D01*
X163108716Y-105899480D01*
X163009245Y-105842051D01*
X163009244Y-105842050D01*
X162971783Y-105820422D01*
X162894790Y-105799792D01*
X162819057Y-105779499D01*
X162660943Y-105779499D01*
X162653347Y-105779499D01*
X162653331Y-105779500D01*
X161555940Y-105779500D01*
X161515019Y-105790464D01*
X161515019Y-105790465D01*
X161480233Y-105799786D01*
X161403214Y-105820423D01*
X161403209Y-105820426D01*
X161266290Y-105899475D01*
X161266282Y-105899481D01*
X161022583Y-106143181D01*
X160961260Y-106176666D01*
X160934902Y-106179500D01*
X160802052Y-106179500D01*
X160765326Y-106182390D01*
X160765320Y-106182391D01*
X160608107Y-106228066D01*
X160608104Y-106228068D01*
X160467182Y-106311408D01*
X160467174Y-106311414D01*
X160351414Y-106427174D01*
X160351408Y-106427182D01*
X160268068Y-106568104D01*
X160268066Y-106568107D01*
X160222391Y-106725320D01*
X160222390Y-106725326D01*
X160219500Y-106762052D01*
X160219500Y-107237947D01*
X160222390Y-107274673D01*
X160222391Y-107274679D01*
X160268066Y-107431892D01*
X160268068Y-107431895D01*
X160351408Y-107572817D01*
X160351414Y-107572825D01*
X160366408Y-107587819D01*
X160399893Y-107649142D01*
X160394909Y-107718834D01*
X160353037Y-107774767D01*
X160287573Y-107799184D01*
X160278727Y-107799500D01*
X159702972Y-107799500D01*
X159635933Y-107779815D01*
X159590178Y-107727011D01*
X159585930Y-107716454D01*
X159563404Y-107652078D01*
X159484641Y-107545358D01*
X159377919Y-107466594D01*
X159252727Y-107422787D01*
X159252725Y-107422786D01*
X159250000Y-107422530D01*
X159250000Y-107813989D01*
X159230315Y-107881028D01*
X159210500Y-107904740D01*
X159200194Y-107914335D01*
X159191284Y-107919480D01*
X159145513Y-107965250D01*
X159143902Y-107966751D01*
X159114546Y-107981447D01*
X159085760Y-107997166D01*
X159082434Y-107997523D01*
X159081425Y-107998029D01*
X159079578Y-107997830D01*
X159059402Y-108000000D01*
X159000000Y-108000000D01*
X159000000Y-108055500D01*
X158980315Y-108122539D01*
X158927511Y-108168294D01*
X158876000Y-108179500D01*
X158765302Y-108179500D01*
X158729008Y-108182356D01*
X158729002Y-108182357D01*
X158573610Y-108227503D01*
X158573605Y-108227506D01*
X158564766Y-108232732D01*
X158501648Y-108250000D01*
X158402331Y-108250000D01*
X158400800Y-108252157D01*
X158403971Y-108314289D01*
X158371051Y-108373144D01*
X158319883Y-108424312D01*
X158319879Y-108424318D01*
X158237505Y-108563606D01*
X158237504Y-108563609D01*
X158192357Y-108719002D01*
X158192356Y-108719008D01*
X158189500Y-108755302D01*
X158189500Y-109164697D01*
X158192356Y-109200991D01*
X158192357Y-109200997D01*
X158229680Y-109329461D01*
X158229481Y-109399330D01*
X158191539Y-109458000D01*
X158127900Y-109486844D01*
X158095820Y-109487171D01*
X158036104Y-109480000D01*
X157995000Y-109480000D01*
X157995000Y-109980000D01*
X158520000Y-109980000D01*
X158520000Y-109963897D01*
X158509868Y-109879532D01*
X158507919Y-109871820D01*
X158510010Y-109871291D01*
X158504732Y-109812862D01*
X158537065Y-109750924D01*
X158597752Y-109716299D01*
X158660965Y-109717875D01*
X158729002Y-109737642D01*
X158729005Y-109737642D01*
X158729007Y-109737643D01*
X158765310Y-109740500D01*
X158765318Y-109740500D01*
X159125499Y-109740500D01*
X159192538Y-109760185D01*
X159238293Y-109812989D01*
X159249499Y-109864500D01*
X159249499Y-110803200D01*
X159252400Y-110840066D01*
X159252401Y-110840072D01*
X159298253Y-110997892D01*
X159298254Y-110997894D01*
X159298255Y-110997897D01*
X159317302Y-111030104D01*
X159346125Y-111078842D01*
X159381917Y-111139363D01*
X159381922Y-111139369D01*
X159498128Y-111255575D01*
X159498131Y-111255577D01*
X159498134Y-111255580D01*
X159498449Y-111255766D01*
X159498645Y-111255976D01*
X159504297Y-111260360D01*
X159503589Y-111261271D01*
X159546133Y-111306835D01*
X159558637Y-111375576D01*
X159531993Y-111440166D01*
X159504079Y-111464355D01*
X159504299Y-111464638D01*
X159499105Y-111468666D01*
X159498462Y-111469224D01*
X159498144Y-111469412D01*
X159498130Y-111469422D01*
X159381924Y-111585628D01*
X159381918Y-111585636D01*
X159298256Y-111727102D01*
X159298255Y-111727105D01*
X159252403Y-111884925D01*
X159252402Y-111884931D01*
X159249501Y-111921797D01*
X159249501Y-112391222D01*
X159229816Y-112458261D01*
X159177012Y-112504016D01*
X159107854Y-112513960D01*
X159044298Y-112484935D01*
X159025732Y-112464857D01*
X158996066Y-112424662D01*
X158890559Y-112346793D01*
X158786553Y-112310399D01*
X158729778Y-112269677D01*
X158704031Y-112204724D01*
X158709227Y-112159394D01*
X158708932Y-112159331D01*
X158709584Y-112156281D01*
X158709807Y-112154343D01*
X158710349Y-112152708D01*
X158720500Y-112053345D01*
X158720499Y-111506656D01*
X158716743Y-111469890D01*
X158710349Y-111407292D01*
X158710348Y-111407289D01*
X158695507Y-111362501D01*
X158657003Y-111246303D01*
X158656999Y-111246297D01*
X158656998Y-111246294D01*
X158567970Y-111101959D01*
X158567967Y-111101955D01*
X158448043Y-110982031D01*
X158432190Y-110972253D01*
X158385466Y-110920305D01*
X158374245Y-110851342D01*
X158398485Y-110791789D01*
X158456922Y-110714729D01*
X158509868Y-110580468D01*
X158509868Y-110580467D01*
X158520000Y-110496102D01*
X158520000Y-110480000D01*
X157869000Y-110480000D01*
X157801961Y-110460315D01*
X157756206Y-110407511D01*
X157745000Y-110356000D01*
X157745000Y-110230000D01*
X157619000Y-110230000D01*
X157551961Y-110210315D01*
X157506206Y-110157511D01*
X157495000Y-110106000D01*
X157495000Y-109480000D01*
X157453898Y-109480000D01*
X157369532Y-109490131D01*
X157369531Y-109490131D01*
X157235270Y-109543077D01*
X157129424Y-109623343D01*
X157116476Y-109628264D01*
X157106010Y-109637333D01*
X157084463Y-109640431D01*
X157064112Y-109648166D01*
X157050560Y-109645305D01*
X157036852Y-109647277D01*
X157017049Y-109638233D01*
X156995749Y-109633738D01*
X156985895Y-109624005D01*
X156973296Y-109618252D01*
X156961525Y-109599936D01*
X156946038Y-109584640D01*
X156942230Y-109569912D01*
X156935522Y-109559474D01*
X156930499Y-109524539D01*
X156930499Y-109280794D01*
X156950184Y-109213755D01*
X156991376Y-109174063D01*
X157065687Y-109130117D01*
X157180117Y-109015687D01*
X157262494Y-108876395D01*
X157307643Y-108720993D01*
X157310500Y-108684690D01*
X157310500Y-108275310D01*
X157307643Y-108239007D01*
X157307102Y-108237146D01*
X157266041Y-108095815D01*
X157262494Y-108083605D01*
X157180117Y-107944313D01*
X157180115Y-107944311D01*
X157180112Y-107944307D01*
X157128950Y-107893145D01*
X157121000Y-107878585D01*
X157109033Y-107867097D01*
X157104601Y-107848553D01*
X157095465Y-107831822D01*
X157096513Y-107814712D01*
X157092792Y-107799141D01*
X157098329Y-107770931D01*
X157097668Y-107770000D01*
X156998352Y-107770000D01*
X156935233Y-107752732D01*
X156930613Y-107750000D01*
X158402332Y-107750000D01*
X158750000Y-107750000D01*
X158750000Y-107422531D01*
X158749999Y-107422530D01*
X158747274Y-107422786D01*
X158747272Y-107422787D01*
X158622080Y-107466594D01*
X158515358Y-107545358D01*
X158436596Y-107652077D01*
X158402332Y-107750000D01*
X156930613Y-107750000D01*
X156926395Y-107747506D01*
X156926393Y-107747505D01*
X156926389Y-107747503D01*
X156770997Y-107702357D01*
X156770991Y-107702356D01*
X156734697Y-107699500D01*
X156734690Y-107699500D01*
X156265310Y-107699500D01*
X156265302Y-107699500D01*
X156229008Y-107702356D01*
X156229002Y-107702357D01*
X156073610Y-107747503D01*
X156073605Y-107747506D01*
X156064766Y-107752732D01*
X156001648Y-107770000D01*
X155902331Y-107770000D01*
X155900800Y-107772157D01*
X155903971Y-107834289D01*
X155871051Y-107893144D01*
X155819883Y-107944312D01*
X155819879Y-107944318D01*
X155737505Y-108083606D01*
X155737504Y-108083609D01*
X155692357Y-108239002D01*
X155692356Y-108239008D01*
X155689500Y-108275302D01*
X155689500Y-108389902D01*
X155669815Y-108456941D01*
X155653181Y-108477583D01*
X155462583Y-108668181D01*
X155401260Y-108701666D01*
X155374902Y-108704500D01*
X154724500Y-108704500D01*
X154657461Y-108684815D01*
X154611706Y-108632011D01*
X154600500Y-108580500D01*
X154600500Y-107270000D01*
X155902332Y-107270000D01*
X156250000Y-107270000D01*
X156750000Y-107270000D01*
X157097668Y-107270000D01*
X157063403Y-107172077D01*
X156984641Y-107065358D01*
X156877919Y-106986594D01*
X156752727Y-106942787D01*
X156752725Y-106942786D01*
X156750000Y-106942530D01*
X156750000Y-107270000D01*
X156250000Y-107270000D01*
X156250000Y-106942531D01*
X156249999Y-106942530D01*
X156247274Y-106942786D01*
X156247272Y-106942787D01*
X156122080Y-106986594D01*
X156015358Y-107065358D01*
X155936596Y-107172077D01*
X155902332Y-107270000D01*
X154600500Y-107270000D01*
X154600500Y-106630096D01*
X154620185Y-106563057D01*
X154636814Y-106542420D01*
X155638131Y-105541102D01*
X156225000Y-105541102D01*
X156235131Y-105625467D01*
X156235131Y-105625468D01*
X156288077Y-105759729D01*
X156375278Y-105874721D01*
X156490270Y-105961922D01*
X156624532Y-106014868D01*
X156708898Y-106025000D01*
X156750000Y-106025000D01*
X157250000Y-106025000D01*
X157291102Y-106025000D01*
X157375467Y-106014868D01*
X157375468Y-106014868D01*
X157509729Y-105961922D01*
X157624721Y-105874721D01*
X157711922Y-105759729D01*
X157764868Y-105625468D01*
X157764868Y-105625467D01*
X157775000Y-105541102D01*
X157775000Y-105525000D01*
X157250000Y-105525000D01*
X157250000Y-106025000D01*
X156750000Y-106025000D01*
X156750000Y-105525000D01*
X156225000Y-105525000D01*
X156225000Y-105541102D01*
X155638131Y-105541102D01*
X156117916Y-105061317D01*
X156179237Y-105027834D01*
X156205595Y-105025000D01*
X157774999Y-105025000D01*
X157793450Y-105006549D01*
X157854773Y-104973063D01*
X157922088Y-104977188D01*
X157958316Y-104989865D01*
X157961044Y-104990120D01*
X158461044Y-104990120D01*
X158463773Y-104989865D01*
X158588963Y-104946058D01*
X158695685Y-104867294D01*
X158774447Y-104760575D01*
X158808712Y-104662653D01*
X158461044Y-104662653D01*
X158461044Y-104990120D01*
X157961044Y-104990120D01*
X157961044Y-104536653D01*
X157980729Y-104469614D01*
X158033533Y-104423859D01*
X158085044Y-104412653D01*
X158211044Y-104412653D01*
X158211044Y-104357153D01*
X158230729Y-104290114D01*
X158283533Y-104244359D01*
X158335044Y-104233153D01*
X158445726Y-104233153D01*
X158445734Y-104233153D01*
X158482037Y-104230296D01*
X158482039Y-104230295D01*
X158482041Y-104230295D01*
X158637433Y-104185149D01*
X158637433Y-104185148D01*
X158637439Y-104185147D01*
X158646281Y-104179917D01*
X158670775Y-104168821D01*
X158883659Y-104099045D01*
X158914667Y-104098079D01*
X158945538Y-104095078D01*
X158949284Y-104097001D01*
G37*
%TD.AperFunction*%
%TA.AperFunction,Conductor*%
G36*
X156253979Y-73523156D02*
G01*
X156262146Y-73521982D01*
X156286880Y-73533277D01*
X156312873Y-73541274D01*
X156321828Y-73549238D01*
X156325702Y-73551007D01*
X156331124Y-73557504D01*
X156339247Y-73564728D01*
X156345947Y-73572663D01*
X156348865Y-73577598D01*
X156356876Y-73585609D01*
X156360248Y-73589603D01*
X156372322Y-73616968D01*
X156386665Y-73643231D01*
X156386281Y-73648601D01*
X156388454Y-73653526D01*
X156389500Y-73669595D01*
X156389500Y-73903330D01*
X156389499Y-73903348D01*
X156389499Y-73910943D01*
X156389499Y-74069057D01*
X156395911Y-74092989D01*
X156396453Y-74095385D01*
X156399500Y-74122706D01*
X156399500Y-90413330D01*
X156399499Y-90413348D01*
X156399499Y-90579054D01*
X156399498Y-90579054D01*
X156434614Y-90710109D01*
X156440423Y-90731785D01*
X156462335Y-90769737D01*
X156519480Y-90868716D01*
X156631284Y-90980520D01*
X156631285Y-90980521D01*
X156663276Y-91012512D01*
X156665425Y-91014660D01*
X156698911Y-91075983D01*
X156699362Y-91078151D01*
X156730261Y-91233491D01*
X156730264Y-91233501D01*
X156790602Y-91379172D01*
X156790609Y-91379185D01*
X156878210Y-91510288D01*
X156878213Y-91510292D01*
X156989707Y-91621786D01*
X156989711Y-91621789D01*
X157120814Y-91709390D01*
X157120827Y-91709397D01*
X157241489Y-91759376D01*
X157266503Y-91769737D01*
X157391331Y-91794567D01*
X157421153Y-91800499D01*
X157421156Y-91800500D01*
X157421158Y-91800500D01*
X157578844Y-91800500D01*
X157578845Y-91800499D01*
X157733497Y-91769737D01*
X157789182Y-91746670D01*
X157858651Y-91739202D01*
X157921130Y-91770477D01*
X157924315Y-91773550D01*
X161227139Y-95076375D01*
X161227141Y-95076376D01*
X161227145Y-95076379D01*
X161346750Y-95145432D01*
X161364071Y-95155432D01*
X161516798Y-95196356D01*
X161516800Y-95196356D01*
X161682509Y-95196356D01*
X161682525Y-95196355D01*
X162500499Y-95196355D01*
X162509184Y-95198905D01*
X162518143Y-95197617D01*
X162542183Y-95208595D01*
X162567538Y-95216040D01*
X162573464Y-95222879D01*
X162581700Y-95226640D01*
X162595990Y-95248875D01*
X162613293Y-95268844D01*
X162615580Y-95279358D01*
X162619475Y-95285418D01*
X162624497Y-95320346D01*
X162624499Y-95320352D01*
X162624499Y-95355361D01*
X162624499Y-95355363D01*
X162624500Y-95365357D01*
X162624500Y-96087026D01*
X162624499Y-96087044D01*
X162624499Y-96262742D01*
X162624500Y-96262755D01*
X162624500Y-96920939D01*
X162624499Y-96920943D01*
X162624499Y-97079057D01*
X162624500Y-97079060D01*
X162624500Y-97646138D01*
X162604815Y-97713177D01*
X162564581Y-97750637D01*
X162564769Y-97750888D01*
X162562441Y-97752630D01*
X162559932Y-97754967D01*
X162557670Y-97756202D01*
X162442455Y-97842452D01*
X162442452Y-97842455D01*
X162356206Y-97957664D01*
X162356202Y-97957671D01*
X162305908Y-98092517D01*
X162299501Y-98152116D01*
X162299500Y-98152135D01*
X162299500Y-99275500D01*
X162279815Y-99342539D01*
X162227011Y-99388294D01*
X162175500Y-99399500D01*
X159881440Y-99399500D01*
X159814401Y-99379815D01*
X159768646Y-99327011D01*
X159765258Y-99318833D01*
X159723797Y-99207671D01*
X159723793Y-99207664D01*
X159637547Y-99092455D01*
X159637544Y-99092452D01*
X159522335Y-99006206D01*
X159522328Y-99006202D01*
X159387482Y-98955908D01*
X159387483Y-98955908D01*
X159327883Y-98949501D01*
X159327881Y-98949500D01*
X159327873Y-98949500D01*
X159327864Y-98949500D01*
X156732129Y-98949500D01*
X156732123Y-98949501D01*
X156672516Y-98955908D01*
X156537671Y-99006202D01*
X156537664Y-99006206D01*
X156422455Y-99092452D01*
X156422452Y-99092455D01*
X156336206Y-99207664D01*
X156336202Y-99207671D01*
X156285908Y-99342517D01*
X156279501Y-99402116D01*
X156279500Y-99402135D01*
X156279500Y-100597870D01*
X156279501Y-100597876D01*
X156285909Y-100657484D01*
X156322543Y-100755708D01*
X156327527Y-100825400D01*
X156294042Y-100886721D01*
X154756265Y-102424499D01*
X153231286Y-103949478D01*
X153231284Y-103949480D01*
X153212145Y-103968619D01*
X153193008Y-103987755D01*
X153131684Y-104021238D01*
X153061992Y-104016252D01*
X153017648Y-103987752D01*
X152879786Y-103849890D01*
X152707820Y-103724951D01*
X152707115Y-103724591D01*
X152699054Y-103720485D01*
X152648259Y-103672512D01*
X152631463Y-103604692D01*
X152653999Y-103538556D01*
X152699054Y-103499515D01*
X152707816Y-103495051D01*
X152767546Y-103451655D01*
X152879786Y-103370109D01*
X152879788Y-103370106D01*
X152879792Y-103370104D01*
X153030104Y-103219792D01*
X153030106Y-103219788D01*
X153030109Y-103219786D01*
X153155048Y-103047820D01*
X153155047Y-103047820D01*
X153155051Y-103047816D01*
X153251557Y-102858412D01*
X153317246Y-102656243D01*
X153350500Y-102446287D01*
X153350500Y-102233713D01*
X153317246Y-102023757D01*
X153251557Y-101821588D01*
X153155051Y-101632184D01*
X153155049Y-101632181D01*
X153155048Y-101632179D01*
X153030109Y-101460213D01*
X152879786Y-101309890D01*
X152707820Y-101184951D01*
X152707115Y-101184591D01*
X152699054Y-101180485D01*
X152648259Y-101132512D01*
X152631463Y-101064692D01*
X152653999Y-100998556D01*
X152699054Y-100959515D01*
X152707816Y-100955051D01*
X152773200Y-100907547D01*
X152879786Y-100830109D01*
X152879788Y-100830106D01*
X152879792Y-100830104D01*
X153030104Y-100679792D01*
X153030106Y-100679788D01*
X153030109Y-100679786D01*
X153155048Y-100507820D01*
X153155047Y-100507820D01*
X153155051Y-100507816D01*
X153251557Y-100318412D01*
X153317246Y-100116243D01*
X153350500Y-99906287D01*
X153350500Y-99693713D01*
X153317246Y-99483757D01*
X153251557Y-99281588D01*
X153155051Y-99092184D01*
X153155049Y-99092181D01*
X153155048Y-99092179D01*
X153030109Y-98920213D01*
X152879786Y-98769890D01*
X152707820Y-98644951D01*
X152707115Y-98644591D01*
X152699054Y-98640485D01*
X152648259Y-98592512D01*
X152631463Y-98524692D01*
X152653999Y-98458556D01*
X152699054Y-98419515D01*
X152707816Y-98415051D01*
X152729789Y-98399086D01*
X152873350Y-98294785D01*
X156480001Y-98294785D01*
X156480002Y-98294808D01*
X156482908Y-98319869D01*
X156482909Y-98319873D01*
X156528211Y-98422474D01*
X156528214Y-98422479D01*
X156607520Y-98501785D01*
X156607525Y-98501788D01*
X156710123Y-98547089D01*
X156735206Y-98549999D01*
X157779999Y-98549999D01*
X158280000Y-98549999D01*
X159324786Y-98549999D01*
X159324808Y-98549997D01*
X159349869Y-98547091D01*
X159349873Y-98547090D01*
X159452474Y-98501788D01*
X159452479Y-98501785D01*
X159531785Y-98422479D01*
X159531788Y-98422474D01*
X159577089Y-98319877D01*
X159577089Y-98319875D01*
X159579999Y-98294794D01*
X159580000Y-98294791D01*
X159580000Y-97950000D01*
X158280000Y-97950000D01*
X158280000Y-98549999D01*
X157779999Y-98549999D01*
X157780000Y-98549998D01*
X157780000Y-97950000D01*
X156480001Y-97950000D01*
X156480001Y-98294785D01*
X152873350Y-98294785D01*
X152879786Y-98290109D01*
X152879788Y-98290106D01*
X152879792Y-98290104D01*
X153030104Y-98139792D01*
X153030106Y-98139788D01*
X153030109Y-98139786D01*
X153084899Y-98064371D01*
X153155051Y-97967816D01*
X153221081Y-97838226D01*
X153251554Y-97778417D01*
X153251557Y-97778412D01*
X153317246Y-97576243D01*
X153350500Y-97366287D01*
X153350500Y-97153713D01*
X153342817Y-97105205D01*
X156480000Y-97105205D01*
X156480000Y-97450000D01*
X157780000Y-97450000D01*
X158280000Y-97450000D01*
X159579999Y-97450000D01*
X159579999Y-97105214D01*
X159579997Y-97105191D01*
X159577091Y-97080130D01*
X159577090Y-97080126D01*
X159531788Y-96977525D01*
X159531785Y-96977520D01*
X159452479Y-96898214D01*
X159452474Y-96898211D01*
X159349876Y-96852910D01*
X159324794Y-96850000D01*
X158280000Y-96850000D01*
X158280000Y-97450000D01*
X157780000Y-97450000D01*
X157780000Y-96850000D01*
X156735214Y-96850000D01*
X156735191Y-96850002D01*
X156710130Y-96852908D01*
X156710126Y-96852909D01*
X156607525Y-96898211D01*
X156607520Y-96898214D01*
X156528214Y-96977520D01*
X156528211Y-96977525D01*
X156482910Y-97080122D01*
X156482910Y-97080124D01*
X156480000Y-97105205D01*
X153342817Y-97105205D01*
X153317246Y-96943757D01*
X153251557Y-96741588D01*
X153155051Y-96552184D01*
X153155049Y-96552181D01*
X153155048Y-96552179D01*
X153030109Y-96380213D01*
X152879786Y-96229890D01*
X152707820Y-96104951D01*
X152707115Y-96104591D01*
X152699054Y-96100485D01*
X152648259Y-96052512D01*
X152631463Y-95984692D01*
X152653999Y-95918556D01*
X152699054Y-95879515D01*
X152707816Y-95875051D01*
X152750261Y-95844213D01*
X152879786Y-95750109D01*
X152879788Y-95750106D01*
X152879792Y-95750104D01*
X153030104Y-95599792D01*
X153030106Y-95599788D01*
X153030109Y-95599786D01*
X153155048Y-95427820D01*
X153155047Y-95427820D01*
X153155051Y-95427816D01*
X153251557Y-95238412D01*
X153317246Y-95036243D01*
X153350500Y-94826287D01*
X153350500Y-94613713D01*
X153317246Y-94403757D01*
X153251557Y-94201588D01*
X153155051Y-94012184D01*
X153155049Y-94012181D01*
X153155048Y-94012179D01*
X153030109Y-93840213D01*
X152879786Y-93689890D01*
X152707820Y-93564951D01*
X152707115Y-93564591D01*
X152699054Y-93560485D01*
X152648259Y-93512512D01*
X152631463Y-93444692D01*
X152653999Y-93378556D01*
X152699054Y-93339515D01*
X152707816Y-93335051D01*
X152752872Y-93302316D01*
X152879786Y-93210109D01*
X152879788Y-93210106D01*
X152879792Y-93210104D01*
X153030104Y-93059792D01*
X153030106Y-93059788D01*
X153030109Y-93059786D01*
X153155048Y-92887820D01*
X153155047Y-92887820D01*
X153155051Y-92887816D01*
X153251557Y-92698412D01*
X153317246Y-92496243D01*
X153350500Y-92286287D01*
X153350500Y-92073713D01*
X153317246Y-91863757D01*
X153251557Y-91661588D01*
X153155051Y-91472184D01*
X153155049Y-91472181D01*
X153155048Y-91472179D01*
X153030109Y-91300213D01*
X152879786Y-91149890D01*
X152707820Y-91024951D01*
X152707115Y-91024591D01*
X152699054Y-91020485D01*
X152648259Y-90972512D01*
X152631463Y-90904692D01*
X152653999Y-90838556D01*
X152699054Y-90799515D01*
X152707816Y-90795051D01*
X152794898Y-90731783D01*
X152879786Y-90670109D01*
X152879788Y-90670106D01*
X152879792Y-90670104D01*
X153030104Y-90519792D01*
X153030106Y-90519788D01*
X153030109Y-90519786D01*
X153155048Y-90347820D01*
X153155047Y-90347820D01*
X153155051Y-90347816D01*
X153251557Y-90158412D01*
X153317246Y-89956243D01*
X153350500Y-89746287D01*
X153350500Y-89533713D01*
X153317246Y-89323757D01*
X153251557Y-89121588D01*
X153155051Y-88932184D01*
X153155049Y-88932181D01*
X153155048Y-88932179D01*
X153030109Y-88760213D01*
X152879786Y-88609890D01*
X152707820Y-88484951D01*
X152707115Y-88484591D01*
X152699054Y-88480485D01*
X152648259Y-88432512D01*
X152631463Y-88364692D01*
X152653999Y-88298556D01*
X152699054Y-88259515D01*
X152707816Y-88255051D01*
X152729789Y-88239086D01*
X152879786Y-88130109D01*
X152879788Y-88130106D01*
X152879792Y-88130104D01*
X153030104Y-87979792D01*
X153030106Y-87979788D01*
X153030109Y-87979786D01*
X153155048Y-87807820D01*
X153155047Y-87807820D01*
X153155051Y-87807816D01*
X153251557Y-87618412D01*
X153317246Y-87416243D01*
X153350500Y-87206287D01*
X153350500Y-86993713D01*
X153317246Y-86783757D01*
X153303506Y-86741473D01*
X153301512Y-86671635D01*
X153333755Y-86615478D01*
X153858506Y-86090728D01*
X153858511Y-86090724D01*
X153868714Y-86080520D01*
X153868716Y-86080520D01*
X153980520Y-85968716D01*
X154059577Y-85831784D01*
X154100500Y-85679057D01*
X154100500Y-84300096D01*
X154120185Y-84233057D01*
X154136815Y-84212419D01*
X154488404Y-83860829D01*
X154488409Y-83860826D01*
X154498612Y-83850622D01*
X154498614Y-83850622D01*
X154610418Y-83738818D01*
X154672502Y-83631284D01*
X154689475Y-83601887D01*
X154730398Y-83449160D01*
X154730398Y-83291045D01*
X154730398Y-81800098D01*
X154736866Y-81778069D01*
X154738815Y-81755193D01*
X154747487Y-81741896D01*
X154750083Y-81733059D01*
X154756148Y-81724448D01*
X154761041Y-81718092D01*
X154844732Y-81634402D01*
X154898318Y-81541588D01*
X154923789Y-81497471D01*
X154964713Y-81344743D01*
X154964713Y-81186629D01*
X154964713Y-81179034D01*
X154964712Y-81179016D01*
X154964712Y-79465785D01*
X154984397Y-79398746D01*
X155001031Y-79378104D01*
X155016923Y-79362212D01*
X155079047Y-79300088D01*
X155158104Y-79163156D01*
X155172003Y-79111284D01*
X155199028Y-79010430D01*
X155199028Y-78852316D01*
X155199028Y-78844721D01*
X155199027Y-78844703D01*
X155199027Y-77300099D01*
X155218712Y-77233060D01*
X155235346Y-77212418D01*
X155245027Y-77202737D01*
X155313362Y-77134402D01*
X155364235Y-77046287D01*
X155368707Y-77038542D01*
X155368708Y-77038540D01*
X155392416Y-76997476D01*
X155392417Y-76997475D01*
X155392417Y-76997473D01*
X155392419Y-76997471D01*
X155433343Y-76844743D01*
X155433343Y-76686629D01*
X155433343Y-76679034D01*
X155433342Y-76679016D01*
X155433342Y-74800097D01*
X155453027Y-74733058D01*
X155469661Y-74712416D01*
X155635790Y-74546287D01*
X155878505Y-74303572D01*
X155878510Y-74303568D01*
X155888713Y-74293364D01*
X155888715Y-74293364D01*
X156000519Y-74181560D01*
X156079576Y-74044628D01*
X156115258Y-73911460D01*
X156120499Y-73891902D01*
X156120499Y-73733787D01*
X156120499Y-73644720D01*
X156128160Y-73618627D01*
X156132376Y-73591764D01*
X156137859Y-73585597D01*
X156140184Y-73577681D01*
X156160732Y-73559875D01*
X156178805Y-73539552D01*
X156186752Y-73537328D01*
X156192988Y-73531926D01*
X156219901Y-73528056D01*
X156246092Y-73520730D01*
X156253979Y-73523156D01*
G37*
%TD.AperFunction*%
%TA.AperFunction,Conductor*%
G36*
X150667833Y-68306236D02*
G01*
X150742517Y-68334091D01*
X150742516Y-68334091D01*
X150748525Y-68334737D01*
X150802127Y-68340500D01*
X152397872Y-68340499D01*
X152397874Y-68340498D01*
X152397887Y-68340498D01*
X152426803Y-68337388D01*
X152432244Y-68336804D01*
X152501003Y-68349208D01*
X152552141Y-68396818D01*
X152569500Y-68460093D01*
X152569500Y-69577870D01*
X152569501Y-69577876D01*
X152575908Y-69637483D01*
X152626202Y-69772328D01*
X152626206Y-69772335D01*
X152712452Y-69887544D01*
X152712455Y-69887547D01*
X152827665Y-69973794D01*
X152827667Y-69973794D01*
X152827669Y-69973796D01*
X152838830Y-69977958D01*
X152894764Y-70019826D01*
X152919184Y-70085289D01*
X152919500Y-70094141D01*
X152919500Y-70586000D01*
X152899815Y-70653039D01*
X152847011Y-70698794D01*
X152795500Y-70710000D01*
X152250000Y-70710000D01*
X152250000Y-71426988D01*
X152192993Y-71394075D01*
X152065826Y-71360000D01*
X151934174Y-71360000D01*
X151807007Y-71394075D01*
X151750000Y-71426988D01*
X151750000Y-70710000D01*
X151105214Y-70710000D01*
X151105191Y-70710002D01*
X151080130Y-70712908D01*
X151080126Y-70712909D01*
X150977525Y-70758211D01*
X150977520Y-70758214D01*
X150898214Y-70837520D01*
X150898211Y-70837525D01*
X150852910Y-70940122D01*
X150852910Y-70940124D01*
X150850000Y-70965205D01*
X150850000Y-71610000D01*
X151566988Y-71610000D01*
X151534075Y-71667007D01*
X151500000Y-71794174D01*
X151500000Y-71925826D01*
X151534075Y-72052993D01*
X151566988Y-72110000D01*
X150850001Y-72110000D01*
X150850001Y-72754785D01*
X150850002Y-72754808D01*
X150852908Y-72779869D01*
X150852909Y-72779873D01*
X150898211Y-72882474D01*
X150898214Y-72882479D01*
X150977520Y-72961785D01*
X150977525Y-72961788D01*
X151080123Y-73007089D01*
X151105206Y-73009999D01*
X151236799Y-73009999D01*
X151303839Y-73029683D01*
X151349594Y-73082487D01*
X151359538Y-73151645D01*
X151330514Y-73215201D01*
X151296148Y-73242098D01*
X151296336Y-73242404D01*
X151293674Y-73244034D01*
X151293111Y-73244476D01*
X151292182Y-73244949D01*
X151120213Y-73369890D01*
X150969890Y-73520213D01*
X150844951Y-73692179D01*
X150748445Y-73881582D01*
X150748443Y-73881587D01*
X150748443Y-73881588D01*
X150742429Y-73900094D01*
X150702992Y-73957768D01*
X150638633Y-73984965D01*
X150569787Y-73973050D01*
X150518312Y-73925805D01*
X150500500Y-73861773D01*
X150500500Y-68422418D01*
X150520185Y-68355379D01*
X150572989Y-68309624D01*
X150642147Y-68299680D01*
X150667833Y-68306236D01*
G37*
%TD.AperFunction*%
%TA.AperFunction,Conductor*%
G36*
X168423412Y-50019685D02*
G01*
X168469167Y-50072489D01*
X168479111Y-50141647D01*
X168450086Y-50205203D01*
X168444054Y-50211681D01*
X168398214Y-50257520D01*
X168398211Y-50257525D01*
X168352910Y-50360122D01*
X168352910Y-50360124D01*
X168350000Y-50385205D01*
X168350000Y-50630000D01*
X169276000Y-50630000D01*
X169343039Y-50649685D01*
X169388794Y-50702489D01*
X169400000Y-50754000D01*
X169400000Y-51006000D01*
X169380315Y-51073039D01*
X169327511Y-51118794D01*
X169276000Y-51130000D01*
X168350000Y-51130000D01*
X168350000Y-51237306D01*
X168330315Y-51304345D01*
X168300316Y-51336568D01*
X168292453Y-51342454D01*
X168292452Y-51342455D01*
X168206206Y-51457664D01*
X168206202Y-51457671D01*
X168155908Y-51592517D01*
X168149501Y-51652116D01*
X168149500Y-51652135D01*
X168149500Y-51949900D01*
X168140854Y-51979343D01*
X168134332Y-52009326D01*
X168130577Y-52014341D01*
X168129815Y-52016939D01*
X168113182Y-52037581D01*
X167985338Y-52165426D01*
X167924015Y-52198911D01*
X167921848Y-52199362D01*
X167766508Y-52230261D01*
X167766498Y-52230264D01*
X167620827Y-52290602D01*
X167620814Y-52290609D01*
X167489711Y-52378210D01*
X167489707Y-52378213D01*
X167378213Y-52489707D01*
X167378210Y-52489711D01*
X167290609Y-52620814D01*
X167290602Y-52620827D01*
X167230264Y-52766498D01*
X167230261Y-52766510D01*
X167199500Y-52921153D01*
X167199500Y-53078846D01*
X167230261Y-53233489D01*
X167230264Y-53233501D01*
X167290602Y-53379172D01*
X167290609Y-53379185D01*
X167325304Y-53431109D01*
X167346182Y-53497786D01*
X167327698Y-53565167D01*
X167325304Y-53568891D01*
X167290609Y-53620814D01*
X167290602Y-53620827D01*
X167230264Y-53766498D01*
X167230261Y-53766510D01*
X167199500Y-53921153D01*
X167199500Y-54078846D01*
X167230261Y-54233489D01*
X167230264Y-54233501D01*
X167290602Y-54379172D01*
X167290609Y-54379185D01*
X167378210Y-54510288D01*
X167378213Y-54510292D01*
X167489707Y-54621786D01*
X167527289Y-54646898D01*
X167572093Y-54700511D01*
X167580800Y-54769836D01*
X167550645Y-54832863D01*
X167527289Y-54853102D01*
X167489707Y-54878213D01*
X167378213Y-54989707D01*
X167378210Y-54989711D01*
X167290609Y-55120814D01*
X167290602Y-55120827D01*
X167230264Y-55266498D01*
X167230261Y-55266510D01*
X167199500Y-55421153D01*
X167199500Y-55578846D01*
X167230261Y-55733489D01*
X167230264Y-55733501D01*
X167290602Y-55879172D01*
X167290609Y-55879185D01*
X167378210Y-56010288D01*
X167378213Y-56010292D01*
X167489707Y-56121786D01*
X167527289Y-56146898D01*
X167572093Y-56200511D01*
X167580800Y-56269836D01*
X167550645Y-56332863D01*
X167527289Y-56353102D01*
X167489707Y-56378213D01*
X167378213Y-56489707D01*
X167378210Y-56489711D01*
X167290609Y-56620814D01*
X167290602Y-56620827D01*
X167230264Y-56766498D01*
X167230261Y-56766510D01*
X167199500Y-56921153D01*
X167199500Y-57078846D01*
X167230261Y-57233489D01*
X167230264Y-57233501D01*
X167290602Y-57379172D01*
X167290609Y-57379185D01*
X167325304Y-57431109D01*
X167346182Y-57497786D01*
X167327698Y-57565167D01*
X167325304Y-57568891D01*
X167290609Y-57620814D01*
X167290602Y-57620827D01*
X167230264Y-57766498D01*
X167230261Y-57766510D01*
X167199500Y-57921153D01*
X167199500Y-58078846D01*
X167230261Y-58233489D01*
X167230264Y-58233501D01*
X167290602Y-58379172D01*
X167290609Y-58379185D01*
X167378210Y-58510288D01*
X167378213Y-58510292D01*
X167489707Y-58621786D01*
X167489710Y-58621788D01*
X167489711Y-58621789D01*
X167515219Y-58638833D01*
X167527289Y-58646898D01*
X167572093Y-58700511D01*
X167580800Y-58769836D01*
X167550645Y-58832863D01*
X167527289Y-58853102D01*
X167489707Y-58878213D01*
X167378213Y-58989707D01*
X167378210Y-58989711D01*
X167290609Y-59120814D01*
X167290602Y-59120827D01*
X167230264Y-59266498D01*
X167230261Y-59266510D01*
X167199500Y-59421153D01*
X167199500Y-59578846D01*
X167230261Y-59733489D01*
X167230264Y-59733501D01*
X167290602Y-59879172D01*
X167290609Y-59879185D01*
X167325304Y-59931109D01*
X167346182Y-59997786D01*
X167327698Y-60065167D01*
X167325304Y-60068891D01*
X167290609Y-60120814D01*
X167290602Y-60120827D01*
X167230264Y-60266498D01*
X167230261Y-60266510D01*
X167199500Y-60421153D01*
X167199500Y-60578846D01*
X167230261Y-60733489D01*
X167230264Y-60733501D01*
X167290602Y-60879172D01*
X167290609Y-60879185D01*
X167378210Y-61010288D01*
X167378213Y-61010292D01*
X167489707Y-61121786D01*
X167527289Y-61146898D01*
X167572093Y-61200511D01*
X167580800Y-61269836D01*
X167550645Y-61332863D01*
X167527289Y-61353102D01*
X167489707Y-61378213D01*
X167378213Y-61489707D01*
X167378210Y-61489711D01*
X167290609Y-61620814D01*
X167290602Y-61620827D01*
X167230264Y-61766498D01*
X167230261Y-61766510D01*
X167199500Y-61921153D01*
X167199500Y-62078846D01*
X167230261Y-62233489D01*
X167230264Y-62233501D01*
X167290602Y-62379172D01*
X167290609Y-62379185D01*
X167325304Y-62431109D01*
X167346182Y-62497786D01*
X167327698Y-62565167D01*
X167325304Y-62568891D01*
X167290609Y-62620814D01*
X167290602Y-62620827D01*
X167230264Y-62766498D01*
X167230261Y-62766510D01*
X167199500Y-62921153D01*
X167199500Y-63078846D01*
X167230261Y-63233489D01*
X167230264Y-63233501D01*
X167290602Y-63379172D01*
X167290609Y-63379185D01*
X167378210Y-63510288D01*
X167378213Y-63510292D01*
X167489707Y-63621786D01*
X167527289Y-63646898D01*
X167572093Y-63700511D01*
X167580800Y-63769836D01*
X167550645Y-63832863D01*
X167527289Y-63853102D01*
X167489707Y-63878213D01*
X167378213Y-63989707D01*
X167378210Y-63989711D01*
X167290609Y-64120814D01*
X167290602Y-64120827D01*
X167230264Y-64266498D01*
X167230261Y-64266510D01*
X167199500Y-64421153D01*
X167199500Y-64578846D01*
X167230261Y-64733489D01*
X167230264Y-64733501D01*
X167290602Y-64879172D01*
X167290609Y-64879185D01*
X167325304Y-64931109D01*
X167346182Y-64997786D01*
X167327698Y-65065167D01*
X167325304Y-65068891D01*
X167290609Y-65120814D01*
X167290602Y-65120827D01*
X167230264Y-65266498D01*
X167230261Y-65266510D01*
X167199500Y-65421153D01*
X167199500Y-65578846D01*
X167230261Y-65733489D01*
X167230264Y-65733501D01*
X167290602Y-65879172D01*
X167290609Y-65879185D01*
X167325304Y-65931109D01*
X167346182Y-65997786D01*
X167327698Y-66065167D01*
X167325304Y-66068891D01*
X167290609Y-66120814D01*
X167290602Y-66120827D01*
X167230264Y-66266498D01*
X167230261Y-66266510D01*
X167199500Y-66421153D01*
X167199500Y-66421158D01*
X167199500Y-66578842D01*
X167199500Y-66578844D01*
X167199499Y-66578844D01*
X167211925Y-66641308D01*
X167205698Y-66710900D01*
X167162835Y-66766077D01*
X167096945Y-66789322D01*
X167090308Y-66789500D01*
X163362117Y-66789500D01*
X163295078Y-66769815D01*
X163249323Y-66717011D01*
X163247556Y-66712952D01*
X163209397Y-66620827D01*
X163209390Y-66620814D01*
X163121789Y-66489711D01*
X163121786Y-66489707D01*
X163010292Y-66378213D01*
X163010288Y-66378210D01*
X162879185Y-66290609D01*
X162879172Y-66290602D01*
X162733501Y-66230264D01*
X162733489Y-66230261D01*
X162578845Y-66199500D01*
X162578842Y-66199500D01*
X162421158Y-66199500D01*
X162421155Y-66199500D01*
X162266510Y-66230261D01*
X162266498Y-66230264D01*
X162120827Y-66290602D01*
X162120814Y-66290609D01*
X161989711Y-66378210D01*
X161989707Y-66378213D01*
X161878213Y-66489707D01*
X161878210Y-66489711D01*
X161790609Y-66620814D01*
X161790602Y-66620827D01*
X161730264Y-66766498D01*
X161730261Y-66766510D01*
X161699500Y-66921153D01*
X161699500Y-67078846D01*
X161730261Y-67233489D01*
X161730264Y-67233501D01*
X161782914Y-67360610D01*
X161790383Y-67430079D01*
X161759108Y-67492558D01*
X161699018Y-67528210D01*
X161655103Y-67531352D01*
X161644690Y-67530233D01*
X161637873Y-67529500D01*
X161637870Y-67529500D01*
X160642129Y-67529500D01*
X160642123Y-67529501D01*
X160582518Y-67535908D01*
X160548331Y-67548659D01*
X160483114Y-67554529D01*
X160472123Y-67552558D01*
X160427483Y-67535909D01*
X160367873Y-67529500D01*
X160343531Y-67529500D01*
X160332673Y-67527553D01*
X160310885Y-67516675D01*
X160287520Y-67509815D01*
X160280183Y-67501348D01*
X160270161Y-67496345D01*
X160257711Y-67475414D01*
X160241765Y-67457011D01*
X160240170Y-67445923D01*
X160234444Y-67436295D01*
X160235287Y-67411958D01*
X160231821Y-67387853D01*
X160236549Y-67375512D01*
X160236863Y-67366467D01*
X160243918Y-67356281D01*
X160251457Y-67336609D01*
X160264012Y-67317818D01*
X160279438Y-67294732D01*
X160339781Y-67149050D01*
X160370544Y-66994395D01*
X160370544Y-66836711D01*
X160370544Y-66836708D01*
X160370543Y-66836706D01*
X160356580Y-66766510D01*
X160339781Y-66682056D01*
X160322903Y-66641308D01*
X160279441Y-66536380D01*
X160279434Y-66536367D01*
X160191833Y-66405264D01*
X160191830Y-66405260D01*
X160080336Y-66293766D01*
X160080332Y-66293763D01*
X159949229Y-66206162D01*
X159949216Y-66206155D01*
X159803545Y-66145817D01*
X159803535Y-66145814D01*
X159648193Y-66114914D01*
X159586282Y-66082529D01*
X159584704Y-66080978D01*
X159262081Y-65758355D01*
X159262079Y-65758352D01*
X159143208Y-65639481D01*
X159143207Y-65639480D01*
X159056395Y-65589360D01*
X159056395Y-65589359D01*
X159056391Y-65589358D01*
X159006276Y-65560423D01*
X158853548Y-65519499D01*
X158695434Y-65519499D01*
X158687838Y-65519499D01*
X158687822Y-65519500D01*
X153743108Y-65519500D01*
X153676069Y-65499815D01*
X153630314Y-65447011D01*
X153620370Y-65377853D01*
X153621491Y-65371308D01*
X153622394Y-65366768D01*
X153622394Y-65209079D01*
X153622393Y-65209077D01*
X153604839Y-65120827D01*
X153591631Y-65054427D01*
X153568170Y-64997786D01*
X153531291Y-64908751D01*
X153531284Y-64908738D01*
X153443683Y-64777635D01*
X153443680Y-64777631D01*
X153332186Y-64666137D01*
X153332182Y-64666134D01*
X153204023Y-64580500D01*
X153159218Y-64526887D01*
X153150511Y-64457562D01*
X153169810Y-64408510D01*
X153234956Y-64311013D01*
X153295299Y-64165331D01*
X153326062Y-64010676D01*
X153326062Y-63852992D01*
X153326062Y-63852989D01*
X153326061Y-63852987D01*
X153322058Y-63832863D01*
X153295299Y-63698337D01*
X153234956Y-63552655D01*
X153234953Y-63552650D01*
X153234713Y-63552200D01*
X153234657Y-63551932D01*
X153232625Y-63547026D01*
X153233555Y-63546640D01*
X153220472Y-63483797D01*
X153245473Y-63418554D01*
X153256384Y-63406073D01*
X153349635Y-63312823D01*
X153437240Y-63181713D01*
X153497583Y-63036031D01*
X153528346Y-62881376D01*
X153528346Y-62723692D01*
X153528346Y-62723689D01*
X153521374Y-62688641D01*
X153527601Y-62619050D01*
X153555308Y-62576769D01*
X153621789Y-62510289D01*
X153709394Y-62379179D01*
X153769737Y-62233497D01*
X153800500Y-62078842D01*
X153800500Y-61921158D01*
X153800500Y-61921155D01*
X153800499Y-61921153D01*
X153769738Y-61766510D01*
X153769737Y-61766503D01*
X153769735Y-61766498D01*
X153709397Y-61620827D01*
X153709390Y-61620814D01*
X153621789Y-61489711D01*
X153621786Y-61489707D01*
X153510292Y-61378213D01*
X153510288Y-61378210D01*
X153379185Y-61290609D01*
X153379172Y-61290602D01*
X153233501Y-61230264D01*
X153233491Y-61230261D01*
X153122157Y-61208115D01*
X153060246Y-61175730D01*
X153025672Y-61115014D01*
X153029413Y-61045244D01*
X153070279Y-60988573D01*
X153098893Y-60971938D01*
X153129179Y-60959394D01*
X153260289Y-60871789D01*
X153371789Y-60760289D01*
X153459394Y-60629179D01*
X153519203Y-60484785D01*
X156850001Y-60484785D01*
X156850002Y-60484808D01*
X156852908Y-60509869D01*
X156852909Y-60509873D01*
X156898211Y-60612474D01*
X156898214Y-60612479D01*
X156977520Y-60691785D01*
X156977525Y-60691788D01*
X157080123Y-60737089D01*
X157105206Y-60739999D01*
X157349999Y-60739999D01*
X157850000Y-60739999D01*
X158094786Y-60739999D01*
X158094808Y-60739997D01*
X158119869Y-60737091D01*
X158119873Y-60737090D01*
X158222475Y-60691788D01*
X158229919Y-60686689D01*
X158296349Y-60665040D01*
X158363939Y-60682742D01*
X158370081Y-60686689D01*
X158377524Y-60691788D01*
X158480123Y-60737089D01*
X158505206Y-60739999D01*
X158749999Y-60739999D01*
X159250000Y-60739999D01*
X159494786Y-60739999D01*
X159494808Y-60739997D01*
X159519869Y-60737091D01*
X159519873Y-60737090D01*
X159622475Y-60691788D01*
X159629919Y-60686689D01*
X159696349Y-60665040D01*
X159763939Y-60682742D01*
X159770081Y-60686689D01*
X159777524Y-60691788D01*
X159880123Y-60737089D01*
X159905206Y-60739999D01*
X160149999Y-60739999D01*
X160650000Y-60739999D01*
X160894786Y-60739999D01*
X160894808Y-60739997D01*
X160919869Y-60737091D01*
X160919873Y-60737090D01*
X161022474Y-60691788D01*
X161022479Y-60691785D01*
X161101785Y-60612479D01*
X161101788Y-60612474D01*
X161147089Y-60509877D01*
X161147089Y-60509875D01*
X161149999Y-60484794D01*
X161150000Y-60484791D01*
X161150000Y-60240000D01*
X160650000Y-60240000D01*
X160650000Y-60739999D01*
X160149999Y-60739999D01*
X160150000Y-60739998D01*
X160150000Y-60240000D01*
X159250000Y-60240000D01*
X159250000Y-60739999D01*
X158749999Y-60739999D01*
X158750000Y-60739998D01*
X158750000Y-60240000D01*
X157850000Y-60240000D01*
X157850000Y-60739999D01*
X157349999Y-60739999D01*
X157350000Y-60739998D01*
X157350000Y-60240000D01*
X156850001Y-60240000D01*
X156850001Y-60484785D01*
X153519203Y-60484785D01*
X153519737Y-60483497D01*
X153550500Y-60328842D01*
X153550500Y-60171158D01*
X153550500Y-60171155D01*
X153550499Y-60171153D01*
X153535544Y-60095970D01*
X153519737Y-60016503D01*
X153498460Y-59965136D01*
X158175000Y-59965136D01*
X158175000Y-60014864D01*
X158194030Y-60060807D01*
X158229193Y-60095970D01*
X158275136Y-60115000D01*
X158324864Y-60115000D01*
X158370807Y-60095970D01*
X158405970Y-60060807D01*
X158425000Y-60014864D01*
X158425000Y-59965136D01*
X159575000Y-59965136D01*
X159575000Y-60014864D01*
X159594030Y-60060807D01*
X159629193Y-60095970D01*
X159675136Y-60115000D01*
X159724864Y-60115000D01*
X159770807Y-60095970D01*
X159805970Y-60060807D01*
X159825000Y-60014864D01*
X159825000Y-59965136D01*
X159805970Y-59919193D01*
X159770807Y-59884030D01*
X159724864Y-59865000D01*
X159675136Y-59865000D01*
X159629193Y-59884030D01*
X159594030Y-59919193D01*
X159575000Y-59965136D01*
X158425000Y-59965136D01*
X158405970Y-59919193D01*
X158370807Y-59884030D01*
X158324864Y-59865000D01*
X158275136Y-59865000D01*
X158229193Y-59884030D01*
X158194030Y-59919193D01*
X158175000Y-59965136D01*
X153498460Y-59965136D01*
X153484366Y-59931109D01*
X153459397Y-59870827D01*
X153459390Y-59870814D01*
X153371789Y-59739711D01*
X153371786Y-59739707D01*
X153260289Y-59628210D01*
X153210177Y-59594727D01*
X153210176Y-59594726D01*
X153189935Y-59581201D01*
X153145131Y-59527588D01*
X153141064Y-59495205D01*
X156850000Y-59495205D01*
X156850000Y-59740000D01*
X157350000Y-59740000D01*
X160650000Y-59740000D01*
X161149999Y-59740000D01*
X161149999Y-59495214D01*
X161149997Y-59495191D01*
X161147091Y-59470130D01*
X161147090Y-59470126D01*
X161101788Y-59367524D01*
X161096689Y-59360081D01*
X161075040Y-59293651D01*
X161092742Y-59226061D01*
X161096689Y-59219919D01*
X161101788Y-59212475D01*
X161147089Y-59109877D01*
X161147089Y-59109875D01*
X161149999Y-59084794D01*
X161150000Y-59084791D01*
X161150000Y-58840000D01*
X160650000Y-58840000D01*
X160650000Y-59740000D01*
X157350000Y-59740000D01*
X157350000Y-59265136D01*
X157475000Y-59265136D01*
X157475000Y-59314864D01*
X157494030Y-59360807D01*
X157529193Y-59395970D01*
X157575136Y-59415000D01*
X157624864Y-59415000D01*
X157670807Y-59395970D01*
X157705970Y-59360807D01*
X157725000Y-59314864D01*
X157725000Y-59289999D01*
X157882842Y-59289999D01*
X158300000Y-59707157D01*
X158717157Y-59290000D01*
X158692293Y-59265136D01*
X158875000Y-59265136D01*
X158875000Y-59314864D01*
X158894030Y-59360807D01*
X158929193Y-59395970D01*
X158975136Y-59415000D01*
X159024864Y-59415000D01*
X159070807Y-59395970D01*
X159105970Y-59360807D01*
X159125000Y-59314864D01*
X159125000Y-59289999D01*
X159282842Y-59289999D01*
X159700000Y-59707157D01*
X160117157Y-59290000D01*
X160092293Y-59265136D01*
X160275000Y-59265136D01*
X160275000Y-59314864D01*
X160294030Y-59360807D01*
X160329193Y-59395970D01*
X160375136Y-59415000D01*
X160424864Y-59415000D01*
X160470807Y-59395970D01*
X160505970Y-59360807D01*
X160525000Y-59314864D01*
X160525000Y-59265136D01*
X160505970Y-59219193D01*
X160470807Y-59184030D01*
X160424864Y-59165000D01*
X160375136Y-59165000D01*
X160329193Y-59184030D01*
X160294030Y-59219193D01*
X160275000Y-59265136D01*
X160092293Y-59265136D01*
X159830542Y-59003385D01*
X159830541Y-59003385D01*
X159703477Y-58876319D01*
X159703475Y-58876316D01*
X159700001Y-58872842D01*
X159550583Y-59022257D01*
X159550579Y-59022263D01*
X159282842Y-59289999D01*
X159125000Y-59289999D01*
X159125000Y-59265136D01*
X159105970Y-59219193D01*
X159070807Y-59184030D01*
X159024864Y-59165000D01*
X158975136Y-59165000D01*
X158929193Y-59184030D01*
X158894030Y-59219193D01*
X158875000Y-59265136D01*
X158692293Y-59265136D01*
X158430541Y-59003384D01*
X158300000Y-58872842D01*
X158150583Y-59022257D01*
X158150579Y-59022263D01*
X157882842Y-59289999D01*
X157725000Y-59289999D01*
X157725000Y-59265136D01*
X157705970Y-59219193D01*
X157670807Y-59184030D01*
X157624864Y-59165000D01*
X157575136Y-59165000D01*
X157529193Y-59184030D01*
X157494030Y-59219193D01*
X157475000Y-59265136D01*
X157350000Y-59265136D01*
X157350000Y-58840000D01*
X156850001Y-58840000D01*
X156850001Y-59084785D01*
X156850002Y-59084808D01*
X156852908Y-59109869D01*
X156852909Y-59109873D01*
X156898213Y-59212480D01*
X156903312Y-59219923D01*
X156924959Y-59286354D01*
X156907254Y-59353944D01*
X156903312Y-59360077D01*
X156898213Y-59367519D01*
X156852910Y-59470122D01*
X156852910Y-59470124D01*
X156850000Y-59495205D01*
X153141064Y-59495205D01*
X153136424Y-59458263D01*
X153166579Y-59395236D01*
X153171129Y-59390435D01*
X153184007Y-59377558D01*
X153271612Y-59246448D01*
X153331955Y-59100766D01*
X153362718Y-58946111D01*
X153362718Y-58788427D01*
X153362718Y-58786672D01*
X153382403Y-58719633D01*
X153417828Y-58683570D01*
X153472711Y-58646898D01*
X153510289Y-58621789D01*
X153566942Y-58565136D01*
X158175000Y-58565136D01*
X158175000Y-58614864D01*
X158194030Y-58660807D01*
X158229193Y-58695970D01*
X158275136Y-58715000D01*
X158324864Y-58715000D01*
X158370807Y-58695970D01*
X158405970Y-58660807D01*
X158425000Y-58614864D01*
X158425000Y-58565136D01*
X159575000Y-58565136D01*
X159575000Y-58614864D01*
X159594030Y-58660807D01*
X159629193Y-58695970D01*
X159675136Y-58715000D01*
X159724864Y-58715000D01*
X159770807Y-58695970D01*
X159805970Y-58660807D01*
X159825000Y-58614864D01*
X159825000Y-58565136D01*
X159805970Y-58519193D01*
X159770807Y-58484030D01*
X159724864Y-58465000D01*
X159675136Y-58465000D01*
X159629193Y-58484030D01*
X159594030Y-58519193D01*
X159575000Y-58565136D01*
X158425000Y-58565136D01*
X158405970Y-58519193D01*
X158370807Y-58484030D01*
X158324864Y-58465000D01*
X158275136Y-58465000D01*
X158229193Y-58484030D01*
X158194030Y-58519193D01*
X158175000Y-58565136D01*
X153566942Y-58565136D01*
X153621789Y-58510289D01*
X153709394Y-58379179D01*
X153709395Y-58379176D01*
X153709397Y-58379173D01*
X153758706Y-58260128D01*
X153802546Y-58205724D01*
X153825815Y-58193019D01*
X153944860Y-58143710D01*
X153944863Y-58143708D01*
X153944866Y-58143707D01*
X153989411Y-58113943D01*
X156850000Y-58113943D01*
X156850000Y-58340000D01*
X157350000Y-58340000D01*
X160650000Y-58340000D01*
X161149999Y-58340000D01*
X161149999Y-58095214D01*
X161149997Y-58095191D01*
X161147091Y-58070130D01*
X161147090Y-58070126D01*
X161101788Y-57967524D01*
X161096689Y-57960081D01*
X161075040Y-57893651D01*
X161092742Y-57826061D01*
X161096689Y-57819919D01*
X161101788Y-57812475D01*
X161147089Y-57709877D01*
X161147089Y-57709875D01*
X161149999Y-57684794D01*
X161150000Y-57684791D01*
X161150000Y-57440000D01*
X160650000Y-57440000D01*
X160650000Y-58340000D01*
X157350000Y-58340000D01*
X157350000Y-57865136D01*
X157475000Y-57865136D01*
X157475000Y-57914864D01*
X157494030Y-57960807D01*
X157529193Y-57995970D01*
X157575136Y-58015000D01*
X157624864Y-58015000D01*
X157670807Y-57995970D01*
X157705970Y-57960807D01*
X157725000Y-57914864D01*
X157725000Y-57889999D01*
X157882842Y-57889999D01*
X158300000Y-58307157D01*
X158717157Y-57890000D01*
X158692293Y-57865136D01*
X158875000Y-57865136D01*
X158875000Y-57914864D01*
X158894030Y-57960807D01*
X158929193Y-57995970D01*
X158975136Y-58015000D01*
X159024864Y-58015000D01*
X159070807Y-57995970D01*
X159105970Y-57960807D01*
X159125000Y-57914864D01*
X159125000Y-57889999D01*
X159282842Y-57889999D01*
X159700000Y-58307157D01*
X160117157Y-57890000D01*
X160092293Y-57865136D01*
X160275000Y-57865136D01*
X160275000Y-57914864D01*
X160294030Y-57960807D01*
X160329193Y-57995970D01*
X160375136Y-58015000D01*
X160424864Y-58015000D01*
X160470807Y-57995970D01*
X160505970Y-57960807D01*
X160525000Y-57914864D01*
X160525000Y-57865136D01*
X160505970Y-57819193D01*
X160470807Y-57784030D01*
X160424864Y-57765000D01*
X160375136Y-57765000D01*
X160329193Y-57784030D01*
X160294030Y-57819193D01*
X160275000Y-57865136D01*
X160092293Y-57865136D01*
X159830542Y-57603385D01*
X159830541Y-57603385D01*
X159703477Y-57476319D01*
X159703475Y-57476316D01*
X159700001Y-57472842D01*
X159550583Y-57622257D01*
X159550579Y-57622263D01*
X159282842Y-57889999D01*
X159125000Y-57889999D01*
X159125000Y-57865136D01*
X159105970Y-57819193D01*
X159070807Y-57784030D01*
X159024864Y-57765000D01*
X158975136Y-57765000D01*
X158929193Y-57784030D01*
X158894030Y-57819193D01*
X158875000Y-57865136D01*
X158692293Y-57865136D01*
X158430541Y-57603384D01*
X158300000Y-57472842D01*
X158150583Y-57622257D01*
X158150579Y-57622263D01*
X157882842Y-57889999D01*
X157725000Y-57889999D01*
X157725000Y-57865136D01*
X157705970Y-57819193D01*
X157670807Y-57784030D01*
X157624864Y-57765000D01*
X157575136Y-57765000D01*
X157529193Y-57784030D01*
X157494030Y-57819193D01*
X157475000Y-57865136D01*
X157350000Y-57865136D01*
X157350000Y-57440000D01*
X156850001Y-57440000D01*
X156850001Y-57684785D01*
X156850002Y-57684808D01*
X156852908Y-57709869D01*
X156852909Y-57709873D01*
X156898213Y-57812480D01*
X156903312Y-57819923D01*
X156905285Y-57825980D01*
X156909796Y-57830483D01*
X156915980Y-57858800D01*
X156924959Y-57886354D01*
X156923344Y-57892518D01*
X156924704Y-57898744D01*
X156917230Y-57933238D01*
X156850000Y-58113943D01*
X153989411Y-58113943D01*
X154075976Y-58056102D01*
X154075979Y-58056099D01*
X154128135Y-58003944D01*
X154187473Y-57944605D01*
X154187476Y-57944602D01*
X154275081Y-57813492D01*
X154335424Y-57667810D01*
X154366187Y-57513155D01*
X154366187Y-57355471D01*
X154366187Y-57355468D01*
X154366186Y-57355466D01*
X154341925Y-57233501D01*
X154335424Y-57200816D01*
X154320645Y-57165136D01*
X158175000Y-57165136D01*
X158175000Y-57214864D01*
X158194030Y-57260807D01*
X158229193Y-57295970D01*
X158275136Y-57315000D01*
X158324864Y-57315000D01*
X158370807Y-57295970D01*
X158405970Y-57260807D01*
X158425000Y-57214864D01*
X158425000Y-57165136D01*
X159575000Y-57165136D01*
X159575000Y-57214864D01*
X159594030Y-57260807D01*
X159629193Y-57295970D01*
X159675136Y-57315000D01*
X159724864Y-57315000D01*
X159770807Y-57295970D01*
X159805970Y-57260807D01*
X159825000Y-57214864D01*
X159825000Y-57165136D01*
X159805970Y-57119193D01*
X159770807Y-57084030D01*
X159724864Y-57065000D01*
X159675136Y-57065000D01*
X159629193Y-57084030D01*
X159594030Y-57119193D01*
X159575000Y-57165136D01*
X158425000Y-57165136D01*
X158405970Y-57119193D01*
X158370807Y-57084030D01*
X158324864Y-57065000D01*
X158275136Y-57065000D01*
X158229193Y-57084030D01*
X158194030Y-57119193D01*
X158175000Y-57165136D01*
X154320645Y-57165136D01*
X154284903Y-57078846D01*
X154275084Y-57055140D01*
X154275077Y-57055127D01*
X154187476Y-56924024D01*
X154187473Y-56924020D01*
X154075979Y-56812526D01*
X154049341Y-56794727D01*
X154049339Y-56794725D01*
X153944872Y-56724922D01*
X153944859Y-56724915D01*
X153873132Y-56695205D01*
X156850000Y-56695205D01*
X156850000Y-56940000D01*
X157350000Y-56940000D01*
X157850000Y-56940000D01*
X158750000Y-56940000D01*
X159250000Y-56940000D01*
X160150000Y-56940000D01*
X160650000Y-56940000D01*
X161149999Y-56940000D01*
X161149999Y-56695214D01*
X161149997Y-56695191D01*
X161147091Y-56670130D01*
X161147090Y-56670126D01*
X161101788Y-56567525D01*
X161101785Y-56567520D01*
X161022479Y-56488214D01*
X161022474Y-56488211D01*
X160919876Y-56442910D01*
X160894794Y-56440000D01*
X160650000Y-56440000D01*
X160650000Y-56940000D01*
X160150000Y-56940000D01*
X160150000Y-56440000D01*
X159905214Y-56440000D01*
X159905191Y-56440002D01*
X159880130Y-56442908D01*
X159880126Y-56442909D01*
X159777519Y-56488213D01*
X159770077Y-56493312D01*
X159703646Y-56514959D01*
X159636056Y-56497254D01*
X159629923Y-56493312D01*
X159622480Y-56488213D01*
X159519876Y-56442910D01*
X159494794Y-56440000D01*
X159250000Y-56440000D01*
X159250000Y-56940000D01*
X158750000Y-56940000D01*
X158750000Y-56440000D01*
X158505214Y-56440000D01*
X158505191Y-56440002D01*
X158480130Y-56442908D01*
X158480126Y-56442909D01*
X158377519Y-56488213D01*
X158370077Y-56493312D01*
X158303646Y-56514959D01*
X158236056Y-56497254D01*
X158229923Y-56493312D01*
X158222480Y-56488213D01*
X158119876Y-56442910D01*
X158094794Y-56440000D01*
X157850000Y-56440000D01*
X157850000Y-56940000D01*
X157350000Y-56940000D01*
X157350000Y-56440000D01*
X157105214Y-56440000D01*
X157105191Y-56440002D01*
X157080130Y-56442908D01*
X157080126Y-56442909D01*
X156977525Y-56488211D01*
X156977520Y-56488214D01*
X156898214Y-56567520D01*
X156898211Y-56567525D01*
X156852910Y-56670122D01*
X156852910Y-56670124D01*
X156850000Y-56695205D01*
X153873132Y-56695205D01*
X153799188Y-56664577D01*
X153799176Y-56664574D01*
X153644532Y-56633813D01*
X153644529Y-56633813D01*
X153534410Y-56633813D01*
X153504969Y-56625168D01*
X153474983Y-56618645D01*
X153469967Y-56614890D01*
X153467371Y-56614128D01*
X153446729Y-56597494D01*
X153283740Y-56434505D01*
X153250255Y-56373182D01*
X153255239Y-56303490D01*
X153297111Y-56247557D01*
X153323969Y-56232263D01*
X153379172Y-56209397D01*
X153379172Y-56209396D01*
X153379179Y-56209394D01*
X153510289Y-56121789D01*
X153621789Y-56010289D01*
X153709394Y-55879179D01*
X153769737Y-55733497D01*
X153800500Y-55578842D01*
X153800500Y-55421158D01*
X153800500Y-55421155D01*
X153800499Y-55421153D01*
X153769738Y-55266510D01*
X153769737Y-55266503D01*
X153769735Y-55266498D01*
X153709397Y-55120827D01*
X153709391Y-55120816D01*
X153666187Y-55056156D01*
X153645310Y-54989479D01*
X153658586Y-54934399D01*
X153657798Y-54934073D01*
X153659873Y-54929062D01*
X153659935Y-54928807D01*
X153660125Y-54928448D01*
X153660129Y-54928444D01*
X153720472Y-54782762D01*
X153751235Y-54628107D01*
X153751235Y-54470423D01*
X153751235Y-54470420D01*
X153751234Y-54470418D01*
X153720472Y-54315768D01*
X153686396Y-54233501D01*
X153660132Y-54170092D01*
X153660125Y-54170079D01*
X153572525Y-54038977D01*
X153572524Y-54038976D01*
X153477885Y-53944337D01*
X153458182Y-53918659D01*
X153431255Y-53872019D01*
X153060128Y-53500892D01*
X153026643Y-53439569D01*
X153031627Y-53369877D01*
X153073499Y-53313944D01*
X153123618Y-53291594D01*
X153177075Y-53280959D01*
X153233497Y-53269737D01*
X153379179Y-53209394D01*
X153510289Y-53121789D01*
X153621789Y-53010289D01*
X153709394Y-52879179D01*
X153769737Y-52733497D01*
X153800500Y-52578842D01*
X153800500Y-52421158D01*
X153800500Y-52421155D01*
X153800499Y-52421153D01*
X153774531Y-52290606D01*
X153769737Y-52266503D01*
X153769735Y-52266498D01*
X153709397Y-52120827D01*
X153709390Y-52120814D01*
X153621789Y-51989711D01*
X153621786Y-51989707D01*
X153510292Y-51878213D01*
X153510288Y-51878210D01*
X153379185Y-51790609D01*
X153379172Y-51790602D01*
X153233501Y-51730264D01*
X153233491Y-51730261D01*
X153078151Y-51699362D01*
X153038037Y-51683767D01*
X153025243Y-51676007D01*
X153018716Y-51669480D01*
X152931904Y-51619360D01*
X152881785Y-51590423D01*
X152881784Y-51590422D01*
X152874746Y-51586359D01*
X152876050Y-51584098D01*
X152831731Y-51548370D01*
X152817417Y-51521000D01*
X152793798Y-51457673D01*
X152793793Y-51457664D01*
X152707548Y-51342457D01*
X152707546Y-51342454D01*
X152707542Y-51342451D01*
X152707540Y-51342449D01*
X152699686Y-51336569D01*
X152657816Y-51280635D01*
X152649999Y-51237303D01*
X152650000Y-51130000D01*
X151724000Y-51130000D01*
X151656961Y-51110315D01*
X151611206Y-51057511D01*
X151600000Y-51006000D01*
X151600000Y-50754000D01*
X151619685Y-50686961D01*
X151672489Y-50641206D01*
X151724000Y-50630000D01*
X152649999Y-50630000D01*
X152649999Y-50385214D01*
X152649997Y-50385191D01*
X152647091Y-50360130D01*
X152647090Y-50360126D01*
X152601788Y-50257525D01*
X152601785Y-50257520D01*
X152555946Y-50211681D01*
X152522461Y-50150358D01*
X152527445Y-50080666D01*
X152569317Y-50024733D01*
X152634781Y-50000316D01*
X152643627Y-50000000D01*
X168356373Y-50000000D01*
X168423412Y-50019685D01*
G37*
%TD.AperFunction*%
%TA.AperFunction,Conductor*%
G36*
X156736362Y-67125333D02*
G01*
X156753515Y-67125143D01*
X156769189Y-67134972D01*
X156786941Y-67140185D01*
X156807582Y-67156818D01*
X156851284Y-67200520D01*
X156851286Y-67200521D01*
X156851290Y-67200524D01*
X156908402Y-67233497D01*
X156988216Y-67279577D01*
X157011165Y-67285726D01*
X157070824Y-67322089D01*
X157101354Y-67384935D01*
X157093060Y-67454311D01*
X157048576Y-67508189D01*
X156982024Y-67529465D01*
X156979072Y-67529500D01*
X156832130Y-67529500D01*
X156832123Y-67529501D01*
X156772518Y-67535908D01*
X156738331Y-67548659D01*
X156734476Y-67548934D01*
X156731252Y-67551058D01*
X156699917Y-67551405D01*
X156668639Y-67553642D01*
X156665247Y-67551790D01*
X156661387Y-67551833D01*
X156651669Y-67548659D01*
X156617480Y-67535908D01*
X156617482Y-67535908D01*
X156557883Y-67529501D01*
X156557881Y-67529500D01*
X156557873Y-67529500D01*
X156557864Y-67529500D01*
X155562129Y-67529500D01*
X155562123Y-67529501D01*
X155502518Y-67535908D01*
X155468331Y-67548659D01*
X155398639Y-67553642D01*
X155381669Y-67548659D01*
X155347480Y-67535908D01*
X155347482Y-67535908D01*
X155287883Y-67529501D01*
X155287881Y-67529500D01*
X155287873Y-67529500D01*
X155287864Y-67529500D01*
X154292129Y-67529500D01*
X154292123Y-67529501D01*
X154232518Y-67535908D01*
X154198331Y-67548659D01*
X154128639Y-67553642D01*
X154111669Y-67548659D01*
X154077480Y-67535908D01*
X154077482Y-67535908D01*
X154017883Y-67529501D01*
X154017881Y-67529500D01*
X154017873Y-67529500D01*
X154017865Y-67529500D01*
X153734098Y-67529500D01*
X153667059Y-67509815D01*
X153621304Y-67457011D01*
X153611360Y-67387853D01*
X153640385Y-67324297D01*
X153646403Y-67317833D01*
X153807419Y-67156817D01*
X153868741Y-67123334D01*
X153895099Y-67120500D01*
X156719902Y-67120500D01*
X156736362Y-67125333D01*
G37*
%TD.AperFunction*%
%TD*%
M02*
